<?xml version="1.0" encoding="UTF-8" standalone="no"?>
<svg
   xmlns:dc="http://purl.org/dc/elements/1.1/"
   xmlns:cc="http://creativecommons.org/ns#"
   xmlns:rdf="http://www.w3.org/1999/02/22-rdf-syntax-ns#"
   xmlns:svg="http://www.w3.org/2000/svg"
   xmlns="http://www.w3.org/2000/svg"
   viewBox="0 0 6633.3335 6633.3335"
   height="6633.3335"
   width="6633.3335"
   xml:space="preserve"
   id="svg2"
   version="1.1"><metadata
     id="metadata8"><rdf:RDF><cc:Work
         rdf:about=""><dc:format>image/svg+xml</dc:format><dc:type
           rdf:resource="http://purl.org/dc/dcmitype/StillImage" /></cc:Work></rdf:RDF></metadata><defs
     id="defs6"><radialGradient
       id="radialGradient22"
       spreadMethod="pad"
       gradientTransform="matrix(40092.8,0,0,-35807,24875,24875)"
       gradientUnits="userSpaceOnUse"
       r="1"
       cy="0"
       cx="0"
       fy="0"
       fx="0"><stop
         id="stop16"
         offset="0"
         style="stop-opacity:1;stop-color:#ffffff" /><stop
         id="stop18"
         offset="0.44103163"
         style="stop-opacity:1;stop-color:#ffffff" /><stop
         id="stop20"
         offset="1"
         style="stop-opacity:1;stop-color:#a7a5a6" /></radialGradient><clipPath
       id="clipPath32"
       clipPathUnits="userSpaceOnUse"><path
         id="path30"
         d="m 35677.8,10640.1 c 0,-846.36 -4827.1,-1532.44 -10781.7,-1532.44 -5954.5,0 -10781.7,686.08 -10781.7,1532.44 0,846.3 4827.2,1532.4 10781.7,1532.4 5954.6,0 10781.7,-686.1 10781.7,-1532.4 z" /></clipPath></defs><g
     transform="matrix(1.3333333,0,0,-1.3333333,0,6633.3333)"
     id="g10"><g
       transform="scale(0.1)"
       id="g12"><g
         transform="scale(3.05215)"
         id="g14"><path
           id="path24"
           style="fill:url(#radialGradient22);fill-opacity:1;fill-rule:nonzero;stroke:none"
           d="M 16300,0 H 0 V 16300 H 16300 V 0" /></g><g
         id="g26"><g
           clip-path="url(#clipPath32)"
           id="g28"><g
             transform="scale(2.18882)"
             id="g34"><path
               id="path36"
               style="fill:#ffffff;fill-opacity:1;fill-rule:nonzero;stroke:none"
               d="M 6448.42,5561.22 H 16300 V 4160.99 H 6448.42 v 1400.23" /></g><g
             transform="scale(1.99979)"
             id="g38"><path
               id="path40"
               style="fill:#ffffff;fill-opacity:1;fill-rule:nonzero;stroke:none"
               d="m 16300,5320.61 c 0,-382.91 -1724,-693.32 -3850.6,-693.32 -2126.7,0 -3850.63,310.41 -3850.63,693.32 0,382.91 1723.93,693.32 3850.63,693.32 2126.6,0 3850.6,-310.41 3850.6,-693.32" /></g><g
             transform="scale(1.99713)"
             id="g42"><path
               id="path44"
               style="fill:#ffffff;fill-opacity:1;fill-rule:nonzero;stroke:none"
               d="m 16300,5327.68 c 0,-381.26 -1716.6,-690.34 -3834.1,-690.34 -2117.5,0 -3834.04,309.08 -3834.04,690.34 0,381.27 1716.54,690.34 3834.04,690.34 2117.5,0 3834.1,-309.07 3834.1,-690.34" /></g><g
             transform="scale(1.99448)"
             id="g46"><path
               id="path48"
               style="fill:#ffffff;fill-opacity:1;fill-rule:nonzero;stroke:none"
               d="m 16300,5334.77 c 0,-379.61 -1709.1,-687.35 -3817.5,-687.35 -2108.3,0 -3817.47,307.74 -3817.47,687.35 0,379.62 1709.17,687.36 3817.47,687.36 2108.4,0 3817.5,-307.74 3817.5,-687.36" /></g><g
             transform="scale(1.99182)"
             id="g50"><path
               id="path52"
               style="fill:#ffffff;fill-opacity:1;fill-rule:nonzero;stroke:none"
               d="m 16300,5341.88 c 0,-377.96 -1701.7,-684.36 -3800.9,-684.36 -2099.1,0 -3800.8,306.4 -3800.8,684.36 0,377.96 1701.7,684.36 3800.8,684.36 2099.2,0 3800.9,-306.4 3800.9,-684.36" /></g><g
             transform="scale(1.98917)"
             id="g54"><path
               id="path56"
               style="fill:#ffffff;fill-opacity:1;fill-rule:nonzero;stroke:none"
               d="m 16300,5349.01 c 0,-376.31 -1694.2,-681.36 -3784.2,-681.36 -2089.9,0 -3784.15,305.05 -3784.15,681.36 0,376.31 1694.25,681.36 3784.15,681.36 2090,0 3784.2,-305.05 3784.2,-681.36" /></g><g
             transform="scale(1.98652)"
             id="g58"><path
               id="path60"
               style="fill:#fefefe;fill-opacity:1;fill-rule:nonzero;stroke:none"
               d="m 16300,5356.15 c 0,-374.63 -1686.7,-678.34 -3767.5,-678.34 -2080.7,0 -3767.4,303.71 -3767.4,678.34 0,374.65 1686.7,678.35 3767.4,678.35 2080.8,0 3767.5,-303.7 3767.5,-678.35" /></g><g
             transform="scale(1.98386)"
             id="g62"><path
               id="path64"
               style="fill:#fefefe;fill-opacity:1;fill-rule:nonzero;stroke:none"
               d="m 16300,5363.32 c 0,-372.97 -1679.2,-675.33 -3750.7,-675.33 -2071.4,0 -3750.67,302.36 -3750.67,675.33 0,372.98 1679.27,675.33 3750.67,675.33 2071.5,0 3750.7,-302.35 3750.7,-675.33" /></g><g
             transform="scale(1.98121)"
             id="g66"><path
               id="path68"
               style="fill:#fefefe;fill-opacity:1;fill-rule:nonzero;stroke:none"
               d="m 16300,5370.51 c 0,-371.31 -1671.7,-672.31 -3733.9,-672.31 -2062.1,0 -3733.85,301 -3733.85,672.31 0,371.3 1671.75,672.3 3733.85,672.3 2062.2,0 3733.9,-301 3733.9,-672.3" /></g><g
             transform="scale(1.97855)"
             id="g70"><path
               id="path72"
               style="fill:#fefefe;fill-opacity:1;fill-rule:nonzero;stroke:none"
               d="m 16300,5377.71 c 0,-369.63 -1664.2,-669.27 -3717,-669.27 -2052.9,0 -3717.04,299.64 -3717.04,669.27 0,369.63 1664.14,669.27 3717.04,669.27 2052.8,0 3717,-299.64 3717,-669.27" /></g><g
             transform="scale(1.9759)"
             id="g74"><path
               id="path76"
               style="fill:#fefefe;fill-opacity:1;fill-rule:nonzero;stroke:none"
               d="m 16300,5384.93 c 0,-367.94 -1656.6,-666.22 -3700.1,-666.22 -2043.5,0 -3700.14,298.28 -3700.14,666.22 0,367.95 1656.64,666.22 3700.14,666.22 2043.5,0 3700.1,-298.27 3700.1,-666.22" /></g><g
             transform="scale(1.97325)"
             id="g78"><path
               id="path80"
               style="fill:#fdfdfd;fill-opacity:1;fill-rule:nonzero;stroke:none"
               d="m 16300,5392.17 c 0,-366.26 -1649,-663.17 -3683.2,-663.17 -2034.1,0 -3683.14,296.91 -3683.14,663.17 0,366.27 1649.04,663.18 3683.14,663.18 2034.2,0 3683.2,-296.91 3683.2,-663.18" /></g><g
             transform="scale(1.97059)"
             id="g82"><path
               id="path84"
               style="fill:#fdfdfd;fill-opacity:1;fill-rule:nonzero;stroke:none"
               d="m 16300,5399.44 c 0,-364.57 -1641.4,-660.11 -3666.2,-660.11 -2024.8,0 -3666.16,295.54 -3666.16,660.11 0,364.57 1641.36,660.11 3666.16,660.11 2024.8,0 3666.2,-295.54 3666.2,-660.11" /></g><g
             transform="scale(1.96794)"
             id="g86"><path
               id="path88"
               style="fill:#fdfdfd;fill-opacity:1;fill-rule:nonzero;stroke:none"
               d="m 16300,5406.72 c 0,-362.88 -1633.8,-657.04 -3649.1,-657.04 -2015.4,0 -3649.18,294.16 -3649.18,657.04 0,362.88 1633.78,657.04 3649.18,657.04 2015.3,0 3649.1,-294.16 3649.1,-657.04" /></g><g
             transform="scale(1.96528)"
             id="g90"><path
               id="path92"
               style="fill:#fdfdfd;fill-opacity:1;fill-rule:nonzero;stroke:none"
               d="m 16300,5414.02 c 0,-361.17 -1626.1,-653.97 -3632.1,-653.97 -2005.9,0 -3632.01,292.8 -3632.01,653.97 0,361.18 1626.11,653.97 3632.01,653.97 2006,0 3632.1,-292.79 3632.1,-653.97" /></g><g
             transform="scale(1.96263)"
             id="g94"><path
               id="path96"
               style="fill:#fcfcfc;fill-opacity:1;fill-rule:nonzero;stroke:none"
               d="m 16300,5421.34 c 0,-359.47 -1618.5,-650.88 -3614.9,-650.88 -1996.5,0 -3614.95,291.41 -3614.95,650.88 0,359.47 1618.45,650.89 3614.95,650.89 1996.4,0 3614.9,-291.42 3614.9,-650.89" /></g><g
             transform="scale(1.95998)"
             id="g98"><path
               id="path100"
               style="fill:#fcfcfc;fill-opacity:1;fill-rule:nonzero;stroke:none"
               d="m 16300,5428.68 c 0,-357.76 -1610.8,-647.79 -3597.7,-647.79 -1987,0 -3597.79,290.03 -3597.79,647.79 0,357.77 1610.79,647.8 3597.79,647.8 1986.9,0 3597.7,-290.03 3597.7,-647.8" /></g><g
             transform="scale(1.95732)"
             id="g102"><path
               id="path104"
               style="fill:#fcfcfc;fill-opacity:1;fill-rule:nonzero;stroke:none"
               d="m 16300,5436.04 c 0,-356.04 -1603.1,-644.68 -3580.5,-644.68 -1977.5,0 -3580.55,288.64 -3580.55,644.68 0,356.06 1603.05,644.7 3580.55,644.7 1977.4,0 3580.5,-288.64 3580.5,-644.7" /></g><g
             transform="scale(1.95467)"
             id="g106"><path
               id="path108"
               style="fill:#fbfbfb;fill-opacity:1;fill-rule:nonzero;stroke:none"
               d="m 16300,5443.43 c 0,-354.34 -1595.3,-641.58 -3563.3,-641.58 -1967.9,0 -3563.2,287.24 -3563.2,641.58 0,354.33 1595.3,641.58 3563.2,641.58 1968,0 3563.3,-287.25 3563.3,-641.58" /></g><g
             transform="scale(1.95201)"
             id="g110"><path
               id="path112"
               style="fill:#fbfbfb;fill-opacity:1;fill-rule:nonzero;stroke:none"
               d="m 16300,5450.83 c 0,-352.61 -1587.6,-638.47 -3545.9,-638.47 -1958.4,0 -3545.97,285.86 -3545.97,638.47 0,352.61 1587.57,638.46 3545.97,638.46 1958.3,0 3545.9,-285.85 3545.9,-638.46" /></g><g
             transform="scale(1.94936)"
             id="g114"><path
               id="path116"
               style="fill:#fbfbfb;fill-opacity:1;fill-rule:nonzero;stroke:none"
               d="m 16300,5458.25 c 0,-350.89 -1579.8,-635.34 -3528.6,-635.34 -1948.7,0 -3528.54,284.45 -3528.54,635.34 0,350.89 1579.84,635.33 3528.54,635.33 1948.8,0 3528.6,-284.44 3528.6,-635.33" /></g><g
             transform="scale(1.94671)"
             id="g118"><path
               id="path120"
               style="fill:#fafafa;fill-opacity:1;fill-rule:nonzero;stroke:none"
               d="m 16300,5465.69 c 0,-349.15 -1572,-632.2 -3511.2,-632.2 -1939.1,0 -3511.12,283.05 -3511.12,632.2 0,349.15 1572.02,632.2 3511.12,632.2 1939.2,0 3511.2,-283.05 3511.2,-632.2" /></g><g
             transform="scale(1.94405)"
             id="g122"><path
               id="path124"
               style="fill:#fafafa;fill-opacity:1;fill-rule:nonzero;stroke:none"
               d="m 16300,5473.15 c 0,-347.42 -1564.2,-629.06 -3493.7,-629.06 -1929.5,0 -3493.7,281.64 -3493.7,629.06 0,347.42 1564.2,629.06 3493.7,629.06 1929.5,0 3493.7,-281.64 3493.7,-629.06" /></g><g
             transform="scale(1.9414)"
             id="g126"><path
               id="path128"
               style="fill:#faf9f9;fill-opacity:1;fill-rule:nonzero;stroke:none"
               d="m 16300,5480.63 c 0,-345.67 -1556.3,-625.9 -3476.2,-625.9 -1919.8,0 -3476.19,280.23 -3476.19,625.9 0,345.68 1556.39,625.91 3476.19,625.91 1919.9,0 3476.2,-280.23 3476.2,-625.91" /></g><g
             transform="scale(1.93874)"
             id="g130"><path
               id="path132"
               style="fill:#f9f9f9;fill-opacity:1;fill-rule:nonzero;stroke:none"
               d="m 16300,5488.14 c 0,-343.94 -1548.5,-622.75 -3458.6,-622.75 -1910.2,0 -3458.67,278.81 -3458.67,622.75 0,343.93 1548.47,622.74 3458.67,622.74 1910.1,0 3458.6,-278.81 3458.6,-622.74" /></g><g
             transform="scale(1.93609)"
             id="g134"><path
               id="path136"
               style="fill:#f9f9f9;fill-opacity:1;fill-rule:nonzero;stroke:none"
               d="m 16300,5495.66 c 0,-342.18 -1540.6,-619.57 -3441,-619.57 -1900.5,0 -3441.07,277.39 -3441.07,619.57 0,342.18 1540.57,619.58 3441.07,619.58 1900.4,0 3441,-277.4 3441,-619.58" /></g><g
             transform="scale(1.93344)"
             id="g138"><path
               id="path140"
               style="fill:#f8f8f8;fill-opacity:1;fill-rule:nonzero;stroke:none"
               d="m 16300,5503.2 c 0,-340.42 -1532.7,-616.39 -3423.4,-616.39 -1890.7,0 -3423.36,275.97 -3423.36,616.39 0,340.43 1532.66,616.4 3423.36,616.4 1890.7,0 3423.4,-275.97 3423.4,-616.4" /></g><g
             transform="scale(1.93078)"
             id="g142"><path
               id="path144"
               style="fill:#f8f8f8;fill-opacity:1;fill-rule:nonzero;stroke:none"
               d="m 16300,5510.77 c 0,-338.66 -1524.8,-613.21 -3405.7,-613.21 -1880.9,0 -3405.67,274.55 -3405.67,613.21 0,338.66 1524.77,613.21 3405.67,613.21 1880.9,0 3405.7,-274.55 3405.7,-613.21" /></g><g
             transform="scale(1.92813)"
             id="g146"><path
               id="path148"
               style="fill:#f7f7f7;fill-opacity:1;fill-rule:nonzero;stroke:none"
               d="m 16300,5518.35 c 0,-336.9 -1516.8,-610.01 -3387.9,-610.01 -1871.1,0 -3387.97,273.11 -3387.97,610.01 0,336.91 1516.87,610.02 3387.97,610.02 1871.1,0 3387.9,-273.11 3387.9,-610.02" /></g><g
             transform="scale(1.92547)"
             id="g150"><path
               id="path152"
               style="fill:#f7f7f7;fill-opacity:1;fill-rule:nonzero;stroke:none"
               d="m 16300,5525.96 c 0,-335.13 -1508.9,-606.81 -3370.1,-606.81 -1861.3,0 -3370.17,271.68 -3370.17,606.81 0,335.13 1508.87,606.81 3370.17,606.81 1861.2,0 3370.1,-271.68 3370.1,-606.81" /></g><g
             transform="scale(1.92282)"
             id="g154"><path
               id="path156"
               style="fill:#f6f6f6;fill-opacity:1;fill-rule:nonzero;stroke:none"
               d="m 16300,5533.59 c 0,-333.36 -1500.9,-603.6 -3352.3,-603.6 -1851.4,0 -3352.28,270.24 -3352.28,603.6 0,333.35 1500.88,603.59 3352.28,603.59 1851.4,0 3352.3,-270.24 3352.3,-603.59" /></g><g
             transform="scale(1.92017)"
             id="g158"><path
               id="path160"
               style="fill:#f6f6f6;fill-opacity:1;fill-rule:nonzero;stroke:none"
               d="m 16300,5541.24 c 0,-331.58 -1492.9,-600.38 -3334.4,-600.38 -1841.5,0 -3334.39,268.8 -3334.39,600.38 0,331.57 1492.89,600.37 3334.39,600.37 1841.5,0 3334.4,-268.8 3334.4,-600.37" /></g><g
             transform="scale(1.91751)"
             id="g162"><path
               id="path164"
               style="fill:#f6f5f5;fill-opacity:1;fill-rule:nonzero;stroke:none"
               d="m 16300,5548.9 c 0,-329.79 -1484.8,-597.14 -3316.4,-597.14 -1831.7,0 -3316.5,267.35 -3316.5,597.14 0,329.8 1484.8,597.15 3316.5,597.15 1831.6,0 3316.4,-267.35 3316.4,-597.15" /></g><g
             transform="scale(1.91486)"
             id="g166"><path
               id="path168"
               style="fill:#f5f5f5;fill-opacity:1;fill-rule:nonzero;stroke:none"
               d="m 16300,5556.6 c 0,-328 -1476.8,-593.9 -3298.5,-593.9 -1821.6,0 -3298.4,265.9 -3298.4,593.9 0,328 1476.8,593.9 3298.4,593.9 1821.7,0 3298.5,-265.9 3298.5,-593.9" /></g><g
             transform="scale(1.9122)"
             id="g170"><path
               id="path172"
               style="fill:#f5f4f4;fill-opacity:1;fill-rule:nonzero;stroke:none"
               d="m 16300,5564.31 c 0,-326.21 -1468.7,-590.65 -3280.4,-590.65 -1811.7,0 -3280.41,264.44 -3280.41,590.65 0,326.21 1468.71,590.65 3280.41,590.65 1811.7,0 3280.4,-264.44 3280.4,-590.65" /></g><g
             transform="scale(1.90955)"
             id="g174"><path
               id="path176"
               style="fill:#f4f4f4;fill-opacity:1;fill-rule:nonzero;stroke:none"
               d="m 16300,5572.04 c 0,-324.4 -1460.6,-587.39 -3262.3,-587.39 -1801.7,0 -3262.32,262.99 -3262.32,587.39 0,324.41 1460.62,587.4 3262.32,587.4 1801.7,0 3262.3,-262.99 3262.3,-587.4" /></g><g
             transform="scale(1.90689)"
             id="g178"><path
               id="path180"
               style="fill:#f3f3f3;fill-opacity:1;fill-rule:nonzero;stroke:none"
               d="m 16300,5579.8 c 0,-322.61 -1452.5,-584.13 -3244.2,-584.13 -1791.7,0 -3244.13,261.52 -3244.13,584.13 0,322.61 1452.43,584.12 3244.13,584.12 1791.7,0 3244.2,-261.51 3244.2,-584.12" /></g><g
             transform="scale(1.90424)"
             id="g182"><path
               id="path184"
               style="fill:#f3f3f3;fill-opacity:1;fill-rule:nonzero;stroke:none"
               d="m 16300,5587.57 c 0,-320.79 -1444.3,-580.85 -3226,-580.85 -1781.6,0 -3225.94,260.06 -3225.94,580.85 0,320.8 1444.34,580.86 3225.94,580.86 1781.7,0 3226,-260.06 3226,-580.86" /></g><g
             transform="scale(1.90159)"
             id="g186"><path
               id="path188"
               style="fill:#f2f2f2;fill-opacity:1;fill-rule:nonzero;stroke:none"
               d="m 16300,5595.37 c 0,-318.98 -1436.1,-577.56 -3207.7,-577.56 -1771.6,0 -3207.74,258.58 -3207.74,577.56 0,318.99 1436.14,577.57 3207.74,577.57 1771.6,0 3207.7,-258.58 3207.7,-577.57" /></g><g
             transform="scale(1.89893)"
             id="g190"><path
               id="path192"
               style="fill:#f2f2f2;fill-opacity:1;fill-rule:nonzero;stroke:none"
               d="m 16300,5603.19 c 0,-317.16 -1428,-574.27 -3189.4,-574.27 -1761.5,0 -3189.45,257.11 -3189.45,574.27 0,317.16 1427.95,574.27 3189.45,574.27 1761.4,0 3189.4,-257.11 3189.4,-574.27" /></g><g
             transform="scale(1.89628)"
             id="g194"><path
               id="path196"
               style="fill:#f1f1f1;fill-opacity:1;fill-rule:nonzero;stroke:none"
               d="m 16300,5611.03 c 0,-315.33 -1419.7,-570.96 -3171.1,-570.96 -1751.3,0 -3171.05,255.63 -3171.05,570.96 0,315.34 1419.75,570.97 3171.05,570.97 1751.4,0 3171.1,-255.63 3171.1,-570.97" /></g><g
             transform="scale(1.89362)"
             id="g198"><path
               id="path200"
               style="fill:#f1f1f1;fill-opacity:1;fill-rule:nonzero;stroke:none"
               d="m 16300,5618.9 c 0,-313.51 -1411.5,-567.65 -3152.7,-567.65 -1741.1,0 -3152.64,254.14 -3152.64,567.65 0,313.51 1411.54,567.65 3152.64,567.65 1741.2,0 3152.7,-254.14 3152.7,-567.65" /></g><g
             transform="scale(1.89097)"
             id="g202"><path
               id="path204"
               style="fill:#f0f0f0;fill-opacity:1;fill-rule:nonzero;stroke:none"
               d="m 16300,5626.78 c 0,-311.67 -1403.2,-564.32 -3134.2,-564.32 -1731,0 -3134.2,252.65 -3134.2,564.32 0,311.68 1403.2,564.34 3134.2,564.34 1731,0 3134.2,-252.66 3134.2,-564.34" /></g><g
             transform="scale(1.88832)"
             id="g206"><path
               id="path208"
               style="fill:#f0efef;fill-opacity:1;fill-rule:nonzero;stroke:none"
               d="m 16300,5634.69 c 0,-309.83 -1395,-561 -3115.7,-561 -1720.8,0 -3115.7,251.17 -3115.7,561 0,309.84 1394.9,561 3115.7,561 1720.7,0 3115.7,-251.16 3115.7,-561" /></g><g
             transform="scale(1.88566)"
             id="g210"><path
               id="path212"
               style="fill:#efefef;fill-opacity:1;fill-rule:nonzero;stroke:none"
               d="m 16300,5642.62 c 0,-307.98 -1386.6,-557.65 -3097.2,-557.65 -1710.5,0 -3097.1,249.67 -3097.1,557.65 0,307.99 1386.6,557.66 3097.1,557.66 1710.6,0 3097.2,-249.67 3097.2,-557.66" /></g><g
             transform="scale(1.88301)"
             id="g214"><path
               id="path216"
               style="fill:#eeeeee;fill-opacity:1;fill-rule:nonzero;stroke:none"
               d="m 16300,5650.58 c 0,-306.14 -1378.3,-554.31 -3078.5,-554.31 -1700.3,0 -3078.6,248.17 -3078.6,554.31 0,306.13 1378.3,554.31 3078.6,554.31 1700.2,0 3078.5,-248.18 3078.5,-554.31" /></g><g
             transform="scale(1.88035)"
             id="g218"><path
               id="path220"
               style="fill:#eeeeee;fill-opacity:1;fill-rule:nonzero;stroke:none"
               d="m 16300,5658.55 c 0,-304.28 -1370,-550.94 -3059.9,-550.94 -1689.9,0 -3059.9,246.66 -3059.9,550.94 0,304.29 1370,550.95 3059.9,550.95 1689.9,0 3059.9,-246.66 3059.9,-550.95" /></g><g
             transform="scale(1.8777)"
             id="g222"><path
               id="path224"
               style="fill:#ededed;fill-opacity:1;fill-rule:nonzero;stroke:none"
               d="m 16300,5666.55 c 0,-302.42 -1361.6,-547.57 -3041.2,-547.57 -1679.6,0 -3041.1,245.15 -3041.1,547.57 0,302.42 1361.5,547.58 3041.1,547.58 1679.6,0 3041.2,-245.16 3041.2,-547.58" /></g><g
             transform="scale(1.87505)"
             id="g226"><path
               id="path228"
               style="fill:#edecec;fill-opacity:1;fill-rule:nonzero;stroke:none"
               d="m 16300,5674.57 c 0,-300.55 -1353.2,-544.2 -3022.4,-544.2 -1669.2,0 -3022.4,243.65 -3022.4,544.2 0,300.55 1353.2,544.2 3022.4,544.2 1669.2,0 3022.4,-243.65 3022.4,-544.2" /></g><g
             transform="scale(1.87239)"
             id="g230"><path
               id="path232"
               style="fill:#ececec;fill-opacity:1;fill-rule:nonzero;stroke:none"
               d="m 16300,5682.61 c 0,-298.68 -1344.8,-540.8 -3003.6,-540.8 -1658.8,0 -3003.6,242.12 -3003.6,540.8 0,298.69 1344.8,540.82 3003.6,540.82 1658.8,0 3003.6,-242.13 3003.6,-540.82" /></g><g
             transform="scale(1.86974)"
             id="g234"><path
               id="path236"
               style="fill:#ebebeb;fill-opacity:1;fill-rule:nonzero;stroke:none"
               d="m 16300,5690.68 c 0,-296.8 -1336.3,-537.41 -2984.7,-537.41 -1648.4,0 -2984.7,240.61 -2984.7,537.41 0,296.8 1336.3,537.41 2984.7,537.41 1648.4,0 2984.7,-240.61 2984.7,-537.41" /></g><g
             transform="scale(1.86708)"
             id="g238"><path
               id="path240"
               style="fill:#ebeaea;fill-opacity:1;fill-rule:nonzero;stroke:none"
               d="m 16300,5698.77 c 0,-294.92 -1327.8,-534 -2965.8,-534 -1637.9,0 -2965.8,239.08 -2965.8,534 0,294.92 1327.9,534 2965.8,534 1638,0 2965.8,-239.08 2965.8,-534" /></g><g
             transform="scale(1.86443)"
             id="g242"><path
               id="path244"
               style="fill:#eaeaea;fill-opacity:1;fill-rule:nonzero;stroke:none"
               d="m 16300,5706.88 c 0,-293.03 -1319.3,-530.58 -2946.8,-530.58 -1627.5,0 -2946.8,237.55 -2946.8,530.58 0,293.04 1319.3,530.59 2946.8,530.59 1627.5,0 2946.8,-237.55 2946.8,-530.59" /></g><g
             transform="scale(1.86178)"
             id="g246"><path
               id="path248"
               style="fill:#e9e9e9;fill-opacity:1;fill-rule:nonzero;stroke:none"
               d="m 16300,5715.02 c 0,-291.14 -1310.8,-527.16 -2927.8,-527.16 -1616.9,0 -2927.7,236.02 -2927.7,527.16 0,291.14 1310.8,527.16 2927.7,527.16 1617,0 2927.8,-236.02 2927.8,-527.16" /></g><g
             transform="scale(1.85912)"
             id="g250"><path
               id="path252"
               style="fill:#e9e8e8;fill-opacity:1;fill-rule:nonzero;stroke:none"
               d="m 16300,5723.18 c 0,-289.24 -1302.3,-523.72 -2908.7,-523.72 -1606.4,0 -2908.7,234.48 -2908.7,523.72 0,289.24 1302.3,523.72 2908.7,523.72 1606.4,0 2908.7,-234.48 2908.7,-523.72" /></g><g
             transform="scale(1.85647)"
             id="g254"><path
               id="path256"
               style="fill:#e8e8e8;fill-opacity:1;fill-rule:nonzero;stroke:none"
               d="m 16300,5731.36 c 0,-287.34 -1293.7,-520.27 -2889.5,-520.27 -1595.9,0 -2889.6,232.93 -2889.6,520.27 0,287.34 1293.7,520.27 2889.6,520.27 1595.8,0 2889.5,-232.93 2889.5,-520.27" /></g><g
             transform="scale(1.85381)"
             id="g258"><path
               id="path260"
               style="fill:#e7e7e7;fill-opacity:1;fill-rule:nonzero;stroke:none"
               d="m 16300,5739.56 c 0,-285.42 -1285.1,-516.81 -2870.3,-516.81 -1585.3,0 -2870.4,231.39 -2870.4,516.81 0,285.43 1285.1,516.82 2870.4,516.82 1585.2,0 2870.3,-231.39 2870.3,-516.82" /></g><g
             transform="scale(1.85116)"
             id="g262"><path
               id="path264"
               style="fill:#e7e6e6;fill-opacity:1;fill-rule:nonzero;stroke:none"
               d="m 16300,5747.79 c 0,-283.51 -1276.5,-513.34 -2851.1,-513.34 -1574.6,0 -2851.1,229.83 -2851.1,513.34 0,283.52 1276.5,513.36 2851.1,513.36 1574.6,0 2851.1,-229.84 2851.1,-513.36" /></g><g
             transform="scale(1.84851)"
             id="g266"><path
               id="path268"
               style="fill:#e6e5e6;fill-opacity:1;fill-rule:nonzero;stroke:none"
               d="m 16300,5756.04 c 0,-281.59 -1267.8,-509.87 -2831.8,-509.87 -1563.9,0 -2831.7,228.28 -2831.7,509.87 0,281.6 1267.8,509.88 2831.7,509.88 1564,0 2831.8,-228.28 2831.8,-509.88" /></g><g
             transform="scale(1.84585)"
             id="g270"><path
               id="path272"
               style="fill:#e5e5e5;fill-opacity:1;fill-rule:nonzero;stroke:none"
               d="m 16300,5764.32 c 0,-279.67 -1259.2,-506.39 -2812.4,-506.39 -1553.3,0 -2812.4,226.72 -2812.4,506.39 0,279.67 1259.1,506.39 2812.4,506.39 1553.2,0 2812.4,-226.72 2812.4,-506.39" /></g><g
             transform="scale(1.8432)"
             id="g274"><path
               id="path276"
               style="fill:#e4e4e4;fill-opacity:1;fill-rule:nonzero;stroke:none"
               d="m 16300,5772.62 c 0,-277.73 -1250.5,-502.89 -2793,-502.89 -1542.5,0 -2793,225.16 -2793,502.89 0,277.74 1250.5,502.89 2793,502.89 1542.5,0 2793,-225.15 2793,-502.89" /></g><g
             transform="scale(1.84054)"
             id="g278"><path
               id="path280"
               style="fill:#e4e3e3;fill-opacity:1;fill-rule:nonzero;stroke:none"
               d="m 16300,5780.95 c 0,-275.81 -1241.7,-499.39 -2773.5,-499.39 -1531.8,0 -2773.5,223.58 -2773.5,499.39 0,275.8 1241.7,499.38 2773.5,499.38 1531.8,0 2773.5,-223.58 2773.5,-499.38" /></g><g
             transform="scale(1.83789)"
             id="g282"><path
               id="path284"
               style="fill:#e3e3e3;fill-opacity:1;fill-rule:nonzero;stroke:none"
               d="m 16300,5789.29 c 0,-273.85 -1233,-495.86 -2754,-495.86 -1521,0 -2754,222.01 -2754,495.86 0,273.86 1233,495.87 2754,495.87 1521,0 2754,-222.01 2754,-495.87" /></g><g
             transform="scale(1.83524)"
             id="g286"><path
               id="path288"
               style="fill:#e2e2e2;fill-opacity:1;fill-rule:nonzero;stroke:none"
               d="m 16300,5797.67 c 0,-271.92 -1224.2,-492.34 -2734.4,-492.34 -1510.1,0 -2734.4,220.42 -2734.4,492.34 0,271.91 1224.3,492.33 2734.4,492.33 1510.2,0 2734.4,-220.42 2734.4,-492.33" /></g><g
             transform="scale(1.83258)"
             id="g290"><path
               id="path292"
               style="fill:#e2e1e1;fill-opacity:1;fill-rule:nonzero;stroke:none"
               d="m 16300,5806.06 c 0,-269.95 -1215.4,-488.8 -2714.7,-488.8 -1499.3,0 -2714.8,218.85 -2714.8,488.8 0,269.96 1215.5,488.81 2714.8,488.81 1499.3,0 2714.7,-218.85 2714.7,-488.81" /></g><g
             transform="scale(1.82993)"
             id="g294"><path
               id="path296"
               style="fill:#e1e0e0;fill-opacity:1;fill-rule:nonzero;stroke:none"
               d="m 16300,5814.48 c 0,-267.99 -1206.6,-485.25 -2695,-485.25 -1488.5,0 -2695.1,217.26 -2695.1,485.25 0,268 1206.6,485.26 2695.1,485.26 1488.4,0 2695,-217.26 2695,-485.26" /></g><g
             transform="scale(1.82727)"
             id="g298"><path
               id="path300"
               style="fill:#e0dfe0;fill-opacity:1;fill-rule:nonzero;stroke:none"
               d="m 16300,5822.93 c 0,-266.03 -1197.8,-481.69 -2675.3,-481.69 -1477.5,0 -2675.3,215.66 -2675.3,481.69 0,266.03 1197.8,481.69 2675.3,481.69 1477.5,0 2675.3,-215.66 2675.3,-481.69" /></g><g
             transform="scale(1.82462)"
             id="g302"><path
               id="path304"
               style="fill:#dfdfdf;fill-opacity:1;fill-rule:nonzero;stroke:none"
               d="m 16300,5831.4 c 0,-264.06 -1188.9,-478.13 -2655.5,-478.13 -1466.5,0 -2655.4,214.07 -2655.4,478.13 0,264.07 1188.9,478.13 2655.4,478.13 1466.6,0 2655.5,-214.06 2655.5,-478.13" /></g><g
             transform="scale(1.82197)"
             id="g306"><path
               id="path308"
               style="fill:#dedede;fill-opacity:1;fill-rule:nonzero;stroke:none"
               d="m 16300,5839.89 c 0,-262.08 -1180,-474.54 -2635.6,-474.54 -1455.6,0 -2635.6,212.46 -2635.6,474.54 0,262.09 1180,474.55 2635.6,474.55 1455.6,0 2635.6,-212.46 2635.6,-474.55" /></g><g
             transform="scale(1.81931)"
             id="g310"><path
               id="path312"
               style="fill:#dedddd;fill-opacity:1;fill-rule:nonzero;stroke:none"
               d="m 16300,5848.41 c 0,-260.1 -1171.1,-470.96 -2615.6,-470.96 -1444.6,0 -2615.7,210.86 -2615.7,470.96 0,260.11 1171.1,470.96 2615.7,470.96 1444.5,0 2615.6,-210.85 2615.6,-470.96" /></g><g
             transform="scale(1.81666)"
             id="g314"><path
               id="path316"
               style="fill:#dddcdc;fill-opacity:1;fill-rule:nonzero;stroke:none"
               d="m 16300,5856.96 c 0,-258.12 -1162.1,-467.36 -2595.7,-467.36 -1433.5,0 -2595.6,209.24 -2595.6,467.36 0,258.11 1162.1,467.36 2595.6,467.36 1433.6,0 2595.7,-209.25 2595.7,-467.36" /></g><g
             transform="scale(1.814)"
             id="g318"><path
               id="path320"
               style="fill:#dcdbdc;fill-opacity:1;fill-rule:nonzero;stroke:none"
               d="m 16300,5865.53 c 0,-256.13 -1153.1,-463.75 -2575.6,-463.75 -1422.5,0 -2575.6,207.62 -2575.6,463.75 0,256.12 1153.1,463.74 2575.6,463.74 1422.5,0 2575.6,-207.62 2575.6,-463.74" /></g><g
             transform="scale(1.81135)"
             id="g322"><path
               id="path324"
               style="fill:#dbdbdb;fill-opacity:1;fill-rule:nonzero;stroke:none"
               d="m 16300,5874.12 c 0,-254.12 -1144.1,-460.13 -2555.5,-460.13 -1411.4,0 -2555.5,206.01 -2555.5,460.13 0,254.12 1144.1,460.13 2555.5,460.13 1411.4,0 2555.5,-206.01 2555.5,-460.13" /></g><g
             transform="scale(1.8087)"
             id="g326"><path
               id="path328"
               style="fill:#dadada;fill-opacity:1;fill-rule:nonzero;stroke:none"
               d="m 16300,5882.74 c 0,-252.12 -1135.1,-456.5 -2535.3,-456.5 -1400.2,0 -2535.4,204.38 -2535.4,456.5 0,252.12 1135.2,456.5 2535.4,456.5 1400.2,0 2535.3,-204.38 2535.3,-456.5" /></g><g
             transform="scale(1.80604)"
             id="g330"><path
               id="path332"
               style="fill:#dad9d9;fill-opacity:1;fill-rule:nonzero;stroke:none"
               d="m 16300,5891.39 c 0,-250.11 -1126,-452.86 -2515.1,-452.86 -1389,0 -2515.1,202.75 -2515.1,452.86 0,250.1 1126.1,452.85 2515.1,452.85 1389.1,0 2515.1,-202.75 2515.1,-452.85" /></g><g
             transform="scale(1.80339)"
             id="g334"><path
               id="path336"
               style="fill:#d9d8d8;fill-opacity:1;fill-rule:nonzero;stroke:none"
               d="m 16300,5900.06 c 0,-248.09 -1117,-449.21 -2494.8,-449.21 -1377.9,0 -2494.8,201.12 -2494.8,449.21 0,248.09 1116.9,449.2 2494.8,449.2 1377.8,0 2494.8,-201.11 2494.8,-449.2" /></g><g
             transform="scale(1.80073)"
             id="g338"><path
               id="path340"
               style="fill:#d8d7d7;fill-opacity:1;fill-rule:nonzero;stroke:none"
               d="m 16300,5908.75 c 0,-246.06 -1107.9,-445.54 -2474.5,-445.54 -1366.6,0 -2474.4,199.48 -2474.4,445.54 0,246.07 1107.8,445.54 2474.4,445.54 1366.6,0 2474.5,-199.47 2474.5,-445.54" /></g><g
             transform="scale(1.79808)"
             id="g342"><path
               id="path344"
               style="fill:#d7d6d7;fill-opacity:1;fill-rule:nonzero;stroke:none"
               d="m 16300,5917.47 c 0,-244.03 -1098.7,-441.86 -2454.1,-441.86 -1355.3,0 -2454,197.83 -2454,441.86 0,244.04 1098.7,441.87 2454,441.87 1355.4,0 2454.1,-197.83 2454.1,-441.87" /></g><g
             transform="scale(1.79543)"
             id="g346"><path
               id="path348"
               style="fill:#d6d6d6;fill-opacity:1;fill-rule:nonzero;stroke:none"
               d="m 16300,5926.22 c 0,-242 -1089.6,-438.18 -2433.6,-438.18 -1344,0 -2433.6,196.18 -2433.6,438.18 0,242 1089.6,438.18 2433.6,438.18 1344,0 2433.6,-196.18 2433.6,-438.18" /></g><g
             transform="scale(1.79277)"
             id="g350"><path
               id="path352"
               style="fill:#d5d5d5;fill-opacity:1;fill-rule:nonzero;stroke:none"
               d="m 16300,5934.99 c 0,-239.96 -1080.4,-434.48 -2413.1,-434.48 -1332.7,0 -2413,194.52 -2413,434.48 0,239.96 1080.3,434.49 2413,434.49 1332.7,0 2413.1,-194.53 2413.1,-434.49" /></g><g
             transform="scale(1.79012)"
             id="g354"><path
               id="path356"
               style="fill:#d5d4d4;fill-opacity:1;fill-rule:nonzero;stroke:none"
               d="m 16300,5943.79 c 0,-237.91 -1071.1,-430.77 -2392.5,-430.77 -1321.3,0 -2392.5,192.86 -2392.5,430.77 0,237.91 1071.2,430.78 2392.5,430.78 1321.4,0 2392.5,-192.87 2392.5,-430.78" /></g><g
             transform="scale(1.78746)"
             id="g358"><path
               id="path360"
               style="fill:#d4d3d3;fill-opacity:1;fill-rule:nonzero;stroke:none"
               d="m 16300,5952.62 c 0,-235.86 -1061.9,-427.06 -2371.8,-427.06 -1309.9,0 -2371.8,191.2 -2371.8,427.06 0,235.85 1061.9,427.06 2371.8,427.06 1309.9,0 2371.8,-191.21 2371.8,-427.06" /></g><g
             transform="scale(1.78481)"
             id="g362"><path
               id="path364"
               style="fill:#d3d2d2;fill-opacity:1;fill-rule:nonzero;stroke:none"
               d="m 16300,5961.47 c 0,-233.8 -1052.6,-423.33 -2351.1,-423.33 -1298.5,0 -2351.1,189.53 -2351.1,423.33 0,233.8 1052.6,423.33 2351.1,423.33 1298.5,0 2351.1,-189.53 2351.1,-423.33" /></g><g
             transform="scale(1.78216)"
             id="g366"><path
               id="path368"
               style="fill:#d2d1d1;fill-opacity:1;fill-rule:nonzero;stroke:none"
               d="m 16300,5970.35 c 0,-231.73 -1043.3,-419.59 -2330.3,-419.59 -1287,0 -2330.4,187.86 -2330.4,419.59 0,231.73 1043.4,419.59 2330.4,419.59 1287,0 2330.3,-187.86 2330.3,-419.59" /></g><g
             transform="scale(1.7795)"
             id="g370"><path
               id="path372"
               style="fill:#d1d0d1;fill-opacity:1;fill-rule:nonzero;stroke:none"
               d="m 16300,5979.25 c 0,-229.66 -1034,-415.83 -2309.5,-415.83 -1275.5,0 -2309.5,186.17 -2309.5,415.83 0,229.66 1034,415.84 2309.5,415.84 1275.5,0 2309.5,-186.18 2309.5,-415.84" /></g><g
             transform="scale(1.77685)"
             id="g374"><path
               id="path376"
               style="fill:#d0cfd0;fill-opacity:1;fill-rule:nonzero;stroke:none"
               d="m 16300,5988.18 c 0,-227.58 -1024.6,-412.07 -2288.6,-412.07 -1264,0 -2288.6,184.49 -2288.6,412.07 0,227.58 1024.6,412.08 2288.6,412.08 1264,0 2288.6,-184.5 2288.6,-412.08" /></g><g
             transform="scale(1.77419)"
             id="g378"><path
               id="path380"
               style="fill:#cfcfcf;fill-opacity:1;fill-rule:nonzero;stroke:none"
               d="m 16300,5997.14 c 0,-225.5 -1015.3,-408.3 -2267.6,-408.3 -1252.4,0 -2267.7,182.8 -2267.7,408.3 0,225.5 1015.3,408.3 2267.7,408.3 1252.3,0 2267.6,-182.8 2267.6,-408.3" /></g><g
             transform="scale(1.77154)"
             id="g382"><path
               id="path384"
               style="fill:#cfcece;fill-opacity:1;fill-rule:nonzero;stroke:none"
               d="m 16300,6006.13 c 0,-223.41 -1005.8,-404.52 -2246.6,-404.52 -1240.8,0 -2246.7,181.11 -2246.7,404.52 0,223.4 1005.9,404.51 2246.7,404.51 1240.8,0 2246.6,-181.11 2246.6,-404.51" /></g><g
             transform="scale(1.76889)"
             id="g386"><path
               id="path388"
               style="fill:#cecdcd;fill-opacity:1;fill-rule:nonzero;stroke:none"
               d="m 16300,6015.14 c 0,-221.31 -996.4,-400.72 -2225.5,-400.72 -1229.2,0 -2225.6,179.41 -2225.6,400.72 0,221.31 996.4,400.72 2225.6,400.72 1229.1,0 2225.5,-179.41 2225.5,-400.72" /></g><g
             transform="scale(1.76623)"
             id="g390"><path
               id="path392"
               style="fill:#cdcccc;fill-opacity:1;fill-rule:nonzero;stroke:none"
               d="m 16300,6024.17 c 0,-219.2 -986.9,-396.9 -2204.4,-396.9 -1217.4,0 -2204.4,177.7 -2204.4,396.9 0,219.21 987,396.92 2204.4,396.92 1217.5,0 2204.4,-177.71 2204.4,-396.92" /></g><g
             transform="scale(1.76358)"
             id="g394"><path
               id="path396"
               style="fill:#cccbcb;fill-opacity:1;fill-rule:nonzero;stroke:none"
               d="m 16300,6033.24 c 0,-217.1 -977.4,-393.09 -2183.2,-393.09 -1205.7,0 -2183.2,175.99 -2183.2,393.09 0,217.1 977.5,393.09 2183.2,393.09 1205.8,0 2183.2,-175.99 2183.2,-393.09" /></g><g
             transform="scale(1.76092)"
             id="g398"><path
               id="path400"
               style="fill:#cbcaca;fill-opacity:1;fill-rule:nonzero;stroke:none"
               d="m 16300,6042.33 c 0,-214.98 -967.9,-389.26 -2161.9,-389.26 -1194,0 -2161.9,174.28 -2161.9,389.26 0,214.99 967.9,389.27 2161.9,389.27 1194,0 2161.9,-174.28 2161.9,-389.27" /></g><g
             transform="scale(1.75827)"
             id="g402"><path
               id="path404"
               style="fill:#cac9c9;fill-opacity:1;fill-rule:nonzero;stroke:none"
               d="m 16300,6051.45 c 0,-212.86 -958.4,-385.41 -2140.6,-385.41 -1182.2,0 -2140.5,172.55 -2140.5,385.41 0,212.87 958.3,385.42 2140.5,385.42 1182.2,0 2140.6,-172.55 2140.6,-385.42" /></g><g
             transform="scale(1.75561)"
             id="g406"><path
               id="path408"
               style="fill:#c9c8c8;fill-opacity:1;fill-rule:nonzero;stroke:none"
               d="m 16300,6060.6 c 0,-210.73 -948.8,-381.56 -2119.2,-381.56 -1170.3,0 -2119.1,170.83 -2119.1,381.56 0,210.73 948.8,381.57 2119.1,381.57 1170.4,0 2119.2,-170.84 2119.2,-381.57" /></g><g
             transform="scale(1.75296)"
             id="g410"><path
               id="path412"
               style="fill:#c8c7c7;fill-opacity:1;fill-rule:nonzero;stroke:none"
               d="m 16300,6069.78 c 0,-208.6 -939.2,-377.7 -2097.7,-377.7 -1158.5,0 -2097.7,169.1 -2097.7,377.7 0,208.6 939.2,377.7 2097.7,377.7 1158.5,0 2097.7,-169.1 2097.7,-377.7" /></g><g
             transform="scale(1.75031)"
             id="g414"><path
               id="path416"
               style="fill:#c7c6c6;fill-opacity:1;fill-rule:nonzero;stroke:none"
               d="m 16300,6078.98 c 0,-206.45 -929.5,-373.81 -2076.1,-373.81 -1146.7,0 -2076.2,167.36 -2076.2,373.81 0,206.46 929.5,373.82 2076.2,373.82 1146.6,0 2076.1,-167.36 2076.1,-373.82" /></g><g
             transform="scale(1.74765)"
             id="g418"><path
               id="path420"
               style="fill:#c6c5c5;fill-opacity:1;fill-rule:nonzero;stroke:none"
               d="m 16300,6088.22 c 0,-204.31 -919.8,-369.94 -2054.5,-369.94 -1134.7,0 -2054.6,165.63 -2054.6,369.94 0,204.31 919.9,369.93 2054.6,369.93 1134.7,0 2054.5,-165.62 2054.5,-369.93" /></g><g
             transform="scale(1.745)"
             id="g422"><path
               id="path424"
               style="fill:#c5c4c4;fill-opacity:1;fill-rule:nonzero;stroke:none"
               d="m 16300,6097.47 c 0,-202.15 -910.2,-366.03 -2032.9,-366.03 -1122.7,0 -2032.9,163.88 -2032.9,366.03 0,202.16 910.2,366.03 2032.9,366.03 1122.7,0 2032.9,-163.87 2032.9,-366.03" /></g><g
             transform="scale(1.74235)"
             id="g426"><path
               id="path428"
               style="fill:#c4c3c3;fill-opacity:1;fill-rule:nonzero;stroke:none"
               d="m 16300,6106.76 c 0,-199.99 -900.4,-362.11 -2011.2,-362.11 -1110.7,0 -2011.1,162.12 -2011.1,362.11 0,200 900.4,362.12 2011.1,362.12 1110.8,0 2011.2,-162.12 2011.2,-362.12" /></g><g
             transform="scale(1.73969)"
             id="g430"><path
               id="path432"
               style="fill:#c3c2c2;fill-opacity:1;fill-rule:nonzero;stroke:none"
               d="m 16300,6116.08 c 0,-197.82 -890.7,-358.19 -1989.4,-358.19 -1098.6,0 -1989.3,160.37 -1989.3,358.19 0,197.82 890.7,358.19 1989.3,358.19 1098.7,0 1989.4,-160.37 1989.4,-358.19" /></g><g
             transform="scale(1.73704)"
             id="g434"><path
               id="path436"
               style="fill:#c2c1c1;fill-opacity:1;fill-rule:nonzero;stroke:none"
               d="m 16300,6125.42 c 0,-195.65 -880.9,-354.25 -1967.5,-354.25 -1086.6,0 -1967.5,158.6 -1967.5,354.25 0,195.66 880.9,354.26 1967.5,354.26 1086.6,0 1967.5,-158.6 1967.5,-354.26" /></g><g
             transform="scale(1.73438)"
             id="g438"><path
               id="path440"
               style="fill:#c1c0c0;fill-opacity:1;fill-rule:nonzero;stroke:none"
               d="m 16300,6134.8 c 0,-193.47 -871.1,-350.31 -1945.6,-350.31 -1074.5,0 -1945.5,156.84 -1945.5,350.31 0,193.46 871,350.31 1945.5,350.31 1074.5,0 1945.6,-156.85 1945.6,-350.31" /></g><g
             transform="scale(1.73173)"
             id="g442"><path
               id="path444"
               style="fill:#c0bfbf;fill-opacity:1;fill-rule:nonzero;stroke:none"
               d="m 16300,6144.2 c 0,-191.28 -861.2,-346.34 -1923.6,-346.34 -1062.3,0 -1923.5,155.06 -1923.5,346.34 0,191.28 861.2,346.34 1923.5,346.34 1062.4,0 1923.6,-155.06 1923.6,-346.34" /></g><g
             transform="scale(1.72907)"
             id="g446"><path
               id="path448"
               style="fill:#bfbebe;fill-opacity:1;fill-rule:nonzero;stroke:none"
               d="m 16300,6153.63 c 0,-189.08 -851.3,-342.37 -1901.5,-342.37 -1050.2,0 -1901.5,153.29 -1901.5,342.37 0,189.09 851.3,342.37 1901.5,342.37 1050.2,0 1901.5,-153.28 1901.5,-342.37" /></g><g
             transform="scale(1.72642)"
             id="g450"><path
               id="path452"
               style="fill:#bebdbd;fill-opacity:1;fill-rule:nonzero;stroke:none"
               d="m 16300,6163.09 c 0,-186.89 -841.4,-338.39 -1879.4,-338.39 -1037.9,0 -1879.3,151.5 -1879.3,338.39 0,186.89 841.4,338.39 1879.3,338.39 1038,0 1879.4,-151.5 1879.4,-338.39" /></g><g
             transform="scale(1.72377)"
             id="g454"><path
               id="path456"
               style="fill:#bdbcbc;fill-opacity:1;fill-rule:nonzero;stroke:none"
               d="m 16300,6172.58 c 0,-184.68 -831.5,-334.39 -1857.1,-334.39 -1025.7,0 -1857.2,149.71 -1857.2,334.39 0,184.68 831.5,334.39 1857.2,334.39 1025.6,0 1857.1,-149.71 1857.1,-334.39" /></g><g
             transform="scale(1.72111)"
             id="g458"><path
               id="path460"
               style="fill:#bcbbbb;fill-opacity:1;fill-rule:nonzero;stroke:none"
               d="m 16300,6182.1 c 0,-182.46 -821.5,-330.38 -1834.9,-330.38 -1013.4,0 -1834.9,147.92 -1834.9,330.38 0,182.47 821.5,330.38 1834.9,330.38 1013.4,0 1834.9,-147.91 1834.9,-330.38" /></g><g
             transform="scale(1.71846)"
             id="g462"><path
               id="path464"
               style="fill:#bbbaba;fill-opacity:1;fill-rule:nonzero;stroke:none"
               d="m 16300,6191.64 c 0,-180.24 -811.5,-326.35 -1812.5,-326.35 -1001.1,0 -1812.6,146.11 -1812.6,326.35 0,180.25 811.5,326.36 1812.6,326.36 1001,0 1812.5,-146.11 1812.5,-326.36" /></g><g
             transform="scale(1.7158)"
             id="g466"><path
               id="path468"
               style="fill:#bab9b9;fill-opacity:1;fill-rule:nonzero;stroke:none"
               d="m 16300,6201.22 c 0,-178.01 -801.5,-322.32 -1790.1,-322.32 -988.7,0 -1790.2,144.31 -1790.2,322.32 0,178.02 801.5,322.32 1790.2,322.32 988.6,0 1790.1,-144.3 1790.1,-322.32" /></g><g
             transform="scale(1.71315)"
             id="g470"><path
               id="path472"
               style="fill:#b9b8b8;fill-opacity:1;fill-rule:nonzero;stroke:none"
               d="m 16300,6210.83 c 0,-175.78 -791.4,-318.27 -1767.6,-318.27 -976.3,0 -1767.7,142.49 -1767.7,318.27 0,175.78 791.4,318.28 1767.7,318.28 976.2,0 1767.6,-142.5 1767.6,-318.28" /></g><g
             transform="scale(1.7105)"
             id="g474"><path
               id="path476"
               style="fill:#b8b7b7;fill-opacity:1;fill-rule:nonzero;stroke:none"
               d="m 16300,6220.47 c 0,-173.54 -781.3,-314.22 -1745.1,-314.22 -963.8,0 -1745.1,140.68 -1745.1,314.22 0,173.53 781.3,314.21 1745.1,314.21 963.8,0 1745.1,-140.68 1745.1,-314.21" /></g><g
             transform="scale(1.70784)"
             id="g478"><path
               id="path480"
               style="fill:#b7b6b6;fill-opacity:1;fill-rule:nonzero;stroke:none"
               d="m 16300,6230.13 c 0,-171.28 -771.2,-310.13 -1722.5,-310.13 -951.3,0 -1722.5,138.85 -1722.5,310.13 0,171.29 771.2,310.14 1722.5,310.14 951.3,0 1722.5,-138.85 1722.5,-310.14" /></g><g
             transform="scale(1.70519)"
             id="g482"><path
               id="path484"
               style="fill:#b6b5b5;fill-opacity:1;fill-rule:nonzero;stroke:none"
               d="m 16300,6239.83 c 0,-169.03 -761,-306.06 -1699.8,-306.06 -938.8,0 -1699.8,137.03 -1699.8,306.06 0,169.03 761,306.06 1699.8,306.06 938.8,0 1699.8,-137.03 1699.8,-306.06" /></g><g
             transform="scale(1.70253)"
             id="g486"><path
               id="path488"
               style="fill:#b5b4b4;fill-opacity:1;fill-rule:nonzero;stroke:none"
               d="m 16300,6249.56 c 0,-166.77 -750.8,-301.96 -1677,-301.96 -926.2,0 -1677.1,135.19 -1677.1,301.96 0,166.77 750.9,301.96 1677.1,301.96 926.2,0 1677,-135.19 1677,-301.96" /></g><g
             transform="scale(1.69988)"
             id="g490"><path
               id="path492"
               style="fill:#b4b3b3;fill-opacity:1;fill-rule:nonzero;stroke:none"
               d="m 16300,6259.32 c 0,-164.5 -740.6,-297.85 -1654.2,-297.85 -913.6,0 -1654.2,133.35 -1654.2,297.85 0,164.49 740.6,297.85 1654.2,297.85 913.6,0 1654.2,-133.36 1654.2,-297.85" /></g><g
             transform="scale(1.69723)"
             id="g494"><path
               id="path496"
               style="fill:#b3b1b2;fill-opacity:1;fill-rule:nonzero;stroke:none"
               d="m 16300,6269.1 c 0,-162.21 -730.4,-293.72 -1631.3,-293.72 -900.9,0 -1631.3,131.51 -1631.3,293.72 0,162.22 730.4,293.73 1631.3,293.73 900.9,0 1631.3,-131.51 1631.3,-293.73" /></g><g
             transform="scale(1.69457)"
             id="g498"><path
               id="path500"
               style="fill:#b2b0b1;fill-opacity:1;fill-rule:nonzero;stroke:none"
               d="m 16300,6278.92 c 0,-159.93 -720.1,-289.58 -1608.3,-289.58 -888.3,0 -1608.4,129.65 -1608.4,289.58 0,159.93 720.1,289.59 1608.4,289.59 888.2,0 1608.3,-129.66 1608.3,-289.59" /></g><g
             transform="scale(1.69192)"
             id="g502"><path
               id="path504"
               style="fill:#b1afb0;fill-opacity:1;fill-rule:nonzero;stroke:none"
               d="m 16300,6288.77 c 0,-157.64 -709.8,-285.44 -1585.3,-285.44 -875.5,0 -1585.3,127.8 -1585.3,285.44 0,157.64 709.8,285.44 1585.3,285.44 875.5,0 1585.3,-127.8 1585.3,-285.44" /></g><g
             transform="scale(1.68926)"
             id="g506"><path
               id="path508"
               style="fill:#b0aeaf;fill-opacity:1;fill-rule:nonzero;stroke:none"
               d="m 16300,6298.65 c 0,-155.34 -699.4,-281.27 -1562.2,-281.27 -862.7,0 -1562.1,125.93 -1562.1,281.27 0,155.34 699.4,281.28 1562.1,281.28 862.8,0 1562.2,-125.94 1562.2,-281.28" /></g><g
             transform="scale(1.68661)"
             id="g510"><path
               id="path512"
               style="fill:#afadad;fill-opacity:1;fill-rule:nonzero;stroke:none"
               d="m 16300,6308.56 c 0,-153.04 -689,-277.09 -1539,-277.09 -849.9,0 -1538.9,124.05 -1538.9,277.09 0,153.04 689,277.1 1538.9,277.1 850,0 1539,-124.06 1539,-277.1" /></g><g
             transform="scale(1.68396)"
             id="g514"><path
               id="path516"
               style="fill:#adacac;fill-opacity:1;fill-rule:nonzero;stroke:none"
               d="m 16300,6318.5 c 0,-150.71 -678.6,-272.91 -1515.7,-272.91 -837.1,0 -1515.7,122.2 -1515.7,272.91 0,150.73 678.6,272.92 1515.7,272.92 837.1,0 1515.7,-122.19 1515.7,-272.92" /></g><g
             transform="scale(1.6813)"
             id="g518"><path
               id="path520"
               style="fill:#acabab;fill-opacity:1;fill-rule:nonzero;stroke:none"
               d="m 16300,6328.48 c 0,-148.4 -668.2,-268.71 -1492.4,-268.71 -824.2,0 -1492.3,120.31 -1492.3,268.71 0,148.41 668.1,268.71 1492.3,268.71 824.2,0 1492.4,-120.3 1492.4,-268.71" /></g><g
             transform="scale(1.67865)"
             id="g522"><path
               id="path524"
               style="fill:#abaaaa;fill-opacity:1;fill-rule:nonzero;stroke:none"
               d="m 16300,6338.49 c 0,-146.08 -657.7,-264.5 -1469,-264.5 -811.2,0 -1468.9,118.42 -1468.9,264.5 0,146.07 657.7,264.49 1468.9,264.49 811.3,0 1469,-118.42 1469,-264.49" /></g><g
             transform="scale(1.67599)"
             id="g526"><path
               id="path528"
               style="fill:#aaa9a9;fill-opacity:1;fill-rule:nonzero;stroke:none"
               d="m 16300,6348.52 c 0,-143.74 -647.2,-260.26 -1445.5,-260.26 -798.3,0 -1445.4,116.52 -1445.4,260.26 0,143.74 647.1,260.27 1445.4,260.27 798.3,0 1445.5,-116.53 1445.5,-260.27" /></g><g
             transform="scale(1.67334)"
             id="g530"><path
               id="path532"
               style="fill:#a9a7a8;fill-opacity:1;fill-rule:nonzero;stroke:none"
               d="m 16300,6358.59 c 0,-141.39 -636.6,-256.02 -1421.9,-256.02 -785.3,0 -1421.9,114.63 -1421.9,256.02 0,141.4 636.6,256.02 1421.9,256.02 785.3,0 1421.9,-114.62 1421.9,-256.02" /></g><g
             transform="scale(1.67069)"
             id="g534"><path
               id="path536"
               style="fill:#a8a6a7;fill-opacity:1;fill-rule:nonzero;stroke:none"
               d="m 16300,6368.69 c 0,-139.04 -626,-251.76 -1398.3,-251.76 -772.2,0 -1398.2,112.72 -1398.2,251.76 0,139.05 626,251.77 1398.2,251.77 772.3,0 1398.3,-112.72 1398.3,-251.77" /></g><g
             transform="scale(1.66803)"
             id="g538"><path
               id="path540"
               style="fill:#a7a5a6;fill-opacity:1;fill-rule:nonzero;stroke:none"
               d="m 16300,6378.82 c 0,-136.68 -615.4,-247.49 -1374.6,-247.49 -759.1,0 -1374.5,110.81 -1374.5,247.49 0,136.69 615.4,247.5 1374.5,247.5 759.2,0 1374.6,-110.81 1374.6,-247.5" /></g><g
             transform="scale(1.66538)"
             id="g542"><path
               id="path544"
               style="fill:#a6a4a4;fill-opacity:1;fill-rule:nonzero;stroke:none"
               d="m 16300,6388.99 c 0,-134.32 -604.8,-243.21 -1350.8,-243.21 -746,0 -1350.8,108.89 -1350.8,243.21 0,134.33 604.8,243.21 1350.8,243.21 746,0 1350.8,-108.88 1350.8,-243.21" /></g><g
             transform="scale(1.66272)"
             id="g546"><path
               id="path548"
               style="fill:#a4a3a3;fill-opacity:1;fill-rule:nonzero;stroke:none"
               d="m 16300,6399.19 c 0,-131.95 -594.1,-238.92 -1326.9,-238.92 -732.9,0 -1326.9,106.97 -1326.9,238.92 0,131.95 594,238.92 1326.9,238.92 732.8,0 1326.9,-106.97 1326.9,-238.92" /></g><g
             transform="scale(1.66007)"
             id="g550"><path
               id="path552"
               style="fill:#a3a2a2;fill-opacity:1;fill-rule:nonzero;stroke:none"
               d="m 16300,6409.42 c 0,-129.57 -583.4,-234.6 -1303,-234.6 -719.6,0 -1303,105.03 -1303,234.6 0,129.57 583.4,234.61 1303,234.61 719.6,0 1303,-105.04 1303,-234.61" /></g><g
             transform="scale(1.65742)"
             id="g554"><path
               id="path556"
               style="fill:#a2a1a1;fill-opacity:1;fill-rule:nonzero;stroke:none"
               d="m 16300,6419.68 c 0,-127.18 -572.6,-230.28 -1279,-230.28 -706.3,0 -1278.9,103.1 -1278.9,230.28 0,127.19 572.6,230.29 1278.9,230.29 706.4,0 1279,-103.1 1279,-230.29" /></g><g
             transform="scale(1.65476)"
             id="g558"><path
               id="path560"
               style="fill:#a19fa0;fill-opacity:1;fill-rule:nonzero;stroke:none"
               d="m 16300,6429.98 c 0,-124.79 -561.8,-225.94 -1254.9,-225.94 -693,0 -1254.8,101.15 -1254.8,225.94 0,124.79 561.8,225.95 1254.8,225.95 693.1,0 1254.9,-101.16 1254.9,-225.95" /></g><g
             transform="scale(1.65211)"
             id="g562"><path
               id="path564"
               style="fill:#a09e9f;fill-opacity:1;fill-rule:nonzero;stroke:none"
               d="m 16300,6440.31 c 0,-122.38 -551,-221.59 -1230.7,-221.59 -679.7,0 -1230.7,99.21 -1230.7,221.59 0,122.38 551,221.59 1230.7,221.59 679.7,0 1230.7,-99.21 1230.7,-221.59" /></g><g
             transform="scale(1.64945)"
             id="g566"><path
               id="path568"
               style="fill:#9f9d9d;fill-opacity:1;fill-rule:nonzero;stroke:none"
               d="m 16300,6450.67 c 0,-119.97 -540.1,-217.23 -1206.5,-217.23 -666.3,0 -1206.4,97.26 -1206.4,217.23 0,119.98 540.1,217.23 1206.4,217.23 666.4,0 1206.5,-97.25 1206.5,-217.23" /></g><g
             transform="scale(1.6468)"
             id="g570"><path
               id="path572"
               style="fill:#9e9c9c;fill-opacity:1;fill-rule:nonzero;stroke:none"
               d="m 16300,6461.07 c 0,-117.55 -529.3,-212.85 -1182.1,-212.85 -652.9,0 -1182.2,95.3 -1182.2,212.85 0,117.55 529.3,212.85 1182.2,212.85 652.8,0 1182.1,-95.3 1182.1,-212.85" /></g><g
             transform="scale(1.64415)"
             id="g574"><path
               id="path576"
               style="fill:#9c9b9b;fill-opacity:1;fill-rule:nonzero;stroke:none"
               d="m 16300,6471.5 c 0,-115.13 -518.3,-208.45 -1157.7,-208.45 -639.4,0 -1157.8,93.32 -1157.8,208.45 0,115.13 518.4,208.45 1157.8,208.45 639.4,0 1157.7,-93.32 1157.7,-208.45" /></g><g
             transform="scale(1.64149)"
             id="g578"><path
               id="path580"
               style="fill:#9b999a;fill-opacity:1;fill-rule:nonzero;stroke:none"
               d="m 16300,6481.96 c 0,-112.69 -507.4,-204.04 -1133.2,-204.04 -625.9,0 -1133.3,91.35 -1133.3,204.04 0,112.69 507.4,204.05 1133.3,204.05 625.8,0 1133.2,-91.36 1133.2,-204.05" /></g><g
             transform="scale(1.63884)"
             id="g582"><path
               id="path584"
               style="fill:#9a9899;fill-opacity:1;fill-rule:nonzero;stroke:none"
               d="m 16300,6492.46 c 0,-110.25 -496.4,-199.62 -1108.7,-199.62 -612.3,0 -1108.7,89.37 -1108.7,199.62 0,110.25 496.4,199.62 1108.7,199.62 612.3,0 1108.7,-89.37 1108.7,-199.62" /></g><g
             transform="scale(1.63618)"
             id="g586"><path
               id="path588"
               style="fill:#999797;fill-opacity:1;fill-rule:nonzero;stroke:none"
               d="m 16300,6502.99 c 0,-107.8 -485.3,-195.19 -1084,-195.19 -598.7,0 -1084.1,87.39 -1084.1,195.19 0,107.8 485.4,195.19 1084.1,195.19 598.7,0 1084,-87.39 1084,-195.19" /></g><g
             transform="scale(1.63353)"
             id="g590"><path
               id="path592"
               style="fill:#989696;fill-opacity:1;fill-rule:nonzero;stroke:none"
               d="m 16300,6513.55 c 0,-105.34 -474.3,-190.73 -1059.3,-190.73 -585.1,0 -1059.3,85.39 -1059.3,190.73 0,105.35 474.2,190.74 1059.3,190.74 585,0 1059.3,-85.39 1059.3,-190.74" /></g><g
             transform="scale(1.63088)"
             id="g594"><path
               id="path596"
               style="fill:#969495;fill-opacity:1;fill-rule:nonzero;stroke:none"
               d="m 16300,6524.16 c 0,-102.88 -463.2,-186.27 -1034.5,-186.27 -571.4,0 -1034.5,83.39 -1034.5,186.27 0,102.87 463.1,186.26 1034.5,186.26 571.3,0 1034.5,-83.39 1034.5,-186.26" /></g><g
             transform="scale(1.62822)"
             id="g598"><path
               id="path600"
               style="fill:#959394;fill-opacity:1;fill-rule:nonzero;stroke:none"
               d="m 16300,6534.79 c 0,-100.4 -452,-181.79 -1009.6,-181.79 -557.6,0 -1009.7,81.39 -1009.7,181.79 0,100.4 452.1,181.79 1009.7,181.79 557.6,0 1009.6,-81.39 1009.6,-181.79" /></g><g
             transform="scale(1.62557)"
             id="g602"><path
               id="path604"
               style="fill:#949292;fill-opacity:1;fill-rule:nonzero;stroke:none"
               d="m 16300,6545.46 c 0,-97.92 -440.9,-177.29 -984.7,-177.29 -543.8,0 -984.6,79.37 -984.6,177.29 0,97.92 440.8,177.29 984.6,177.29 543.8,0 984.7,-79.37 984.7,-177.29" /></g><g
             transform="scale(1.62291)"
             id="g606"><path
               id="path608"
               style="fill:#939191;fill-opacity:1;fill-rule:nonzero;stroke:none"
               d="m 16300,6556.16 c 0,-95.42 -429.6,-172.78 -959.6,-172.78 -530,0 -959.6,77.36 -959.6,172.78 0,95.43 429.6,172.79 959.6,172.79 530,0 959.6,-77.36 959.6,-172.79" /></g><g
             transform="scale(1.62026)"
             id="g610"><path
               id="path612"
               style="fill:#929090;fill-opacity:1;fill-rule:nonzero;stroke:none"
               d="m 16300,6566.9 c 0,-92.92 -418.4,-168.26 -934.5,-168.26 -516.1,0 -934.5,75.34 -934.5,168.26 0,92.93 418.4,168.27 934.5,168.27 516.1,0 934.5,-75.34 934.5,-168.27" /></g><g
             transform="scale(1.61761)"
             id="g614"><path
               id="path616"
               style="fill:#908e8f;fill-opacity:1;fill-rule:nonzero;stroke:none"
               d="m 16300,6577.68 c 0,-90.42 -407.1,-163.72 -909.3,-163.72 -502.2,0 -909.3,73.3 -909.3,163.72 0,90.42 407.1,163.72 909.3,163.72 502.2,0 909.3,-73.3 909.3,-163.72" /></g><g
             transform="scale(1.61495)"
             id="g618"><path
               id="path620"
               style="fill:#8f8d8e;fill-opacity:1;fill-rule:nonzero;stroke:none"
               d="m 16300,6588.49 c 0,-87.91 -395.8,-159.17 -884,-159.17 -488.2,0 -884,71.26 -884,159.17 0,87.9 395.8,159.17 884,159.17 488.2,0 884,-71.27 884,-159.17" /></g><g
             transform="scale(1.6123)"
             id="g622"><path
               id="path624"
               style="fill:#8e8c8c;fill-opacity:1;fill-rule:nonzero;stroke:none"
               d="m 16300,6599.33 c 0,-85.38 -384.4,-154.6 -858.6,-154.6 -474.2,0 -858.6,69.22 -858.6,154.6 0,85.38 384.4,154.6 858.6,154.6 474.2,0 858.6,-69.22 858.6,-154.6" /></g><g
             transform="scale(1.60964)"
             id="g626"><path
               id="path628"
               style="fill:#8d8b8b;fill-opacity:1;fill-rule:nonzero;stroke:none"
               d="m 16300,6610.21 c 0,-82.85 -373,-150.01 -833.2,-150.01 -460.1,0 -833.1,67.16 -833.1,150.01 0,82.85 373,150.02 833.1,150.02 460.2,0 833.2,-67.17 833.2,-150.02" /></g><g
             transform="scale(1.60699)"
             id="g630"><path
               id="path632"
               style="fill:#8b898a;fill-opacity:1;fill-rule:nonzero;stroke:none"
               d="m 16300,6621.13 c 0,-80.31 -361.6,-145.41 -807.6,-145.41 -446,0 -807.6,65.1 -807.6,145.41 0,80.31 361.6,145.42 807.6,145.42 446,0 807.6,-65.11 807.6,-145.42" /></g><g
             transform="scale(1.60434)"
             id="g634"><path
               id="path636"
               style="fill:#8a8889;fill-opacity:1;fill-rule:nonzero;stroke:none"
               d="m 16300,6632.08 c 0,-77.76 -350.1,-140.79 -782,-140.79 -431.9,0 -782,63.03 -782,140.79 0,77.77 350.1,140.8 782,140.8 431.9,0 782,-63.03 782,-140.8" /></g><g
             transform="scale(1.60168)"
             id="g638"><path
               id="path640"
               style="fill:#898787;fill-opacity:1;fill-rule:nonzero;stroke:none"
               d="m 16300,6643.07 c 0,-75.2 -338.6,-136.16 -756.3,-136.16 -417.6,0 -756.2,60.96 -756.2,136.16 0,75.21 338.6,136.17 756.2,136.17 417.7,0 756.3,-60.96 756.3,-136.17" /></g><g
             transform="scale(1.59903)"
             id="g642"><path
               id="path644"
               style="fill:#888586;fill-opacity:1;fill-rule:nonzero;stroke:none"
               d="m 16300,6654.1 c 0,-72.64 -327,-131.53 -730.5,-131.53 -403.4,0 -730.4,58.89 -730.4,131.53 0,72.64 327,131.53 730.4,131.53 403.5,0 730.5,-58.89 730.5,-131.53" /></g><g
             transform="scale(1.59637)"
             id="g646"><path
               id="path648"
               style="fill:#868485;fill-opacity:1;fill-rule:nonzero;stroke:none"
               d="m 16300,6665.16 c 0,-70.06 -315.4,-126.86 -704.6,-126.86 -389.1,0 -704.6,56.8 -704.6,126.86 0,70.07 315.5,126.87 704.6,126.87 389.2,0 704.6,-56.8 704.6,-126.87" /></g><g
             transform="scale(1.59372)"
             id="g650"><path
               id="path652"
               style="fill:#858383;fill-opacity:1;fill-rule:nonzero;stroke:none"
               d="m 16300,6676.26 c 0,-67.48 -303.8,-122.19 -678.6,-122.19 -374.8,0 -678.6,54.71 -678.6,122.19 0,67.49 303.8,122.19 678.6,122.19 374.8,0 678.6,-54.7 678.6,-122.19" /></g><g
             transform="scale(1.59107)"
             id="g654"><path
               id="path656"
               style="fill:#848182;fill-opacity:1;fill-rule:nonzero;stroke:none"
               d="m 16300,6687.4 c 0,-64.89 -292.2,-117.5 -652.6,-117.5 -360.4,0 -652.5,52.61 -652.5,117.5 0,64.89 292.1,117.49 652.5,117.49 360.4,0 652.6,-52.6 652.6,-117.49" /></g><g
             transform="scale(1.58841)"
             id="g658"><path
               id="path660"
               style="fill:#828081;fill-opacity:1;fill-rule:nonzero;stroke:none"
               d="m 16300,6698.57 c 0,-62.29 -280.5,-112.78 -626.4,-112.78 -346,0 -626.4,50.49 -626.4,112.78 0,62.29 280.4,112.79 626.4,112.79 345.9,0 626.4,-50.5 626.4,-112.79" /></g><g
             transform="scale(1.58576)"
             id="g662"><path
               id="path664"
               style="fill:#817f7f;fill-opacity:1;fill-rule:nonzero;stroke:none"
               d="m 16300,6709.78 c 0,-59.68 -268.7,-108.06 -600.2,-108.06 -331.4,0 -600.2,48.38 -600.2,108.06 0,59.68 268.8,108.07 600.2,108.07 331.5,0 600.2,-48.39 600.2,-108.07" /></g><g
             transform="scale(1.5831)"
             id="g666"><path
               id="path668"
               style="fill:#807e7e;fill-opacity:1;fill-rule:nonzero;stroke:none"
               d="m 16300,6721.03 c 0,-57.06 -256.9,-103.32 -573.9,-103.32 -316.9,0 -573.8,46.26 -573.8,103.32 0,57.07 256.9,103.33 573.8,103.33 317,0 573.9,-46.26 573.9,-103.33" /></g><g
             transform="scale(1.58045)"
             id="g670"><path
               id="path672"
               style="fill:#7f7c7d;fill-opacity:1;fill-rule:nonzero;stroke:none"
               d="m 16300,6732.32 c 0,-54.44 -245.1,-98.57 -547.4,-98.57 -302.4,0 -547.5,44.13 -547.5,98.57 0,54.44 245.1,98.57 547.5,98.57 302.3,0 547.4,-44.13 547.4,-98.57" /></g><g
             transform="scale(1.5778)"
             id="g674"><path
               id="path676"
               style="fill:#7d7b7b;fill-opacity:1;fill-rule:nonzero;stroke:none"
               d="m 16300,6743.64 c 0,-51.8 -233.2,-93.8 -521,-93.8 -287.7,0 -520.9,42 -520.9,93.8 0,51.81 233.2,93.8 520.9,93.8 287.8,0 521,-41.99 521,-93.8" /></g><g
             transform="scale(1.57514)"
             id="g678"><path
               id="path680"
               style="fill:#7c7a7a;fill-opacity:1;fill-rule:nonzero;stroke:none"
               d="m 16300,6755.01 c 0,-49.16 -221.3,-89.01 -494.4,-89.01 -273,0 -494.3,39.85 -494.3,89.01 0,49.16 221.3,89.01 494.3,89.01 273.1,0 494.4,-39.85 494.4,-89.01" /></g><g
             transform="scale(1.57249)"
             id="g682"><path
               id="path684"
               style="fill:#7b7879;fill-opacity:1;fill-rule:nonzero;stroke:none"
               d="m 16300,6766.41 c 0,-46.51 -209.4,-84.21 -467.7,-84.21 -258.3,0 -467.7,37.7 -467.7,84.21 0,46.51 209.4,84.21 467.7,84.21 258.3,0 467.7,-37.7 467.7,-84.21" /></g><g
             transform="scale(1.56983)"
             id="g686"><path
               id="path688"
               style="fill:#797778;fill-opacity:1;fill-rule:nonzero;stroke:none"
               d="m 16300,6777.85 c 0,-43.85 -197.4,-79.39 -440.9,-79.39 -243.5,0 -440.9,35.54 -440.9,79.39 0,43.84 197.4,79.39 440.9,79.39 243.5,0 440.9,-35.55 440.9,-79.39" /></g><g
             transform="scale(1.56718)"
             id="g690"><path
               id="path692"
               style="fill:#787676;fill-opacity:1;fill-rule:nonzero;stroke:none"
               d="m 16300,6789.33 c 0,-41.18 -185.4,-74.56 -414.1,-74.56 -228.6,0 -414,33.38 -414,74.56 0,41.17 185.4,74.55 414,74.55 228.7,0 414.1,-33.38 414.1,-74.55" /></g><g
             transform="scale(1.56453)"
             id="g694"><path
               id="path696"
               style="fill:#777475;fill-opacity:1;fill-rule:nonzero;stroke:none"
               d="m 16300,6800.84 c 0,-38.49 -173.3,-69.7 -387.1,-69.7 -213.8,0 -387.1,31.21 -387.1,69.7 0,38.5 173.3,69.71 387.1,69.71 213.8,0 387.1,-31.21 387.1,-69.71" /></g><g
             transform="scale(1.56187)"
             id="g698"><path
               id="path700"
               style="fill:#767374;fill-opacity:1;fill-rule:nonzero;stroke:none"
               d="m 16300,6812.4 c 0,-35.81 -161.2,-64.83 -360.1,-64.83 -198.8,0 -360.1,29.02 -360.1,64.83 0,35.81 161.3,64.83 360.1,64.83 198.9,0 360.1,-29.02 360.1,-64.83" /></g><g
             transform="scale(1.55922)"
             id="g702"><path
               id="path704"
               style="fill:#747272;fill-opacity:1;fill-rule:nonzero;stroke:none"
               d="m 16300,6823.99 c 0,-33.1 -149.1,-59.94 -332.9,-59.94 -183.9,0 -333,26.84 -333,59.94 0,33.11 149.1,59.95 333,59.95 183.8,0 332.9,-26.84 332.9,-59.95" /></g><g
             transform="scale(1.55656)"
             id="g706"><path
               id="path708"
               style="fill:#727071;fill-opacity:1;fill-rule:nonzero;stroke:none"
               d="m 16300,6835.63 c 0,-30.4 -136.9,-55.04 -305.7,-55.04 -168.9,0 -305.7,24.64 -305.7,55.04 0,30.4 136.8,55.05 305.7,55.05 168.8,0 305.7,-24.65 305.7,-55.05" /></g><g
             transform="scale(1.55391)"
             id="g710"><path
               id="path712"
               style="fill:#716f6f;fill-opacity:1;fill-rule:nonzero;stroke:none"
               d="m 16300,6847.3 c 0,-27.68 -124.6,-50.12 -278.4,-50.12 -153.8,0 -278.4,22.44 -278.4,50.12 0,27.69 124.6,50.13 278.4,50.13 153.8,0 278.4,-22.44 278.4,-50.13" /></g><g
             transform="scale(1.55125)"
             id="g714"><path
               id="path716"
               style="fill:#706d6e;fill-opacity:1;fill-rule:nonzero;stroke:none"
               d="m 16300,6859.02 c 0,-24.96 -112.4,-45.19 -251,-45.19 -138.6,0 -251,20.23 -251,45.19 0,24.96 112.4,45.2 251,45.2 138.6,0 251,-20.24 251,-45.2" /></g><g
             transform="scale(1.5486)"
             id="g718"><path
               id="path720"
               style="fill:#6f6c6d;fill-opacity:1;fill-rule:nonzero;stroke:none"
               d="m 16300,6870.78 c 0,-22.23 -100.1,-40.24 -223.5,-40.24 -123.4,0 -223.5,18.01 -223.5,40.24 0,22.22 100.1,40.24 223.5,40.24 123.4,0 223.5,-18.02 223.5,-40.24" /></g><g
             transform="scale(1.54595)"
             id="g722"><path
               id="path724"
               style="fill:#6d6b6b;fill-opacity:1;fill-rule:nonzero;stroke:none"
               d="m 16300,6882.57 c 0,-19.48 -87.7,-35.26 -195.9,-35.26 -108.2,0 -195.9,15.78 -195.9,35.26 0,19.48 87.7,35.27 195.9,35.27 108.2,0 195.9,-15.79 195.9,-35.27" /></g><g
             transform="scale(1.54329)"
             id="g726"><path
               id="path728"
               style="fill:#6c696a;fill-opacity:1;fill-rule:nonzero;stroke:none"
               d="m 16300,6894.41 c 0,-16.73 -75.3,-30.28 -168.2,-30.28 -92.9,0 -168.2,13.55 -168.2,30.28 0,16.72 75.3,30.28 168.2,30.28 92.9,0 168.2,-13.56 168.2,-30.28" /></g><g
             transform="scale(1.54064)"
             id="g730"><path
               id="path732"
               style="fill:#6a6868;fill-opacity:1;fill-rule:nonzero;stroke:none"
               d="m 16300,6906.28 c 0,-13.96 -62.9,-25.27 -140.4,-25.27 -77.5,0 -140.4,11.31 -140.4,25.27 0,13.97 62.9,25.28 140.4,25.28 77.5,0 140.4,-11.31 140.4,-25.28" /></g><g
             transform="scale(1.53798)"
             id="g734"><path
               id="path736"
               style="fill:#696667;fill-opacity:1;fill-rule:nonzero;stroke:none"
               d="m 16300,6918.2 c 0,-11.19 -50.4,-20.25 -112.5,-20.25 -62.2,0 -112.5,9.06 -112.5,20.25 0,11.19 50.3,20.26 112.5,20.26 62.1,0 112.5,-9.07 112.5,-20.26" /></g><g
             transform="scale(1.53533)"
             id="g738"><path
               id="path740"
               style="fill:#686566;fill-opacity:1;fill-rule:nonzero;stroke:none"
               d="m 16300,6930.16 c 0,-8.41 -37.8,-15.22 -84.5,-15.22 -46.7,0 -84.6,6.81 -84.6,15.22 0,8.41 37.9,15.22 84.6,15.22 46.7,0 84.5,-6.81 84.5,-15.22" /></g><g
             transform="scale(1.53268)"
             id="g742"><path
               id="path744"
               style="fill:#666464;fill-opacity:1;fill-rule:nonzero;stroke:none"
               d="m 16300,6942.16 c 0,-5.61 -25.3,-10.16 -56.5,-10.16 -31.1,0 -56.4,4.55 -56.4,10.16 0,5.61 25.3,10.16 56.4,10.16 31.2,0 56.5,-4.55 56.5,-10.16" /></g><g
             transform="scale(1.53002)"
             id="g746"><path
               id="path748"
               style="fill:#656263;fill-opacity:1;fill-rule:nonzero;stroke:none"
               d="m 16300,6954.2 c 0,-2.81 -12.7,-5.09 -28.3,-5.09 -15.6,0 -28.3,2.28 -28.3,5.09 0,2.82 12.7,5.1 28.3,5.1 15.6,0 28.3,-2.28 28.3,-5.1" /></g></g></g><g
         transform="scale(2.39778)"
         id="g750"><path
           id="path752"
           style="fill:#231f20;fill-opacity:1;fill-rule:nonzero;stroke:none"
           d="m 10476.7,5844.25 c -127,0 -242.3,31.06 -345.2,93.23 -168.79,101.98 -293.52,287.67 -360.72,537 -47.22,175.19 -50.73,324.98 -50.85,331.27 -1.18,58.43 26.75,113.64 74.53,147.29 47.79,33.66 109.17,41.39 163.79,20.61 2.69,-1.02 273.65,-103.67 573.95,-188.78 173.9,-49.28 304.9,-77.95 402.9,-94.05 -116.3,42.33 -255.6,85.12 -402.1,130.1 -272.5,83.65 -554.21,170.14 -778.33,279.07 -132.86,64.58 -232.26,130.9 -303.88,202.77 -126.5,126.93 -146.41,254.27 -140.84,338.74 0.08,1.3 0.19,2.6 0.3,3.91 5.86,66.3 41.17,125.43 96.88,162.22 145.65,96.2 371.02,34.79 1030.27,-180.19 237.6,-77.5 483.4,-157.63 692,-209.72 46.1,-11.52 86.9,-20.74 122.9,-28.09 -21.9,9.4 -45.9,19.3 -72.2,29.69 -179.2,70.81 -401.1,140.7 -636.2,214.68 -284.8,89.65 -579.24,182.36 -803.38,280.7 -218.8,96 -468.83,235.74 -460.14,466.3 3.17,83.97 42.13,156.31 109.72,203.69 110.64,77.55 279.55,79.74 583.02,7.59 216.88,-51.56 482.18,-136.66 738.78,-218.95 233.5,-74.9 474.9,-152.34 671.8,-201.76 94.1,-23.64 164.6,-37.33 217.1,-45 -33.2,17.57 -77.2,37.98 -135.4,60.79 -155.1,60.79 -358.9,119.38 -574.6,181.39 -435.7,125.25 -929.49,267.21 -1258.86,493.81 -198.62,136.65 -323.32,287.58 -392.44,475 -60.68,164.51 -70.83,338.88 -81.57,523.48 -18.82,323.26 -42.2,725.06 -347.03,1287.76 -416.73,520.8 -699.23,1058.4 -839.76,1597.9 -134.88,517.8 -135.77,1020.1 -2.66,1493 122.07,433.6 350.5,820.5 678.93,1149.9 326.41,327.3 734.32,580.3 1212.4,751.8 0.19,0 0.38,0.1 0.57,0.2 210.62,74.7 462.22,122.9 727.82,139.4 304.6,19 608.8,-4 904.2,-68.3 739,-160.8 1355.7,-570.4 1783.3,-1184.4 0.3,-0.5 0.7,-0.9 1,-1.4 255.5,-374.3 424.4,-753.7 502.1,-1127.7 72.9,-351 67.4,-706.3 -16.2,-1056 -142.7,-597 -507.2,-1184.5 -1114.3,-1796.2 -9.5,-10.3 -115.6,-128.2 -247.9,-377 -127.7,-240 -306.5,-653.9 -433.1,-1263.59 -7.3,-36.96 -65.8,-299.36 -278.3,-456.26 -214.8,-170.7 -540.6,-195.18 -853,-64.18 -29.5,10.55 -107.5,42.47 -186.9,109.75 -129.1,109.28 -199.7,257.47 -204.3,428.54 0,0.62 0,1.23 -0.1,1.85 -0.2,13.03 -21.4,1309.19 -21.4,1820.49 0,139.1 -199.5,300.3 -375.5,442.4 -101.96,82.4 -207.4,167.6 -287.36,257.5 -87.25,98.1 -133.54,226 -130.36,360.3 2.87,121.2 46.93,235.9 117.87,306.9 2.43,2.4 4.94,4.8 7.51,7 142.33,126.6 274.74,115.8 360.74,84.5 89.3,-32.5 154.4,-95.9 211.8,-151.8 13.2,-12.9 30,-29.2 45.2,-42.8 10.8,31 21.7,71.8 29.4,100.4 24.9,93.4 53.2,199.3 115.7,288.2 87.5,124.6 218.4,182.6 378.5,167.7 142.9,-13.3 254.3,-83.5 322.1,-203 49.2,-86.8 66.5,-184.5 80.5,-262.9 1.2,-7 2.6,-14.8 4,-22.8 26,25.1 53.8,55.1 72.8,75.6 54.2,58.5 110.2,119 175.8,163.9 133.6,91.4 247.3,74.1 319.2,43.5 0.5,-0.2 0.9,-0.4 1.4,-0.6 139.6,-60.8 230.5,-174.1 256.1,-318.8 61.1,-346.3 -264.2,-783.3 -393.5,-908 -278,-285 -709.4,-369 -727.7,-372.4 -95.5,-18 -187.4,44.8 -205.4,140.2 -18,95.3 44.6,187.1 139.8,205.3 v 0 c 3.4,0.7 344,68.5 543.1,274 1.6,1.7 3.3,3.4 5.1,5.1 116.4,110.7 319.8,438 292.2,594.6 -3.5,20 -10.1,34.5 -31,47.7 -31.9,-21.6 -86.1,-80 -117.1,-113.5 -96.2,-103.9 -214.3,-231.3 -374.2,-231.3 -12.2,0 -24.7,0.7 -37.4,2.3 -57.6,7.1 -163,38.8 -222.1,172.3 -25.4,57.4 -36.6,120.4 -47.4,181.4 -30.6,171.8 -47.6,173.4 -88.9,177.2 -41.6,3.9 -48.1,-5.5 -58.1,-19.7 -26.6,-37.8 -46.3,-111.6 -63.7,-176.8 -17,-63.4 -34.5,-129 -62.8,-188.1 -45.2,-94.5 -111.1,-155.9 -195.8,-182.5 -60.4,-19 -154.9,-28.1 -261.6,36.2 -54.4,32.7 -99.6,76.7 -139.5,115.6 -22.2,21.6 -57.3,55.7 -78,68.8 -2.3,-1.5 -4.95,-3.5 -8.09,-6 -15.45,-25.4 -33.73,-116.1 26.59,-184 60.7,-68.2 150.5,-140.8 245.6,-217.6 237.3,-191.6 506.2,-408.8 506.2,-716 0,-502.2 20.7,-1769.93 21.4,-1813.65 2,-69.78 28.2,-125.01 80,-168.83 37.3,-31.64 75.6,-46.15 75.9,-46.26 5.3,-1.68 10.5,-3.62 15.6,-5.79 193,-82.26 390.8,-76.51 503.8,14.63 2.3,1.83 4.6,3.61 7,5.32 89.9,65.36 134,196.71 143.6,242.81 0.2,1.07 0.2,0.68 0.5,2.11 265.2,1277.86 751.9,1793.16 772.5,1814.46 0.6,0.6 1.2,1.1 1.7,1.7 1213.8,1222.1 1401.2,2345.4 589.6,3534.9 -834.3,1197.2 -2288,1237.8 -3008.61,982.1 -849.76,-305 -1458.81,-912.1 -1670.96,-1665.7 -243.2,-863.9 36.6,-1853.9 787.84,-2787.5 6.51,-8.1 12.28,-16.8 17.26,-25.9 349.74,-639.2 377,-1107.5 396.91,-1449.53 20.48,-351.96 30.77,-528.62 322.25,-729.15 282.21,-194.16 746.81,-327.71 1156.71,-445.55 531.8,-152.9 916.1,-263.37 1029.3,-500.06 41,-85.71 42.4,-179.04 4.2,-269.87 -30.9,-73.39 -106.6,-162.49 -291.8,-170.19 -82.5,-3.38 -187.7,8.99 -321.5,37.93 -229.4,49.64 -521.4,143.29 -803.7,233.84 -232.5,74.56 -472.9,151.65 -668.57,200.88 -45.13,11.36 -84.83,20.41 -119.68,27.61 37.14,-17.91 81.48,-37.65 134.4,-59.18 198.35,-80.69 452.85,-160.79 698.95,-238.26 287.6,-90.55 559.3,-176.07 766.2,-267.35 122.1,-53.89 212,-106 274.7,-159.3 144.2,-122.55 138.7,-248.77 122.6,-313.11 -18.2,-72.95 -65.6,-133.77 -133.4,-171.28 -223,-123.37 -658.8,8.78 -1351.3,234.63 -168.6,54.97 -328.53,107.13 -464.5,145.79 13.99,-7.38 28.81,-14.91 44.51,-22.54 199.59,-97.03 468.09,-179.46 727.79,-259.17 212.6,-65.27 413.3,-126.91 564.3,-193.48 93.2,-41.11 160.1,-80.49 210.3,-123.95 114.9,-99.54 118.9,-206.55 111.1,-261.48 -12.1,-84.46 -60.5,-155.58 -136.2,-200.27 -51.3,-30.21 -125,-57.3 -258.4,-57.31 -142.4,0 -352.8,30.86 -676.6,121.77 -121.1,34.01 -236.9,70.5 -334.9,103.01 35.7,-121.67 97,-246.51 198.2,-307.3 121.3,-72.91 301.3,-50.68 534.8,66.06 86.8,43.45 192.5,8.22 235.9,-78.64 43.4,-86.87 8.2,-192.5 -78.7,-235.93 -193.7,-96.89 -370.6,-145.37 -529.3,-145.37" /></g></g></g></svg>