<?xml version="1.0" encoding="UTF-8" standalone="no"?>
<svg
   xmlns:dc="http://purl.org/dc/elements/1.1/"
   xmlns:cc="http://creativecommons.org/ns#"
   xmlns:rdf="http://www.w3.org/1999/02/22-rdf-syntax-ns#"
   xmlns:svg="http://www.w3.org/2000/svg"
   xmlns="http://www.w3.org/2000/svg"
   xmlns:sodipodi="http://sodipodi.sourceforge.net/DTD/sodipodi-0.dtd"
   xmlns:inkscape="http://www.inkscape.org/namespaces/inkscape"
   id="svg8"
   version="1.1"
   viewBox="0 0 67.709893 52.916676"
   height="52.916676mm"
   width="67.709892mm"
   sodipodi:docname="shield.svg"
   inkscape:version="0.92.4 (5da689c313, 2019-01-14)">
  <sodipodi:namedview
     pagecolor="#ffffff"
     bordercolor="#666666"
     borderopacity="1"
     objecttolerance="10"
     gridtolerance="10"
     guidetolerance="10"
     inkscape:pageopacity="0"
     inkscape:pageshadow="2"
     inkscape:window-width="1366"
     inkscape:window-height="706"
     id="namedview8"
     showgrid="false"
     inkscape:zoom="1"
     inkscape:cx="-121.33647"
     inkscape:cy="105.97227"
     inkscape:window-x="-8"
     inkscape:window-y="-8"
     inkscape:window-maximized="1"
     inkscape:current-layer="svg8"
     showguides="true"
     inkscape:guide-bbox="true"
     inkscape:snap-nodes="true"
     inkscape:object-paths="true"
     inkscape:snap-intersection-paths="true"
     inkscape:snap-smooth-nodes="true"
     inkscape:snap-midpoints="true"
     inkscape:snap-object-midpoints="true"
     inkscape:snap-center="true"
     showborder="false"
     inkscape:pagecheckerboard="true" />
  <defs
     id="defs2" />
  <metadata
     id="metadata5">
    <rdf:RDF>
      <cc:Work
         rdf:about="">
        <dc:format>image/svg+xml</dc:format>
        <dc:type
           rdf:resource="http://purl.org/dc/dcmitype/StillImage" />
        <dc:title />
      </cc:Work>
    </rdf:RDF>
  </metadata>
  <path
     style="opacity:1;fill:#ffcc00;fill-opacity:1;stroke:none;stroke-width:2.03233838;stroke-miterlimit:4;stroke-dasharray:none;stroke-opacity:1"
     d="M 33.023805,1.7698654e-6 C 33.009107,-1.3643013e-4 32.994407,0.00317547 30.56351,1.8326366 28.132614,3.6620985 17.76195,9.0268515 9.6764655,8.8989775 10.810949,29.150621 16.150823,45.116322 32.961766,52.90375 c 0.0194,0.009 0.0402,0.01294 0.06152,0.01292 0.02132,8e-6 0.04213,-0.0039 0.06152,-0.01292 C 49.895758,45.116325 55.235627,29.150621 56.37011,8.8989775 48.284625,9.0268515 37.913962,3.6620985 35.48341,1.8329129 33.052858,0.00372687 33.038503,1.3966987e-4 33.023805,1.7698654e-6 Z"
     id="path840"
     inkscape:connector-curvature="0"
     sodipodi:nodetypes="scccccccs" />
  <path
     sodipodi:nodetypes="scccccccs"
     inkscape:connector-curvature="0"
     id="path882"
     d="m 33.023675,6.6145795 c -0.01102,-1.03e-4 -0.02205,0.0024 -1.845221,1.374476 -1.823172,1.372097 -9.601169,5.3956605 -15.665284,5.2997555 0.850863,15.188733 4.855769,27.163008 17.463976,33.00358 0.01455,0.0068 0.03015,0.0097 0.04614,0.0097 0.01599,5e-6 0.0316,-0.0029 0.04614,-0.0097 12.60821,-5.84057 16.613112,-17.814847 17.463975,-33.00358 -6.064115,0.0959 -13.842112,-3.9276585 -15.665026,-5.2995485 -1.822913,-1.371889 -1.83368,-1.374579 -1.844704,-1.374683 z"
     style="opacity:1;fill:#0066ff;fill-opacity:1;stroke:none;stroke-width:1.52425385;stroke-miterlimit:4;stroke-dasharray:none;stroke-opacity:1" />
  <g
     id="g906"
     style="fill:#0066ff;fill-opacity:1"
     transform="translate(32.628036,-7.0605445)">
    <rect
       y="48.025871"
       x="-24.445511"
       height="1.8398585"
       width="1.8398585"
       id="rect884"
       style="opacity:1;fill:#0066ff;fill-opacity:1;stroke:none;stroke-width:0.00129397;stroke-miterlimit:4;stroke-dasharray:none;stroke-opacity:1" />
    <rect
       style="opacity:1;fill:#0066ff;fill-opacity:1;stroke:none;stroke-width:0.00129397;stroke-miterlimit:4;stroke-dasharray:none;stroke-opacity:1"
       id="rect886"
       width="1.8398585"
       height="1.8398585"
       x="-26.28537"
       y="49.86573" />
    <rect
       y="48.025871"
       x="-28.125229"
       height="1.8398585"
       width="1.8398585"
       id="rect888"
       style="opacity:1;fill:#0066ff;fill-opacity:1;stroke:none;stroke-width:0.00129397;stroke-miterlimit:4;stroke-dasharray:none;stroke-opacity:1" />
    <rect
       style="opacity:1;fill:#0066ff;fill-opacity:1;stroke:none;stroke-width:0.00129397;stroke-miterlimit:4;stroke-dasharray:none;stroke-opacity:1"
       id="rect890"
       width="1.8398585"
       height="1.8398585"
       x="-26.28537"
       y="46.186012" />
  </g>
  <rect
     style="opacity:1;fill:#0066ff;fill-opacity:1;stroke:none;stroke-width:0.00129397;stroke-miterlimit:4;stroke-dasharray:none;stroke-opacity:1"
     id="rect898"
     width="1.8398585"
     height="1.8398585"
     x="0"
     y="37.818203" />
  <rect
     y="46.000729"
     x="9.8771324"
     height="1.8398585"
     width="1.8398585"
     id="rect900"
     style="opacity:1;fill:#0066ff;fill-opacity:1;stroke:none;stroke-width:0.00129397;stroke-miterlimit:4;stroke-dasharray:none;stroke-opacity:1" />
  <g
     id="g916"
     transform="translate(90.315546,-43.478637)"
     style="fill:#0066ff;fill-opacity:1">
    <rect
       style="opacity:1;fill:#0066ff;fill-opacity:1;stroke:none;stroke-width:0.00129397;stroke-miterlimit:4;stroke-dasharray:none;stroke-opacity:1"
       id="rect908"
       width="1.8398585"
       height="1.8398585"
       x="-24.445511"
       y="48.025871" />
    <rect
       y="49.86573"
       x="-26.28537"
       height="1.8398585"
       width="1.8398585"
       id="rect910"
       style="opacity:1;fill:#0066ff;fill-opacity:1;stroke:none;stroke-width:0.00129397;stroke-miterlimit:4;stroke-dasharray:none;stroke-opacity:1" />
    <rect
       style="opacity:1;fill:#0066ff;fill-opacity:1;stroke:none;stroke-width:0.00129397;stroke-miterlimit:4;stroke-dasharray:none;stroke-opacity:1"
       id="rect912"
       width="1.8398585"
       height="1.8398585"
       x="-28.125229"
       y="48.025871" />
    <rect
       y="46.186012"
       x="-26.28537"
       height="1.8398585"
       width="1.8398585"
       id="rect914"
       style="opacity:1;fill:#0066ff;fill-opacity:1;stroke:none;stroke-width:0.00129397;stroke-miterlimit:4;stroke-dasharray:none;stroke-opacity:1" />
  </g>
  <rect
     y="3.2709966"
     x="55.068268"
     height="1.8398585"
     width="1.8398585"
     id="rect918"
     style="opacity:1;fill:#0066ff;fill-opacity:1;stroke:none;stroke-width:0.00129397;stroke-miterlimit:4;stroke-dasharray:none;stroke-opacity:1" />
  <g
     transform="translate(86.94795,-33.18876)"
     id="g930"
     style="fill:#0066ff;fill-opacity:1">
    <rect
       y="48.025871"
       x="-24.445511"
       height="1.8398585"
       width="1.8398585"
       id="rect922"
       style="opacity:1;fill:#0066ff;fill-opacity:1;stroke:none;stroke-width:0.00129397;stroke-miterlimit:4;stroke-dasharray:none;stroke-opacity:1" />
    <rect
       style="opacity:1;fill:#0066ff;fill-opacity:1;stroke:none;stroke-width:0.00129397;stroke-miterlimit:4;stroke-dasharray:none;stroke-opacity:1"
       id="rect924"
       width="1.8398585"
       height="1.8398585"
       x="-26.28537"
       y="49.86573" />
    <rect
       y="48.025871"
       x="-28.125229"
       height="1.8398585"
       width="1.8398585"
       id="rect926"
       style="opacity:1;fill:#0066ff;fill-opacity:1;stroke:none;stroke-width:0.00129397;stroke-miterlimit:4;stroke-dasharray:none;stroke-opacity:1" />
    <rect
       style="opacity:1;fill:#0066ff;fill-opacity:1;stroke:none;stroke-width:0.00129397;stroke-miterlimit:4;stroke-dasharray:none;stroke-opacity:1"
       id="rect928"
       width="1.8398585"
       height="1.8398585"
       x="-26.28537"
       y="46.186012" />
  </g>
  <path
     style="fill:#000000;fill-opacity:0.11764706;stroke:none;stroke-width:0.26458335px;stroke-linecap:butt;stroke-linejoin:miter;stroke-opacity:1"
     d="M 33.023878,6.6248524e-6 C 33.023865,6.360269e-6 33.023375,5.3579153e-4 33.023362,5.3579153e-4 V 52.916688 c 0.02132,8e-6 0.0421,-0.0039 0.0615,-0.01291 C 49.895805,45.11633 55.235774,29.15085 56.370257,8.8992051 48.284772,9.0270793 37.913711,3.6621554 35.48316,1.8329696 33.052608,0.00378355 33.038576,1.4447277e-4 33.023878,6.6248524e-6 Z"
     id="path934"
     inkscape:connector-curvature="0" />
</svg>
