<?xml version="1.0" encoding="UTF-8" standalone="no"?>
<!-- Generator: Adobe Illustrator 19.0.0, SVG Export Plug-In . SVG Version: 6.00 Build 0)  -->

<svg
   xmlns:dc="http://purl.org/dc/elements/1.1/"
   xmlns:cc="http://creativecommons.org/ns#"
   xmlns:rdf="http://www.w3.org/1999/02/22-rdf-syntax-ns#"
   xmlns:svg="http://www.w3.org/2000/svg"
   xmlns="http://www.w3.org/2000/svg"
   xmlns:sodipodi="http://sodipodi.sourceforge.net/DTD/sodipodi-0.dtd"
   xmlns:inkscape="http://www.inkscape.org/namespaces/inkscape"
   version="1.1"
   id="Capa_1"
   x="0px"
   y="0px"
   viewBox="0 0 415.01859 643.2793"
   xml:space="preserve"
   sodipodi:docname="flask.svg"
   width="415.01859"
   height="643.2793"
   inkscape:version="0.92.4 (5da689c313, 2019-01-14)"><metadata
   id="metadata73"><rdf:RDF><cc:Work
       rdf:about=""><dc:format>image/svg+xml</dc:format><dc:type
         rdf:resource="http://purl.org/dc/dcmitype/StillImage" /></cc:Work></rdf:RDF></metadata><defs
   id="defs71">
	

		
	</defs><sodipodi:namedview
   pagecolor="#ffffff"
   bordercolor="#666666"
   borderopacity="1"
   objecttolerance="10"
   gridtolerance="10"
   guidetolerance="10"
   inkscape:pageopacity="0"
   inkscape:pageshadow="2"
   inkscape:window-width="1366"
   inkscape:window-height="706"
   id="namedview69"
   showgrid="false"
   inkscape:snap-intersection-paths="true"
   inkscape:object-paths="true"
   inkscape:snap-smooth-nodes="true"
   inkscape:snap-midpoints="true"
   inkscape:snap-object-midpoints="true"
   inkscape:snap-center="true"
   inkscape:zoom="0.65186406"
   inkscape:cx="-34.18009"
   inkscape:cy="281.82971"
   inkscape:window-x="-8"
   inkscape:window-y="-8"
   inkscape:window-maximized="1"
   inkscape:current-layer="Capa_1"
   inkscape:snap-nodes="true" />



<path
   d="m 400.32438,602.9803 c -9.67989,16.55245 -26.90829,26.43523 -46.0844,26.43523 H 60.778571 c -19.176118,0 -36.404509,-9.88278 -46.084401,-26.43523 -9.682026,-16.55459 -9.849676,-36.41946 -0.445285,-53.13743 l 45.284596,-80.50595 c 21.97169,7.67237 44.678059,11.54539 67.740009,11.54539 3.41386,0 6.83626,-0.0844 10.26507,-0.25414 29.79783,-1.47574 58.58336,-9.30188 85.55892,-23.26164 36.08415,-18.68278 75.77224,-25.13248 115.09406,-18.77354 l 62.57919,111.24988 c 9.40332,16.71797 9.23674,36.58284 -0.44635,53.13743 z"
   id="path902"
   inkscape:connector-curvature="0"
   style="fill:#00ff00;fill-opacity:1;stroke-width:1.0678314" /><path
   d="m 405.92529,538.95728 -128.416,-228.297 v -121.095 c 11.641,-4.127 20,-15.248 20,-28.286 0,-16.542 -13.458,-30 -30,-30 h -120 c -16.542,0 -30,13.458 -30,30 0,13.038 8.359,24.159 20,28.286 v 121.095 L 9.093291,538.95728 c -12.328,21.916 -12.109,47.959 0.584,69.663 12.692,21.702 35.28,34.659 60.422,34.659 H 344.91929 c 25.142,0 47.729,-12.957 60.422,-34.659 12.693,-21.704 12.912,-47.747 0.584,-69.663 z m -249.7,-220.776 c 0.842,-1.496 1.284,-3.185 1.284,-4.902 v -122 h 10 c 5.522,0 10,-4.478 10,-10 0,-5.522 -4.478,-10 -10,-10 h -20 c -5.514,0 -10,-4.486 -10,-10 0,-5.514 4.486,-10 10,-10 h 120 c 5.514,0 10,4.486 10,10 0,5.514 -4.486,10 -10,10 h -20 c -5.522,0 -10,4.478 -10,10 0,5.522 4.478,10 10,10 h 10 v 122 c 0,1.718 0.442,3.405 1.284,4.902 l 58.941,104.787 c -35.995,-2.915 -71.865,4.365 -104.821,21.43 -42.366,21.924 -89.529,25.784 -133.999999,11.227 z m 231.851,280.342 c -9.065,15.501 -25.199,24.756 -43.157,24.756 H 70.099291 c -17.958,0 -34.092,-9.255 -43.157,-24.756 -9.067,-15.503 -9.224,-34.106 -0.417,-49.762 l 42.408,-75.392 c 20.576,7.185 41.839999,10.812 63.436999,10.812 3.197,0 6.402,-0.079 9.613,-0.238 27.905,-1.382 54.862,-8.711 80.124,-21.784 33.792,-17.496 70.959,-23.536 107.783,-17.581 l 58.604,104.183 c 8.806,15.656 8.65,34.259 -0.418,49.762 z"
   id="path20"
   inkscape:connector-curvature="0" />


<g
   id="g38"
   transform="translate(-48.490709,131.27928)">
</g>
<g
   id="g40"
   transform="translate(-48.490709,131.27928)">
</g>
<g
   id="g42"
   transform="translate(-48.490709,131.27928)">
</g>
<g
   id="g44"
   transform="translate(-48.490709,131.27928)">
</g>
<g
   id="g46"
   transform="translate(-48.490709,131.27928)">
</g>
<g
   id="g48"
   transform="translate(-48.490709,131.27928)">
</g>
<g
   id="g50"
   transform="translate(-48.490709,131.27928)">
</g>
<g
   id="g52"
   transform="translate(-48.490709,131.27928)">
</g>
<g
   id="g54"
   transform="translate(-48.490709,131.27928)">
</g>
<g
   id="g56"
   transform="translate(-48.490709,131.27928)">
</g>
<g
   id="g58"
   transform="translate(-48.490709,131.27928)">
</g>
<g
   id="g60"
   transform="translate(-48.490709,131.27928)">
</g>
<g
   id="g62"
   transform="translate(-48.490709,131.27928)">
</g>
<g
   id="g64"
   transform="translate(-48.490709,131.27928)">
</g>
<g
   id="g66"
   transform="translate(-48.490709,131.27928)">
</g>
<circle
   style="opacity:1;fill:#00ff00;fill-opacity:1;stroke:#000000;stroke-width:10;stroke-linecap:round;stroke-linejoin:round;stroke-miterlimit:4;stroke-dasharray:none;stroke-opacity:1;paint-order:markers fill stroke"
   id="path4684"
   cx="166.70082"
   cy="416.81897"
   r="12.407097" /><circle
   r="12.407097"
   cy="231.85934"
   cx="198.12106"
   id="circle4686"
   style="opacity:1;fill:#00ff00;fill-opacity:1;stroke:#000000;stroke-width:10;stroke-linecap:round;stroke-linejoin:round;stroke-miterlimit:4;stroke-dasharray:none;stroke-opacity:1;paint-order:markers fill stroke" /><circle
   style="opacity:1;fill:#00ff00;fill-opacity:1;stroke:#000000;stroke-width:10;stroke-linecap:round;stroke-linejoin:round;stroke-miterlimit:4;stroke-dasharray:none;stroke-opacity:1;paint-order:markers fill stroke"
   id="circle4690"
   cx="220.67336"
   cy="312.05347"
   r="12.407097" /><g
   id="g4704"
   transform="translate(-51.933836,131.27928)"><path
     sodipodi:nodetypes="cc"
     inkscape:connector-curvature="0"
     id="path4692"
     d="m 230.07739,-13.889134 c -30.29024,-58.70951 36.59058,-59.76898 0,-112.331606"
     style="fill:none;stroke:#000000;stroke-width:10;stroke-linecap:round;stroke-linejoin:round;stroke-miterlimit:4;stroke-dasharray:none;stroke-opacity:1" /><path
     style="fill:none;stroke:#000000;stroke-width:10;stroke-linecap:round;stroke-linejoin:round;stroke-miterlimit:4;stroke-dasharray:none;stroke-opacity:1"
     d="m 248.60268,-13.889134 c -30.29024,-58.70951 36.59058,-59.76898 0,-112.331606"
     id="path4694"
     inkscape:connector-curvature="0"
     sodipodi:nodetypes="cc" /><path
     sodipodi:nodetypes="cc"
     inkscape:connector-curvature="0"
     id="path4696"
     d="m 267.12797,-13.889134 c -30.29024,-58.70951 36.59058,-59.76898 0,-112.331606"
     style="fill:none;stroke:#000000;stroke-width:10;stroke-linecap:round;stroke-linejoin:round;stroke-miterlimit:4;stroke-dasharray:none;stroke-opacity:1" /><path
     style="fill:none;stroke:#000000;stroke-width:10;stroke-linecap:round;stroke-linejoin:round;stroke-miterlimit:4;stroke-dasharray:none;stroke-opacity:1"
     d="m 285.65327,-13.889134 c -30.29024,-58.70951 36.59058,-59.76898 0,-112.331606"
     id="path4698"
     inkscape:connector-curvature="0"
     sodipodi:nodetypes="cc" /></g><g
   id="g4826"
   transform="translate(-36.985243,130.51224)"><rect
     transform="rotate(-42.150732)"
     y="153.42874"
     x="-37.226826"
     height="13.361526"
     width="13.361526"
     id="rect4706"
     style="opacity:1;fill:#00ff00;fill-opacity:1;stroke:none;stroke-width:10.00000191;stroke-linecap:round;stroke-linejoin:round;stroke-miterlimit:4;stroke-dasharray:none;stroke-opacity:1;paint-order:markers fill stroke" /><rect
     transform="rotate(-42.150732)"
     style="opacity:1;fill:#00ff00;fill-opacity:1;stroke:none;stroke-width:10.00000191;stroke-linecap:round;stroke-linejoin:round;stroke-miterlimit:4;stroke-dasharray:none;stroke-opacity:1;paint-order:markers fill stroke"
     id="rect4719"
     width="13.361526"
     height="13.361526"
     x="-23.865299"
     y="166.79027" /><rect
     transform="rotate(-42.150732)"
     y="180.15179"
     x="-37.226826"
     height="13.361526"
     width="13.361526"
     id="rect4721"
     style="opacity:1;fill:#00ff00;fill-opacity:1;stroke:none;stroke-width:10.00000191;stroke-linecap:round;stroke-linejoin:round;stroke-miterlimit:4;stroke-dasharray:none;stroke-opacity:1;paint-order:markers fill stroke" /><rect
     transform="rotate(-42.150732)"
     style="opacity:1;fill:#00ff00;fill-opacity:1;stroke:none;stroke-width:10.00000191;stroke-linecap:round;stroke-linejoin:round;stroke-miterlimit:4;stroke-dasharray:none;stroke-opacity:1;paint-order:markers fill stroke"
     id="rect4723"
     width="13.361526"
     height="13.361526"
     x="-50.588352"
     y="166.79027" /></g><rect
   style="opacity:1;fill:#00ff00;fill-opacity:1;stroke:none;stroke-width:10.00000191;stroke-linecap:round;stroke-linejoin:round;stroke-miterlimit:4;stroke-dasharray:none;stroke-opacity:1;paint-order:markers fill stroke"
   id="rect4725"
   width="13.361526"
   height="13.361526"
   x="-80.066772"
   y="226.84044"
   transform="rotate(-42.150732)" /><rect
   y="283.05005"
   x="-173.00777"
   height="13.361526"
   width="13.361526"
   id="rect4727"
   style="opacity:1;fill:#00ff00;fill-opacity:1;stroke:none;stroke-width:10.00000191;stroke-linecap:round;stroke-linejoin:round;stroke-miterlimit:4;stroke-dasharray:none;stroke-opacity:1;paint-order:markers fill stroke"
   transform="rotate(-42.150732)" /><g
   id="g4814"
   transform="translate(-83.007108,188.80661)"><rect
     transform="rotate(-42.150732)"
     style="opacity:1;fill:#00ff00;fill-opacity:1;stroke:none;stroke-width:10.00000191;stroke-linecap:round;stroke-linejoin:round;stroke-miterlimit:4;stroke-dasharray:none;stroke-opacity:1;paint-order:markers fill stroke"
     id="rect4765"
     width="13.361526"
     height="13.361526"
     x="204.50887"
     y="373.2774" /><rect
     transform="rotate(-42.150732)"
     y="386.63895"
     x="217.87039"
     height="13.361526"
     width="13.361526"
     id="rect4767"
     style="opacity:1;fill:#00ff00;fill-opacity:1;stroke:none;stroke-width:10.00000191;stroke-linecap:round;stroke-linejoin:round;stroke-miterlimit:4;stroke-dasharray:none;stroke-opacity:1;paint-order:markers fill stroke" /><rect
     transform="rotate(-42.150732)"
     style="opacity:1;fill:#00ff00;fill-opacity:1;stroke:none;stroke-width:10.00000191;stroke-linecap:round;stroke-linejoin:round;stroke-miterlimit:4;stroke-dasharray:none;stroke-opacity:1;paint-order:markers fill stroke"
     id="rect4769"
     width="13.361526"
     height="13.361526"
     x="204.50887"
     y="400.00046" /><rect
     transform="rotate(-42.150732)"
     y="386.63895"
     x="191.14734"
     height="13.361526"
     width="13.361526"
     id="rect4771"
     style="opacity:1;fill:#00ff00;fill-opacity:1;stroke:none;stroke-width:10.00000191;stroke-linecap:round;stroke-linejoin:round;stroke-miterlimit:4;stroke-dasharray:none;stroke-opacity:1;paint-order:markers fill stroke" /></g><rect
   y="284.17841"
   x="153.58075"
   height="13.361526"
   width="13.361526"
   id="rect4773"
   style="opacity:1;fill:#00ff00;fill-opacity:1;stroke:none;stroke-width:10.00000191;stroke-linecap:round;stroke-linejoin:round;stroke-miterlimit:4;stroke-dasharray:none;stroke-opacity:1;paint-order:markers fill stroke"
   transform="rotate(-42.150732)" /><rect
   style="opacity:1;fill:#00ff00;fill-opacity:1;stroke:none;stroke-width:10.00000191;stroke-linecap:round;stroke-linejoin:round;stroke-miterlimit:4;stroke-dasharray:none;stroke-opacity:1;paint-order:markers fill stroke"
   id="rect4775"
   width="13.361526"
   height="13.361526"
   x="-2.1691508"
   y="573.22168"
   transform="rotate(-42.150732)" /><g
   id="g4833"
   transform="translate(-374.82855,349.69932)"><rect
     transform="rotate(-42.150732)"
     style="opacity:1;fill:#00ff00;fill-opacity:1;stroke:none;stroke-width:10.00000191;stroke-linecap:round;stroke-linejoin:round;stroke-miterlimit:4;stroke-dasharray:none;stroke-opacity:1;paint-order:markers fill stroke"
     id="rect4781"
     width="13.361526"
     height="13.361526"
     x="281.83069"
     y="329.69424" /><g
     id="g4802"><rect
       style="opacity:1;fill:#00ff00;fill-opacity:1;stroke:none;stroke-width:10.00000191;stroke-linecap:round;stroke-linejoin:round;stroke-miterlimit:4;stroke-dasharray:none;stroke-opacity:1;paint-order:markers fill stroke"
       id="rect4779"
       width="13.361526"
       height="13.361526"
       x="268.46915"
       y="316.3327"
       transform="rotate(-42.150732)" /><rect
       style="opacity:1;fill:#00ff00;fill-opacity:1;stroke:none;stroke-width:10.00000191;stroke-linecap:round;stroke-linejoin:round;stroke-miterlimit:4;stroke-dasharray:none;stroke-opacity:1;paint-order:markers fill stroke"
       id="rect4783"
       width="13.361526"
       height="13.361526"
       x="268.46915"
       y="343.05576"
       transform="rotate(-42.150732)" /><rect
       y="329.69424"
       x="255.10764"
       height="13.361526"
       width="13.361526"
       id="rect4785"
       style="opacity:1;fill:#00ff00;fill-opacity:1;stroke:none;stroke-width:10.00000191;stroke-linecap:round;stroke-linejoin:round;stroke-miterlimit:4;stroke-dasharray:none;stroke-opacity:1;paint-order:markers fill stroke"
       transform="rotate(-42.150732)" /></g></g><rect
   style="opacity:1;fill:#00ff00;fill-opacity:1;stroke:none;stroke-width:10.00000191;stroke-linecap:round;stroke-linejoin:round;stroke-miterlimit:4;stroke-dasharray:none;stroke-opacity:1;paint-order:markers fill stroke"
   id="rect4787"
   width="13.361526"
   height="13.361526"
   x="129.97104"
   y="366.26703"
   transform="rotate(-42.150732)" /><rect
   y="382.5329"
   x="64.909515"
   height="13.361526"
   width="13.361526"
   id="rect4789"
   style="opacity:1;fill:#00ff00;fill-opacity:1;stroke:none;stroke-width:10.00000191;stroke-linecap:round;stroke-linejoin:round;stroke-miterlimit:4;stroke-dasharray:none;stroke-opacity:1;paint-order:markers fill stroke"
   transform="rotate(-42.150732)" /></svg>