<?xml version="1.0" encoding="UTF-8" standalone="no"?>
<!-- Created with Inkscape (http://www.inkscape.org/) -->

<svg
   xmlns:dc="http://purl.org/dc/elements/1.1/"
   xmlns:cc="http://creativecommons.org/ns#"
   xmlns:rdf="http://www.w3.org/1999/02/22-rdf-syntax-ns#"
   xmlns:svg="http://www.w3.org/2000/svg"
   xmlns="http://www.w3.org/2000/svg"
   xmlns:sodipodi="http://sodipodi.sourceforge.net/DTD/sodipodi-0.dtd"
   xmlns:inkscape="http://www.inkscape.org/namespaces/inkscape"
   version="1.1"
   id="svg2"
   width="576.05957"
   height="491.55273"
   viewBox="0 0 576.05957 491.55273"
   sodipodi:docname="Relevância.svg"
   inkscape:version="0.92.1 r15371">
  <metadata
     id="metadata8">
    <rdf:RDF>
      <cc:Work
         rdf:about="">
        <dc:format>image/svg+xml</dc:format>
        <dc:type
           rdf:resource="http://purl.org/dc/dcmitype/StillImage" />
        <dc:title />
      </cc:Work>
    </rdf:RDF>
  </metadata>
  <defs
     id="defs6" />
  <sodipodi:namedview
     pagecolor="#ffffff"
     bordercolor="#666666"
     borderopacity="1"
     objecttolerance="10"
     gridtolerance="10"
     guidetolerance="10"
     inkscape:pageopacity="0"
     inkscape:pageshadow="2"
     inkscape:window-width="1920"
     inkscape:window-height="1028"
     id="namedview4"
     showgrid="false"
     inkscape:snap-object-midpoints="true"
     inkscape:zoom="0.32593203"
     inkscape:cx="-742.51675"
     inkscape:cy="352.64743"
     inkscape:window-x="-8"
     inkscape:window-y="-8"
     inkscape:window-maximized="1"
     inkscape:current-layer="svg2" />
  <path
     style="color:#000000;font-style:normal;font-variant:normal;font-weight:normal;font-stretch:normal;font-size:medium;line-height:normal;font-family:sans-serif;font-variant-ligatures:normal;font-variant-position:normal;font-variant-caps:normal;font-variant-numeric:normal;font-variant-alternates:normal;font-feature-settings:normal;text-indent:0;text-align:start;text-decoration:none;text-decoration-line:none;text-decoration-style:solid;text-decoration-color:#000000;letter-spacing:normal;word-spacing:normal;text-transform:none;writing-mode:lr-tb;direction:ltr;text-orientation:mixed;dominant-baseline:auto;baseline-shift:baseline;text-anchor:start;white-space:normal;shape-padding:0;clip-rule:nonzero;display:inline;overflow:visible;visibility:visible;opacity:1;isolation:auto;mix-blend-mode:normal;color-interpolation:sRGB;color-interpolation-filters:linearRGB;solid-color:#000000;solid-opacity:1;vector-effect:none;fill:#000000;fill-opacity:1;fill-rule:evenodd;stroke:none;stroke-width:20;stroke-linecap:round;stroke-linejoin:miter;stroke-miterlimit:4;stroke-dasharray:none;stroke-dashoffset:0;stroke-opacity:1;color-rendering:auto;image-rendering:auto;shape-rendering:auto;text-rendering:auto;enable-background:accumulate"
     d="m -1010.7549,273.67033 a 10.001,10.001 0 0 0 -9.8496,10.14063 v 147.52538 a 10.001,10.001 0 1 0 20,0 V 283.81096 a 10.001,10.001 0 0 0 -10.1504,-10.14063 z"
     id="path4487"
     inkscape:connector-curvature="0" />
  <path
     style="opacity:1;fill:none;fill-opacity:1;stroke:#000000;stroke-width:20;stroke-linecap:round;stroke-miterlimit:4;stroke-dasharray:none"
     d="m -968.03408,283.81145 a 42.570225,42.570225 0 0 1 -42.57022,42.57021 42.570225,42.570225 0 0 1 -42.5702,-42.57021 42.570225,42.570225 0 0 1 42.5702,-42.57023 42.570225,42.570225 0 0 1 42.57022,42.57023 z"
     id="path4489"
     inkscape:connector-curvature="0" />
  <path
     style="color:#000000;font-style:normal;font-variant:normal;font-weight:normal;font-stretch:normal;font-size:medium;line-height:normal;font-family:sans-serif;font-variant-ligatures:normal;font-variant-position:normal;font-variant-caps:normal;font-variant-numeric:normal;font-variant-alternates:normal;font-feature-settings:normal;text-indent:0;text-align:start;text-decoration:none;text-decoration-line:none;text-decoration-style:solid;text-decoration-color:#000000;letter-spacing:normal;word-spacing:normal;text-transform:none;writing-mode:lr-tb;direction:ltr;text-orientation:mixed;dominant-baseline:auto;baseline-shift:baseline;text-anchor:start;white-space:normal;shape-padding:0;clip-rule:nonzero;display:inline;overflow:visible;visibility:visible;opacity:1;isolation:auto;mix-blend-mode:normal;color-interpolation:sRGB;color-interpolation-filters:linearRGB;solid-color:#000000;solid-opacity:1;vector-effect:none;fill:#000000;fill-opacity:1;fill-rule:evenodd;stroke:none;stroke-width:20;stroke-linecap:round;stroke-linejoin:miter;stroke-miterlimit:4;stroke-dasharray:none;stroke-dashoffset:0;stroke-opacity:1;color-rendering:auto;image-rendering:auto;shape-rendering:auto;text-rendering:auto;enable-background:accumulate"
     d="m -242.17926,-355.23258 c -28.9152,0 -52.5703,23.65502 -52.5703,52.57031 0,25.49699 18.3967,46.89264 42.5703,51.59766 v 95.92773 a 10.001,10.001 0 1 0 20,0 v -95.92773 c 24.1737,-4.70503 42.5704,-26.10068 42.5704,-51.59766 0,-28.91528 -23.6551,-52.57031 -52.5704,-52.57031 z m 0,20 c 18.1065,0 32.5704,14.46383 32.5704,32.57031 0,18.10648 -14.4639,32.57031 -32.5704,32.57031 -18.1064,0 -32.5703,-14.46383 -32.5703,-32.57031 0,-18.10648 14.4639,-32.57031 32.5703,-32.57031 z m -5.0917,84.88672 c 0.1548,0.0151 0.3116,0.0234 0.4667,0.0371 -0.1551,-0.014 -0.312,-0.0218 -0.4667,-0.0371 z m 10.1835,0 c -0.1547,0.0153 -0.3116,0.0231 -0.4668,0.0371 0.1552,-0.0137 0.312,-0.0221 0.4668,-0.0371 z m -7.6835,0.1875 c 0.8589,0.0422 1.7228,0.0664 2.5917,0.0664 0.869,0 1.7329,-0.0242 2.5918,-0.0664 -0.8587,0.0433 -1.7226,0.0664 -2.5918,0.0664 -0.8691,0 -1.733,-0.0231 -2.5917,-0.0664 z"
     id="path4487-1"
     inkscape:connector-curvature="0" />
  <path
     inkscape:connector-curvature="0"
     id="path4510"
     d="m -854.77088,522.26241 c -28.9153,0 -52.5703,23.65503 -52.5703,52.57032 0,28.91529 23.655,52.57032 52.5703,52.57031 28.9153,0 52.5703,-23.65503 52.5703,-52.57031 0,-28.91529 -23.655,-52.57031 -52.5703,-52.57032 z m 0,20 c 18.1065,10e-6 32.5703,14.46383 32.5703,32.57032 0,18.10648 -14.4638,32.57031 -32.5703,32.57031 -18.1065,0 -32.5703,-14.46383 -32.5703,-32.57031 0,-18.10649 14.4638,-32.57032 32.5703,-32.57032 z"
     style="color:#000000;font-style:normal;font-variant:normal;font-weight:normal;font-stretch:normal;font-size:medium;line-height:normal;font-family:sans-serif;font-variant-ligatures:normal;font-variant-position:normal;font-variant-caps:normal;font-variant-numeric:normal;font-variant-alternates:normal;font-feature-settings:normal;text-indent:0;text-align:start;text-decoration:none;text-decoration-line:none;text-decoration-style:solid;text-decoration-color:#000000;letter-spacing:normal;word-spacing:normal;text-transform:none;writing-mode:lr-tb;direction:ltr;text-orientation:mixed;dominant-baseline:auto;baseline-shift:baseline;text-anchor:start;white-space:normal;shape-padding:0;clip-rule:nonzero;display:inline;overflow:visible;visibility:visible;opacity:1;isolation:auto;mix-blend-mode:normal;color-interpolation:sRGB;color-interpolation-filters:linearRGB;solid-color:#000000;solid-opacity:1;vector-effect:none;fill:#000000;fill-opacity:1;fill-rule:nonzero;stroke:none;stroke-width:20;stroke-linecap:round;stroke-linejoin:miter;stroke-miterlimit:4;stroke-dasharray:none;stroke-dashoffset:0;stroke-opacity:1;color-rendering:auto;image-rendering:auto;shape-rendering:auto;text-rendering:auto;enable-background:accumulate" />
  <path
     style="color:#000000;font-style:normal;font-variant:normal;font-weight:normal;font-stretch:normal;font-size:medium;line-height:normal;font-family:sans-serif;font-variant-ligatures:normal;font-variant-position:normal;font-variant-caps:normal;font-variant-numeric:normal;font-variant-alternates:normal;font-feature-settings:normal;text-indent:0;text-align:start;text-decoration:none;text-decoration-line:none;text-decoration-style:solid;text-decoration-color:#000000;letter-spacing:normal;word-spacing:normal;text-transform:none;writing-mode:lr-tb;direction:ltr;text-orientation:mixed;dominant-baseline:auto;baseline-shift:baseline;text-anchor:start;white-space:normal;shape-padding:0;clip-rule:nonzero;display:inline;overflow:visible;visibility:visible;opacity:1;isolation:auto;mix-blend-mode:normal;color-interpolation:sRGB;color-interpolation-filters:linearRGB;solid-color:#000000;solid-opacity:1;vector-effect:none;fill:#000000;fill-opacity:1;fill-rule:nonzero;stroke:none;stroke-width:18.27761841;stroke-linecap:round;stroke-linejoin:miter;stroke-miterlimit:4;stroke-dasharray:none;stroke-dashoffset:0;stroke-opacity:1;color-rendering:auto;image-rendering:auto;shape-rendering:auto;text-rendering:auto;enable-background:accumulate"
     d="m -232.84182,787.90911 c -16.92658,0 -30.8379,13.91131 -30.8379,30.83789 v 209.3047 c 0,16.9266 13.91132,30.8379 30.8379,30.8379 16.92657,0 30.83984,-13.9113 30.83984,-30.8379 V 818.747 c 0,-16.92658 -13.91327,-30.83789 -30.83984,-30.83789 z m 0,18.27734 c 7.11693,0 12.56054,5.44362 12.56054,12.56055 v 209.3047 c 0,7.1169 -5.44361,12.5605 -12.56054,12.5605 -7.11694,0 -12.56055,-5.4436 -12.56055,-12.5605 V 818.747 c 0,-7.11693 5.44361,-12.56055 12.56055,-12.56055 z"
     id="rect4513"
     inkscape:connector-curvature="0" />
  <rect
     rx="0"
     ry="21.699919"
     y="534.53949"
     x="-1098.4736"
     height="252.70349"
     width="43.399837"
     id="rect4519"
     style="opacity:1;fill:none;fill-opacity:1;stroke:#000000;stroke-width:18.27761841;stroke-linecap:round;stroke-miterlimit:4;stroke-dasharray:none" />
  <rect
     ry="60.123596"
     y="372.01614"
     x="-1545.9248"
     height="161.62712"
     width="162.71187"
     id="rect4577"
     style="opacity:1;fill:none;fill-opacity:1;stroke:#000000;stroke-width:20;stroke-linecap:round;stroke-miterlimit:4;stroke-dasharray:none" />
  <path
     id="path4579"
     d="m -1499.9025,372.01546 c -25.4961,0 -46.0215,20.5273 -46.0215,46.02343 v 41.8086 h 162.711 v -41.8086 c 0,-25.49613 -20.5254,-46.02343 -46.0215,-46.02343 z"
     style="opacity:1;fill:none;fill-opacity:1;stroke:#000000;stroke-width:20;stroke-linecap:round;stroke-miterlimit:4;stroke-dasharray:none"
     inkscape:connector-curvature="0" />
  <path
     inkscape:connector-curvature="0"
     id="path4596"
     d="m -635.38816,-434.75158 c -23.00754,0 -41.82967,18.82207 -41.82967,41.82967 0,20.2877 14.63808,37.31201 33.87277,41.05573 v 76.32875 a 7.9576958,7.9576958 0 1 0 15.9138,0 v -76.32875 c 19.23477,-3.74374 33.87285,-20.76805 33.87285,-41.05573 0,-23.0076 -18.82213,-41.82967 -41.82975,-41.82967 z m 0,15.9138 c 14.40716,0 25.91595,11.50871 25.91595,25.91587 0,14.40715 -11.50879,25.91587 -25.91595,25.91587 -14.40708,0 -25.91587,-11.50872 -25.91587,-25.91587 0,-14.40716 11.50879,-25.91587 25.91587,-25.91587 z m -4.05141,67.54351 c 0.12317,0.0111 0.24794,0.0178 0.37134,0.0296 -0.1234,-0.0111 -0.24826,-0.0178 -0.37134,-0.0296 z m 8.1029,0 c -0.12317,0.0111 -0.24794,0.0178 -0.37143,0.0296 0.1234,-0.0111 0.24826,-0.0178 0.37143,-0.0296 z m -6.11367,0.14918 c 0.6834,0.0336 1.37081,0.0529 2.06218,0.0529 0.69145,0 1.37886,-0.02 2.06226,-0.0529 -0.68325,0.0345 -1.37065,0.0529 -2.06226,0.0529 -0.69153,0 -1.37893,-0.0178 -2.06218,-0.0529 z"
     style="color:#000000;font-style:normal;font-variant:normal;font-weight:normal;font-stretch:normal;font-size:medium;line-height:normal;font-family:sans-serif;font-variant-ligatures:normal;font-variant-position:normal;font-variant-caps:normal;font-variant-numeric:normal;font-variant-alternates:normal;font-feature-settings:normal;text-indent:0;text-align:start;text-decoration:none;text-decoration-line:none;text-decoration-style:solid;text-decoration-color:#000000;letter-spacing:normal;word-spacing:normal;text-transform:none;writing-mode:lr-tb;direction:ltr;text-orientation:mixed;dominant-baseline:auto;baseline-shift:baseline;text-anchor:start;white-space:normal;shape-padding:0;clip-rule:nonzero;display:inline;overflow:visible;visibility:visible;opacity:1;isolation:auto;mix-blend-mode:normal;color-interpolation:sRGB;color-interpolation-filters:linearRGB;solid-color:#000000;solid-opacity:1;vector-effect:none;fill:#000000;fill-opacity:1;fill-rule:evenodd;stroke:none;stroke-width:15.91380119;stroke-linecap:round;stroke-linejoin:miter;stroke-miterlimit:4;stroke-dasharray:none;stroke-dashoffset:0;stroke-opacity:1;color-rendering:auto;image-rendering:auto;shape-rendering:auto;text-rendering:auto;enable-background:accumulate" />
  <g
     id="g4656"
     transform="translate(884.28182,332.45884)">
    <g
       id="g4696"
       transform="translate(0,22.779661)">
      <path
         style="color:#000000;font-style:normal;font-variant:normal;font-weight:normal;font-stretch:normal;font-size:medium;line-height:normal;font-family:sans-serif;font-variant-ligatures:normal;font-variant-position:normal;font-variant-caps:normal;font-variant-numeric:normal;font-variant-alternates:normal;font-feature-settings:normal;text-indent:0;text-align:start;text-decoration:none;text-decoration-line:none;text-decoration-style:solid;text-decoration-color:#000000;letter-spacing:normal;word-spacing:normal;text-transform:none;writing-mode:lr-tb;direction:ltr;text-orientation:mixed;dominant-baseline:auto;baseline-shift:baseline;text-anchor:start;white-space:normal;shape-padding:0;clip-rule:nonzero;display:inline;overflow:visible;visibility:visible;opacity:1;isolation:auto;mix-blend-mode:normal;color-interpolation:sRGB;color-interpolation-filters:linearRGB;solid-color:#000000;solid-opacity:1;vector-effect:none;fill:#000000;fill-opacity:1;fill-rule:evenodd;stroke:none;stroke-width:15.91380119;stroke-linecap:round;stroke-linejoin:miter;stroke-miterlimit:4;stroke-dasharray:none;stroke-dashoffset:0;stroke-opacity:1;color-rendering:auto;image-rendering:auto;shape-rendering:auto;text-rendering:auto;enable-background:accumulate"
         d="m -837.61612,-223.26413 c -16.26879,16.26879 -16.26883,42.88726 0,59.15608 14.34557,14.34557 36.73426,16.03289 52.98245,5.07912 l 53.97258,53.97258 a 7.9576958,7.9576958 0 1 0 11.25275,-11.25276 l -53.97257,-53.97257 c 10.95381,-16.24826 9.26649,-38.63695 -5.07907,-52.98251 -16.26883,-16.26883 -42.8873,-16.26878 -59.15614,6e-5 z m 11.25276,11.25276 c 10.1874,-10.18741 26.46323,-10.18746 36.65063,-6e-5 10.18739,10.18739 10.18734,26.46323 -6e-5,36.65063 -10.18734,10.18734 -26.46318,10.18739 -36.65057,0 -10.1874,-10.1874 -10.18735,-26.46323 0,-36.65057 z m 44.89569,50.62525 c 0.0949,-0.0793 0.18791,-0.16274 0.28351,-0.24165 -0.0951,0.0794 -0.18813,0.16296 -0.28351,0.24165 z m 5.72962,-5.72962 c -0.0793,0.0949 -0.16274,0.18791 -0.24171,0.28357 0.0794,-0.0951 0.16296,-0.18813 0.24171,-0.28357 z m -4.21753,4.4285 c 0.50699,-0.45947 1.00671,-0.9319 1.49558,-1.42077 0.48893,-0.48893 0.96086,-0.98915 1.42084,-1.49565 -0.45874,0.50753 -0.93179,1.00661 -1.42084,1.49565 -0.48898,0.48898 -0.98763,0.96246 -1.49558,1.42077 z"
         id="path4598"
         inkscape:connector-curvature="0" />
      <path
         inkscape:connector-curvature="0"
         id="path4604"
         d="m -354.88792,-223.26413 c 16.26879,16.26879 16.26883,42.88726 0,59.15608 -14.34557,14.34557 -36.73426,16.03289 -52.98245,5.07912 l -53.97258,53.97258 a 7.9576958,7.9576958 0 1 1 -11.25275,-11.25276 l 53.97257,-53.97257 c -10.95381,-16.24826 -9.26649,-38.63695 5.07907,-52.98251 16.26883,-16.26883 42.8873,-16.26878 59.15614,6e-5 z m -11.25276,11.25276 c -10.1874,-10.18741 -26.46323,-10.18746 -36.65063,-6e-5 -10.18739,10.18739 -10.18734,26.46323 6e-5,36.65063 10.18734,10.18734 26.46318,10.18739 36.65057,0 10.1874,-10.1874 10.18735,-26.46323 0,-36.65057 z m -44.89569,50.62525 c -0.0949,-0.0793 -0.18791,-0.16274 -0.28351,-0.24165 0.0951,0.0794 0.18813,0.16296 0.28351,0.24165 z m -5.72962,-5.72962 c 0.0793,0.0949 0.16274,0.18791 0.24171,0.28357 -0.0794,-0.0951 -0.16296,-0.18813 -0.24171,-0.28357 z m 4.21753,4.4285 c -0.50699,-0.45947 -1.00671,-0.9319 -1.49558,-1.42077 -0.48893,-0.48893 -0.96086,-0.98915 -1.42084,-1.49565 0.45874,0.50753 0.93179,1.00661 1.42084,1.49565 0.48898,0.48898 0.98763,0.96246 1.49558,1.42077 z"
         style="color:#000000;font-style:normal;font-variant:normal;font-weight:normal;font-stretch:normal;font-size:medium;line-height:normal;font-family:sans-serif;font-variant-ligatures:normal;font-variant-position:normal;font-variant-caps:normal;font-variant-numeric:normal;font-variant-alternates:normal;font-feature-settings:normal;text-indent:0;text-align:start;text-decoration:none;text-decoration-line:none;text-decoration-style:solid;text-decoration-color:#000000;letter-spacing:normal;word-spacing:normal;text-transform:none;writing-mode:lr-tb;direction:ltr;text-orientation:mixed;dominant-baseline:auto;baseline-shift:baseline;text-anchor:start;white-space:normal;shape-padding:0;clip-rule:nonzero;display:inline;overflow:visible;visibility:visible;opacity:1;isolation:auto;mix-blend-mode:normal;color-interpolation:sRGB;color-interpolation-filters:linearRGB;solid-color:#000000;solid-opacity:1;vector-effect:none;fill:#000000;fill-opacity:1;fill-rule:evenodd;stroke:none;stroke-width:15.91380119;stroke-linecap:round;stroke-linejoin:miter;stroke-miterlimit:4;stroke-dasharray:none;stroke-dashoffset:0;stroke-opacity:1;color-rendering:auto;image-rendering:auto;shape-rendering:auto;text-rendering:auto;enable-background:accumulate" />
    </g>
  </g>
  <g
     id="g4660"
     transform="translate(884.28182,419.40465)">
    <g
       id="g4700"
       transform="translate(0,-13.80656)">
      <path
         inkscape:connector-curvature="0"
         id="path4600"
         d="m -884.28182,-50.018869 c 0,23.007543 18.82207,41.829672 41.82967,41.829665 20.2877,0 37.31201,-14.638079 41.05573,-33.87277 l 76.32875,10e-7 a 7.9576958,7.9576958 0 1 0 -10e-6,-15.913799 h -76.32874 c -3.74374,-19.234768 -20.76805,-33.872847 -41.05573,-33.872847 -23.0076,0 -41.82967,18.822136 -41.82967,41.82975 z m 15.91381,0 c -10e-6,-14.407166 11.50871,-25.915952 25.91586,-25.915952 14.40715,0 25.91587,11.508793 25.91587,25.915952 0,14.407074 -11.50872,25.915866 -25.91587,25.915866 -14.40715,0 -25.91587,-11.508785 -25.91586,-25.915866 z m 67.5435,4.051411 c 0.011,-0.123178 0.0178,-0.247947 0.0296,-0.371345 -0.0111,0.123391 -0.0178,0.248258 -0.0296,0.371345 z m 0,-8.102907 c 0.011,0.123178 0.0178,0.247947 0.0296,0.371429 -0.0111,-0.12339 -0.0178,-0.248258 -0.0296,-0.371429 z m 0.14918,6.113667 c 0.0336,-0.683391 0.0529,-1.370805 0.0529,-2.062171 0,-0.691452 -0.02,-1.378865 -0.0529,-2.06227 0.0345,0.683256 0.0529,1.370656 0.0529,2.06227 0,0.691522 -0.0178,1.378922 -0.0529,2.062171 z"
         style="color:#000000;font-style:normal;font-variant:normal;font-weight:normal;font-stretch:normal;font-size:medium;line-height:normal;font-family:sans-serif;font-variant-ligatures:normal;font-variant-position:normal;font-variant-caps:normal;font-variant-numeric:normal;font-variant-alternates:normal;font-feature-settings:normal;text-indent:0;text-align:start;text-decoration:none;text-decoration-line:none;text-decoration-style:solid;text-decoration-color:#000000;letter-spacing:normal;word-spacing:normal;text-transform:none;writing-mode:lr-tb;direction:ltr;text-orientation:mixed;dominant-baseline:auto;baseline-shift:baseline;text-anchor:start;white-space:normal;shape-padding:0;clip-rule:nonzero;display:inline;overflow:visible;visibility:visible;opacity:1;isolation:auto;mix-blend-mode:normal;color-interpolation:sRGB;color-interpolation-filters:linearRGB;solid-color:#000000;solid-opacity:1;vector-effect:none;fill:#000000;fill-opacity:1;fill-rule:evenodd;stroke:none;stroke-width:15.91380119;stroke-linecap:round;stroke-linejoin:miter;stroke-miterlimit:4;stroke-dasharray:none;stroke-dashoffset:0;stroke-opacity:1;color-rendering:auto;image-rendering:auto;shape-rendering:auto;text-rendering:auto;enable-background:accumulate" />
      <path
         style="color:#000000;font-style:normal;font-variant:normal;font-weight:normal;font-stretch:normal;font-size:medium;line-height:normal;font-family:sans-serif;font-variant-ligatures:normal;font-variant-position:normal;font-variant-caps:normal;font-variant-numeric:normal;font-variant-alternates:normal;font-feature-settings:normal;text-indent:0;text-align:start;text-decoration:none;text-decoration-line:none;text-decoration-style:solid;text-decoration-color:#000000;letter-spacing:normal;word-spacing:normal;text-transform:none;writing-mode:lr-tb;direction:ltr;text-orientation:mixed;dominant-baseline:auto;baseline-shift:baseline;text-anchor:start;white-space:normal;shape-padding:0;clip-rule:nonzero;display:inline;overflow:visible;visibility:visible;opacity:1;isolation:auto;mix-blend-mode:normal;color-interpolation:sRGB;color-interpolation-filters:linearRGB;solid-color:#000000;solid-opacity:1;vector-effect:none;fill:#000000;fill-opacity:1;fill-rule:evenodd;stroke:none;stroke-width:15.91380119;stroke-linecap:round;stroke-linejoin:miter;stroke-miterlimit:4;stroke-dasharray:none;stroke-dashoffset:0;stroke-opacity:1;color-rendering:auto;image-rendering:auto;shape-rendering:auto;text-rendering:auto;enable-background:accumulate"
         d="m -308.22222,-50.018869 c 0,23.007543 -18.82207,41.829672 -41.82967,41.829665 -20.2877,0 -37.31201,-14.638079 -41.05573,-33.87277 l -76.32875,10e-7 a 7.9576958,7.9576958 0 1 1 1e-5,-15.913799 h 76.32874 c 3.74374,-19.234768 20.76805,-33.872847 41.05573,-33.872847 23.0076,0 41.82967,18.822136 41.82967,41.82975 z m -15.91381,0 c 1e-5,-14.407166 -11.50871,-25.915952 -25.91586,-25.915952 -14.40715,0 -25.91587,11.508793 -25.91587,25.915952 0,14.407074 11.50872,25.915866 25.91587,25.915866 14.40715,0 25.91587,-11.508785 25.91586,-25.915866 z m -67.5435,4.051411 c -0.011,-0.123178 -0.0178,-0.247947 -0.0296,-0.371345 0.0111,0.123391 0.0178,0.248258 0.0296,0.371345 z m 0,-8.102907 c -0.011,0.123178 -0.0178,0.247947 -0.0296,0.371429 0.0111,-0.12339 0.0178,-0.248258 0.0296,-0.371429 z m -0.14918,6.113667 c -0.0336,-0.683391 -0.0529,-1.370805 -0.0529,-2.062171 0,-0.691452 0.02,-1.378865 0.0529,-2.06227 -0.0345,0.683256 -0.0529,1.370656 -0.0529,2.06227 0,0.691522 0.0178,1.378922 0.0529,2.062171 z"
         id="path4606"
         inkscape:connector-curvature="0" />
    </g>
  </g>
  <path
     style="opacity:1;fill:none;fill-opacity:1;stroke:#000000;stroke-width:15;stroke-linecap:round;stroke-miterlimit:4;stroke-dasharray:none"
     d="m 243.47459,322.42578 c -20.38807,0 -36.80078,16.41272 -36.80078,36.80078 v 77.09961 47.72656 h 162.71291 v -47.72656 -77.09961 c 0,-20.38806 -16.4147,-36.80078 -36.80276,-36.80078 z"
     id="rect4610"
     inkscape:connector-curvature="0" />
  <path
     style="color:#000000;font-style:normal;font-variant:normal;font-weight:normal;font-stretch:normal;font-size:medium;line-height:normal;font-family:sans-serif;font-variant-ligatures:normal;font-variant-position:normal;font-variant-caps:normal;font-variant-numeric:normal;font-variant-alternates:normal;font-feature-settings:normal;text-indent:0;text-align:start;text-decoration:none;text-decoration-line:none;text-decoration-style:solid;text-decoration-color:#000000;letter-spacing:normal;word-spacing:normal;text-transform:none;writing-mode:lr-tb;direction:ltr;text-orientation:mixed;dominant-baseline:auto;baseline-shift:baseline;text-anchor:start;white-space:normal;shape-padding:0;clip-rule:nonzero;display:inline;overflow:visible;visibility:visible;opacity:1;isolation:auto;mix-blend-mode:normal;color-interpolation:sRGB;color-interpolation-filters:linearRGB;solid-color:#000000;solid-opacity:1;vector-effect:none;fill:#000000;fill-opacity:1;fill-rule:nonzero;stroke:none;stroke-width:15;stroke-linecap:round;stroke-linejoin:miter;stroke-miterlimit:4;stroke-dasharray:none;stroke-dashoffset:0;stroke-opacity:1;color-rendering:auto;image-rendering:auto;shape-rendering:auto;text-rendering:auto;enable-background:accumulate"
     d="m 288.02895,186.4732 c -33.08708,0 -60.07031,26.98323 -60.07031,60.07031 0,33.08708 26.98323,60.07031 60.07031,60.07031 33.08708,0 60.07027,-26.98323 60.07027,-60.07031 0,-33.08708 -26.98319,-60.07031 -60.07027,-60.07031 z m 0,15 c 24.98048,0 45.07031,20.08982 45.07031,45.07031 0,24.98048 -20.08983,45.07031 -45.07031,45.07031 -24.98047,0 -45.07031,-20.08983 -45.07031,-45.07031 0,-24.98049 20.08984,-45.07031 45.07031,-45.07031 z"
     id="path4612"
     inkscape:connector-curvature="0" />
  <ellipse
     ry="52.570316"
     rx="52.570301"
     cy="158.40257"
     cx="-1269.3774"
     id="ellipse4628"
     style="opacity:1;fill:none;fill-opacity:1;stroke:#000000;stroke-width:15;stroke-linecap:round;stroke-miterlimit:4;stroke-dasharray:none" />
  <path
     inkscape:connector-curvature="0"
     id="path4688"
     d="m 288.02982,0 c 23.00755,0 41.82967,18.82207 41.82967,41.82967 0,20.2877 -14.63808,37.31201 -33.87277,41.05573 v 76.32875 a 7.9576958,7.9576958 0 1 1 -15.9138,-1e-5 V 82.8854 C 260.83815,79.14166 246.20007,62.11735 246.20007,41.82967 246.20007,18.82207 265.02221,0 288.02982,0 Z m 0,15.91381 c -14.40716,-10e-6 -25.91595,11.50871 -25.91595,25.91586 0,14.40715 11.50879,25.91587 25.91595,25.91587 14.40708,0 25.91587,-11.50872 25.91587,-25.91587 0,-14.40715 -11.50879,-25.91587 -25.91587,-25.91586 z m 4.05141,67.5435 c -0.12317,0.011 -0.24794,0.0178 -0.37134,0.0296 0.12339,-0.0111 0.24826,-0.0178 0.37134,-0.0296 z m -8.1029,0 c 0.12318,0.011 0.24794,0.0178 0.37143,0.0296 -0.12339,-0.0111 -0.24826,-0.0178 -0.37143,-0.0296 z m 6.11366,0.14918 c -0.68339,0.0336 -1.3708,0.0529 -2.06217,0.0529 -0.69145,0 -1.37886,-0.02 -2.06227,-0.0529 0.68326,0.0345 1.37066,0.0529 2.06227,0.0529 0.69152,0 1.37893,-0.0178 2.06217,-0.0529 z"
     style="color:#000000;font-style:normal;font-variant:normal;font-weight:normal;font-stretch:normal;font-size:medium;line-height:normal;font-family:sans-serif;font-variant-ligatures:normal;font-variant-position:normal;font-variant-caps:normal;font-variant-numeric:normal;font-variant-alternates:normal;font-feature-settings:normal;text-indent:0;text-align:start;text-decoration:none;text-decoration-line:none;text-decoration-style:solid;text-decoration-color:#000000;letter-spacing:normal;word-spacing:normal;text-transform:none;writing-mode:lr-tb;direction:ltr;text-orientation:mixed;dominant-baseline:auto;baseline-shift:baseline;text-anchor:start;white-space:normal;shape-padding:0;clip-rule:nonzero;display:inline;overflow:visible;visibility:visible;opacity:1;isolation:auto;mix-blend-mode:normal;color-interpolation:sRGB;color-interpolation-filters:linearRGB;solid-color:#000000;solid-opacity:1;vector-effect:none;fill:#000000;fill-opacity:1;fill-rule:evenodd;stroke:none;stroke-width:15.91380119;stroke-linecap:round;stroke-linejoin:miter;stroke-miterlimit:4;stroke-dasharray:none;stroke-dashoffset:0;stroke-opacity:1;color-rendering:auto;image-rendering:auto;shape-rendering:auto;text-rendering:auto;enable-background:accumulate" />
  <rect
     style="opacity:1;fill:none;fill-opacity:1;stroke:#000000;stroke-width:15;stroke-linecap:round;stroke-miterlimit:4;stroke-dasharray:none"
     id="rect4507"
     width="162.71187"
     height="161.62712"
     x="-1595.024"
     y="187.91698"
     ry="0" />
  <rect
     style="opacity:1;fill:none;fill-opacity:1;stroke:none;stroke-width:15;stroke-linecap:round;stroke-miterlimit:4;stroke-dasharray:none"
     id="rect4509"
     width="300.67618"
     height="115.82169"
     x="136.53152"
     y="299.79477" />
</svg>
