<?xml version="1.0" encoding="UTF-8" standalone="no"?>
<svg
   xmlns:dc="http://purl.org/dc/elements/1.1/"
   xmlns:cc="http://creativecommons.org/ns#"
   xmlns:rdf="http://www.w3.org/1999/02/22-rdf-syntax-ns#"
   xmlns:svg="http://www.w3.org/2000/svg"
   xmlns="http://www.w3.org/2000/svg"
   xmlns:sodipodi="http://sodipodi.sourceforge.net/DTD/sodipodi-0.dtd"
   xmlns:inkscape="http://www.inkscape.org/namespaces/inkscape"
   enable-background="new 0 0 24 58"
   height="512"
   viewBox="0 0 24 58"
   width="512"
   version="1.1"
   id="svg12"
   sodipodi:docname="condom.svg"
   inkscape:version="0.92.4 (5da689c313, 2019-01-14)">
  <metadata
     id="metadata18">
    <rdf:RDF>
      <cc:Work
         rdf:about="">
        <dc:format>image/svg+xml</dc:format>
        <dc:type
           rdf:resource="http://purl.org/dc/dcmitype/StillImage" />
        <dc:title></dc:title>
      </cc:Work>
    </rdf:RDF>
  </metadata>
  <defs
     id="defs16" />
  <sodipodi:namedview
     pagecolor="#ffffff"
     bordercolor="#666666"
     borderopacity="1"
     objecttolerance="10"
     gridtolerance="10"
     guidetolerance="10"
     inkscape:pageopacity="0"
     inkscape:pageshadow="2"
     inkscape:window-width="1366"
     inkscape:window-height="706"
     id="namedview14"
     showgrid="false"
     inkscape:zoom="0.32593203"
     inkscape:cx="-108.25543"
     inkscape:cy="370.23594"
     inkscape:window-x="-8"
     inkscape:window-y="-8"
     inkscape:window-maximized="1"
     inkscape:current-layer="svg12" />
  <path
     d="m14 6v-4c0-1.105-.895-2-2-2-1.105 0-2 .895-2 2v4c-3.449.889-6 4.274-6 8v39h16v-39c0-3.726-2.551-7.111-6-8z"
     id="path2"
     style="fill:#ffeeaa"
     fill="#f2ecbf" />
  <path
     style="fill:#ffdd55"
     inkscape:connector-curvature="0"
     id="path8"
     d="M 21,58 H 3 C 1.343,58 0,56.657 0,55 0,53.343 1.343,52 3,52 h 18 c 1.657,0 3,1.343 3,3 0,1.657 -1.343,3 -3,3 z" />
  <path
     style="fill:#000000;stroke-width:8.82758617;opacity:0.05"
     d="M 256 0 C 246.24552 0 238.3457 7.899814 238.3457 17.654297 L 238.3457 52.964844 C 207.89936 60.812568 185.37891 90.694349 185.37891 123.58594 L 185.37891 459.03516 L 176.55078 459.03516 C 161.92347 459.03516 150.06836 470.89027 150.06836 485.51758 C 150.06836 500.14489 161.92347 512 176.55078 512 L 256 512 L 256 0 z "
     transform="matrix(0.11328125,0,0,0.11328125,-17,0)"
     id="path831" />
</svg>
