<?xml version="1.0" encoding="UTF-8"?>
<!-- Generator: Adobe Illustrator 19.0.0, SVG Export Plug-In . SVG Version: 6.00 Build 0)  -->
<svg width="131.91" height="317.56" version="1.1" viewBox="0 0 131.91 317.56" xml:space="preserve" xmlns="http://www.w3.org/2000/svg" xmlns:cc="http://creativecommons.org/ns#" xmlns:dc="http://purl.org/dc/elements/1.1/" xmlns:rdf="http://www.w3.org/1999/02/22-rdf-syntax-ns#"><metadata><rdf:RDF><cc:Work rdf:about=""><dc:format>image/svg+xml</dc:format><dc:type rdf:resource="http://purl.org/dc/dcmitype/StillImage"/><dc:title/></cc:Work></rdf:RDF></metadata>
















<g transform="translate(-138.52 -55.251)"><path d="m270.43 309.3v-95.268h-131.91v95.268h0.0608c1.2876 35.292 30.287 63.512 65.894 63.512s64.606-28.22 65.893-63.512z" fill="#0cf"/><path d="m270.43 118.76h-0.0608c-1.2876-35.292-30.287-63.512-65.894-63.512-35.606-7.07e-4 -64.606 28.22-65.894 63.512h-0.0608l7e-4 95.269h131.91z" fill="#fff"/><path d="m204.47 55.252c-35.606-7.07e-4 -64.607 28.219-65.895 63.512h-0.0605v190.54h0.0605c1.2876 35.292 30.286 63.514 65.893 63.514h2e-3z" opacity=".05"/></g></svg>
