<?xml version="1.0" encoding="UTF-8" standalone="no"?>
<!-- Created with Inkscape (http://www.inkscape.org/) -->

<svg
   xmlns:dc="http://purl.org/dc/elements/1.1/"
   xmlns:cc="http://creativecommons.org/ns#"
   xmlns:rdf="http://www.w3.org/1999/02/22-rdf-syntax-ns#"
   xmlns:svg="http://www.w3.org/2000/svg"
   xmlns="http://www.w3.org/2000/svg"
   xmlns:sodipodi="http://sodipodi.sourceforge.net/DTD/sodipodi-0.dtd"
   xmlns:inkscape="http://www.inkscape.org/namespaces/inkscape"
   width="110.18862mm"
   height="156.88138mm"
   viewBox="0 0 110.18862 156.88138"
   version="1.1"
   id="svg8"
   inkscape:version="0.92.4 (unknown)"
   sodipodi:docname="bio.svg">
  <defs
     id="defs2" />
  <sodipodi:namedview
     id="base"
     pagecolor="#ffffff"
     bordercolor="#666666"
     borderopacity="1.0"
     inkscape:pageopacity="0.0"
     inkscape:pageshadow="2"
     inkscape:zoom="0.35"
     inkscape:cx="-137.48382"
     inkscape:cy="427.89731"
     inkscape:document-units="mm"
     inkscape:current-layer="layer1"
     showgrid="false"
     inkscape:window-width="1366"
     inkscape:window-height="703"
     inkscape:window-x="0"
     inkscape:window-y="0"
     inkscape:window-maximized="1" />
  <metadata
     id="metadata5">
    <rdf:RDF>
      <cc:Work
         rdf:about="">
        <dc:format>image/svg+xml</dc:format>
        <dc:type
           rdf:resource="http://purl.org/dc/dcmitype/StillImage" />
        <dc:title></dc:title>
      </cc:Work>
    </rdf:RDF>
  </metadata>
  <g
     inkscape:label="Layer 1"
     inkscape:groupmode="layer"
     id="layer1"
     transform="translate(-26.548548,-105.16645)">
    <g
       id="g5232"
       transform="matrix(0.40740269,0,0,0.40740269,74.452997,157.77659)">
      <path
         id="path3309"
         d="m 152.88055,120.70884 c 0,-74.691655 -135.232779,-249.8443 -135.232779,-249.8443 0,0 -135.232781,175.152645 -135.232781,249.8443 0,74.69166 60.540838,135.23231 135.232781,135.23231 74.691943,0 135.232779,-60.54065 135.232779,-135.23231"
         style="fill:#008000;fill-opacity:1;fill-rule:nonzero;stroke:none;stroke-width:9.50823498"
         inkscape:connector-curvature="0"
         sodipodi:nodetypes="ccssc" />
      <path
         id="path2072"
         transform="scale(0.75)"
         d="m -129.44531,142.51758 c -9.62188,83.94138 68.497404,154.41106 152.97656,152.97461 17.824404,-0.30308 79.31658,-10.33145 38.931641,-10.30664 -96.973006,0.0596 -176.152351,-78.60334 -175.572271,-175.57422 0.018,-3.00883 -11.63474,-8.107 -16.33593,32.90625 z"
         style="fill:#ffffff;fill-opacity:0.9681275;fill-rule:nonzero;stroke:none;stroke-width:10.75569534"
         inkscape:connector-curvature="0"
         sodipodi:nodetypes="sssss" />
    </g>
    <g
       id="g3251"
       transform="matrix(0.26458333,0,0,0.26458333,13.908883,136.48987)">
      <path
         inkscape:connector-curvature="0"
         style="fill:#3b484a"
         d="m 144.492,268.431 c -4.267,0 -7.726,-3.459 -7.726,-7.726 v -20.181 c 0,-4.267 3.459,-7.726 7.726,-7.726 4.267,0 7.726,3.459 7.726,7.726 v 20.181 c 0,4.266 -3.459,7.726 -7.726,7.726 z"
         id="path3245" />
      <path
         inkscape:connector-curvature="0"
         style="fill:#3b484a"
         d="m 367.512,268.431 c -4.267,0 -7.726,-3.459 -7.726,-7.726 v -20.181 c 0,-4.267 3.459,-7.726 7.726,-7.726 4.267,0 7.726,3.459 7.726,7.726 v 20.181 c 0,4.266 -3.459,7.726 -7.726,7.726 z"
         id="path3247" />
      <path
         inkscape:connector-curvature="0"
         style="fill:#3b484a"
         d="m 256.002,279.202 c -12.957,0 -25.109,-5.401 -33.34,-14.818 -2.808,-3.213 -2.481,-8.094 0.732,-10.902 3.213,-2.808 8.094,-2.481 10.902,0.732 5.297,6.06 13.208,9.535 21.705,9.535 8.497,0 16.409,-3.476 21.706,-9.535 2.808,-3.213 7.689,-3.54 10.902,-0.731 3.213,2.808 3.541,7.689 0.731,10.902 -8.231,9.417 -20.383,14.817 -33.338,14.817 z"
         id="path3249" />
    </g>
    <path
       style="fill:#000000;fill-opacity:0.07843137;fill-rule:nonzero;stroke:none;stroke-width:3.87368059"
       d="m 81.642859,105.16645 v 156.88138 c 30.429701,0 55.094311,-24.66473 55.094311,-55.09431 0,-30.42958 -55.094311,-101.78707 -55.094311,-101.78707 z"
       id="path3107"
       inkscape:connector-curvature="0" />
  </g>
</svg>
