<?xml version="1.0" encoding="UTF-8" standalone="no"?>
<!-- Created with Inkscape (http://www.inkscape.org/) -->

<svg
   xmlns:dc="http://purl.org/dc/elements/1.1/"
   xmlns:cc="http://creativecommons.org/ns#"
   xmlns:rdf="http://www.w3.org/1999/02/22-rdf-syntax-ns#"
   xmlns:svg="http://www.w3.org/2000/svg"
   xmlns="http://www.w3.org/2000/svg"
   xmlns:sodipodi="http://sodipodi.sourceforge.net/DTD/sodipodi-0.dtd"
   xmlns:inkscape="http://www.inkscape.org/namespaces/inkscape"
   width="118.17547mm"
   height="127.41308mm"
   viewBox="0 0 118.17547 127.41308"
   version="1.1"
   id="svg2095"
   inkscape:version="0.92.4 (unknown)"
   sodipodi:docname="diesel.svg">
  <defs
     id="defs2089" />
  <sodipodi:namedview
     id="base"
     pagecolor="#ffffff"
     bordercolor="#666666"
     borderopacity="1.0"
     inkscape:pageopacity="0.0"
     inkscape:pageshadow="2"
     inkscape:zoom="0.35"
     inkscape:cx="-693.81914"
     inkscape:cy="69.35205"
     inkscape:document-units="mm"
     inkscape:current-layer="layer1"
     showgrid="false"
     inkscape:window-width="1366"
     inkscape:window-height="703"
     inkscape:window-x="0"
     inkscape:window-y="0"
     inkscape:window-maximized="1" />
  <metadata
     id="metadata2092">
    <rdf:RDF>
      <cc:Work
         rdf:about="">
        <dc:format>image/svg+xml</dc:format>
        <dc:type
           rdf:resource="http://purl.org/dc/dcmitype/StillImage" />
        <dc:title></dc:title>
      </cc:Work>
    </rdf:RDF>
  </metadata>
  <g
     inkscape:label="Layer 1"
     inkscape:groupmode="layer"
     id="layer1"
     transform="translate(-173.7456,-39.76965)">
    <rect
       style="opacity:1;fill:#ffff00;fill-opacity:1;stroke:none;stroke-width:4.18231583;stroke-miterlimit:4;stroke-dasharray:none;stroke-opacity:1"
       id="rect2099"
       width="99.915573"
       height="119.98109"
       x="182.87543"
       y="43.485481"
       ry="3.9428673" />
    <path
       id="rect2141"
       style="opacity:1;fill:#00ffff;fill-opacity:1;stroke:none;stroke-width:3.82063103;stroke-miterlimit:4;stroke-dasharray:none;stroke-opacity:1"
       d="m 179.55595,97.665677 h 106.5545 c 3.21893,0 5.81035,2.591423 5.81035,5.810353 0,3.21894 -2.59142,5.81036 -5.81035,5.81036 h -106.5545 c -3.21892,0 -5.81035,-2.59142 -5.81035,-5.81036 0,-3.21893 2.59143,-5.810353 5.81035,-5.810353 z m 0,57.896023 h 106.5545 c 3.21893,0 5.81035,2.59142 5.81035,5.81035 0,3.21894 -2.59142,5.81035 -5.81035,5.81035 h -106.5545 c -3.21892,0 -5.81035,-2.59141 -5.81035,-5.81035 0,-3.21893 2.59143,-5.81035 5.81035,-5.81035 z m 0,-115.79205 h 106.5545 c 3.21893,0 5.81035,2.591422 5.81035,5.810355 0,3.218938 -2.59142,5.810353 -5.81035,5.810353 h -106.5545 c -3.21892,0 -5.81035,-2.591415 -5.81035,-5.810353 0,-3.218933 2.59143,-5.810355 5.81035,-5.810355 z"
       inkscape:connector-curvature="0" />
    <path
       inkscape:connector-curvature="0"
       style="opacity:1;fill:#000000;fill-opacity:0.05882353;stroke:none;stroke-width:3.89351439;stroke-miterlimit:4;stroke-dasharray:none;stroke-opacity:1"
       d="M 232.83184,39.769979 V 167.18273 h 53.27888 c 3.21893,0 5.81035,-2.59142 5.81035,-5.81036 0,-3.21893 -2.59142,-5.81035 -5.81035,-5.81035 h -3.32021 V 109.2867 h 3.32021 c 3.21893,0 5.81035,-2.59141 5.81035,-5.81035 0,-3.21893 -2.59142,-5.810355 -5.81035,-5.810355 h -3.32021 v -46.27531 h 3.32021 c 3.21893,0 5.81035,-2.59142 5.81035,-5.810354 0,-3.218937 -2.59142,-5.810352 -5.81035,-5.810352 z"
       id="rect2187" />
    <g
       id="g3251"
       transform="matrix(0.26458333,0,0,0.26458333,165.09935,7.4085905)">
      <path
         inkscape:connector-curvature="0"
         style="fill:#3b484a"
         d="m 144.492,268.431 c -4.267,0 -7.726,-3.459 -7.726,-7.726 v -20.181 c 0,-4.267 3.459,-7.726 7.726,-7.726 4.267,0 7.726,3.459 7.726,7.726 v 20.181 c 0,4.266 -3.459,7.726 -7.726,7.726 z"
         id="path3245" />
      <path
         inkscape:connector-curvature="0"
         style="fill:#3b484a"
         d="m 367.512,268.431 c -4.267,0 -7.726,-3.459 -7.726,-7.726 v -20.181 c 0,-4.267 3.459,-7.726 7.726,-7.726 4.267,0 7.726,3.459 7.726,7.726 v 20.181 c 0,4.266 -3.459,7.726 -7.726,7.726 z"
         id="path3247" />
      <path
         inkscape:connector-curvature="0"
         style="fill:#3b484a"
         d="m 256.002,279.202 c -12.957,0 -25.109,-5.401 -33.34,-14.818 -2.808,-3.213 -2.481,-8.094 0.732,-10.902 3.213,-2.808 8.094,-2.481 10.902,0.732 5.297,6.06 13.208,9.535 21.705,9.535 8.497,0 16.409,-3.476 21.706,-9.535 2.808,-3.213 7.689,-3.54 10.902,-0.731 3.213,2.808 3.541,7.689 0.731,10.902 -8.231,9.417 -20.383,14.817 -33.338,14.817 z"
         id="path3249" />
    </g>
  </g>
</svg>
