<?xml version="1.0" encoding="UTF-8" standalone="no"?>
<!-- Created with Inkscape (http://www.inkscape.org/) -->

<svg
   xmlns:dc="http://purl.org/dc/elements/1.1/"
   xmlns:cc="http://creativecommons.org/ns#"
   xmlns:rdf="http://www.w3.org/1999/02/22-rdf-syntax-ns#"
   xmlns:svg="http://www.w3.org/2000/svg"
   xmlns="http://www.w3.org/2000/svg"
   xmlns:sodipodi="http://sodipodi.sourceforge.net/DTD/sodipodi-0.dtd"
   xmlns:inkscape="http://www.inkscape.org/namespaces/inkscape"
   width="163.95915mm"
   height="180.62238mm"
   viewBox="0 0 163.95915 180.62238"
   version="1.1"
   id="svg2116"
   inkscape:version="0.92.4 (unknown)"
   sodipodi:docname="gasolina.svg">
  <defs
     id="defs2110" />
  <sodipodi:namedview
     id="base"
     pagecolor="#ffffff"
     bordercolor="#666666"
     borderopacity="1.0"
     inkscape:pageopacity="0.0"
     inkscape:pageshadow="2"
     inkscape:zoom="0.35"
     inkscape:cx="515.55835"
     inkscape:cy="-147.23782"
     inkscape:document-units="mm"
     inkscape:current-layer="layer1"
     showgrid="false"
     inkscape:window-width="1366"
     inkscape:window-height="703"
     inkscape:window-x="0"
     inkscape:window-y="0"
     inkscape:window-maximized="1" />
  <metadata
     id="metadata2113">
    <rdf:RDF>
      <cc:Work
         rdf:about="">
        <dc:format>image/svg+xml</dc:format>
        <dc:type
           rdf:resource="http://purl.org/dc/dcmitype/StillImage" />
        <dc:title></dc:title>
      </cc:Work>
    </rdf:RDF>
  </metadata>
  <g
     inkscape:label="Layer 1"
     inkscape:groupmode="layer"
     id="layer1"
     transform="translate(146.23553,70.745709)">
    <path
       style="fill:#acabb1;stroke-width:0.35277775"
       inkscape:connector-curvature="0"
       d="m -92.976942,-50.663393 -22.762438,32.634699 -26.20615,-18.279676 c -4.54063,-3.166732 -5.65409,-9.414756 -2.48598,-13.955391 l 11.29302,-16.191948 c 3.16811,-4.540635 9.41614,-5.65409 13.95677,-2.48598 z m 0,0"
       id="path2" />
    <path
       style="fill:#898890;stroke-width:0.35277775"
       inkscape:connector-curvature="0"
       d="m -133.13849,-66.455709 -11.29302,16.191948 c -3.16811,4.540635 -2.05465,10.788659 2.48598,13.955391 l 7.58886,5.294423 22.76381,-32.634698 -7.58886,-5.293044 c -4.54063,-3.16811 -10.78866,-2.054655 -13.95677,2.48598 z m 0,0"
       id="path4" />
    <path
       inkscape:connector-curvature="0"
       d="m -24.810917,-54.001001 h -44.786232 l -4.303612,-8.371581 4.303612,-8.372959 h 44.786232 l 3.39687,8.372959 z m 0,0"
       id="path6"
       style="fill:#c83737;fill-opacity:1;stroke-width:0.35277775" />
    <path
       inkscape:connector-curvature="0"
       d="m 9.0695326,-49.147551 -12.71516,-12.715156 c -9.3127796,-8.882834 -21.1652896,-8.882834 -21.1652896,-8.882834 v 20.49556 c 0,12.316905 -10.07621,22.393119 -22.393114,22.393119 -12.315528,0 -22.393118,-10.076214 -22.393118,-22.393119 v -20.49556 c 0,0 -20.966851,0 -31.856101,15.177711 l -25.01967,36.381584 c -4.01973,5.844259 -6.17223,12.7716572 -6.17223,19.86441919 V 88.517071 c 0,11.797389 9.56359,21.359589 21.35959,21.359589 H -3.6359774 c 11.79738,0 21.3595904,-9.5622 21.3595904,-21.359589 V -28.252356 c 0,-7.836905 -3.11299,-15.352725 -8.6540804,-20.895195 z m 0,0"
       id="path8"
       style="fill:#ff2a2a;stroke-width:0.35277775" />
    <path
       inkscape:connector-curvature="0"
       d="M -20.206887,59.875931 V 13.861863 c 0,-3.050977 1.21129,-5.9751728 3.36792,-8.1318018 l 4.49654,-4.496538 c 2.6485896,-2.647212 2.6182796,-6.959095 -0.0896,-9.570474 -2.65823,-2.5617752 -6.9398,-2.3647162 -9.55118,0.24529 l -4.33807,4.339439 c -2.15663,2.156629 -5.08082,3.36792899 -8.13042,3.36792899 h -46.016795 c -3.049598,0 -5.975173,-1.21129999 -8.131802,-3.36792899 l -4.338061,-4.339439 c -2.610006,-2.6100062 -6.89157,-2.8070652 -9.549805,-0.24529 -2.70785,2.611379 -2.73817,6.923262 -0.0896,9.570474 l 4.496536,4.496538 c 2.155253,2.156629 3.367926,5.0808248 3.367926,8.1318018 v 46.015448 c 0,3.0496 -1.212673,5.97379 -3.367926,8.13043 l -4.496536,4.49653 c -2.61965,2.61827 -2.61965,6.86401 0,9.48228 1.30913,1.30914 5.344028,3.67936 9.482278,0 l 4.496538,-4.49654 c 2.156629,-2.15663 5.080826,-3.36792 8.130424,-3.36792 h 46.015443 c 3.0496,0 5.9738,1.21129 8.13043,3.36792 l 4.49654,4.49654 c 3.91362,3.65318 8.17314,1.30914 9.48228,0 2.6196496,-2.61827 2.6196496,-6.86401 0,-9.48228 l -4.49654,-4.49653 c -2.15526,-2.15663 -3.36655,-5.08221 -3.36655,-8.13181 z m 0,0"
       id="path12"
       style="fill:#c83737;stroke-width:0.35277775" />
    <g
       id="g3251"
       transform="matrix(0.26458333,0,0,0.26458333,-125.19424,-30.835366)">
      <path
         inkscape:connector-curvature="0"
         style="fill:#3b484a"
         d="m 144.492,268.431 c -4.267,0 -7.726,-3.459 -7.726,-7.726 v -20.181 c 0,-4.267 3.459,-7.726 7.726,-7.726 4.267,0 7.726,3.459 7.726,7.726 v 20.181 c 0,4.266 -3.459,7.726 -7.726,7.726 z"
         id="path3245" />
      <path
         inkscape:connector-curvature="0"
         style="fill:#3b484a"
         d="m 367.512,268.431 c -4.267,0 -7.726,-3.459 -7.726,-7.726 v -20.181 c 0,-4.267 3.459,-7.726 7.726,-7.726 4.267,0 7.726,3.459 7.726,7.726 v 20.181 c 0,4.266 -3.459,7.726 -7.726,7.726 z"
         id="path3247" />
      <path
         inkscape:connector-curvature="0"
         style="fill:#3b484a"
         d="m 256.002,279.202 c -12.957,0 -25.109,-5.401 -33.34,-14.818 -2.808,-3.213 -2.481,-8.094 0.732,-10.902 3.213,-2.808 8.094,-2.481 10.902,0.732 5.297,6.06 13.208,9.535 21.705,9.535 8.497,0 16.409,-3.476 21.706,-9.535 2.808,-3.213 7.689,-3.54 10.902,-0.731 3.213,2.808 3.541,7.689 0.731,10.902 -8.231,9.417 -20.383,14.817 -33.338,14.817 z"
         id="path3249" />
    </g>
    <path
       style="fill:#000000;fill-opacity:0.05882353;stroke-width:0.35277775"
       d="m -24.810737,-70.745541 v 20.495389 c 0,12.316904 -10.07656,22.393465 -22.393455,22.393465 -3.691514,0 -7.178506,-0.910831 -10.256742,-2.510441 V 109.87651 h 53.8251366 c 11.79738,0 21.3594204,-9.56204 21.3594204,-21.359419 V -28.252525 c 0,-7.836908 -3.11316,-15.352382 -8.6542504,-20.894852 l -12.71499,-12.715502 c -9.3127796,-8.882834 -21.1651196,-8.882662 -21.1651196,-8.882662 z"
       id="path5062"
       inkscape:connector-curvature="0" />
  </g>
</svg>
