<?xml version="1.0" encoding="UTF-8" standalone="no"?>
<!-- Created with Inkscape (http://www.inkscape.org/) -->

<svg
   xmlns:dc="http://purl.org/dc/elements/1.1/"
   xmlns:cc="http://creativecommons.org/ns#"
   xmlns:rdf="http://www.w3.org/1999/02/22-rdf-syntax-ns#"
   xmlns:svg="http://www.w3.org/2000/svg"
   xmlns="http://www.w3.org/2000/svg"
   xmlns:sodipodi="http://sodipodi.sourceforge.net/DTD/sodipodi-0.dtd"
   xmlns:inkscape="http://www.inkscape.org/namespaces/inkscape"
   width="34.201271mm"
   height="135.9778mm"
   viewBox="0 0 34.201271 135.9778"
   version="1.1"
   id="svg518"
   inkscape:version="0.92.4 (unknown)"
   sodipodi:docname="matheus.svg">
  <defs
     id="defs512">
    <inkscape:path-effect
       effect="skeletal"
       id="path-effect2796"
       is_visible="true"
       pattern="m 30.87314,36.609939 c 1.73015,-0.485511 4.70095,-0.598624 7.47655,-0.284657 2.09141,0.236566 3.00536,0.234474 3.2473,-0.0074 0.23358,-0.233592 0.24449,-0.579475 0.024,-0.762449 -2.78916,-1.161245 -9.24157,-1.197744 -11.18222,0.602451 -0.41392,0.413926 -0.20489,0.631502 0.43434,0.452114 z"
       copytype="single_stretched"
       prop_scale="0.74999994"
       scale_y_rel="false"
       spacing="0"
       normal_offset="0"
       tang_offset="0"
       prop_units="false"
       vertical_pattern="false"
       fuse_tolerance="0" />
  </defs>
  <sodipodi:namedview
     id="base"
     pagecolor="#ffffff"
     bordercolor="#666666"
     borderopacity="1.0"
     inkscape:pageopacity="0.0"
     inkscape:pageshadow="2"
     inkscape:zoom="0.35"
     inkscape:cx="-623.93913"
     inkscape:cy="-180.17693"
     inkscape:document-units="mm"
     inkscape:current-layer="layer1"
     showgrid="false"
     inkscape:window-width="1366"
     inkscape:window-height="703"
     inkscape:window-x="0"
     inkscape:window-y="0"
     inkscape:window-maximized="1" />
  <metadata
     id="metadata515">
    <rdf:RDF>
      <cc:Work
         rdf:about="">
        <dc:format>image/svg+xml</dc:format>
        <dc:type
           rdf:resource="http://purl.org/dc/dcmitype/StillImage" />
        <dc:title></dc:title>
      </cc:Work>
    </rdf:RDF>
  </metadata>
  <g
     inkscape:label="Layer 1"
     inkscape:groupmode="layer"
     id="layer1"
     transform="translate(-155.25651,34.816283)">
    <path
       sodipodi:nodetypes="cccccccccccscccccccccccc"
       inkscape:connector-curvature="0"
       id="path4984"
       d="m 160.72979,-4.213036 1.66087,10.195391 -2.18278,11.161445 c 0,0 0.003,0.0182 0.005,0.05116 0.0387,0.46469 0.34231,4.039669 0.29093,4.495334 0.13563,0.514517 -3.53346,12.058055 -2.93677,13.364041 h -0.002 l -1.39371,-0.113168 c -0.43741,-6.637522 -0.18068,-12.656955 0.0196,-13.661699 0.20031,-1.004745 1.75829,-4.182486 1.88256,-4.43229 l 0.0119,-0.02479 c 0,0 0.43815,-13.321059 0.52866,-16.93126405 0.0905,-3.61020795 2.11614,-4.10414295 2.11614,-4.10414295 z m -3.16518,39.267371 c 0.99444,1.413634 1.14514,2.309939 1.14514,2.309939 0,0 -0.28273,2.249573 0.30801,3.256132 0.59211,1.006385 0.27027,1.150319 0.27027,1.150319 0,0 -0.77153,0.486029 -1.7322,-2.841689 -0.43807,0.866384 -0.63098,2.013315 -0.63098,2.013315 0,0 1.91111,3.736756 0.99634,4.158406 -0.1674,0.04837 -0.26815,-0.0302 -0.31419,-0.179837 -0.41725,-1.728425 -1.81851,-3.922244 -1.81851,-3.922244 -0.21193,-2.451682 -0.42167,-3.21519 0.37983,-6.056993 z"
       style="fill:#eca96a;fill-opacity:1;fill-rule:nonzero;stroke:none;stroke-width:0.35277778" />
    <path
       style="fill:#eca96a;fill-opacity:1;fill-rule:nonzero;stroke:none;stroke-width:0.35277778"
       d="m 183.51966,-4.213208 -1.66087,10.195391 2.18279,11.161445 c 0,0 -0.002,0.0182 -0.005,0.05115 -0.0387,0.464693 -0.34232,4.039674 -0.29094,4.495339 -0.13563,0.514512 3.53346,12.05805 2.93677,13.364041 h 0.003 l 1.39372,-0.11317 c 0.43741,-6.637526 0.18068,-12.656955 -0.0196,-13.661702 -0.20032,-1.004742 -1.75829,-4.182484 -1.88257,-4.432287 l -0.0119,-0.02479 c 0,0 -0.43815,-13.321059 -0.52866,-16.93126705 C 185.54538,-3.719265 183.51976,-4.2132 183.51976,-4.2132 Z m 3.16518,39.267371 c -0.99443,1.413629 -1.14514,2.309937 -1.14514,2.309937 0,0 0.28273,2.249572 -0.308,3.256132 -0.59211,1.006382 -0.27027,1.150315 -0.27027,1.150315 0,0 0.77152,0.486029 1.7322,-2.841688 0.43807,0.866383 0.63098,2.013318 0.63098,2.013318 0,0 -1.91112,3.736752 -0.99635,4.158403 0.16741,0.04837 0.26816,-0.0302 0.3142,-0.179835 0.41724,-1.728425 1.8185,-3.922244 1.8185,-3.922244 0.21194,-2.451682 0.42167,-3.215193 -0.37983,-6.056995 z"
       id="path2561"
       inkscape:connector-curvature="0"
       sodipodi:nodetypes="cccccccccccscccccccccccc" />
    <g
       id="g2248"
       transform="matrix(0.3527778,0,0,0.3527778,85.398392,-32.072265)">
      <path
         id="path2569"
         d="m 221.29529,180.15467 0.16795,0.10373 -0.16795,-0.10373"
         style="fill:#f8c791;fill-opacity:1;fill-rule:nonzero;stroke:none"
         inkscape:connector-curvature="0" />
      <path
         id="path2571"
         d="m 223.07866,271.05796 c -0.32527,4.15136 -1.28436,5.73129 -1.28436,5.73129 0,0 -7.08799,10.50389 -1.24024,38.78851 4.09042,23.09028 3.9133,37.1964 3.9133,37.1964 l 7.04048,0.79889 c 0.18833,-0.82336 -0.70783,-10.15698 -0.29094,-15.29239 0.41658,-5.13161 5.57103,-61.19131 5.57103,-61.19131 -0.21414,-0.0174 0.23281,-1.85443 0.59913,-4.86984 -4.63709,-0.37644 -9.84262,-0.79902 -14.3084,-1.16155"
         style="fill:#f8c791;fill-opacity:1;fill-rule:nonzero;stroke:none"
         inkscape:connector-curvature="0" />
      <path
         id="path2573"
         d="m 237.71314,262.69907 c -0.49468,-8.48583 9.21673,-58.40278 8.12323,-67.33304 l -24.37313,-15.10758 c 1.27237,1.70619 -9.42541,24.08977 -1.24723,68.27527 2.84788,11.07143 3.19854,18.19346 2.86265,22.52424 4.46578,0.36253 9.67131,0.78511 14.3084,1.16155 0.29966,-2.4839 0.54657,-5.76766 0.32608,-9.52045"
         style="fill:#f8c791;fill-opacity:1;fill-rule:nonzero;stroke:none"
         inkscape:connector-curvature="0" />
      <path
         sodipodi:nodetypes="ccaccccccc"
         inkscape:connector-curvature="0"
         id="path2575"
         d="m 220.6921,180.1052 c 0,0 -0.55994,1.85697 -1.2591,5.33555 -7.71942,29.63844 -3.45205,57.1978 -2.72934,85.80471 0.685,27.11411 5.37818,74.96544 6.69021,81.09279 2.83882,0.75558 7.70182,1.19743 8.43349,1.26074 l 0.1241,0.0101 c 1.9423,-25.09392 6.21186,-57.013 5.77018,-81.36239 0.29621,-2.53904 0.55206,-5.92055 0.33608,-9.10079 -0.42058,-6.16362 9.34266,-66.71231 9.34266,-66.71231 z"
         style="fill:#1a1a1a;fill-opacity:1;fill-rule:nonzero;stroke:none;stroke-width:1" />
      <g
         transform="rotate(-3.8112798,223.39571,352.33488)"
         id="g2221">
        <path
           inkscape:connector-curvature="0"
           style="fill:#f8c791;fill-opacity:1;fill-rule:nonzero;stroke:none"
           d="m 224.45978,352.72268 c 0,0 -0.65561,7.11086 -9.12891,14.83729 -8.47295,7.72255 9.56698,9.93949 9.56698,9.93949 0,0 8.26589,-1.55106 6.00278,-9.6396 -2.26278,-8.09242 0.45717,-13.45242 0.60721,-14.28681"
           id="path2579" />
        <path
           inkscape:connector-curvature="0"
           style="fill:#333333;fill-opacity:1;fill-rule:nonzero;stroke:none"
           d="m 229.3589,353.05768 c 0,0 -0.48884,-1.65438 -1.73074,-1.70814 -1.24582,-0.054 -1.84927,0.66896 -2.25616,1.52946 -0.40721,0.86438 -0.31596,7.1267 -0.31596,7.1267 l -6.97242,10.09394 8.36083,0.36911 2.14281,-8.87131 0.77161,-8.53976"
           id="path2581" />
        <path
           inkscape:connector-curvature="0"
           style="fill:#000000;fill-opacity:1;fill-rule:nonzero;stroke:none"
           d="m 219.65834,369.38491 5.13849,-8.02073 c 0,0 0.47575,-1.12931 0.52091,-3.52019 0.0452,-2.39089 0.50144,-5.50087 0.50144,-5.50087 0,0 -1.37498,-0.39384 -2.42553,-0.005 -0.32724,0.94141 -0.47461,4.83295 -0.47461,4.83295 -0.12198,0.006 -0.50579,2.85122 -5.00608,7.74142 -4.95293,4.52809 -5.63469,5.49168 -4.51896,6.61695 1.74524,-1.22219 6.26438,-2.14466 6.26438,-2.14466"
           id="path2583" />
        <path
           inkscape:connector-curvature="0"
           style="fill:#000000;fill-opacity:1;fill-rule:nonzero;stroke:none"
           d="m 228.97674,352.74443 -1.03512,5.1715 c 0,0 -0.60135,1.85583 -0.76284,3.55544 -0.0718,1.60876 -1.62945,8.3408 -1.62945,8.3408 0,0 4.09979,0.47779 5.85176,3.46926 0.73423,-2.52708 -0.77117,-7.92829 -0.77117,-7.92829 0,0 -0.73,-6.26321 1.64862,-11.81154 -1.50214,-1.14489 -3.3018,-0.79717 -3.3018,-0.79717"
           id="path2585" />
        <path
           inkscape:connector-curvature="0"
           style="fill:#ffffff;fill-opacity:1;fill-rule:nonzero;stroke:none"
           d="m 231.50747,373.41939 c 0,0 -0.50516,-3.67402 -9.26997,-5.00478 -8.57009,-0.83286 -9.43522,1.76185 -9.58558,3.80719 -0.0889,2.73618 8.27648,4.15991 8.27648,4.15991 0,0 10.38768,2.19531 10.57907,-2.96232"
           id="path2587" />
        <path
           inkscape:connector-curvature="0"
           style="fill:#f0f0f0;fill-opacity:1;fill-rule:nonzero;stroke:none"
           d="m 231.46332,372.94938 c 0,0 0.44613,2.61497 -8.01656,2.24541 -9.21602,-0.40713 -10.49912,-4.39513 -10.49912,-4.39513 0,0 -1.02386,3.15009 1.16644,4.65264 2.1945,1.49888 15.02581,3.66922 16.88607,0.25775 1.30894,-2.12375 0.46317,-2.76067 0.46317,-2.76067"
           id="path2589" />
        <path
           inkscape:connector-curvature="0"
           style="fill:#ffffff;fill-opacity:1;fill-rule:nonzero;stroke:none"
           d="m 227.66813,367.60919 c -0.64628,-0.34252 -1.2992,-0.60321 -1.95497,-0.82891 -0.66029,-0.21814 -1.32406,-0.39352 -2.0032,-0.47614 -0.67008,-0.0975 -1.3563,-0.14121 -2.04907,-0.10414 -0.69512,0.0178 -1.38914,0.11849 -2.12143,0.20793 0.62593,-0.37238 1.31363,-0.68496 2.04877,-0.80948 0.73083,-0.16802 1.49028,-0.15734 2.23497,-0.0616 1.47936,0.21842 2.91927,0.92284 3.84497,2.07181"
           id="path2591" />
        <path
           inkscape:connector-curvature="0"
           style="fill:#ffffff;fill-opacity:1;fill-rule:nonzero;stroke:none"
           d="m 227.9755,364.35388 c -1.10414,-0.25427 -2.12399,-0.53301 -3.1631,-0.71929 -1.04144,-0.20605 -2.05794,-0.28465 -3.19661,-0.30666 0.4925,-0.27355 1.05328,-0.47102 1.62572,-0.52247 0.56951,-0.0635 1.15154,-0.0397 1.71132,0.0647 1.11835,0.22403 2.19765,0.68788 3.02266,1.48384"
           id="path2593" />
        <path
           inkscape:connector-curvature="0"
           style="fill:#ffffff;fill-opacity:1;fill-rule:nonzero;stroke:none"
           d="m 227.90299,362.30219 c -0.701,-0.29599 -1.36002,-0.52978 -2.04895,-0.63668 -0.33979,-0.0627 -0.68663,-0.0868 -1.03955,-0.0844 -0.35559,-0.0128 -0.70904,0.0444 -1.09502,0.0679 0.61311,-0.45578 1.4497,-0.62304 2.21848,-0.48619 0.77303,0.13299 1.50567,0.52204 1.96472,1.14322"
           id="path2595" />
      </g>
    </g>
    <path
       inkscape:connector-curvature="0"
       style="fill:#eca96a;fill-opacity:1;fill-rule:nonzero;stroke:none;stroke-width:0.35277778"
       d="m 178.25908,17.047336 2.44878,-21.034375 c 0,0 -3.71244,-0.509874 -5.52731,-0.509874 -1.81626,0 -1.3615,-4.062454 -1.3615,-4.062454 h -3.38309 c 0,0 0.45338,4.062454 -1.3615,4.062454 -1.81626,0 -5.50388,0.509874 -5.50388,0.509874 l 2.42534,21.034375 -3.64491,14.789113 9.7758,5.135946 9.77581,-5.135946 -3.64354,-14.789113"
       id="path2625" />
    <g
       id="g2264"
       transform="matrix(0.3527778,0,0,0.3527778,83.546309,-32.072265)">
      <path
         id="path2597"
         d="m 258.65882,277.07694 c 0,0 4.461,56.11914 4.81411,61.25552 0.35337,5.14016 -0.65811,14.46199 -0.47997,15.28761 l 7.04981,-0.71178 c 0,0 -0.003,-14.10724 4.37285,-37.14518 6.19698,-28.21017 -0.7645,-38.80061 -0.7645,-38.80061 0,0 -0.9356,-1.59192 -1.20951,-5.747 -4.71932,0.32444 -9.74262,0.66977 -14.32166,0.98457 0.32898,3.01971 0.75321,4.86214 0.53887,4.87687"
         style="fill:#f8c791;fill-opacity:1;fill-rule:nonzero;stroke:none"
         inkscape:connector-curvature="0" />
      <path
         id="path2599"
         d="m 275.58252,248.72838 c 8.71991,-44.08075 -1.69642,-66.59515 -0.40305,-68.28548 l -24.55805,14.8051 c -1.20383,8.91606 7.88974,58.94926 7.29017,67.42831 -0.26689,3.74978 -0.0605,7.03634 0.20836,9.52376 4.57904,-0.3148 9.60234,-0.66013 14.32166,-0.98457 -0.28235,-4.33459 0.15636,-11.45175 3.14091,-22.48712"
         style="fill:#f8c791;fill-opacity:1;fill-rule:nonzero;stroke:none"
         inkscape:connector-curvature="0" />
      <path
         id="path2601"
         d="m 275.17947,180.4429 0.1692,-0.10165 -0.1692,0.10165"
         style="fill:#f8c791;fill-opacity:1;fill-rule:nonzero;stroke:none"
         inkscape:connector-curvature="0" />
      <g
         transform="rotate(5.6431167,269.50933,351.96622)"
         id="g2232">
        <path
           inkscape:connector-curvature="0"
           style="fill:#f8c791;fill-opacity:1;fill-rule:nonzero;stroke:none"
           d="m 270.13282,352.85127 c 0,0 0.56376,7.1187 8.94478,14.94903 8.38073,7.82644 -9.68913,9.82045 -9.68913,9.82045 0,0 -8.24218,-1.6534 -5.88314,-9.71308 2.36266,-8.06383 -0.29083,-13.45704 -0.43054,-14.29322"
           id="path2607" />
        <path
           inkscape:connector-curvature="0"
           style="fill:#333333;fill-opacity:1;fill-rule:nonzero;stroke:none"
           d="m 265.30398,353.12059 c 0,0 0.50926,-1.6482 1.75173,-1.68661 1.24249,-0.0383 1.83695,0.69204 2.23318,1.55751 0.40039,0.86908 0.22783,7.13006 0.22783,7.13006 l 6.84708,10.17936 -8.36475,0.26572 -2.03296,-8.89712 -0.66209,-8.54892"
           id="path2609" />
        <path
           inkscape:connector-curvature="0"
           style="fill:#000000;fill-opacity:1;fill-rule:nonzero;stroke:none"
           d="m 274.79805,369.56677 -5.03894,-8.08364 c 0,0 -0.46175,-1.1351 -0.47735,-3.52636 -0.0156,-2.39126 -0.4334,-5.50665 -0.4334,-5.50665 0,0 1.38365,-0.37708 2.42541,0.0251 0.31558,0.94538 0.41482,4.83844 0.41482,4.83844 0.1258,0.007 0.4744,2.85699 4.90999,7.80272 4.89657,4.58898 5.57027,5.56066 4.44072,6.67205 -1.73001,-1.24368 -6.24129,-2.22168 -6.24129,-2.22168"
           id="path2611" />
        <path
           inkscape:connector-curvature="0"
           style="fill:#000000;fill-opacity:1;fill-rule:nonzero;stroke:none"
           d="m 265.68609,352.81236 0.9711,5.18391 c 0,0 0.58226,1.86285 0.71882,3.56459 0.0519,1.60953 1.53011,8.36004 1.53011,8.36004 0,0 -4.10538,0.42707 -5.8981,3.39692 -0.69903,-2.53623 0.86914,-7.91815 0.86914,-7.91815 0,0 0.81126,-6.25397 -1.50247,-11.83102 1.52007,-1.1265 3.3114,-0.75629 3.3114,-0.75629"
           id="path2613" />
        <path
           inkscape:connector-curvature="0"
           style="fill:#ffffff;fill-opacity:1;fill-rule:nonzero;stroke:none"
           d="m 262.90385,373.45419 c 0,0 0.54665,-3.66723 9.32724,-4.88952 8.57972,-0.72686 9.4127,1.87835 9.53777,3.92539 0.0589,2.7368 -8.32728,4.05728 -8.32728,4.05728 0,0 -10.41402,2.06671 -10.53773,-3.09315"
           id="path2615" />
        <path
           inkscape:connector-curvature="0"
           style="fill:#f0f0f0;fill-opacity:1;fill-rule:nonzero;stroke:none"
           d="m 262.94991,372.98502 c 0,0 -0.47453,2.60899 7.99209,2.34409 9.21645,-0.2929 10.55264,-4.265 10.55264,-4.265 0,0 0.98095,3.16277 -1.22776,4.63813 -2.20897,1.47137 -15.06613,3.48291 -16.88407,0.0487 -1.28649,-2.13951 -0.4329,-2.76593 -0.4329,-2.76593"
           id="path2617" />
        <path
           inkscape:connector-curvature="0"
           style="fill:#ffffff;fill-opacity:1;fill-rule:nonzero;stroke:none"
           d="m 266.81083,367.69216 c 0.94372,-1.1377 2.38831,-1.8244 3.87029,-2.02411 0.74583,-0.0864 1.50926,-0.0877 2.23404,0.0892 0.73354,0.1336 1.41733,0.45466 2.03861,0.83475 -0.73114,-0.0985 -1.42384,-0.20754 -2.11871,-0.23414 -0.68843,-0.0469 -1.37509,-0.0111 -2.0502,0.0788 -0.68013,0.0738 -1.34599,0.24139 -2.00504,0.45108 -0.6585,0.21758 -1.3185,0.47044 -1.96896,0.80494"
           id="path2619" />
        <path
           inkscape:connector-curvature="0"
           style="fill:#ffffff;fill-opacity:1;fill-rule:nonzero;stroke:none"
           d="m 266.54762,364.43304 c 0.8309,-0.78544 1.91584,-1.23591 3.03687,-1.44609 0.56493,-0.098 1.14334,-0.11368 1.71589,-0.0438 0.57179,0.0589 1.12617,0.26318 1.61525,0.5428 -1.13884,0.008 -2.15625,0.0741 -3.20015,0.26711 -1.04134,0.17343 -2.06067,0.43926 -3.16787,0.67987"
           id="path2621" />
        <path
           inkscape:connector-curvature="0"
           style="fill:#ffffff;fill-opacity:1;fill-rule:nonzero;stroke:none"
           d="m 266.64159,362.38266 c 0.4667,-0.61545 1.20801,-0.99539 1.9787,-1.11884 0.77434,-0.12741 1.60489,0.0503 2.21621,0.51331 -0.38958,-0.0283 -0.73839,-0.0902 -1.098,-0.0812 -0.35258,-0.003 -0.6958,0.0168 -1.04051,0.0715 -0.69018,0.0986 -1.35205,0.32399 -2.05667,0.61129"
           id="path2623" />
      </g>
      <path
         sodipodi:nodetypes="cccccccaccc"
         inkscape:connector-curvature="0"
         id="path10234"
         d="m 276.10393,180.28878 -26.90664,15.99683 c 0,0 9.01394,60.66477 8.51711,66.82272 -0.25526,3.17733 -0.0427,6.56184 0.22212,9.10435 -0.74267,24.34206 3.13202,56.31148 4.76395,81.4275 l 0.1242,-0.009 c 0.73232,-0.0543 5.60049,-0.43593 8.44836,-1.15637 1.38776,-6.11067 6.90901,-54.17925 7.92845,-81.43282 1.06437,-28.45485 5.44936,-55.67145 -1.90306,-85.40306 -0.65613,-3.48695 -1.19449,-5.35061 -1.19449,-5.35061 z"
         style="fill:#1a1a1a;fill-opacity:1;fill-rule:nonzero;stroke:none;stroke-width:1" />
    </g>
    <path
       style="opacity:1;fill:#1a1a1a;fill-opacity:1;stroke:none;stroke-width:0.45735931;stroke-opacity:1"
       d="m 163.34896,30.646657 -1.21154,6.861792 c 0,0 6.24528,5.129688 9.98939,5.135951 3.76865,0.0063 10.07209,-5.135951 10.07209,-5.135951 l -1.28675,-6.955335 z"
       id="rect10213"
       inkscape:connector-curvature="0"
       sodipodi:nodetypes="ccsccc" />
    <path
       transform="matrix(0.3527778,0,0,0.3527778,155.25651,-34.816284)"
       style="fill:#000000;stroke:none;stroke-width:0.74999994px;stroke-linecap:butt;stroke-linejoin:miter;stroke-opacity:1"
       d="m 41.229539,86.401731 c 3.25e-4,9.78e-4 0.0857,0.258627 0.08603,0.259604 0.524832,1.586453 1.131064,3.471387 1.83034,5.547908 0,0 0,10e-7 0,10e-7 0.635728,1.888466 1.37749,4.050646 2.251854,6.163377 0.576544,1.412628 1.185946,3.027679 2.33187,4.274199 0.170999,0.20142 0.434115,0.37079 0.773717,0.41334 0,0 3e-6,0 3e-6,0 0.3231,0.008 0.598474,-0.10763 0.79458,-0.27226 0.610158,-0.48734 0.951405,-1.16635 1.232682,-1.78062 0.796209,-1.663758 1.345661,-3.419963 1.83805,-5.160252 0.1297,-0.45841 0.254298,-0.916079 0.368588,-1.339215 0,0 0,-10e-7 0,-10e-7 1.39802,-6.170712 1.95033,-8.957743 1.940504,-9.76166 -0.0052,-0.426417 -0.07306,-0.655697 -0.176732,-0.67951 10e-7,0 -4e-6,-10e-7 -4e-6,-10e-7 0,0 -6e-6,-10e-7 -6e-6,-10e-7 0,0 -5e-6,-1e-6 -5e-6,-1e-6 0,0 -6e-6,-10e-7 -6e-6,-10e-7 0,0 -5e-6,-10e-7 -5e-6,-10e-7 0,0 -5e-6,0 -5e-6,0 -10e-7,-10e-7 -2e-6,-10e-7 -2e-6,-10e-7 0,0 -3e-6,0 -3e-6,0 -2e-6,-10e-7 -3e-6,-10e-7 -5e-6,-10e-7 0,0 -5e-6,-1e-6 -5e-6,-1e-6 0,0 -6e-6,-10e-7 -6e-6,-10e-7 0,0 -2e-6,-10e-7 -2e-6,-10e-7 -10e-7,0 -2e-6,0 -3e-6,0 0,0 -6e-6,-10e-7 -6e-6,-10e-7 0,0 -5e-6,-10e-7 -5e-6,-10e-7 0,0 -4e-6,-10e-7 -4e-6,-10e-7 0,0 -3e-6,-1e-6 -3e-6,-1e-6 0,0 -3e-6,0 -3e-6,0 0,0 -5e-6,-10e-7 -5e-6,-10e-7 -2e-6,0 -3e-6,-10e-7 -5e-6,-10e-7 0,0 -5e-6,-10e-7 -5e-6,-10e-7 -0.221506,-0.04047 -0.213231,-0.03897 -0.0072,-0.0013 0,0 5e-6,10e-7 5e-6,10e-7 0,0 7e-6,10e-7 7e-6,10e-7 3e-6,10e-7 5e-6,10e-7 7e-6,2e-6 0,0 3e-6,0 3e-6,0 0,0 2e-6,0 2e-6,0 0,0 8e-6,2e-6 8e-6,2e-6 0,0 7e-6,10e-7 7e-6,10e-7 -10e-7,0 -10e-7,0 -10e-7,0 0,0 0,0 0,0 0,0 0,0 0,0 0,0 -10e-7,0 -10e-7,0 0,0 0,0 0,0 0,0 0,0 0,0 0,0 0,0 0,0 0,0 0,0 0,0 0,0 0,0 0,0 0,0 0,0 0,0 0,0 0,0 0,0 0,0 0,0 0,0 -0.09743,-0.01318 -0.224991,0.149633 -0.36149,0.495116 -0.746906,2.509394 -1.615041,5.921336 -2.485593,9.702127 -0.574913,2.076277 -1.164017,4.30374 -2.104524,6.284503 -0.307974,0.59621 -0.537843,1.14674 -0.903904,1.39382 -0.08644,0.0386 -0.115843,0.082 -0.06099,0.054 0,0 0,0 0,0 0.05027,0.041 0.02016,-0.0143 -0.07397,-0.0748 0,0 -1e-6,0 -1e-6,0 -0.982001,-1.00171 -1.548011,-2.502864 -2.179021,-3.92475 -0.890404,-2.056107 -1.676108,-4.201919 -2.355792,-6.040508 -0.786317,-2.127592 -1.459978,-3.965504 -2.068413,-5.450207 -0.258306,-0.630317 -0.501547,-1.18883 -0.726429,-1.657965 -0.0081,-0.01635 -0.01617,-0.03239 -0.0241,-0.04812 -0.10464,-0.207598 -0.190827,-0.361141 -0.258916,-0.462642 -0.03556,-0.05295 -0.06623,-0.09185 -0.09206,-0.116952 0,0 0,0 0,0 -0.0132,-0.01283 -0.02513,-0.02206 -0.03581,-0.02774 0,0 0,0 0,0 -0.02325,-0.01225 -0.0404,-0.0078 -0.05185,0.01286 0,0 0,0 0,0 -0.0053,0.0097 -0.0093,0.02293 -0.01204,0.03966 -0.0054,0.03324 -0.0056,0.0802 -7.16e-4,0.140321 0,0 0,0 0,0 0.0098,0.118885 0.0397,0.28904 0.0902,0.506737 0.0862,0.371583 0.232283,0.881618 0.441162,1.510872 2.3e-5,3e-5 4.6e-5,6e-5 6.9e-5,9e-5 z"
       id="path2788"
       inkscape:connector-curvature="0"
       inkscape:path-effect="#path-effect2796"
       inkscape:original-d="m 41.32073,84.039459 c 0,0 3.75,15.281249 6.65625,18.375001 2.90625,3.09375 6.375,-18.375001 6.375,-18.375001" />
    <path
       style="opacity:1;fill:#0032b4;fill-opacity:1;fill-rule:nonzero;stroke:none;stroke-width:0.35277778"
       d="m 168.23222,-5.579535 c -0.0806,-0.0053 -0.16624,0.0033 -0.25736,0.02997 -0.73036,0.212223 -0.47387,0.759127 -0.47387,0.759127 l -6.77116,0.577226 c 0,0 -1.98023,0.191894 -2.68717,3.40547795 -1.58571,4.12489905 3.12287,13.64547005 4.47724,7.32926505 l 1.73737,10.419524 c 0.52102,3.138998 -3.73466,17.835129 -2.75591,19.680455 h 21.55475 c 0.3274,-2.245064 -3.00032,-19.574005 -3.00032,-19.574005 l 1.7141,-10.519251 c 1.97832,6.397429 4.72,-5.96935205 4.43693,-7.33598605 C 185.49991,-4.021316 183.51966,-4.213208 183.51966,-4.213208 l -6.6771,-0.577228 c 0,0 0.25648,-0.546904 -0.4739,-0.759127 -0.72898,-0.213592 -1.12448,0.728639 -1.12448,0.728639 l -3.11711,4.14961695 -3.02773,-4.14961695 c 0,0 -0.30306,-0.721286 -0.86712,-0.758611 z"
       id="path2627"
       inkscape:connector-curvature="0"
       sodipodi:nodetypes="ccccccccccccccccccc" />
    <path
       inkscape:connector-curvature="0"
       style="fill:#001f6e;fill-opacity:1;fill-rule:nonzero;stroke:none;stroke-width:0.35277778"
       d="m 173.48143,-0.93055105 c 0.13091,0.555349 0.19843,1.109323 0.24529,1.664671 0.0496,0.55397405 0.0634,1.10932305 0.0703,1.66329205 -0.005,0.55535 -0.0193,1.109321 -0.0689,1.664671 -0.0469,0.553971 -0.11576,1.109321 -0.24667,1.66329 -0.13091,-0.553969 -0.19982,-1.109319 -0.24529,-1.66329 -0.051,-0.55535 -0.0648,-1.109321 -0.0689,-1.664671 0.006,-0.553969 0.0193,-1.109318 0.0689,-1.66329205 0.0469,-0.555348 0.11438,-1.109322 0.24529,-1.664671"
       id="path2629" />
    <path
       inkscape:connector-curvature="0"
       style="fill:#001f6e;fill-opacity:1;fill-rule:nonzero;stroke:none;stroke-width:0.35277778"
       d="m 173.52139,6.287613 h -0.0799 c -0.0717,0 -0.13091,-0.05926 -0.13091,-0.132292 V 5.295425 c 0,-0.07165 0.0593,-0.132292 0.13091,-0.132292 h 0.0799 c 0.0717,0 0.13229,0.06064 0.13229,0.132292 v 0.859896 c 0,0.07304 -0.0606,0.132292 -0.13229,0.132292"
       id="path2631" />
    <path
       inkscape:connector-curvature="0"
       style="fill:#001f6e;fill-opacity:1;fill-rule:nonzero;stroke:none;stroke-width:0.35277778"
       d="m 170.92792,-0.93055105 c 0.13092,0.449241 0.19844,0.899863 0.24529,1.349099 0.051,0.449242 0.0634,0.89848305 0.0703,1.34910005 -0.006,0.449242 -0.0193,0.898483 -0.0689,1.347722 -0.0468,0.450619 -0.11575,0.899858 -0.24667,1.349099 -0.13091,-0.449241 -0.19981,-0.89848 -0.24529,-1.349099 -0.051,-0.449239 -0.0634,-0.89848 -0.0689,-1.347722 0.006,-0.450617 0.0193,-0.89985805 0.0703,-1.34910005 0.0455,-0.449236 0.11438,-0.899858 0.24391,-1.349099"
       id="path2633" />
    <path
       inkscape:connector-curvature="0"
       style="fill:#001f6e;fill-opacity:1;fill-rule:nonzero;stroke:none;stroke-width:0.35277778"
       d="m 170.96789,5.163133 h -0.0786 c -0.073,0 -0.1323,-0.05926 -0.1323,-0.132291 V 4.170946 c 0,-0.07304 0.0593,-0.132292 0.1323,-0.132292 h 0.0786 c 0.073,0 0.13229,0.05926 0.13229,0.132292 v 0.859896 c 0,0.07303 -0.0593,0.132291 -0.13229,0.132291"
       id="path2635" />
    <path
       inkscape:connector-curvature="0"
       style="fill:#eca96a;fill-opacity:1;fill-rule:nonzero;stroke:none;stroke-width:0.35277778"
       d="m 182.73187,-15.032857 c -0.3831,-1.456588 -1.02664,-1.995399 -1.85209,-2.083594 0.56638,-1.475881 0.92605,-3.308671 1.04318,-5.578299 0,-6.034433 -4.18648,-9.354128 -9.62836,-9.354128 -5.44049,0 -9.62697,3.319695 -9.62697,9.354128 0.11851,2.293056 0.48507,4.141005 1.06109,5.625152 -0.69729,0.170875 -1.24712,0.740004 -1.5875,2.036741 -0.47818,1.824521 1.27606,3.716567 2.14285,3.807517 0.14469,0.01517 0.28388,0.02342 0.42168,0.02755 2.23518,3.447852 7.58885,3.981155 7.58885,3.981155 0,0 5.35368,-0.533303 7.59024,-3.979776 0.226,0.0069 0.45889,-0.0028 0.70418,-0.02893 0.86678,-0.09095 2.62103,-1.982996 2.14285,-3.80752"
       id="path2517" />
    <path
       inkscape:connector-curvature="0"
       style="fill:#35353d;fill-opacity:1;fill-rule:nonzero;stroke:none;stroke-width:0.35277778"
       d="m 162.43002,-14.521566 c 0.005,-0.32935 0.0468,-0.664213 0.17088,-0.979784 0.0634,-0.155719 0.14469,-0.311439 0.27285,-0.438217 0.12953,-0.129536 0.32246,-0.199817 0.51263,-0.175009 0.1943,0.02342 0.35002,0.150205 0.46026,0.283873 0.11438,0.136426 0.19293,0.290766 0.25908,0.446486 0.12677,0.31557 0.20532,0.63941 0.25631,0.971515 l 0.01,0.06752 -0.0689,0.02067 c -0.11576,0.03447 -0.24116,0.104729 -0.32384,0.203948 -0.0868,0.09922 -0.13229,0.23151 -0.14332,0.367936 -0.011,0.136427 0.004,0.278367 0.0841,0.391365 0.0799,0.110243 0.22049,0.176389 0.36381,0.191548 -0.1447,0.0096 -0.3018,-0.03859 -0.4079,-0.15572 -0.10611,-0.117133 -0.14608,-0.279742 -0.14194,-0.432703 0.001,-0.152965 0.0427,-0.314194 0.14056,-0.443728 0.0978,-0.129536 0.22875,-0.226 0.39136,-0.275607 l -0.0593,0.08819 c -0.0551,-0.315559 -0.14055,-0.632509 -0.26733,-0.924651 -0.11989,-0.282498 -0.29628,-0.593937 -0.57465,-0.640789 -0.13504,-0.02205 -0.28111,0.02755 -0.39411,0.121267 -0.11438,0.09784 -0.19982,0.23289 -0.26872,0.376206 -0.13505,0.290766 -0.21911,0.610471 -0.27147,0.935687"
       id="path2525" />
    <path
       inkscape:connector-curvature="0"
       style="fill:#35353d;fill-opacity:1;fill-rule:nonzero;stroke:none;stroke-width:0.35277778"
       d="m 182.18833,-14.521566 c -0.0524,-0.325215 -0.13505,-0.64492 -0.27009,-0.935687 -0.0703,-0.143316 -0.15572,-0.278366 -0.2701,-0.376205 -0.11162,-0.0937 -0.25769,-0.143316 -0.39412,-0.121268 -0.27836,0.04685 -0.45475,0.358292 -0.57464,0.64079 -0.1254,0.292142 -0.21084,0.609092 -0.26734,0.924662 l -0.0593,-0.08819 c 0.16399,0.04961 0.29353,0.146071 0.39136,0.275608 0.0978,0.129537 0.13919,0.290767 0.14057,0.443727 0.004,0.152965 -0.0345,0.315571 -0.14057,0.432703 -0.10748,0.117137 -0.26458,0.165365 -0.40927,0.15572 0.14469,-0.01517 0.28387,-0.0813 0.3638,-0.191548 0.0799,-0.112998 0.0951,-0.254934 0.0841,-0.391361 -0.01,-0.136426 -0.0565,-0.268718 -0.14332,-0.367936 -0.0813,-0.09922 -0.2067,-0.169499 -0.32383,-0.203952 l -0.0689,-0.02067 0.01,-0.06752 c 0.0524,-0.332109 0.13091,-0.655948 0.25631,-0.971519 0.0662,-0.155719 0.1447,-0.310059 0.25907,-0.446482 0.11025,-0.133671 0.26734,-0.260452 0.46027,-0.283877 0.19017,-0.0248 0.38447,0.04547 0.51263,0.17501 0.12953,0.126781 0.20946,0.282497 0.27285,0.438217 0.12402,0.31557 0.16536,0.650433 0.17088,0.979783"
       id="path2527" />
    <path
       inkscape:connector-curvature="0"
       style="fill:#ffffff;fill-opacity:1;fill-rule:nonzero;stroke:none;stroke-width:0.35277778"
       d="m 169.31745,-15.765933 c -0.14055,0.150206 -0.68212,0.603578 -1.64399,0.465776 -0.92054,-0.136426 -1.4056,-0.837847 -1.53101,-1.044554 -1.12723,-1.846569 0.25081,-2.747807 0.25081,-2.747807 0.17225,-0.128158 0.45062,-0.297656 0.82544,-0.362423 0.97014,-0.170879 1.62195,0.383092 1.83004,0.614602 0.14332,0.146075 0.92742,1.058334 0.67661,2.22002 -0.0827,0.383096 -0.25769,0.655948 -0.4079,0.854386"
       id="path2529" />
    <path
       inkscape:connector-curvature="0"
       style="fill:#2e2e35;fill-opacity:1;fill-rule:nonzero;stroke:none;stroke-width:0.35277778"
       d="m 165.74971,-18.181635 c 0.0799,-0.423059 0.3514,-0.811664 0.72072,-1.054199 0.36242,-0.257694 0.82131,-0.367937 1.26504,-0.337619 0.4451,0.03447 0.87505,0.223241 1.20027,0.520897 0.32522,0.300412 0.55121,0.686262 0.67799,1.095541 -0.19568,-0.377582 -0.44648,-0.730359 -0.76756,-0.988053 -0.3266,-0.253559 -0.71796,-0.417547 -1.12448,-0.446486 -0.4079,-0.03168 -0.82131,0.06201 -1.17547,0.272853 -0.35967,0.203951 -0.64217,0.537435 -0.79651,0.937066"
       id="path2531" />
    <path
       inkscape:connector-curvature="0"
       style="fill:#3a1c08;fill-opacity:1;fill-rule:nonzero;stroke:none;stroke-width:0.35277778"
       d="m 169.66886,-17.331385 c 0.0744,0.994943 -0.5774,1.85346 -1.45521,1.91823 -0.87781,0.06615 -1.64951,-0.687642 -1.72393,-1.681209 -0.0744,-0.993563 0.5774,-1.852083 1.45521,-1.918229 0.87781,-0.06477 1.64951,0.687642 1.72393,1.681208"
       id="path2533" />
    <path
       inkscape:connector-curvature="0"
       style="fill:#ffffff;fill-opacity:1;fill-rule:nonzero;stroke:none;stroke-width:0.35277778"
       d="m 175.54757,-15.765933 c 0.14193,0.150206 0.68212,0.603578 1.644,0.465776 0.92052,-0.136426 1.40559,-0.837847 1.53238,-1.044554 1.12723,-1.846569 -0.25219,-2.747807 -0.25219,-2.747807 -0.17225,-0.128158 -0.45061,-0.297656 -0.82406,-0.362423 -0.97014,-0.170879 -1.62195,0.383092 -1.83004,0.614602 -0.14331,0.146075 -0.9288,1.058334 -0.67799,2.22002 0.0827,0.383096 0.25769,0.655948 0.4079,0.854386"
       id="path2537" />
    <path
       inkscape:connector-curvature="0"
       style="fill:#2e2e35;fill-opacity:1;fill-rule:nonzero;stroke:none;stroke-width:0.35277778"
       d="m 179.11531,-18.181635 c -0.15296,-0.399631 -0.43684,-0.733115 -0.79651,-0.937066 -0.35278,-0.210842 -0.76757,-0.304546 -1.17409,-0.272853 -0.40652,0.02893 -0.79926,0.192927 -1.12448,0.446486 -0.32108,0.257694 -0.57188,0.610471 -0.76894,0.988053 0.12816,-0.409279 0.35278,-0.795129 0.67799,-1.095541 0.3266,-0.297656 0.75517,-0.486448 1.20165,-0.520897 0.44373,-0.0303 0.90262,0.07992 1.26366,0.337619 0.36932,0.242535 0.64079,0.63114 0.72072,1.054199"
       id="path2539" />
    <path
       inkscape:connector-curvature="0"
       style="fill:#3a1c08;fill-opacity:1;fill-rule:nonzero;stroke:none;stroke-width:0.35277778"
       d="m 175.19617,-17.331385 c -0.073,0.994943 0.57877,1.85346 1.45658,1.91823 0.87781,0.06615 1.64814,-0.687642 1.72255,-1.681209 0.0744,-0.993563 -0.5774,-1.852083 -1.45521,-1.918229 -0.87781,-0.06477 -1.64951,0.687642 -1.72392,1.681208"
       id="path2541" />
    <path
       inkscape:connector-curvature="0"
       style="fill:#35353d;fill-opacity:1;fill-rule:nonzero;stroke:none;stroke-width:0.35277778"
       d="m 172.23338,-13.975861 c -0.11024,-0.06477 -0.20395,-0.139185 -0.30868,-0.181903 -0.10197,-0.05512 -0.2067,-0.05374 -0.31419,0.02067 0.0262,-0.0565 0.0772,-0.111622 0.14745,-0.129536 0.0717,-0.0193 0.14194,0.0014 0.20395,0.0248 0.11851,0.06064 0.21497,0.14883 0.27147,0.265963"
       id="path2547" />
    <path
       inkscape:connector-curvature="0"
       style="fill:#35353d;fill-opacity:1;fill-rule:nonzero;stroke:none;stroke-width:0.35277778"
       d="m 173.27931,-13.975861 c 0.0565,-0.117136 0.15434,-0.205331 0.27286,-0.265963 0.0606,-0.02342 0.13229,-0.0441 0.20257,-0.0248 0.0717,0.01792 0.12127,0.07304 0.14745,0.129536 -0.10749,-0.07441 -0.21084,-0.07579 -0.3142,-0.02067 -0.10472,0.04272 -0.19843,0.117133 -0.30868,0.1819"
       id="path2549" />
    <path
       id="path10307"
       d="m 160.72979,-4.213036 c 0,0 -1.98024,0.191548 -2.68717,3.40513195 -0.70556,3.21496305 -0.26004,8.10284905 -0.26004,8.10284905 0,0 -0.43271,0.159856 -0.29628,0.684887 0.34313,0.347263 4.5208,0.738513 4.5208,0.738513 0,0 0.43271,-0.09095 0.22876,-0.752409 0.10886,-0.643543 0.28402,-1.44417 0.28402,-1.44417 l -1.79009,-10.734802"
       style="fill:#002ca8;fill-opacity:1;fill-rule:nonzero;stroke:none;stroke-width:0.35277778"
       inkscape:connector-curvature="0"
       sodipodi:nodetypes="cccccccc" />
    <path
       id="path2400"
       d="m 169.08274,-17.287664 c 0.047,0.628131 -0.3645,1.170132 -0.91863,1.211023 -0.55414,0.04176 -1.0413,-0.434124 -1.08827,-1.061386 -0.047,-0.62726 0.36449,-1.169264 0.91863,-1.211023 0.55414,-0.04089 1.04129,0.434124 1.08827,1.061386"
       style="fill:#000000;fill-opacity:1;fill-rule:nonzero;stroke:none;stroke-width:0.22270797"
       inkscape:connector-curvature="0" />
    <path
       id="path2407"
       d="m 175.78226,-17.287664 c -0.0461,0.628131 0.36538,1.170132 0.91956,1.211023 0.55417,0.04176 1.04049,-0.434124 1.08747,-1.061386 0.047,-0.62726 -0.36452,-1.169264 -0.91869,-1.211023 -0.55418,-0.04089 -1.04137,0.434124 -1.08834,1.061386"
       style="fill:#000000;fill-opacity:1;fill-rule:nonzero;stroke:#000000;stroke-width:0.22271506;stroke-opacity:1"
       inkscape:connector-curvature="0" />
    <path
       style="fill:#000000;stroke-width:0.05647422"
       d="m 168.71579,-34.816283 c -0.0508,0 -0.0829,0.168696 -0.11007,0.578776 -0.0211,0.318368 -0.0507,0.623632 -0.0661,0.677995 -0.0327,0.115192 -0.15187,0.123411 -0.48576,0.03411 -0.34081,-0.09116 -0.74343,0.03832 -1.3379,0.429431 -0.26173,0.172187 -0.48408,0.312642 -0.49403,0.312642 -0.01,0 -0.0181,-0.07632 -0.0181,-0.169498 0,-0.130056 -0.0254,-0.168982 -0.10955,-0.168982 -0.16638,0 -0.18674,-0.0854 -0.0889,-0.373621 0.0491,-0.144537 0.0767,-0.275182 0.0615,-0.290422 -0.11593,-0.115926 -0.4803,0.349101 -0.6165,0.787033 -0.0514,0.165209 -0.12538,0.590436 -0.16433,0.945162 l -0.0568,0.516247 c -0.10716,0.07117 -0.18245,0.123031 -0.26303,0.177767 l -0.14625,0.02894 c -0.51381,0.101303 -0.87283,0.280911 -1.02629,0.512629 0.008,0.0038 0.37573,0.04428 0.5302,0.06304 -0.008,0.01626 -0.0163,0.02757 -0.0248,0.04547 -0.08,0.169167 -0.16806,0.307475 -0.19585,0.307475 -0.0278,0 -0.12414,0.0625 -0.21446,0.138493 -0.0903,0.076 -0.26378,0.174963 -0.38551,0.220142 -1.06111,0.393853 -1.37079,0.658345 -1.29501,1.106909 0.0343,0.202811 0.0244,0.232155 -0.0935,0.27802 -0.49646,0.193058 -0.64574,0.282859 -0.84026,0.503845 -0.20723,0.235423 -0.44959,0.750891 -0.44959,0.957047 0,0.07303 0.0155,0.07907 0.0682,0.02636 0.11579,-0.115787 0.17362,-0.07539 0.13902,0.09767 -0.0297,0.148244 -0.017,0.168178 0.11988,0.183968 0.20286,0.02339 0.24636,0.287362 0.0739,0.448035 -0.10871,0.101253 -0.11431,0.153432 -0.0863,0.826823 0.0304,0.732335 0.0984,1.100267 0.23203,1.259871 0.15518,0.185272 0.034,0.414266 -0.18862,0.35605 -0.12283,-0.03211 -0.18582,0.09026 -0.18759,0.363804 -0.001,0.206092 -0.18184,0.129981 -0.24391,-0.102837 -0.0514,-0.192668 -0.0544,-0.194276 -0.11317,-0.06614 -0.0382,0.492585 0.0543,1.037483 0.46302,1.390096 0.17611,0.09107 0.3452,0.29031 0.3452,0.407209 0,0.145677 -0.22923,0.14134 -0.48628,-0.0093 -0.14126,-0.08279 -0.26731,-0.139891 -0.28008,-0.127124 -0.0981,0.332073 -0.0361,0.408225 0.30024,0.636654 0.0339,0.02149 0.0853,0.529963 0.0786,0.77928 -0.004,0.14936 0.0302,0.344545 0.0765,0.434083 0.0916,0.177169 0.63956,0.649115 0.8201,0.706416 0.13152,0.04174 0.142,0.102179 0.0341,0.19172 -0.11182,0.0928 -0.22445,0.540023 -0.18242,0.723987 0.0197,0.0863 0.0472,0.317382 0.061,0.513147 0.0354,0.502881 0.26741,0.896053 0.63407,1.075387 0.14924,0.07299 0.30603,0.149878 0.34881,0.171049 0.0428,0.02117 0.12693,0.203195 0.18707,0.40411 0.0602,0.200914 0.15226,0.403511 0.20464,0.450102 0.0524,0.04659 0.16658,0.194192 0.25373,0.328145 0.10211,0.15696 0.19258,0.237092 0.25425,0.22531 0.0811,-0.01549 0.10103,-0.121979 0.13229,-0.695565 0.32016,-2.626033 0.64929,-5.376018 1.57303,-7.855335 0.73046,-2.079135 1.49676,-2.588598 2.99147,-2.359263 1.75929,0.189593 3.62094,1.426599 5.26086,0.104873 1.06271,-0.530156 3.55706,-0.52492 4.77965,0.510747 2.15435,1.824987 2.26076,6.094146 2.27251,8.159788 8.2e-4,0.666499 0.0508,0.966731 0.19327,1.160137 0.0788,0.107008 0.0875,0.104359 0.28732,-0.08733 0.11331,-0.108713 0.23959,-0.278273 0.28112,-0.376721 0.0415,-0.09845 0.13522,-0.210591 0.20774,-0.249081 0.0725,-0.03849 0.1642,-0.114985 0.20361,-0.170532 0.0394,-0.05555 0.16992,-0.156548 0.29042,-0.224276 0.2736,-0.153778 0.3939,-0.354497 0.30127,-0.502812 -0.0806,-0.129086 0.0687,-0.471862 0.28836,-0.661974 0.17836,-0.154391 0.27934,-0.513191 0.23254,-0.825272 -0.0307,-0.204428 -0.0161,-0.255197 0.10387,-0.367936 0.13142,-0.123458 0.13461,-0.140225 0.0558,-0.298173 -0.0507,-0.10169 -0.0763,-0.276479 -0.0646,-0.445968 l 0.0191,-0.279053 -0.30541,-0.185001 c -0.35815,-0.217192 -0.51623,-0.466946 -0.4625,-0.729672 0.0275,-0.134369 0.11162,-0.227874 0.34572,-0.382923 0.32954,-0.21827 0.61753,-0.641396 0.61753,-0.907954 8e-5,-0.138022 -0.15178,-0.497758 -0.29094,-0.689364 -0.0975,-0.134332 -0.0176,-0.188835 0.15865,-0.10852 0.13321,0.06068 0.14417,0.05692 0.10697,-0.03359 -0.0228,-0.05538 -0.0531,-0.138414 -0.0672,-0.185001 -0.014,-0.04659 -0.10625,-0.122912 -0.20516,-0.169499 -0.16649,-0.07843 -0.18115,-0.107735 -0.19533,-0.395325 -0.0114,-0.231899 0.0136,-0.356996 0.0982,-0.494027 0.20828,-0.337437 0.40624,-0.210735 0.50643,0.324528 l 0.0367,0.197404 0.0966,-0.278019 c 0.14653,-0.422995 0.12458,-0.583224 -0.13487,-0.980312 -0.25188,-0.385479 -0.24411,-0.474053 0.0496,-0.54777 0.18482,-0.04639 0.29455,-0.130841 0.29455,-0.227376 0,-0.0508 -0.16869,-0.08289 -0.57877,-0.110071 -0.31837,-0.0211 -0.62312,-0.05125 -0.67748,-0.06666 -0.11519,-0.03265 -0.12393,-0.151867 -0.0346,-0.485758 0.0912,-0.340817 -0.0378,-0.743424 -0.42891,-1.337903 -0.17219,-0.261723 -0.31316,-0.484086 -0.31316,-0.494027 0,-0.0099 0.0763,-0.01809 0.1695,-0.01809 0.13006,0 0.1695,-0.02541 0.1695,-0.109554 0,-0.166373 0.0849,-0.18674 0.3731,-0.08888 0.14454,0.04907 0.27519,0.07672 0.29043,0.0615 0.11592,-0.115928 -0.34911,-0.479775 -0.78704,-0.615982 -0.16521,-0.05138 -0.59043,-0.125379 -0.94516,-0.164331 l -0.64492,-0.0708 -0.078,-0.395324 c -0.10131,-0.513814 -0.28091,-0.873355 -0.51263,-1.026814 -0.10312,-0.06829 -0.26716,-0.124444 -0.45321,-0.172599 -0.11919,-0.09498 -0.26044,-0.213675 -0.44803,-0.391708 -0.10871,-0.113304 -0.27828,-0.240099 -0.37672,-0.281635 -0.0984,-0.04154 -0.21059,-0.134702 -0.24908,-0.207223 -0.0385,-0.07251 -0.1155,-0.164193 -0.17105,-0.203605 -0.0555,-0.03943 -0.15604,-0.170436 -0.22376,-0.290938 -0.15378,-0.273597 -0.3545,-0.393903 -0.50281,-0.301274 -0.12909,0.08061 -0.57559,0.245644 -0.84905,0.156063 -0.29469,-0.09653 -0.37303,-0.516207 -0.6382,-0.676961 -0.10898,-0.06607 -0.2552,0.01614 -0.36794,-0.10387 -0.12345,-0.131413 -0.14022,-0.134084 -0.29817,-0.05529 -0.10169,0.05072 -0.28592,0.278076 -0.4625,0.262517 -0.11322,-0.01 -0.26252,-0.217558 -0.26252,-0.217558 l -0.185,0.305408 c -0.2172,0.358154 -0.46746,0.516752 -0.73019,0.46302 -0.13437,-0.02748 -0.22736,-0.112132 -0.38241,-0.346232 -0.21827,-0.329547 -0.6414,-0.617533 -0.90795,-0.617533 -0.13803,-8.1e-5 -0.49776,0.151785 -0.68936,0.290938 -0.13432,0.09754 -0.18884,0.01761 -0.10852,-0.158646 0.0607,-0.133209 0.0569,-0.144171 -0.0336,-0.106971 -0.0554,0.02278 -0.13894,0.05314 -0.18552,0.06718 -0.0466,0.01406 -0.1224,0.106251 -0.16899,0.205155 -0.0784,0.166497 -0.10773,0.181155 -0.39532,0.195337 -0.2319,0.01142 -0.35751,-0.0136 -0.49454,-0.09818 -0.33743,-0.208284 -0.21022,-0.406244 0.32504,-0.506429 l 0.1974,-0.03669 -0.27801,-0.09663 c -0.42299,-0.14653 -0.58322,-0.124066 -0.98031,0.135392 -0.38547,0.251876 -0.47405,0.243586 -0.54776,-0.05013 -0.0464,-0.184828 -0.13136,-0.294556 -0.2279,-0.294556 z"
       id="path2507"
       inkscape:connector-curvature="0"
       sodipodi:nodetypes="cccccsssccccccccccscccccscccccccccccscccccccccccccccccccaccccccccccccccccccccccccccccccsccccsssccscccccccccccccccscccccccccccccccccsc" />
    <path
       style="fill:#0f0d0c;stroke-width:0.0425413"
       d="m 166.14787,-21.90111 c 0.61036,-0.171277 1.65839,-0.211181 2.63756,-0.100421 0.73781,0.08346 1.06023,0.08272 1.14558,-0.0026 0.0824,-0.08241 0.0863,-0.204426 0.009,-0.268975 -0.98395,-0.409662 -3.26022,-0.422537 -3.94484,0.212531 -0.14602,0.146024 -0.0723,0.22278 0.15323,0.159496 z"
       id="path2474"
       inkscape:connector-curvature="0" />
    <path
       inkscape:connector-curvature="0"
       id="path2551"
       d="m 179.02758,-21.807565 c -0.61036,-0.171278 -1.65839,-0.211182 -2.63756,-0.100421 -0.73781,0.08345 -1.06023,0.08272 -1.14558,-0.0026 -0.0824,-0.08241 -0.0863,-0.204426 -0.008,-0.268976 0.98396,-0.409661 3.26022,-0.422537 3.94484,0.212532 0.14602,0.146024 0.0723,0.22278 -0.15322,0.159496 z"
       style="fill:#0f0d0c;stroke-width:0.0425413" />
    <path
       style="fill:#0069ff;fill-opacity:1;fill-rule:nonzero;stroke:none;stroke-width:0.35277778"
       d="m 188.69628,35.600149 -2.92143,-0.727604 c -0.20396,-0.05098 -0.32936,-0.259072 -0.27837,-0.461645 l 0.0248,-0.09922 c 0.051,-0.20257 0.25769,-0.327969 0.46164,-0.276981 l 2.92282,0.727604 c 0.20257,0.05098 0.32797,0.259069 0.27698,0.461639 l -0.0248,0.09922 c -0.0496,0.202573 -0.25769,0.327975 -0.46164,0.276987"
       id="path2127"
       inkscape:connector-curvature="0" />
    <path
       style="fill:#ff0000;fill-opacity:1;fill-rule:nonzero;stroke:none;stroke-width:0.35277778"
       d="M 188.80737,34.627255 185.971,33.980867 c -0.10646,-0.02432 -0.17457,-0.130979 -0.14888,-0.237376 l 0.0107,-0.05192 c 0.0244,-0.107841 0.13236,-0.174506 0.23882,-0.150196 l 2.83505,0.644949 c 0.10647,0.02432 0.17451,0.132355 0.1502,0.238821 l -0.0121,0.05186 c -0.0243,0.106463 -0.13098,0.174572 -0.23745,0.150257"
       id="path2129"
       inkscape:connector-curvature="0" />
    <path
       inkscape:connector-curvature="0"
       id="path2131"
       d="m 188.97699,33.996626 -2.94589,-0.621279 c -0.20566,-0.04357 -0.33852,-0.24697 -0.29491,-0.451257 l 0.0212,-0.100055 c 0.0436,-0.204285 0.24565,-0.33709 0.45131,-0.293523 l 2.94726,0.621231 c 0.20429,0.04361 0.33715,0.247015 0.29353,0.451299 l -0.0212,0.100055 c -0.0422,0.204235 -0.24564,0.337095 -0.45131,0.293529"
       style="fill:#ffff00;fill-opacity:1;fill-rule:nonzero;stroke:none;stroke-width:0.35277778" />
    <path
       inkscape:connector-curvature="0"
       id="path2133"
       d="m 158.28343,35.00516 -2.86356,-0.512631 c -0.10749,-0.01929 -0.18053,-0.122645 -0.15985,-0.230134 l 0.008,-0.05237 c 0.0193,-0.108862 0.12402,-0.18052 0.23151,-0.161229 l 2.86219,0.511252 c 0.10748,0.01929 0.18052,0.124023 0.16123,0.23151 l -0.01,0.05237 c -0.0193,0.107489 -0.12265,0.180525 -0.23013,0.161232"
       style="fill:#800000;fill-opacity:1;fill-rule:nonzero;stroke:none;stroke-width:0.35277778" />
    <path
       style="fill:#353535;fill-opacity:1;fill-rule:nonzero;stroke:none;stroke-width:0.35277778"
       d="m 171.35282,-14.564287 c 0.80383,-1.181651 2.05339,-1.098922 2.83325,0 -0.96713,-0.99311 -1.90141,-0.895947 -2.83325,0"
       id="path3370"
       inkscape:connector-curvature="0"
       sodipodi:nodetypes="ccc" />
    <path
       sodipodi:nodetypes="cccccccc"
       inkscape:connector-curvature="0"
       style="fill:#002ca8;fill-opacity:1;fill-rule:nonzero;stroke:none;stroke-width:0.35277778"
       d="m 183.51965,-4.212864 c 0,0 1.98024,0.191548 2.68717,3.40513195 0.70556,3.21496305 0.26004,8.10285105 0.26004,8.10285105 0,0 0.43271,0.159854 0.29628,0.684885 -0.34313,0.347266 -4.5208,0.738513 -4.5208,0.738513 0,0 -0.43271,-0.09095 -0.22876,-0.752409 -0.10886,-0.643543 -0.28402,-1.44417 -0.28402,-1.44417 l 1.79009,-10.734802"
       id="path3579" />
    <g
       id="g1077"
       transform="matrix(0.3527778,0,0,0.3527778,155.58941,-34.816284)">
      <g
         transform="translate(-1.4883563,0.31406684)"
         id="g1070">
        <path
           inkscape:connector-curvature="0"
           style="fill:#ff4956;fill-opacity:1;fill-rule:nonzero;stroke:none;stroke-width:0.15000001;stroke-linecap:round;stroke-linejoin:round;stroke-miterlimit:4;stroke-dasharray:none;stroke-opacity:1"
           d="m 56.485511,65.887345 c -3.920836,5.08026 -8.733175,5.038784 -12.598186,0.0094 4.169199,1.318784 8.622153,1.561162 12.59818,-0.0094"
           id="path2545"
           sodipodi:nodetypes="ccc" />
        <path
           inkscape:connector-curvature="0"
           style="opacity:1;fill:#ffffff;fill-opacity:1;stroke:none;stroke-width:0.19999999;stroke-miterlimit:4;stroke-dasharray:none"
           d="m 75.306641,87.746094 0.002,0.002 a 0.10001,0.10001 0 0 0 -0.0078,0 0.10001,0.10001 0 0 0 -0.0059,0.002 0.10001,0.10001 0 0 0 -0.0059,0.002 0.10001,0.10001 0 0 0 -0.0059,0.002 0.10001,0.10001 0 0 0 -0.002,0 0.10001,0.10001 0 0 0 -0.0039,0.002 0.10001,0.10001 0 0 0 -0.0078,0.0039 c -5.272176,2.079628 -11.184884,1.760175 -16.724609,0.0078 a 0.10001,0.10001 0 0 0 -0.107422,0.15625 c 0.414556,0.539442 0.841138,1.020261 1.271484,1.47461 5.15239,1.643239 9.988908,1.57906 14.519532,-0.134766 0.38203,-0.410709 0.760219,-0.846313 1.130859,-1.324219 a 0.10001,0.10001 0 0 0 0.0098,-0.0059 0.10001,0.10001 0 0 0 0.02148,-0.01758 0.10001,0.10001 0 0 0 0.002,-0.0059 0.10001,0.10001 0 0 0 0.0039,-0.0039 0.10001,0.10001 0 0 0 0.0039,-0.002 0.10001,0.10001 0 0 0 0.0039,-0.0059 0.10001,0.10001 0 0 0 0,-0.0039 0.10001,0.10001 0 0 0 0.0039,-0.0059 0.10001,0.10001 0 0 0 0,-0.0039 0.10001,0.10001 0 0 0 0.0039,-0.0059 0.10001,0.10001 0 0 0 0,-0.002 0.10001,0.10001 0 0 0 0.002,-0.0078 0.10001,0.10001 0 0 0 0,-0.0039 0.10001,0.10001 0 0 0 0,-0.0039 0.10001,0.10001 0 0 0 0.002,-0.0059 0.10001,0.10001 0 0 0 0,-0.0059 0.10001,0.10001 0 0 0 -0.002,-0.0039 0.10001,0.10001 0 0 0 0.002,-0.0059 0.10001,0.10001 0 0 0 -0.002,-0.0059 0.10001,0.10001 0 0 0 0,-0.0059 0.10001,0.10001 0 0 0 -0.002,-0.002 0.10001,0.10001 0 0 0 0,-0.0039 0.10001,0.10001 0 0 0 -0.0039,-0.0098 0.10001,0.10001 0 0 0 -0.0059,-0.01172 0.10001,0.10001 0 0 0 -0.002,-0.0039 0.10001,0.10001 0 0 0 -0.002,-0.0059 0.10001,0.10001 0 0 0 -0.002,-0.002 0.10001,0.10001 0 0 0 -0.0059,-0.0039 0.10001,0.10001 0 0 0 -0.002,-0.0059 0.10001,0.10001 0 0 0 -0.0039,-0.0039 0.10001,0.10001 0 0 0 -0.002,-0.002 0.10001,0.10001 0 0 0 -0.0059,-0.0039 0.10001,0.10001 0 0 0 -0.002,-0.002 0.10001,0.10001 0 0 0 -0.01367,-0.0078 0.10001,0.10001 0 0 0 -0.0059,-0.0039 0.10001,0.10001 0 0 0 -0.0039,0 0.10001,0.10001 0 0 0 -0.0039,-0.0039 0.10001,0.10001 0 0 0 -0.0039,0 0.10001,0.10001 0 0 0 -0.0059,-0.002 0.10001,0.10001 0 0 0 -0.0059,0 0.10001,0.10001 0 0 0 -0.0039,-0.002 0.10001,0.10001 0 0 0 -0.0059,0 0.10001,0.10001 0 0 0 -0.0059,0 0.10001,0.10001 0 0 0 -0.0098,-0.002 z"
           transform="scale(0.74999998)"
           id="rect4770" />
        <path
           inkscape:connector-curvature="0"
           style="opacity:1;fill:#ffffff;fill-opacity:1;stroke:none;stroke-width:0.19999999;stroke-miterlimit:4;stroke-dasharray:none"
           d="m 61.318359,90.880859 c 1.793734,1.405353 3.677264,2.127376 5.570313,2.13086 1.869739,0.0034 3.736089,-0.696806 5.523437,-2.076172 -3.698794,1.025007 -7.394704,0.887121 -11.09375,-0.05469 z"
           transform="scale(0.74999998)"
           id="rect4774" />
        <path
           style="color:#000000;font-style:normal;font-variant:normal;font-weight:normal;font-stretch:normal;font-size:medium;line-height:normal;font-family:sans-serif;font-variant-ligatures:normal;font-variant-position:normal;font-variant-caps:normal;font-variant-numeric:normal;font-variant-alternates:normal;font-feature-settings:normal;text-indent:0;text-align:start;text-decoration:none;text-decoration-line:none;text-decoration-style:solid;text-decoration-color:#000000;letter-spacing:normal;word-spacing:normal;text-transform:none;writing-mode:lr-tb;direction:ltr;text-orientation:mixed;dominant-baseline:auto;baseline-shift:baseline;text-anchor:start;white-space:normal;shape-padding:0;clip-rule:nonzero;display:inline;overflow:visible;visibility:visible;opacity:1;isolation:auto;mix-blend-mode:normal;color-interpolation:sRGB;color-interpolation-filters:linearRGB;solid-color:#000000;solid-opacity:1;vector-effect:none;fill:#000000;fill-opacity:1;fill-rule:nonzero;stroke:none;stroke-width:0.15000001;stroke-linecap:round;stroke-linejoin:round;stroke-miterlimit:4;stroke-dasharray:none;stroke-dashoffset:0;stroke-opacity:1;color-rendering:auto;image-rendering:auto;shape-rendering:auto;text-rendering:auto;enable-background:accumulate"
           d="m 56.481028,65.810589 a 0.0750075,0.0750075 0 0 0 -0.0061,0.0011 0.0750075,0.0750075 0 0 0 -0.0042,0.0014 0.0750075,0.0750075 0 0 0 -0.0042,0.0014 0.0750075,0.0750075 0 0 0 -0.0042,0.0014 0.0750075,0.0750075 0 0 0 -0.002,-3.02e-4 0.0750075,0.0750075 0 0 0 -0.0023,0.0017 0.0750075,0.0750075 0 0 0 -0.0064,0.003 c -3.954132,1.559721 -8.387553,1.320272 -12.542347,0.006 a 0.0750075,0.0750075 0 0 0 -0.0809,0.116094 c 1.94161,2.526522 4.13214,3.812073 6.337488,3.816132 2.196676,0.004 4.390486,-1.271461 6.354124,-3.803392 a 0.0750075,0.0750075 0 0 0 0.0067,-0.0049 0.0750075,0.0750075 0 0 0 0.01587,-0.01339 0.0750075,0.0750075 0 0 0 0.0026,-0.0036 0.0750075,0.0750075 0 0 0 0.0026,-0.0036 0.0750075,0.0750075 0 0 0 0.0023,-0.0017 0.0750075,0.0750075 0 0 0 0.0026,-0.0036 0.0750075,0.0750075 0 0 0 5.87e-4,-0.0039 0.0750075,0.0750075 0 0 0 0.0026,-0.0036 0.0750075,0.0750075 0 0 0 5.88e-4,-0.0039 0.0750075,0.0750075 0 0 0 0.0026,-0.0036 0.0750075,0.0750075 0 0 0 3.01e-4,-0.002 0.0750075,0.0750075 0 0 0 8.89e-4,-0.0058 0.0750075,0.0750075 0 0 0 3.01e-4,-0.002 0.0750075,0.0750075 0 0 0 5.87e-4,-0.0039 0.0750075,0.0750075 0 0 0 5.87e-4,-0.0039 0.0750075,0.0750075 0 0 0 5.87e-4,-0.0039 0.0750075,0.0750075 0 0 0 -0.0014,-0.0042 0.0750075,0.0750075 0 0 0 5.88e-4,-0.0039 0.0750075,0.0750075 0 0 0 -0.0014,-0.0042 0.0750075,0.0750075 0 0 0 5.87e-4,-0.0039 0.0750075,0.0750075 0 0 0 -0.0017,-0.0023 0.0750075,0.0750075 0 0 0 3.01e-4,-0.002 0.0750075,0.0750075 0 0 0 -0.0027,-0.0083 0.0750075,0.0750075 0 0 0 -0.0047,-0.0086 0.0750075,0.0750075 0 0 0 -0.0017,-0.0023 0.0750075,0.0750075 0 0 0 -0.0014,-0.0042 0.0750075,0.0750075 0 0 0 -0.0017,-0.0023 0.0750075,0.0750075 0 0 0 -0.0036,-0.0026 0.0750075,0.0750075 0 0 0 -0.0014,-0.0042 0.0750075,0.0750075 0 0 0 -0.0036,-0.0026 0.0750075,0.0750075 0 0 0 -0.0017,-0.0023 0.0750075,0.0750075 0 0 0 -0.0036,-0.0026 0.0750075,0.0750075 0 0 0 -0.0017,-0.0023 0.0750075,0.0750075 0 0 0 -0.011,-0.0056 0.0750075,0.0750075 0 0 0 -0.0036,-0.0026 0.0750075,0.0750075 0 0 0 -0.0039,-5.87e-4 0.0750075,0.0750075 0 0 0 -0.0017,-0.0023 0.0750075,0.0750075 0 0 0 -0.0039,-5.87e-4 0.0750075,0.0750075 0 0 0 -0.0039,-5.87e-4 0.0750075,0.0750075 0 0 0 -0.0039,-5.88e-4 0.0750075,0.0750075 0 0 0 -0.0039,-5.87e-4 0.0750075,0.0750075 0 0 0 -0.0039,-5.87e-4 0.0750075,0.0750075 0 0 0 -0.0039,-5.87e-4 0.0750075,0.0750075 0 0 0 -0.0077,-0.0012 z m -0.270356,0.231462 c -1.896398,2.351237 -3.973954,3.569745 -6.045316,3.565933 -2.086622,-0.0038 -4.165478,-1.234625 -6.046708,-3.597985 4.005835,1.222497 8.251793,1.454857 12.092024,0.03205 z"
           id="path258"
           inkscape:connector-curvature="0" />
      </g>
    </g>
  </g>
</svg>
