<?xml version="1.0" encoding="UTF-8" standalone="no"?>
<!-- Created with Inkscape (http://www.inkscape.org/) -->

<svg
   xmlns:dc="http://purl.org/dc/elements/1.1/"
   xmlns:cc="http://creativecommons.org/ns#"
   xmlns:rdf="http://www.w3.org/1999/02/22-rdf-syntax-ns#"
   xmlns:svg="http://www.w3.org/2000/svg"
   xmlns="http://www.w3.org/2000/svg"
   xmlns:sodipodi="http://sodipodi.sourceforge.net/DTD/sodipodi-0.dtd"
   xmlns:inkscape="http://www.inkscape.org/namespaces/inkscape"
   width="38.734184mm"
   height="133.05591mm"
   viewBox="0 0 38.734184 133.05591"
   version="1.1"
   id="svg435"
   inkscape:version="0.92.4 (unknown)"
   sodipodi:docname="natalinha.svg">
  <defs
     id="defs429" />
  <sodipodi:namedview
     id="base"
     pagecolor="#ffffff"
     bordercolor="#666666"
     borderopacity="1.0"
     inkscape:pageopacity="0.0"
     inkscape:pageshadow="2"
     inkscape:zoom="0.35"
     inkscape:cx="-626.80165"
     inkscape:cy="785.73005"
     inkscape:document-units="mm"
     inkscape:current-layer="layer1"
     showgrid="false"
     inkscape:window-width="1366"
     inkscape:window-height="703"
     inkscape:window-x="0"
     inkscape:window-y="0"
     inkscape:window-maximized="1" />
  <metadata
     id="metadata432">
    <rdf:RDF>
      <cc:Work
         rdf:about="">
        <dc:format>image/svg+xml</dc:format>
        <dc:type
           rdf:resource="http://purl.org/dc/dcmitype/StillImage" />
        <dc:title></dc:title>
      </cc:Work>
    </rdf:RDF>
  </metadata>
  <g
     inkscape:label="Layer 1"
     inkscape:groupmode="layer"
     id="layer1"
     transform="translate(-156.01389,-223.66849)">
    <g
       id="g2630"
       transform="matrix(-0.3527778,0,0,0.3527778,146.83593,575.94632)">
      <path
         style="fill:#652700;fill-opacity:1;fill-rule:nonzero;stroke:none;stroke-width:1"
         d="m -92.964861,-953.06631 c 0.218695,2.54748 0.357027,5.27423 0.41038,8.20671 -0.362999,6.45544 4.256936,25.10596 4.256936,25.10596 0,0 -7.233674,-5.47976 -7.639476,-17.0708 -0.211369,-5.9813 -0.782035,-11.66036 -1.2867,-15.78717 0.327221,0.30625 3.566656,-0.39069 4.258855,-0.45474 z"
         id="path2624"
         inkscape:connector-curvature="0"
         sodipodi:nodetypes="cccccc" />
      <path
         sodipodi:nodetypes="cccccc"
         inkscape:connector-curvature="0"
         id="path2626"
         d="m -91.327536,-952.7973 c -0.55816,2.49518 -1.24691,5.13713 -2.07862,7.9497 -2.289063,6.04688 -3.496583,25.2231 -3.496583,25.2231 0,0 -5.249031,-7.4028 -2.14746,-18.57855 1.59862,-5.76757 2.76364,-11.35507 3.52442,-15.44242 0.21988,0.39052 3.518863,0.70091 4.198243,0.84817 z"
         style="fill:#652700;fill-opacity:1;fill-rule:nonzero;stroke:none;stroke-width:1" />
      <path
         style="fill:#652700;fill-opacity:1;fill-rule:nonzero;stroke:none;stroke-width:1"
         d="m -96.630837,-955.58153 c -0.55816,2.49518 -1.24691,5.13713 -2.07862,7.9497 -2.289063,6.04688 -3.496583,25.2231 -3.496583,25.2231 0,0 -5.24903,-7.4028 -2.14746,-18.57855 1.59862,-5.76757 2.76364,-11.35507 3.52442,-15.44242 0.21988,0.39052 3.518863,0.70091 4.198243,0.84817 z"
         id="path2628"
         inkscape:connector-curvature="0"
         sodipodi:nodetypes="cccccc" />
    </g>
    <g
       id="g2621"
       transform="matrix(0.3527778,0,0,0.3527778,203.63884,575.94632)">
      <path
         sodipodi:nodetypes="cccccc"
         inkscape:connector-curvature="0"
         id="path2616"
         d="m -92.964861,-953.06631 c 0.218695,2.54748 0.357027,5.27423 0.41038,8.20671 -0.362999,6.45544 4.256936,25.10596 4.256936,25.10596 0,0 -7.233674,-5.47976 -7.639476,-17.0708 -0.211369,-5.9813 -0.782035,-11.66036 -1.2867,-15.78717 0.327221,0.30625 3.566656,-0.39069 4.258855,-0.45474 z"
         style="fill:#652700;fill-opacity:1;fill-rule:nonzero;stroke:none;stroke-width:1" />
      <path
         style="fill:#652700;fill-opacity:1;fill-rule:nonzero;stroke:none;stroke-width:1"
         d="m -91.327536,-952.7973 c -0.55816,2.49518 -1.24691,5.13713 -2.07862,7.9497 -2.289063,6.04688 -3.496583,25.2231 -3.496583,25.2231 0,0 -5.249031,-7.4028 -2.14746,-18.57855 1.59862,-5.76757 2.76364,-11.35507 3.52442,-15.44242 0.21988,0.39052 3.518863,0.70091 4.198243,0.84817 z"
         id="path2614"
         inkscape:connector-curvature="0"
         sodipodi:nodetypes="cccccc" />
      <path
         sodipodi:nodetypes="cccccc"
         inkscape:connector-curvature="0"
         id="path2608"
         d="m -96.630837,-955.58153 c -0.55816,2.49518 -1.24691,5.13713 -2.07862,7.9497 -2.289063,6.04688 -3.496583,25.2231 -3.496583,25.2231 0,0 -5.24903,-7.4028 -2.14746,-18.57855 1.59862,-5.76757 2.76364,-11.35507 3.52442,-15.44242 0.21988,0.39052 3.518863,0.70091 4.198243,0.84817 z"
         style="fill:#652700;fill-opacity:1;fill-rule:nonzero;stroke:none;stroke-width:1" />
    </g>
    <path
       inkscape:connector-curvature="0"
       id="path203"
       d="m 165.58983,287.65678 0.062,0.0317 -0.062,-0.0317"
       style="fill:#fad49c;fill-opacity:1;fill-rule:nonzero;stroke:none;stroke-width:0.35277778" />
    <path
       inkscape:connector-curvature="0"
       id="path205"
       d="m 185.02706,287.68847 0.062,-0.0317 -0.062,0.0317"
       style="fill:#fad49c;fill-opacity:1;fill-rule:nonzero;stroke:none;stroke-width:0.35277778" />
    <path
       inkscape:connector-curvature="0"
       style="fill:#fcdcb3;fill-opacity:1;fill-rule:nonzero;stroke:none;stroke-width:0.35277778"
       d="m 164.84706,286.90712 c 0,0 -3.10489,11.10579 2.41691,22.32164 1.83417,5.30406 2.14853,8.54091 2.09341,10.32133 -0.04,1.27055 -0.26872,1.79989 -0.26872,1.79989 0,0 -2.14853,5.59207 0.25477,13.14649 2.49149,5.55073 2.42414,14.29834 2.42414,14.29834 h 2.20917 l 0.0672,-25.5638 c 0,0 0.29903,-1.71687 0.31419,-3.55379 0.005,-0.7593 -0.0357,-1.53927 -0.16795,-2.22829 -0.0551,-2.23242 0.35295,-5.75624 0.35295,-5.75624 0,0 1.41645,-14.52039 -0.31161,-19.53369 z"
       id="path261" />
    <path
       inkscape:connector-curvature="0"
       style="fill:#fcdcb3;fill-opacity:1;fill-rule:nonzero;stroke:none;stroke-width:0.35277778"
       d="m 185.81782,286.90687 -9.38444,5.25188 c -1.72806,5.0133 -0.31109,19.53369 -0.31109,19.53369 0,0 0.4091,3.52381 0.35398,5.75624 -0.13229,0.68902 -0.175,1.46899 -0.1695,2.22828 0.0152,1.83693 0.31419,3.55379 0.31419,3.55379 l 0.0677,25.56381 h 2.20865 c 0,0 -0.0672,-8.74761 2.4257,-14.29835 2.40192,-7.55441 0.25321,-13.14648 0.25321,-13.14648 0,0 -0.22858,-0.52934 -0.26716,-1.79989 -0.0565,-1.78043 0.25769,-5.01727 2.09186,-10.32133 5.52317,-11.21586 2.4169,-22.32164 2.4169,-22.32164 z"
       id="path305" />
    <path
       inkscape:connector-curvature="0"
       id="path309"
       d="m 179.93934,337.37777 c -0.0785,0.0551 -0.13505,0.10059 -0.13505,0.10059 0,0 -0.0234,-0.0689 -0.0593,-0.15709 -0.452,0.35278 -0.12127,0.76481 -0.12127,0.76481 0,0 0.50161,-0.16399 0.31557,-0.70831"
       style="fill:#57514f;fill-opacity:1;fill-rule:nonzero;stroke:none;stroke-width:0.35277778" />
    <path
       inkscape:connector-curvature="0"
       id="path311"
       d="m 180.00548,338.55737 c -0.0978,-0.24529 -0.36518,-0.3073 -0.36518,-0.3073 0,0 -0.2949,0.43822 0.18741,0.75103 0.0275,-0.091 0.0441,-0.16123 0.0441,-0.16123 0,0 0.0248,0.0152 0.062,0.0386"
       style="fill:#57514f;fill-opacity:1;fill-rule:nonzero;stroke:none;stroke-width:0.35277778" />
    <path
       inkscape:connector-curvature="0"
       id="path313"
       d="m 178.96093,338.74341 c 0.0262,-0.091 0.0496,-0.15986 0.0496,-0.15986 0,0 -0.0717,0 -0.16812,-0.005 0.18879,-0.54157 0.68488,-0.36243 0.68488,-0.36243 0,0 0.007,0.52917 -0.56637,0.52779"
       style="fill:#57514f;fill-opacity:1;fill-rule:nonzero;stroke:none;stroke-width:0.35277778" />
    <path
       inkscape:connector-curvature="0"
       id="path315"
       d="m 178.95128,337.58723 c 0.0262,0.091 0.0496,0.15985 0.0496,0.15985 0,0 -0.073,-10e-4 -0.16812,0.003 0.18191,0.54433 0.68076,0.36932 0.68076,0.36932 0,0 0.0124,-0.52779 -0.56224,-0.53193"
       style="fill:#57514f;fill-opacity:1;fill-rule:nonzero;stroke:none;stroke-width:0.35277778" />
    <path
       inkscape:connector-curvature="0"
       id="path317"
       d="m 180.04958,338.37685 c -0.21497,-0.0289 -0.34864,-0.20257 -0.34864,-0.20257 0,0 0.16398,-0.26459 0.45888,-0.24667"
       style="fill:#57514f;fill-opacity:1;fill-rule:nonzero;stroke:none;stroke-width:0.35277778" />
    <path
       inkscape:connector-curvature="0"
       id="path319"
       d="m 178.83553,338.93771 c -0.0276,0.0689 -0.0455,0.12265 -0.0455,0.12265 0,0 -0.0441,-0.0345 -0.10474,-0.0772 -0.14193,0.42305 0.24943,0.54845 0.24943,0.54845 0,0 0.25356,-0.32246 -0.0992,-0.59393"
       style="fill:#57514f;fill-opacity:1;fill-rule:nonzero;stroke:none;stroke-width:0.35277778" />
    <path
       inkscape:connector-curvature="0"
       id="path321"
       d="m 179.4584,340.036 c -0.0221,-0.0703 -0.04,-0.12264 -0.04,-0.12264 0,0 0.0565,-0.001 0.12954,-0.005 -0.14745,-0.42031 -0.5333,-0.27837 -0.5333,-0.27837 0,0 -0.003,0.41066 0.44373,0.40652"
       style="fill:#57514f;fill-opacity:1;fill-rule:nonzero;stroke:none;stroke-width:0.35277778" />
    <path
       inkscape:connector-curvature="0"
       id="path323"
       d="m 178.7873,340.24133 c -0.022,-0.0703 -0.0358,-0.1254 -0.0358,-0.1254 0,0 -0.0482,0.0303 -0.11162,0.0689 -0.11024,-0.43133 0.28801,-0.5278 0.28801,-0.5278 0,0 0.23013,0.339 -0.14056,0.58429"
       style="fill:#57514f;fill-opacity:1;fill-rule:nonzero;stroke:none;stroke-width:0.35277778" />
    <path
       inkscape:connector-curvature="0"
       id="path325"
       d="m 178.28569,339.49582 c 0.0551,0.0482 0.0992,0.0827 0.0992,0.0827 0,0 -0.0468,0.0303 -0.10611,0.0744 0.3514,0.27423 0.59807,-0.0537 0.59807,-0.0537 0,0 -0.21773,-0.34589 -0.59118,-0.10335"
       style="fill:#57514f;fill-opacity:1;fill-rule:nonzero;stroke:none;stroke-width:0.35277778" />
    <path
       inkscape:connector-curvature="0"
       id="path327"
       d="m 179.45565,339.1389 c -0.0193,0.0717 -0.0372,0.12541 -0.0372,0.12541 0,0 0.0565,-0.001 0.13091,10e-4 -0.13918,0.42306 -0.52641,0.28939 -0.52641,0.28939 0,0 -0.0124,-0.40928 0.4327,-0.41617"
       style="fill:#57514f;fill-opacity:1;fill-rule:nonzero;stroke:none;stroke-width:0.35277778" />
    <path
       inkscape:connector-curvature="0"
       id="path329"
       d="m 179.42257,335.07093 c -0.0579,0.11714 -0.0978,0.20946 -0.0978,0.20946 0,0 -0.073,-0.0689 -0.17363,-0.15296 -0.31833,0.72209 0.35002,1.00597 0.35002,1.00597 0,0 0.50023,-0.52641 -0.0785,-1.06247"
       style="fill:#57514f;fill-opacity:1;fill-rule:nonzero;stroke:none;stroke-width:0.35277778" />
    <path
       inkscape:connector-curvature="0"
       id="path331"
       d="m 180.48228,336.76868 c -0.23426,-0.61461 -0.85438,-0.44787 -0.85438,-0.44787 0,0 -0.0703,0.7221 0.7152,0.78824 -0.0262,-0.12953 -0.051,-0.226 -0.051,-0.226 0,0 0.062,0.006 0.15296,0.01"
       style="fill:#57514f;fill-opacity:1;fill-rule:nonzero;stroke:none;stroke-width:0.35277778" />
    <path
       inkscape:connector-curvature="0"
       id="path333"
       d="m 179.12629,337.36123 c -0.0276,-0.12815 -0.0427,-0.22737 -0.0427,-0.22737 0,0 -0.0882,0.0482 -0.2067,0.10335 -0.1254,-0.77859 0.59255,-0.8847 0.59255,-0.8847 0,0 0.35278,0.63528 -0.34313,1.00872"
       style="fill:#57514f;fill-opacity:1;fill-rule:nonzero;stroke:none;stroke-width:0.35277778" />
    <path
       inkscape:connector-curvature="0"
       id="path335"
       d="m 178.36286,335.96666 c 0.0909,0.0937 0.16399,0.16123 0.16399,0.16123 0,0 -0.0882,0.0469 -0.2012,0.11437 0.57465,0.53882 1.06385,0.003 1.06385,0.003 0,0 -0.32935,-0.64767 -1.02664,-0.27836"
       style="fill:#57514f;fill-opacity:1;fill-rule:nonzero;stroke:none;stroke-width:0.35277778" />
    <path
       inkscape:connector-curvature="0"
       id="path337"
       d="m 180.48504,335.52568 c -0.0469,0.12265 -0.0868,0.21498 -0.0868,0.21498 0,0 0.1006,0.007 0.23014,0.0234 -0.31282,0.72484 -0.97566,0.42581 -0.97566,0.42581 0,0 0.0455,-0.72485 0.83234,-0.66422"
       style="fill:#57514f;fill-opacity:1;fill-rule:nonzero;stroke:none;stroke-width:0.35277778" />
    <path
       inkscape:connector-curvature="0"
       id="path207"
       d="m 178.89892,348.02036 c 0,0 0.22875,2.50941 2.97794,5.45703 2.74919,2.94625 -3.63389,3.21083 -3.63389,3.21083 0,0 -2.85116,-0.77859 -1.82866,-3.54845 0.66698,-2.62654 0.3018,-4.72529 0.27286,-5.02157"
       style="fill:#fad49c;fill-opacity:1;fill-rule:nonzero;stroke:none;stroke-width:0.35277778"
       sodipodi:nodetypes="ccccc" />
    <path
       inkscape:connector-curvature="0"
       id="path209"
       d="m 171.76206,348.02036 c 0,0 -0.22875,2.50941 -2.97794,5.45703 -2.75057,2.94625 3.63251,3.21083 3.63251,3.21083 0,0 2.85254,-0.77859 1.83003,-3.54845 -0.55121,-2.72576 -0.30179,-4.72529 -0.27285,-5.02157"
       style="fill:#fad49c;fill-opacity:1;fill-rule:nonzero;stroke:none;stroke-width:0.35277778"
       sodipodi:nodetypes="ccccc" />
    <path
       style="fill:#fcdcb3;fill-opacity:1;fill-rule:nonzero;stroke:none;stroke-width:0.35277778"
       d="m 183.89017,251.96698 -1.32446,8.50956 4.60798,12.5181 c 0,0 2.7e-4,0.0176 0.002,0.0506 0.022,0.4644 0.18484,4.03662 0.29507,4.48035 -0.0661,0.52503 5.05327,11.45149 4.63435,12.81989 -0.7979,1.52411 -0.83096,2.42931 -0.83096,2.42931 0,0 0.57206,2.18694 0.1173,3.25768 -0.45337,1.07073 -0.1173,1.16996 -0.1173,1.16996 0,0 0.82579,0.38171 1.34255,-3.03031 0.54571,0.79788 0.8847,1.90738 0.8847,1.90738 0,0 -1.40318,3.93688 -0.44545,4.23591 0.17226,0.0248 0.26063,-0.0646 0.2868,-0.21755 0.1888,-1.76389 1.2883,-4.11086 1.2883,-4.11086 -0.10886,-2.45016 0,-3.23134 -1.16169,-5.93504 -0.42857,-6.61321 -1.4621,-12.52534 -1.79006,-13.49272 -0.32793,-0.96724 -2.27911,-3.90132 -2.43396,-4.1336 0,0 0,-2.6e-4 0,-2.6e-4 0,0 5.2e-4,0 5.2e-4,0 l -0.0155,-0.0233 c 0,0 -2.04207,-13.12168 -2.71869,-16.65635 -0.67662,-3.53761 -2.63481,-3.7772 -2.62103,-3.77858 z"
       id="path379"
       inkscape:connector-curvature="0" />
    <path
       inkscape:connector-curvature="0"
       id="path385"
       d="m 194.25026,290.91308 -2.92143,-0.7276 c -0.20396,-0.051 -0.32936,-0.25907 -0.27837,-0.46165 l 0.0248,-0.0992 c 0.051,-0.20257 0.25769,-0.32797 0.46164,-0.27698 l 2.92282,0.7276 c 0.20257,0.051 0.32797,0.25907 0.27698,0.46164 l -0.0248,0.0992 c -0.0496,0.20258 -0.25769,0.32798 -0.46164,0.27699"
       style="fill:#800080;fill-opacity:1;fill-rule:nonzero;stroke:none;stroke-width:0.35277778" />
    <path
       inkscape:connector-curvature="0"
       id="path389"
       d="m 183.52499,251.92424 c 0,0 1.83004,0.004 2.52181,2.11667 0.69178,2.11115 1.16996,4.98299 1.16996,4.98299 l -4.65088,2.62929 0.95911,-9.72895"
       style="fill:#f8f800;fill-opacity:1;fill-rule:nonzero;stroke:none;stroke-width:0.35277778" />
    <path
       style="clip-rule:nonzero;fill:#fcdcb3;fill-opacity:1;fill-rule:nonzero;stroke:none;stroke-width:0.35277778"
       d="m 166.78579,251.96698 c 0,0 -2.09582,0.22462 -2.65255,3.77858 -0.55811,3.55534 -2.71922,16.65635 -2.71922,16.65635 l -0.0232,0.0372 c -0.23289,0.35002 -2.10409,3.1762 -2.42517,4.12016 -0.32798,0.96738 -1.36151,6.87952 -1.79008,13.49272 -1.16168,2.70371 -1.05282,3.48488 -1.16168,5.93504 0,0 1.10088,2.34697 1.28829,4.11086 0.0276,0.15296 0.11593,0.24236 0.28681,0.21755 0.95911,-0.29903 -0.44391,-4.23591 -0.44391,-4.23591 0,0 0.33935,-1.1095 0.88367,-1.90738 0.51677,3.41202 1.34359,3.03031 1.34359,3.03031 0,0 0.33452,-0.0992 -0.11886,-1.16996 -0.45337,-1.07073 0.11886,-3.25768 0.11886,-3.25768 0,0 -0.0332,-0.9052 -0.83251,-2.42931 -0.41892,-1.36839 4.70187,-12.29486 4.63434,-12.81989 0.11852,-0.47542 0.29611,-4.53099 0.29611,-4.53099 l 0.007,-0.0155 4.76818,-11.73107 z"
       id="path391"
       inkscape:connector-curvature="0" />
    <path
       inkscape:connector-curvature="0"
       id="path399"
       d="m 163.2196,261.65595 c 0.26734,0.33073 0.38723,0.78135 0.33073,1.21681 -0.0372,0.21359 -0.10611,0.42857 -0.23151,0.60633 -0.0537,0.0937 -0.13229,0.17088 -0.20119,0.25081 -0.0772,0.0744 -0.16123,0.13918 -0.2453,0.20257 0.12678,-0.1695 0.25632,-0.32935 0.34313,-0.51401 0.0951,-0.17777 0.1571,-0.37069 0.18053,-0.56775 0.0345,-0.19706 0.0248,-0.39963 -0.007,-0.59945 -0.0331,-0.20119 -0.0909,-0.39963 -0.1695,-0.59531"
       style="fill:#57514f;fill-opacity:1;fill-rule:nonzero;stroke:none;stroke-width:0.35277778" />
    <path
       inkscape:connector-curvature="0"
       id="path401"
       d="m 163.2444,261.57327 c 0.19982,0.14882 0.36105,0.34726 0.48232,0.57188 0.12126,0.22324 0.18466,0.49196 0.14607,0.75654 -0.0413,0.26183 -0.17226,0.5085 -0.3638,0.67938 -0.0882,0.0923 -0.19982,0.1571 -0.29766,0.23564 -0.113,0.0551 -0.22324,0.11438 -0.33624,0.16261 0.0937,-0.0841 0.19155,-0.15572 0.28387,-0.23426 0.0827,-0.0882 0.17915,-0.16123 0.24943,-0.2577 0.15296,-0.17914 0.25356,-0.38998 0.28801,-0.61185 0.0358,-0.22186 -0.011,-0.45337 -0.0951,-0.67386 -0.0868,-0.21911 -0.21085,-0.42994 -0.35692,-0.62838"
       style="fill:#57514f;fill-opacity:1;fill-rule:nonzero;stroke:none;stroke-width:0.35277778" />
    <path
       inkscape:connector-curvature="0"
       id="path403"
       d="m 162.87371,263.97519 c 0.0524,-0.008 0.11024,0.0124 0.14883,0.0551 0.04,0.0427 0.0565,0.10473 0.051,0.16399 -0.011,0.0593 -0.0441,0.11437 -0.0951,0.14469 -0.0496,0.0303 -0.11162,0.0331 -0.15847,0.011 0.20808,-0.0331 0.24391,-0.28525 0.0537,-0.37483"
       style="fill:#57514f;fill-opacity:1;fill-rule:nonzero;stroke:none;stroke-width:0.35277778" />
    <path
       inkscape:connector-curvature="0"
       id="path405"
       d="m 163.65368,261.89573 c -0.0193,-0.1819 0.0827,-0.36656 0.23702,-0.47818 0.0827,-0.0469 0.1695,-0.0868 0.26183,-0.0965 0.0923,-0.011 0.18328,-0.003 0.2701,0.0248 -0.17502,0.0427 -0.33487,0.0785 -0.46302,0.17225 -0.13367,0.0841 -0.226,0.21911 -0.30593,0.37758"
       style="fill:#57514f;fill-opacity:1;fill-rule:nonzero;stroke:none;stroke-width:0.35277778" />
    <path
       inkscape:connector-curvature="0"
       id="path407"
       d="m 164.41849,261.34176 c 0.0221,0.18052 -0.0785,0.36655 -0.23151,0.47955 -0.0813,0.0482 -0.1695,0.0896 -0.26045,0.0992 -0.0923,0.0124 -0.18328,0.004 -0.27009,-0.0207 0.17363,-0.0455 0.33348,-0.0841 0.46026,-0.17777 0.13367,-0.0854 0.22324,-0.22186 0.30179,-0.38033"
       style="fill:#57514f;fill-opacity:1;fill-rule:nonzero;stroke:none;stroke-width:0.35277778" />
    <path
       inkscape:connector-curvature="0"
       id="path409"
       d="m 163.91689,262.47451 c 0.0565,-0.17502 0.22462,-0.3018 0.41065,-0.34176 0.0937,-0.01 0.19017,-0.011 0.27837,0.0179 0.0882,0.0275 0.16812,0.0716 0.23564,0.13091 -0.17639,-0.0303 -0.33762,-0.062 -0.49196,-0.0289 -0.1571,0.022 -0.2949,0.10887 -0.4327,0.22187"
       style="fill:#57514f;fill-opacity:1;fill-rule:nonzero;stroke:none;stroke-width:0.35277778" />
    <path
       inkscape:connector-curvature="0"
       id="path411"
       d="m 164.84155,262.27607 c -0.0537,0.17501 -0.22186,0.30454 -0.40652,0.34588 -0.0937,0.011 -0.19017,0.0124 -0.27974,-0.0152 -0.0882,-0.0248 -0.16812,-0.0703 -0.23702,-0.12816 0.17638,0.0289 0.33899,0.0593 0.49333,0.0234 0.15572,-0.0234 0.29353,-0.11162 0.42995,-0.226"
       style="fill:#57514f;fill-opacity:1;fill-rule:nonzero;stroke:none;stroke-width:0.35277778" />
    <path
       inkscape:connector-curvature="0"
       id="path413"
       d="m 163.91275,262.99816 c 0.14608,-0.11162 0.35691,-0.11989 0.53193,-0.0455 0.0827,0.0455 0.1626,0.1006 0.21772,0.17363 0.0579,0.073 0.0979,0.15572 0.1199,0.24254 -0.12816,-0.1254 -0.24116,-0.24391 -0.38861,-0.30593 -0.14056,-0.0703 -0.30317,-0.0786 -0.48094,-0.0648"
       style="fill:#57514f;fill-opacity:1;fill-rule:nonzero;stroke:none;stroke-width:0.35277778" />
    <path
       inkscape:connector-curvature="0"
       id="path415"
       d="m 164.78367,263.36334 c -0.14331,0.113 -0.35553,0.12402 -0.53054,0.051 -0.0841,-0.0441 -0.16399,-0.0978 -0.22049,-0.17225 -0.0579,-0.0717 -0.0978,-0.15297 -0.12126,-0.23978 0.12815,0.12402 0.24391,0.24115 0.39136,0.30041 0.14194,0.0703 0.30454,0.0772 0.48093,0.0606"
       style="fill:#57514f;fill-opacity:1;fill-rule:nonzero;stroke:none;stroke-width:0.35277778" />
    <path
       inkscape:connector-curvature="0"
       id="path417"
       d="m 163.64266,263.53284 c 0.17914,-0.0345 0.37207,0.051 0.49609,0.19568 0.0551,0.0772 0.10198,0.16123 0.11851,0.25218 0.0193,0.0896 0.0193,0.1819 0,0.27009 -0.0579,-0.16949 -0.10886,-0.32659 -0.21222,-0.4451 -0.0951,-0.12678 -0.2384,-0.20671 -0.40238,-0.27285"
       style="fill:#57514f;fill-opacity:1;fill-rule:nonzero;stroke:none;stroke-width:0.35277778" />
    <path
       inkscape:connector-curvature="0"
       id="path419"
       d="m 164.26139,264.24666 c -0.17914,0.0372 -0.37344,-0.0469 -0.49884,-0.18879 -0.0551,-0.0772 -0.10336,-0.16123 -0.12127,-0.25218 -0.0207,-0.0896 -0.0207,-0.18052 -0.003,-0.26872 0.0606,0.16812 0.113,0.32384 0.21773,0.44235 0.0965,0.1254 0.23978,0.20395 0.40514,0.26734"
       style="fill:#57514f;fill-opacity:1;fill-rule:nonzero;stroke:none;stroke-width:0.35277778" />
    <path
       inkscape:connector-curvature="0"
       id="path421"
       d="m 167.10153,251.92424 c 0,0 -1.87413,0.004 -2.5659,2.11667 -0.69178,2.11115 -1.12724,4.98299 -1.12724,4.98299 l 4.65226,2.62929 -0.95912,-9.72895"
       style="fill:#f1f100;fill-opacity:1;fill-rule:nonzero;stroke:none;stroke-width:0.35277778" />
    <path
       inkscape:connector-curvature="0"
       id="path423"
       d="m 175.33531,292.77068 10.48274,-5.86356 c -0.57051,-6.2494 -3.12815,-8.49009 -5.13319,-13.81759 l 1.24437,-8.22688 c 0,0 2.63756,-1.26642 2.24482,-3.22875 -0.54846,-0.94258 -1.27744,-3.17087 -1.27744,-3.17087 l 0.62838,-6.49607 c 0,0 -3.3445,-0.5085 -5.15386,-0.5085 -1.80799,0 -1.35599,-4.04867 -1.35599,-4.04867 h -3.36517 c 0,0 0.45337,4.04867 -1.35599,4.04867 -1.80798,0 -5.19245,0.5085 -5.19245,0.5085 l 0.66697,6.49607 c 0,0 -0.7276,2.22829 -1.27744,3.17087 -0.39274,1.96233 2.24483,3.22875 2.24483,3.22875 l 1.24436,8.22688 c -2.00366,5.3275 -4.5613,7.56819 -5.13319,13.81759 l 10.48274,5.86356 v 0.003 l 0.003,-0.001 0.003,0.001 v -0.003"
       style="fill:#fcdcb3;fill-opacity:1;fill-rule:nonzero;stroke:none;stroke-width:0.35277778" />
    <path
       inkscape:connector-curvature="0"
       id="path425"
       d="m 184.16303,261.6463 -1.26642,-3.18327 0.62838,-6.53879 c -1.83279,-0.2384 -3.66558,-0.4327 -5.49561,-0.52227 l -2.61552,1.15892 -2.67891,-1.15892 c -1.87551,0.0896 -3.75239,0.28387 -5.63066,0.52227 l 0.64354,6.53879 -1.29811,3.18327 c 0,0 -0.62838,1.6881 2.28892,3.21635 0.904,6.28385 1.27469,8.22688 1.27469,8.22688 h 10.67153 c 0,0 0.36242,-1.94303 1.24437,-8.22688 2.84702,-1.52825 2.2338,-3.21635 2.2338,-3.21635"
       style="fill:#ffff00;fill-opacity:1;fill-rule:nonzero;stroke:none;stroke-width:0.35277778" />
    <path
       inkscape:connector-curvature="0"
       id="path427"
       d="m 175.41386,252.56089 0.64906,6.9274 2.1456,1.43868 c 0,0 -0.49885,-8.12354 -2.79466,-8.36608"
       style="fill:#3dbdab;fill-opacity:1;fill-rule:nonzero;stroke:none;stroke-width:0.35277778" />
    <path
       inkscape:connector-curvature="0"
       id="path429"
       d="m 175.4111,252.52093 c 0,0 1.07074,3.14744 1.07074,5.12906 1.86311,0.35278 2.45291,-0.53054 2.45291,-0.53054 0,0 -0.7469,-5.03673 -3.52365,-4.59852"
       style="fill:#4ac2b8;fill-opacity:1;fill-rule:nonzero;stroke:none;stroke-width:0.35277778" />
    <path
       inkscape:connector-curvature="0"
       id="path431"
       d="m 175.57923,252.56089 -0.64906,9.54568 -2.14561,1.98162 c 0,0 0.49885,-11.19381 2.79467,-11.5273"
       style="fill:#3dbdab;fill-opacity:1;fill-rule:nonzero;stroke:none;stroke-width:0.35277778" />
    <path
       inkscape:connector-curvature="0"
       id="path433"
       d="m 175.48001,252.5168 c 0,0 -1.06936,2.61276 -1.06936,4.25951 -1.86449,0.29353 -2.45291,-0.44097 -2.45291,-0.44097 0,0 0.74552,-4.18234 3.52227,-3.81854"
       style="fill:#4ac2b8;fill-opacity:1;fill-rule:nonzero;stroke:none;stroke-width:0.35277778" />
    <path
       inkscape:connector-curvature="0"
       id="path435"
       d="m 175.4111,252.52093 c -0.0386,-0.0275 1.77078,-0.5774 2.70647,-1.3615 2.07533,0.23151 1.39595,1.3615 0.63252,1.89756 -2.27376,1.21681 -3.33899,-0.53606 -3.33899,-0.53606"
       style="fill:#ffffff;fill-opacity:1;fill-rule:nonzero;stroke:none;stroke-width:0.35277778" />
    <path
       inkscape:connector-curvature="0"
       id="path437"
       d="m 175.4111,252.52093 c 0.0124,-0.0372 -1.81074,-0.5898 -2.70646,-1.3615 -2.07395,0.23151 -1.39596,1.3615 -0.63114,1.89756 2.27238,1.21681 3.3376,-0.53606 3.3376,-0.53606"
       style="fill:#ffffff;fill-opacity:1;fill-rule:nonzero;stroke:none;stroke-width:0.35277778" />
    <path
       inkscape:connector-curvature="0"
       style="fill:#1a1a1a;fill-opacity:1;fill-rule:nonzero;stroke:none;stroke-width:0.35277778"
       d="m 170.2751,251.51988 c -0.28715,0.007 -0.64836,0.0382 -0.98805,0.14366 -1.2554,9.06749 1.45262,21.42609 1.45262,21.42609 h -0.77204 c 0,0 -6.50729,9.20974 -6.19704,18.97558 -0.0986,-0.0491 -0.19759,-0.098 -0.29352,-0.14883 v 1.40819 c 0,0 4.98591,2.27514 11.56053,2.46393 0,-0.83096 -0.0496,-1.05575 -0.0496,-1.05575 0,0 -0.11346,-0.01 -0.18965,-0.016 l 0.52193,-2.11408 0.0124,-0.0362 v 0.0362 l 0.52452,2.11408 c -0.0786,0.007 -0.19275,0.016 -0.19275,0.016 0,0 -0.0496,0.22479 -0.0496,1.05575 6.57462,-0.18879 11.56053,-2.46393 11.56053,-2.46393 v -1.40819 c -0.0955,0.0506 -0.19386,0.0994 -0.29197,0.14832 0.31346,-9.76834 -6.19859,-18.97507 -6.19859,-18.97507 h -0.70951 c 0,0 2.7075,-12.3586 1.4521,-21.42609 -0.67937,-0.21084 -1.44418,-0.12678 -1.53375,-0.13642 0,0 1.41541,7.42521 -1.68517,21.56251 h -2.87579 v 0.0424 l -0.0124,-0.0424 h -2.8143 c -3.10059,-14.1373 -1.68673,-21.56251 -1.68673,-21.56251 -0.0441,0.005 -0.257,-0.0138 -0.54415,-0.007 z m -5.16713,41.13341 c 0.0401,0.0156 0.0795,0.0321 0.11989,0.0475 -0.0404,-0.0154 -0.0797,-0.0319 -0.11989,-0.0475 z"
       id="path439" />
    <path
       inkscape:connector-curvature="0"
       id="path213"
       d="m 185.457,240.96193 c -0.38034,-1.45107 -0.91226,-1.94165 -1.73357,-2.02985 0.56362,-1.46899 0.81167,-3.34312 0.92742,-5.60448 0,-6.01099 -4.16994,-9.31966 -9.59115,-9.31966 -5.4212,0 -9.59114,3.30867 -9.59114,9.31966 0.11713,2.28617 0.48231,4.12585 1.05695,5.60448 -0.69591,0.17088 -1.24299,0.73725 -1.58198,2.02985 -0.4768,1.81764 1.27193,3.70279 2.13458,3.79236 0.14469,0.0165 0.28249,0.0248 0.4203,0.0289 2.22691,3.43408 7.56129,3.966 7.56129,3.966 0,0 5.33301,-0.53192 7.5613,-3.966 0.226,0.008 0.45751,-0.003 0.70142,-0.0289 0.86266,-0.0896 2.61138,-1.97472 2.13458,-3.79236"
       style="fill:#fcdcb3;fill-opacity:1;fill-rule:nonzero;stroke:none;stroke-width:0.35277778"
       sodipodi:nodetypes="cccsccccccccc" />
    <path
       inkscape:connector-curvature="0"
       id="path215"
       d="m 177.95772,233.96839 c 1.31344,-1.12291 3.02481,-0.72122 4.06108,0.45337 -1.28044,-0.77486 -2.65316,-1.00026 -4.06108,-0.45337"
       style="fill:#803300;fill-opacity:1;fill-rule:nonzero;stroke:none;stroke-width:0.35277778"
       sodipodi:nodetypes="ccc" />
    <path
       inkscape:connector-curvature="0"
       id="path217"
       d="m 178.35873,240.25362 c 0.14056,0.15159 0.67937,0.6022 1.63711,0.46578 0.91777,-0.13643 1.40146,-0.83647 1.52686,-1.0418 1.12311,-1.83968 -0.2508,-2.73678 -0.2508,-2.73678 -0.17088,-0.12816 -0.44924,-0.29628 -0.82131,-0.36243 -0.96738,-0.1695 -1.61644,0.3831 -1.82315,0.61323 -0.14331,0.14607 -0.92604,1.05558 -0.67523,2.21175 0.0827,0.38172 0.25631,0.65319 0.40652,0.85025"
       style="fill:#ffffff;fill-opacity:1;fill-rule:nonzero;stroke:none;stroke-width:0.35277778" />
    <path
       inkscape:connector-curvature="0"
       id="path219"
       d="m 181.91269,237.84757 c -0.15296,-0.39826 -0.43546,-0.73036 -0.79237,-0.93293 -0.35278,-0.21085 -0.76619,-0.30317 -1.17133,-0.27148 -0.40515,0.0276 -0.79651,0.19155 -1.12035,0.44373 -0.31971,0.25769 -0.57051,0.60772 -0.76481,0.9853 0.12678,-0.4079 0.35002,-0.79238 0.67524,-1.09141 0.32384,-0.29628 0.75241,-0.48369 1.19613,-0.51952 0.44235,-0.0303 0.89986,0.0799 1.25953,0.33624 0.36794,0.24116 0.63803,0.62976 0.71796,1.05007"
       style="fill:#803300;fill-opacity:1;fill-rule:nonzero;stroke:none;stroke-width:0.35277778" />
    <path
       inkscape:connector-curvature="0"
       id="path221"
       d="m 178.00871,238.69506 c -0.073,0.99081 0.57602,1.84657 1.44969,1.91134 0.87506,0.0648 1.644,-0.68488 1.71704,-1.6757 0.0744,-0.98943 -0.57464,-1.84519 -1.4497,-1.90996 -0.87505,-0.0648 -1.64262,0.68489 -1.71703,1.67432"
       style="fill:#00640c;fill-opacity:1;fill-rule:nonzero;stroke:none;stroke-width:0.35277778" />
    <path
       inkscape:connector-curvature="0"
       id="path223"
       d="m 181.70047,237.31151 c 0.14332,-0.0221 0.30179,-0.0772 0.43684,-0.1571 0.1378,-0.0813 0.25907,-0.19568 0.339,-0.34313 -0.0441,0.16123 -0.14056,0.31419 -0.26872,0.43408 -0.12954,0.12127 -0.27423,0.21774 -0.45062,0.28939 l -0.0565,-0.22324"
       style="fill:#803300;fill-opacity:1;fill-rule:nonzero;stroke:none;stroke-width:0.35277778" />
    <path
       inkscape:connector-curvature="0"
       id="path225"
       d="m 181.04866,240.22882 0.19568,0.40928 -0.34726,-0.29215 z m 0,0"
       style="fill:#803300;fill-opacity:1;fill-rule:nonzero;stroke:none;stroke-width:0.35277778" />
    <path
       inkscape:connector-curvature="0"
       id="path227"
       d="m 180.74687,240.44792 0.14056,0.42995 -0.30593,-0.33348 z m 0,0"
       style="fill:#803300;fill-opacity:1;fill-rule:nonzero;stroke:none;stroke-width:0.35277778" />
    <path
       inkscape:connector-curvature="0"
       id="path229"
       d="m 172.54754,233.96839 c -1.4895,-0.62643 -2.76845,-0.25418 -4.06108,0.45337 0.98112,-1.21466 2.90999,-1.56772 4.06108,-0.45338"
       style="fill:#803300;fill-opacity:1;fill-rule:nonzero;stroke:none;stroke-width:0.35277778"
       sodipodi:nodetypes="ccc" />
    <path
       inkscape:connector-curvature="0"
       id="path231"
       d="m 172.14653,240.25362 c -0.14056,0.15159 -0.67937,0.6022 -1.63711,0.46578 -0.91777,-0.13643 -1.40146,-0.83647 -1.52686,-1.0418 -1.12311,-1.83968 0.2508,-2.73678 0.2508,-2.73678 0.17087,-0.12816 0.44924,-0.29628 0.82131,-0.36243 0.96738,-0.1695 1.61644,0.3831 1.82314,0.61323 0.14332,0.14607 0.92467,1.05558 0.67524,2.21175 -0.0827,0.38172 -0.25631,0.65319 -0.40652,0.85025"
       style="fill:#ffffff;fill-opacity:1;fill-rule:nonzero;stroke:none;stroke-width:0.35277778" />
    <path
       inkscape:connector-curvature="0"
       id="path233"
       d="m 168.59257,237.84757 c 0.0799,-0.42031 0.35002,-0.80891 0.71796,-1.05007 0.35967,-0.25632 0.81717,-0.36656 1.25953,-0.33624 0.44372,0.0358 0.87229,0.22324 1.19613,0.51952 0.32522,0.29903 0.54846,0.68351 0.67524,1.09141 -0.19568,-0.37758 -0.4451,-0.72761 -0.76481,-0.9853 -0.32384,-0.25218 -0.7152,-0.41617 -1.12034,-0.44373 -0.40515,-0.0317 -0.81856,0.0606 -1.17134,0.27148 -0.35691,0.20257 -0.63941,0.53467 -0.79237,0.93293"
       style="fill:#803300;fill-opacity:1;fill-rule:nonzero;stroke:none;stroke-width:0.35277778" />
    <path
       inkscape:connector-curvature="0"
       id="path235"
       d="m 172.49655,238.69506 c 0.073,0.99081 -0.57602,1.84657 -1.44969,1.91134 -0.87506,0.0648 -1.644,-0.68488 -1.71704,-1.6757 -0.0744,-0.98943 0.57464,-1.84519 1.4497,-1.90996 0.87505,-0.0648 1.64262,0.68489 1.71703,1.67432"
       style="fill:#00640c;fill-opacity:1;fill-rule:nonzero;stroke:none;stroke-width:0.35277778" />
    <path
       inkscape:connector-curvature="0"
       id="path237"
       d="m 168.74829,237.53475 c -0.17639,-0.0717 -0.32108,-0.16812 -0.45062,-0.28939 -0.12816,-0.11989 -0.22462,-0.27285 -0.27009,-0.43408 0.0813,0.14745 0.20257,0.26183 0.34037,0.34313 0.13505,0.0799 0.29352,0.13505 0.43684,0.1571 l -0.0565,0.22324"
       style="fill:#803300;fill-opacity:1;fill-rule:nonzero;stroke:none;stroke-width:0.35277778" />
    <path
       inkscape:connector-curvature="0"
       id="path239"
       d="m 169.60819,240.34595 -0.34727,0.29215 0.19568,-0.40928 z m 0,0"
       style="fill:#803300;fill-opacity:1;fill-rule:nonzero;stroke:none;stroke-width:0.35277778" />
    <path
       inkscape:connector-curvature="0"
       id="path241"
       d="m 169.92376,240.54439 -0.30593,0.33348 0.14056,-0.42995 z m 0,0"
       style="fill:#803300;fill-opacity:1;fill-rule:nonzero;stroke:none;stroke-width:0.35277778" />
    <g
       id="g3364"
       transform="matrix(0.3527778,0,0,0.3527778,156.01384,223.52128)">
      <path
         style="fill:#353535;fill-opacity:1;fill-rule:nonzero;stroke:none"
         d="m 53.97656,52.4888 c -0.30859,-0.1836 -0.57422,-0.39454 -0.87109,-0.51563 -0.28906,-0.15625 -0.58203,-0.15234 -0.88672,0.0586 0.0742,-0.16016 0.21875,-0.31641 0.41797,-0.36328 0.19922,-0.0547 0.40234,0.004 0.57422,0.0703 0.33593,0.17187 0.60937,0.42187 0.76562,0.75"
         id="path245"
         inkscape:connector-curvature="0" />
      <path
         style="fill:#353535;fill-opacity:1;fill-rule:nonzero;stroke:none"
         d="m 56.93359,52.4888 c 0.16016,-0.32813 0.4336,-0.57813 0.76953,-0.75 0.17188,-0.0664 0.3711,-0.125 0.57032,-0.0703 0.20312,0.0469 0.34375,0.20312 0.41797,0.36328 -0.30469,-0.21094 -0.59766,-0.21485 -0.88672,-0.0586 -0.29688,0.12109 -0.5625,0.33203 -0.8711,0.51562"
         id="path247"
         inkscape:connector-curvature="0" />
      <path
         style="fill:#353535;fill-opacity:1;fill-rule:nonzero;stroke:none"
         d="m 51.46875,50.82473 c 0.45312,-0.66797 1.02734,-1.26172 1.68359,-1.75781 0.65625,-0.48828 1.44922,-0.86328 2.32813,-0.88672 0.87109,0.0391 1.66015,0.41797 2.3164,0.90235 0.66016,0.49218 1.23829,1.07812 1.70313,1.74218 -0.58984,-0.55078 -1.20703,-1.0664 -1.875,-1.48828 -0.66406,-0.41406 -1.39844,-0.7539 -2.14844,-0.7539 -0.7539,-0.0156 -1.48437,0.32421 -2.14844,0.73828 -0.66796,0.42187 -1.28125,0.94531 -1.85937,1.5039"
         id="path249"
         inkscape:connector-curvature="0" />
    </g>
    <path
       inkscape:connector-curvature="0"
       id="path251"
       d="m 165.28941,241.49386 c 0.005,-0.32798 0.0469,-0.66146 0.17088,-0.97428 0.062,-0.15572 0.14331,-0.31143 0.27147,-0.43821 0.12816,-0.12816 0.32109,-0.19982 0.51125,-0.17364 0.19293,0.0234 0.34727,0.14883 0.45751,0.2825 0.11438,0.13643 0.19293,0.28939 0.2577,0.44511 0.12678,0.31419 0.20395,0.63665 0.25631,0.96876 l 0.01,0.0662 -0.0689,0.0207 c -0.11575,0.0345 -0.24116,0.10473 -0.32246,0.20395 -0.0868,0.0978 -0.13229,0.22875 -0.14332,0.36518 -0.01,0.13643 0.004,0.27836 0.0841,0.38998 0.0799,0.11025 0.21911,0.17639 0.36242,0.19155 -0.14469,0.01 -0.30041,-0.0386 -0.40651,-0.15434 -0.10612,-0.11713 -0.1447,-0.27974 -0.14057,-0.43133 0,-0.15296 0.0427,-0.31419 0.13919,-0.44372 0.0978,-0.12816 0.22737,-0.22462 0.38998,-0.27286 l -0.0593,0.0868 c -0.0551,-0.31419 -0.14056,-0.63114 -0.26596,-0.9219 -0.11989,-0.28112 -0.2949,-0.59118 -0.57189,-0.63666 -0.13642,-0.022 -0.28112,0.0262 -0.39274,0.11989 -0.11437,0.0965 -0.19981,0.23289 -0.26871,0.37483 -0.13505,0.28939 -0.21774,0.60771 -0.2701,0.93155"
       style="fill:#353535;fill-opacity:1;fill-rule:nonzero;stroke:none;stroke-width:0.35277778" />
    <path
       inkscape:connector-curvature="0"
       id="path253"
       d="m 184.97469,241.49386 c -0.0524,-0.32384 -0.13643,-0.64217 -0.2701,-0.93156 -0.0689,-0.14194 -0.15434,-0.27836 -0.26871,-0.37483 -0.11162,-0.0937 -0.25632,-0.14193 -0.39275,-0.11988 -0.27698,0.0455 -0.45199,0.35553 -0.57326,0.63665 -0.12402,0.29076 -0.20946,0.60771 -0.26458,0.92191 l -0.0592,-0.0868 c 0.1626,0.0482 0.29214,0.14469 0.38998,0.27285 0.0965,0.12954 0.13918,0.29077 0.13918,0.44373 0.004,0.15158 -0.0345,0.31419 -0.14056,0.43133 -0.10611,0.11575 -0.26321,0.16398 -0.40652,0.15434 0.14331,-0.0152 0.2825,-0.0813 0.36243,-0.19155 0.0799,-0.11162 0.0937,-0.25356 0.0841,-0.38999 -0.011,-0.13642 -0.0565,-0.26734 -0.14332,-0.36517 -0.0813,-0.0992 -0.20671,-0.1695 -0.32246,-0.20396 l -0.0689,-0.0207 0.01,-0.0661 c 0.0524,-0.33211 0.12954,-0.65457 0.25632,-0.96876 0.0648,-0.15572 0.14332,-0.30868 0.25631,-0.4451 0.11163,-0.13367 0.26597,-0.25908 0.45889,-0.2825 0.18879,-0.0262 0.38309,0.0455 0.51125,0.17363 0.12816,0.12678 0.20946,0.2825 0.27148,0.43822 0.12402,0.31281 0.16536,0.6463 0.17087,0.97427"
       style="fill:#353535;fill-opacity:1;fill-rule:nonzero;stroke:none;stroke-width:0.35277778" />
    <path
       inkscape:connector-curvature="0"
       id="path255"
       d="m 167.31926,243.92334 c 0,0.24942 -0.20257,0.452 -0.45199,0.452 -0.24943,0 -0.45062,-0.20258 -0.45062,-0.452 0,-0.24943 0.20119,-0.45062 0.45062,-0.45062 0.24942,0 0.45199,0.20119 0.45199,0.45062"
       style="fill:#000000;fill-opacity:1;fill-rule:nonzero;stroke:none;stroke-width:0.35277778" />
    <path
       inkscape:connector-curvature="0"
       id="path257"
       d="m 184.63845,241.80529 c 0,0.11851 0.0965,0.2136 0.21359,0.2136 0.11851,0 0.2136,-0.0951 0.2136,-0.2136 0,-0.11851 -0.0951,-0.21359 -0.2136,-0.21359 -0.11713,0 -0.21359,0.0951 -0.21359,0.21359"
       style="fill:#000000;fill-opacity:1;fill-rule:nonzero;stroke:none;stroke-width:0.35277778" />
    <path
       id="path5173"
       d="m 166.52551,238.93208 c 0,0 1.55581,-3.83508 1.37391,-8.37157 -1.16582,-2.33028 -1.32154,-2.05052 -1.32154,-2.05052 0,0 -2.83876,3.65594 -0.0524,10.42209"
       style="fill:#742d00;fill-opacity:1;fill-rule:nonzero;stroke:none;stroke-width:0.35277778"
       inkscape:connector-curvature="0" />
    <path
       inkscape:connector-curvature="0"
       style="fill:#742d00;fill-opacity:1;fill-rule:nonzero;stroke:none;stroke-width:0.35277778"
       d="m 175.61367,223.67116 c -0.24571,-0.006 -0.3855,0 -0.3855,0 -9.06022,1.29634 -11.67733,5.35665 -8.38967,16.47444 0.80753,2.1332 1.23351,8.89815 1.23351,8.89815 0,0 1.85175,-2.61154 0.75758,-6.5541 -0.56396,-2.03467 -0.97495,-4.00582 -1.24333,-5.44775 0.81603,-0.83465 1.63136,-1.94257 2.34611,-3.41995 0.37144,-0.86487 0.628,-1.6624 0.79891,-2.39622 1.40151,1.5794 4.13637,4.18026 7.05229,4.30929 -1.27782,-0.97189 -2.0898,-1.99316 -2.0898,-1.99316 0,0 3.27228,2.00351 6.26112,2.74662 -0.26098,-0.63207 -0.62115,-2.00195 -0.62115,-2.00195 0,0 0.52337,0.3682 1.3379,0.71777 0.20841,1.18075 0.47487,2.17244 0.68833,2.85927 -0.2042,2.02311 -0.5116,3.38066 -0.5116,3.38066 0,0 -0.84474,6.27679 1.95131,7.48948 -1.23473,-3.73036 0,-11.12904 0,-11.12904 v -2.0221 c 0.14474,0.0156 0.29112,0.027 0.44028,0.032 -0.16793,-0.14113 -0.3113,-0.29374 -0.44028,-0.44649 v -0.009 c 0.0382,-0.25138 0.0657,-0.49352 0.0884,-0.7312 0.61609,0.20193 1.60307,0.31398 3.02772,-0.12869 -1.6425,-1.0545 -2.95331,-2.95847 -2.95331,-2.95847 0,0 -0.10803,-0.40685 -0.44545,-1.01235 -0.14807,-0.47679 -0.31074,-0.87268 -0.45578,-1.16217 -1.8938,-4.96847 -7.00198,-5.45925 -8.44755,-5.49526 z m -8.31112,11.74398 c 0.0627,0.3883 0.15712,0.94623 0.28164,1.61592 -0.12726,-0.68432 -0.21962,-1.22907 -0.28164,-1.61592 z"
       id="path5175"
       sodipodi:nodetypes="ccccccccccccccccccccccccccccccc" />
    <g
       id="g9882"
       transform="matrix(0.3527778,0,0,0.3527778,-113.24489,240.14793)">
      <path
         inkscape:connector-curvature="0"
         style="fill:#f8c791;fill-opacity:1;fill-rule:nonzero;stroke:none"
         d="m 807.38195,305.69029 c 0,0 -0.0781,7.14062 -7.89844,15.52733 -7.82031,8.38282 10.33985,9.13282 10.33985,9.13282 0,0 8.11328,-2.21485 5.20312,-10.09375 -2.91015,-7.88282 -0.63281,-13.44532 -0.55078,-14.28907"
         id="path9846" />
      <path
         inkscape:connector-curvature="0"
         style="fill:#3dbdab;fill-opacity:1;fill-rule:nonzero;stroke:none"
         d="m 812.29211,305.62779 c 0,0 -0.6211,-1.60938 -1.86328,-1.5625 -1.2461,0.0469 -1.78907,0.81641 -2.125,1.70702 -0.33594,0.89453 0.26172,7.12891 0.26172,7.12891 l -6.13282,10.625 8.36328,-0.3086 1.41797,-9.01562 0.0781,-8.57422"
         id="path9848" />
      <path
         inkscape:connector-curvature="0"
         style="fill:#4ac2b8;fill-opacity:1;fill-rule:nonzero;stroke:none"
         d="m 803.94445,322.68637 4.47266,-8.41015 c 0,0 0.38281,-1.16406 0.23437,-3.55077 -0.14843,-2.38673 0.0547,-5.52344 0.0547,-5.52344 0,0 -1.40234,-0.28125 -2.41797,0.1914 -0.25,0.96485 -0.082,4.85547 -0.082,4.85547 -0.12109,0.0156 -0.27343,2.88282 -4.36328,8.1211 -4.57031,4.91406 -5.17187,5.92968 -3.96875,6.96093 1.64063,-1.35937 6.07031,-2.64453 6.07031,-2.64453"
         id="path9850" />
      <path
         inkscape:connector-curvature="0"
         style="fill:#4ac2b8;fill-opacity:1;fill-rule:nonzero;stroke:none"
         d="m 811.88586,305.34654 -0.61328,5.23827 c 0,0 -0.44922,1.89844 -0.47266,3.60548 0.0586,1.60937 -0.94922,8.44531 -0.94922,8.44531 0,0 4.125,0.14452 6.11328,2.98437 0.52735,-2.57812 -1.41015,-7.83985 -1.41015,-7.83985 0,0 -1.23438,-6.18358 0.6875,-11.90625 -1.58985,-1.01952 -3.35547,-0.52733 -3.35547,-0.52733"
         id="path9852" />
      <path
         inkscape:connector-curvature="0"
         style="fill:#ffffff;fill-opacity:1;fill-rule:nonzero;stroke:none"
         d="m 816.08117,325.74887 c 0,0 -0.80078,-3.62108 -9.64453,-4.23827 -8.60938,-0.13673 -9.26172,2.51952 -9.24609,4.57031 0.13281,2.73438 8.58593,3.47656 8.58593,3.47656 0,0 10.53125,1.34765 10.30469,-3.8086"
         id="path9854" />
      <path
         inkscape:connector-curvature="0"
         style="fill:#f0f0f0;fill-opacity:1;fill-rule:nonzero;stroke:none"
         d="m 815.99914,325.28404 c 0,0 0.65625,2.57031 -7.80859,2.88672 -9.21875,0.33984 -10.82032,-3.53125 -10.82032,-3.53125 0,0 -0.76562,3.22265 1.53907,4.54297 2.30859,1.3164 15.27343,2.4414 16.85156,-1.10938 1.13281,-2.22265 0.23828,-2.78906 0.23828,-2.78906"
         id="path9856" />
      <path
         inkscape:connector-curvature="0"
         style="fill:#ffffff;fill-opacity:1;fill-rule:nonzero;stroke:none"
         d="m 811.7843,320.26841 c -0.67188,-0.28906 -1.34375,-0.49609 -2.01563,-0.66796 -0.67578,-0.16407 -1.35156,-0.28516 -2.03516,-0.3125 -0.67578,-0.043 -1.36328,-0.0312 -2.05078,0.0625 -0.6914,0.0742 -1.375,0.23046 -2.09765,0.3789 0.59375,-0.42188 1.2539,-0.78906 1.97656,-0.97265 0.71484,-0.22657 1.47266,-0.27735 2.22266,-0.24219 1.49218,0.0976 2.98437,0.68359 4,1.7539"
         id="path9858" />
      <path
         inkscape:connector-curvature="0"
         style="fill:#ffffff;fill-opacity:1;fill-rule:nonzero;stroke:none"
         d="m 811.82726,316.99887 c -1.12109,-0.16406 -2.16015,-0.35937 -3.21093,-0.46093 -1.05469,-0.1211 -2.07422,-0.11719 -3.21094,-0.0469 0.46875,-0.3125 1.01172,-0.55469 1.57812,-0.65234 0.5625,-0.10937 1.14454,-0.13281 1.71094,-0.0742 1.13281,0.13281 2.2461,0.50781 3.13281,1.23437"
         id="path9860" />
      <path
         inkscape:connector-curvature="0"
         style="fill:#ffffff;fill-opacity:1;fill-rule:nonzero;stroke:none"
         d="m 811.58898,314.95981 c -0.72265,-0.23827 -1.39843,-0.41797 -2.09375,-0.46875 -0.34375,-0.0352 -0.6914,-0.0312 -1.04297,-0.004 -0.35546,0.0156 -0.70312,0.10157 -1.08593,0.15625 0.57422,-0.5039 1.39453,-0.73828 2.17187,-0.66406 0.78125,0.0703 1.54297,0.39844 2.05078,0.98047"
         id="path9862" />
      <path
         inkscape:connector-curvature="0"
         style="fill:#f8c791;fill-opacity:1;fill-rule:nonzero;stroke:none"
         d="m 828.70617,305.69029 c 0,0 0.0742,7.14062 7.89844,15.52733 7.82422,8.38282 -10.33985,9.13282 -10.33985,9.13282 0,0 -8.10937,-2.21485 -5.20312,-10.09375 2.91016,-7.88282 0.63281,-13.44532 0.55078,-14.28907"
         id="path9864" />
      <path
         inkscape:connector-curvature="0"
         style="fill:#3dbdab;fill-opacity:1;fill-rule:nonzero;stroke:none"
         d="m 823.87023,305.62779 c 0,0 0.6211,-1.60938 1.86328,-1.5625 1.24219,0.0469 1.78516,0.81641 2.1211,1.70702 0.33984,0.89453 -0.26172,7.12891 -0.26172,7.12891 l 6.13281,10.625 -8.36328,-0.3086 -1.41797,-9.01562 -0.0742,-8.57422"
         id="path9866" />
      <path
         inkscape:connector-curvature="0"
         style="fill:#4ac2b8;fill-opacity:1;fill-rule:nonzero;stroke:none"
         d="m 832.21398,322.68637 -4.47265,-8.41015 c 0,0 -0.38282,-1.16406 -0.23438,-3.55077 0.14844,-2.38673 -0.0547,-5.52344 -0.0547,-5.52344 0,0 1.40625,-0.28125 2.41797,0.1914 0.25,0.96485 0.082,4.85547 0.082,4.85547 0.125,0.0156 0.27734,2.88282 4.36328,8.1211 4.57031,4.91406 5.17578,5.92968 3.97266,6.96093 -1.64063,-1.35937 -6.07422,-2.64453 -6.07422,-2.64453"
         id="path9868" />
      <path
         inkscape:connector-curvature="0"
         style="fill:#4ac2b8;fill-opacity:1;fill-rule:nonzero;stroke:none"
         d="m 824.27258,305.34654 0.61328,5.23827 c 0,0 0.45312,1.89844 0.47265,3.60548 -0.0586,1.60937 0.95313,8.44531 0.95313,8.44531 0,0 -4.125,0.14452 -6.11719,2.98437 -0.52344,-2.57812 1.41016,-7.83985 1.41016,-7.83985 0,0 1.23828,-6.18358 -0.6875,-11.90625 1.59375,-1.01952 3.35547,-0.52733 3.35547,-0.52733"
         id="path9870" />
      <path
         inkscape:connector-curvature="0"
         style="fill:#ffffff;fill-opacity:1;fill-rule:nonzero;stroke:none"
         d="m 820.08117,325.74887 c 0,0 0.79688,-3.62108 9.64063,-4.23827 8.60937,-0.13673 9.26171,2.51952 9.24609,4.57031 -0.12891,2.73438 -8.58594,3.47656 -8.58594,3.47656 0,0 -10.53125,1.34765 -10.30078,-3.8086"
         id="path9872" />
      <path
         inkscape:connector-curvature="0"
         style="fill:#f0f0f0;fill-opacity:1;fill-rule:nonzero;stroke:none"
         d="m 820.1593,325.28404 c 0,0 -0.65235,2.57031 7.8125,2.88672 9.21484,0.33984 10.82031,-3.53125 10.82031,-3.53125 0,0 0.76172,3.22265 -1.54297,4.54297 -2.30469,1.3164 -15.26953,2.4414 -16.84766,-1.10938 -1.13672,-2.22265 -0.24218,-2.78906 -0.24218,-2.78906"
         id="path9874" />
      <path
         inkscape:connector-curvature="0"
         style="fill:#ffffff;fill-opacity:1;fill-rule:nonzero;stroke:none"
         d="m 824.37414,320.26841 c 1.01953,-1.07031 2.50781,-1.65625 4,-1.7539 0.75,-0.0352 1.51172,0.0156 2.22266,0.24219 0.72265,0.18359 1.38281,0.55077 1.97656,0.97265 -0.72266,-0.14844 -1.40625,-0.30469 -2.09766,-0.3789 -0.68359,-0.0937 -1.37109,-0.10548 -2.05078,-0.0625 -0.68359,0.0273 -1.35937,0.14843 -2.03125,0.3125 -0.67187,0.17187 -1.34766,0.3789 -2.01953,0.66796"
         id="path9876" />
      <path
         inkscape:connector-curvature="0"
         style="fill:#ffffff;fill-opacity:1;fill-rule:nonzero;stroke:none"
         d="m 824.33508,316.99887 c 0.88281,-0.72656 1.99609,-1.10156 3.1289,-1.23437 0.57032,-0.0586 1.14844,-0.0352 1.71485,0.0742 0.5664,0.0976 1.10547,0.33984 1.57422,0.65234 -1.13672,-0.0703 -2.15625,-0.0742 -3.21094,0.0469 -1.05078,0.10156 -2.08594,0.29687 -3.20703,0.46093"
         id="path9878" />
      <path
         inkscape:connector-curvature="0"
         style="fill:#ffffff;fill-opacity:1;fill-rule:nonzero;stroke:none"
         d="m 824.56945,314.95981 c 0.50781,-0.58202 1.27344,-0.91016 2.05078,-0.98047 0.78125,-0.0742 1.59766,0.16016 2.17578,0.66406 -0.38671,-0.0547 -0.73046,-0.14062 -1.08984,-0.15625 -0.35156,-0.0273 -0.69531,-0.0312 -1.04297,0.004 -0.69531,0.0508 -1.37109,0.23048 -2.09375,0.46875"
         id="path9880" />
    </g>
    <path
       style="fill:#000000;fill-opacity:1;fill-rule:nonzero;stroke:none;stroke-width:0.22357896"
       d="m 171.91664,238.73846 c 0.0463,0.62795 -0.36507,1.1703 -0.91878,1.21134 -0.55458,0.041 -1.04191,-0.43405 -1.0882,-1.06199 -0.0472,-0.62707 0.36419,-1.16942 0.91877,-1.21047 0.55459,-0.041 1.04104,0.43406 1.08821,1.06112"
       id="path10136"
       inkscape:connector-curvature="0" />
    <path
       inkscape:connector-curvature="0"
       id="path339"
       d="m 175.66466,294.733 c 0,0 7.17545,-0.51952 11.51076,-2.81671 0,1.11897 0,1.40835 0,1.40835 0,0 -4.98575,2.27515 -11.56037,2.46394 0,-0.83096 0.0496,-1.05558 0.0496,-1.05558"
       style="fill:#000000;fill-opacity:1;fill-rule:nonzero;stroke:none;stroke-width:0.35277778" />
    <path
       inkscape:connector-curvature="0"
       id="path265"
       d="m 174.98804,294.733 c 0,0 -7.17544,-0.51952 -11.51075,-2.81671 0,1.11897 0,1.40835 0,1.40835 0,0 4.98574,2.27515 11.56037,2.46394 0,-0.83096 -0.0496,-1.05558 -0.0496,-1.05558"
       style="fill:#000000;fill-opacity:1;fill-rule:nonzero;stroke:none;stroke-width:0.35277778" />
    <path
       style="fill:#000000;fill-opacity:1;fill-rule:nonzero;stroke:none;stroke-width:0.22357918"
       d="m 178.58862,238.73846 c -0.0463,0.62795 0.36507,1.1703 0.91877,1.21135 0.55458,0.041 1.04192,-0.43406 1.08821,-1.062 0.0472,-0.62707 -0.36419,-1.16943 -0.91878,-1.21047 -0.55458,-0.041 -1.04104,0.43406 -1.0882,1.06112"
       id="path2393"
       inkscape:connector-curvature="0" />
    <path
       id="path2420"
       d="m 176.23043,239.22065 c 0.005,0.0645 -0.0374,0.12019 -0.0944,0.12439 -0.0569,0.004 -0.10696,-0.0446 -0.11179,-0.10902 -0.005,-0.0644 0.0374,-0.1201 0.0944,-0.12439 0.0569,-0.004 0.10697,0.0446 0.11179,0.10902"
       style="fill:#3a1c08;fill-opacity:1;fill-rule:nonzero;stroke:none;stroke-width:0.02287667"
       inkscape:connector-curvature="0" />
    <path
       style="opacity:1;fill:#ffff00;fill-opacity:1;stroke:none;stroke-width:0.14702258;stroke-miterlimit:4;stroke-dasharray:none;stroke-opacity:1"
       d="m 173.51198,236.16958 c 0.46306,0.20013 0.62549,0.92224 0.64942,1.62897 0.91436,-0.63376 1.55013,-0.30795 2.19108,0 0.0133,-0.70633 0.18034,-1.44561 0.61194,-1.64606 -1.05615,0.15861 -2.11615,0.31101 -3.45244,0.0171 z"
       id="rect2309"
       inkscape:connector-curvature="0"
       sodipodi:nodetypes="ccccc" />
    <path
       style="opacity:1;fill:#ffffff;fill-opacity:0.39215686;stroke:none;stroke-width:0.26238856;stroke-miterlimit:4;stroke-dasharray:none;stroke-opacity:1"
       d="m 167.96246,236.21316 c -1.67524,0 -1.0397,4.49971 0.63356,4.7253 0.9044,0.12192 2.7408,0.24146 3.99717,0 1.65804,-0.31867 2.27304,-4.7253 0.50126,-4.7253 z"
       id="rect2286"
       inkscape:connector-curvature="0"
       sodipodi:nodetypes="sssss" />
    <path
       sodipodi:nodetypes="sssss"
       inkscape:connector-curvature="0"
       id="path2303"
       d="m 177.32465,236.21316 c -1.67524,0 -1.0397,4.49971 0.63355,4.7253 0.9044,0.12192 2.74081,0.24146 3.99718,0 1.65804,-0.31867 2.27304,-4.7253 0.50125,-4.7253 z"
       style="opacity:1;fill:#ffffff;fill-opacity:0.39215686;stroke:none;stroke-width:0.26238856;stroke-miterlimit:4;stroke-dasharray:none;stroke-opacity:1" />
    <path
       style="color:#000000;font-style:normal;font-variant:normal;font-weight:normal;font-stretch:normal;font-size:medium;line-height:normal;font-family:sans-serif;font-variant-ligatures:normal;font-variant-position:normal;font-variant-caps:normal;font-variant-numeric:normal;font-variant-alternates:normal;font-feature-settings:normal;text-indent:0;text-align:start;text-decoration:none;text-decoration-line:none;text-decoration-style:solid;text-decoration-color:#000000;letter-spacing:normal;word-spacing:normal;text-transform:none;writing-mode:lr-tb;direction:ltr;text-orientation:mixed;dominant-baseline:auto;baseline-shift:baseline;text-anchor:start;white-space:normal;shape-padding:0;clip-rule:nonzero;display:inline;overflow:visible;visibility:visible;opacity:1;isolation:auto;mix-blend-mode:normal;color-interpolation:sRGB;color-interpolation-filters:linearRGB;solid-color:#000000;solid-opacity:1;vector-effect:none;fill:#ffff00;fill-opacity:1;fill-rule:nonzero;stroke:none;stroke-width:0.26238856;stroke-linecap:butt;stroke-linejoin:miter;stroke-miterlimit:4;stroke-dasharray:none;stroke-dashoffset:0;stroke-opacity:1;color-rendering:auto;image-rendering:auto;shape-rendering:auto;text-rendering:auto;enable-background:accumulate"
       d="m 177.32451,236.0821 c -0.23877,0 -0.44759,0.0839 -0.6091,0.22669 -0.1615,0.14278 -0.27734,0.33925 -0.3576,0.56706 -0.16051,0.45562 -0.18339,1.04113 -0.10197,1.63298 0.0814,0.59185 0.26867,1.18985 0.54915,1.66329 0.28047,0.47344 0.66104,0.83245 1.1355,0.89641 0.91645,0.12355 2.7522,0.24607 4.03972,-0.001 0.46807,-0.09 0.84186,-0.45893 1.11621,-0.93637 0.27435,-0.47745 0.45402,-1.07185 0.52572,-1.65847 0.0717,-0.58663 0.0366,-1.16453 -0.14125,-1.61369 -0.17789,-0.44915 -0.52724,-0.77652 -1.02457,-0.77652 z m 0,0.26252 h 5.13181 c 0.38856,0 0.62736,0.22342 0.78066,0.61047 0.1533,0.38705 0.19254,0.93066 0.12471,1.48553 -0.0678,0.55486 -0.24141,1.12151 -0.49333,1.55994 -0.25193,0.43842 -0.57681,0.73953 -0.93776,0.8089 -1.22522,0.23548 -3.06262,0.11961 -3.95497,-7.1e-4 -0.36217,-0.0488 -0.6884,-0.33731 -0.94533,-0.77101 -0.25694,-0.43371 -0.43749,-1.00349 -0.5147,-1.56477 -0.0772,-0.56127 -0.0496,-1.11451 0.0896,-1.50964 0.0696,-0.19756 0.16602,-0.35401 0.28387,-0.45819 0.11786,-0.10419 0.25543,-0.16055 0.43546,-0.16055 z"
       id="path2370"
       inkscape:connector-curvature="0" />
    <path
       style="color:#000000;font-style:normal;font-variant:normal;font-weight:normal;font-stretch:normal;font-size:medium;line-height:normal;font-family:sans-serif;font-variant-ligatures:normal;font-variant-position:normal;font-variant-caps:normal;font-variant-numeric:normal;font-variant-alternates:normal;font-feature-settings:normal;text-indent:0;text-align:start;text-decoration:none;text-decoration-line:none;text-decoration-style:solid;text-decoration-color:#000000;letter-spacing:normal;word-spacing:normal;text-transform:none;writing-mode:lr-tb;direction:ltr;text-orientation:mixed;dominant-baseline:auto;baseline-shift:baseline;text-anchor:start;white-space:normal;shape-padding:0;clip-rule:nonzero;display:inline;overflow:visible;visibility:visible;opacity:1;isolation:auto;mix-blend-mode:normal;color-interpolation:sRGB;color-interpolation-filters:linearRGB;solid-color:#000000;solid-opacity:1;vector-effect:none;fill:#ffff00;fill-opacity:1;fill-rule:nonzero;stroke:none;stroke-width:0.26238856;stroke-linecap:butt;stroke-linejoin:miter;stroke-miterlimit:4;stroke-dasharray:none;stroke-dashoffset:0;stroke-opacity:1;color-rendering:auto;image-rendering:auto;shape-rendering:auto;text-rendering:auto;enable-background:accumulate"
       d="m 167.9628,236.0821 c -0.23877,0 -0.44827,0.0839 -0.60978,0.22669 -0.16151,0.14278 -0.27734,0.33925 -0.3576,0.56706 -0.16051,0.45562 -0.1834,1.04113 -0.10198,1.63298 0.0814,0.59185 0.26868,1.18985 0.54915,1.66329 0.28048,0.47344 0.66174,0.83245 1.1362,0.89641 0.91645,0.12355 2.75151,0.24607 4.03903,-0.001 0.46807,-0.09 0.84186,-0.45893 1.11621,-0.93637 0.27434,-0.47745 0.4547,-1.07185 0.52641,-1.65847 0.0717,-0.58663 0.036,-1.16453 -0.14194,-1.61369 -0.17789,-0.44915 -0.52655,-0.77652 -1.02388,-0.77652 z m 0,0.26252 h 5.13182 c 0.38856,0 0.62667,0.22342 0.77997,0.61047 0.15329,0.38705 0.19322,0.93066 0.1254,1.48553 -0.0678,0.55486 -0.24142,1.12151 -0.49334,1.55994 -0.25192,0.43842 -0.57749,0.73953 -0.93844,0.8089 -1.22522,0.23548 -3.06262,0.11961 -3.95497,-7.1e-4 -0.36217,-0.0488 -0.68771,-0.33731 -0.94465,-0.77101 -0.25694,-0.43371 -0.43817,-1.00349 -0.51538,-1.56477 -0.0772,-0.56127 -0.0489,-1.11451 0.0903,-1.50964 0.0696,-0.19756 0.16533,-0.35401 0.28318,-0.45819 0.11785,-0.10419 0.25611,-0.16055 0.43615,-0.16055 z"
       id="path2374"
       inkscape:connector-curvature="0" />
    <g
       id="g1142"
       transform="matrix(0.3527778,0,0,0.3527778,155.84271,223.66845)">
      <path
         sodipodi:nodetypes="ccc"
         id="path2545"
         d="m 62.26732,59.958205 c -3.920835,5.080261 -8.733175,5.038784 -12.598186,0.0094 4.169199,1.318785 8.622153,1.561163 12.59818,-0.0094"
         style="fill:#ff4956;fill-opacity:1;fill-rule:nonzero;stroke:none;stroke-width:0.15000001;stroke-linecap:round;stroke-linejoin:round;stroke-miterlimit:4;stroke-dasharray:none;stroke-opacity:1"
         inkscape:connector-curvature="0" />
      <path
         id="rect4770"
         transform="scale(0.74999994)"
         d="m 83.015625,79.839844 0.002,0.002 a 0.10000999,0.10000999 0 0 0 -0.0078,0 0.10000999,0.10000999 0 0 0 -0.0059,0.002 0.10000999,0.10000999 0 0 0 -0.0059,0.002 0.10000999,0.10000999 0 0 0 -0.0059,0.002 0.10000999,0.10000999 0 0 0 -0.002,0 0.10000999,0.10000999 0 0 0 -0.0039,0.002 0.10000999,0.10000999 0 0 0 -0.0078,0.0039 c -5.27231,2.079634 -11.184885,1.760127 -16.72461,0.0078 a 0.10000999,0.10000999 0 0 0 -0.107422,0.15625 c 0.05379,0.06999 0.109993,0.128707 0.164063,0.197266 5.86154,3.319794 11.408797,3.52705 16.794922,-0.332032 a 0.10000999,0.10000999 0 0 0 -0.0059,-0.0039 0.10000999,0.10000999 0 0 0 -0.002,-0.0059 0.10000999,0.10000999 0 0 0 -0.0039,-0.0039 0.10000999,0.10000999 0 0 0 -0.002,-0.002 0.10000999,0.10000999 0 0 0 -0.0059,-0.0039 0.10000999,0.10000999 0 0 0 -0.002,-0.002 0.10000999,0.10000999 0 0 0 -0.01367,-0.0078 0.10000999,0.10000999 0 0 0 -0.0059,-0.0039 0.10000999,0.10000999 0 0 0 -0.0039,0 0.10000999,0.10000999 0 0 0 -0.0039,-0.0039 0.10000999,0.10000999 0 0 0 -0.0039,0 0.10000999,0.10000999 0 0 0 -0.0059,-0.002 0.10000999,0.10000999 0 0 0 -0.0059,0 0.10000999,0.10000999 0 0 0 -0.0039,-0.002 0.10000999,0.10000999 0 0 0 -0.0059,0 0.10000999,0.10000999 0 0 0 -0.0059,0 0.10000999,0.10000999 0 0 0 -0.0098,-0.002 z"
         style="opacity:1;fill:#ffffff;fill-opacity:1;stroke:none;stroke-width:0.2;stroke-miterlimit:4;stroke-dasharray:none"
         inkscape:connector-curvature="0" />
      <path
         id="rect4774"
         transform="scale(0.74999994)"
         d="m 69.587891,83.382812 c 1.624149,1.130815 3.312794,1.719533 5.009765,1.722657 1.576192,0.0029 3.149428,-0.503626 4.675782,-1.484375 -3.198094,0.848374 -6.432475,0.656538 -9.685547,-0.238282 z"
         style="opacity:1;fill:#ffffff;fill-opacity:1;stroke:none;stroke-width:0.2;stroke-miterlimit:4;stroke-dasharray:none"
         inkscape:connector-curvature="0" />
      <path
         inkscape:connector-curvature="0"
         id="path258"
         d="m 62.262838,59.881449 a 0.0750075,0.0750075 0 0 0 -0.0061,0.0011 0.0750075,0.0750075 0 0 0 -0.0042,0.0014 0.0750075,0.0750075 0 0 0 -0.0042,0.0014 0.0750075,0.0750075 0 0 0 -0.0042,0.0014 0.0750075,0.0750075 0 0 0 -0.002,-3.01e-4 0.0750075,0.0750075 0 0 0 -0.0023,0.0017 0.0750075,0.0750075 0 0 0 -0.0064,0.003 c -3.954132,1.559721 -8.387553,1.320272 -12.542347,0.006 a 0.0750075,0.0750075 0 0 0 -0.0809,0.116095 c 1.941609,2.526521 4.132139,3.812073 6.337488,3.816132 2.196675,0.004 4.390486,-1.271462 6.354124,-3.803393 a 0.0750075,0.0750075 0 0 0 0.0067,-0.0049 0.0750075,0.0750075 0 0 0 0.01587,-0.01339 0.0750075,0.0750075 0 0 0 0.0026,-0.0036 0.0750075,0.0750075 0 0 0 0.0026,-0.0036 0.0750075,0.0750075 0 0 0 0.0023,-0.0017 0.0750075,0.0750075 0 0 0 0.0026,-0.0036 0.0750075,0.0750075 0 0 0 5.87e-4,-0.0039 0.0750075,0.0750075 0 0 0 0.0026,-0.0036 0.0750075,0.0750075 0 0 0 5.87e-4,-0.0039 0.0750075,0.0750075 0 0 0 0.0026,-0.0036 0.0750075,0.0750075 0 0 0 3.01e-4,-0.002 0.0750075,0.0750075 0 0 0 8.89e-4,-0.0058 0.0750075,0.0750075 0 0 0 3.01e-4,-0.002 0.0750075,0.0750075 0 0 0 5.87e-4,-0.0039 0.0750075,0.0750075 0 0 0 5.87e-4,-0.0039 0.0750075,0.0750075 0 0 0 5.88e-4,-0.0039 0.0750075,0.0750075 0 0 0 -0.0014,-0.0042 0.0750075,0.0750075 0 0 0 5.87e-4,-0.0039 0.0750075,0.0750075 0 0 0 -0.0014,-0.0042 0.0750075,0.0750075 0 0 0 5.87e-4,-0.0039 0.0750075,0.0750075 0 0 0 -0.0017,-0.0023 0.0750075,0.0750075 0 0 0 3.01e-4,-0.002 0.0750075,0.0750075 0 0 0 -0.0027,-0.0083 0.0750075,0.0750075 0 0 0 -0.0047,-0.0086 0.0750075,0.0750075 0 0 0 -0.0017,-0.0023 0.0750075,0.0750075 0 0 0 -0.0014,-0.0042 0.0750075,0.0750075 0 0 0 -0.0017,-0.0023 0.0750075,0.0750075 0 0 0 -0.0036,-0.0026 0.0750075,0.0750075 0 0 0 -0.0014,-0.0042 0.0750075,0.0750075 0 0 0 -0.0036,-0.0026 0.0750075,0.0750075 0 0 0 -0.0017,-0.0023 0.0750075,0.0750075 0 0 0 -0.0036,-0.0026 0.0750075,0.0750075 0 0 0 -0.0017,-0.0023 0.0750075,0.0750075 0 0 0 -0.011,-0.0056 0.0750075,0.0750075 0 0 0 -0.0036,-0.0026 0.0750075,0.0750075 0 0 0 -0.0039,-5.87e-4 0.0750075,0.0750075 0 0 0 -0.0017,-0.0023 0.0750075,0.0750075 0 0 0 -0.0039,-5.88e-4 0.0750075,0.0750075 0 0 0 -0.0039,-5.87e-4 0.0750075,0.0750075 0 0 0 -0.0039,-5.87e-4 0.0750075,0.0750075 0 0 0 -0.0039,-5.87e-4 0.0750075,0.0750075 0 0 0 -0.0039,-5.88e-4 0.0750075,0.0750075 0 0 0 -0.0039,-5.87e-4 0.0750075,0.0750075 0 0 0 -0.0077,-0.0012 z m -0.270357,0.231463 c -1.896397,2.351237 -3.973953,3.569745 -6.045315,3.565932 -2.086623,-0.0038 -4.165479,-1.234624 -6.046709,-3.597985 4.005835,1.222497 8.251794,1.454857 12.092024,0.03205 z"
         style="color:#000000;font-style:normal;font-variant:normal;font-weight:normal;font-stretch:normal;font-size:medium;line-height:normal;font-family:sans-serif;font-variant-ligatures:normal;font-variant-position:normal;font-variant-caps:normal;font-variant-numeric:normal;font-variant-alternates:normal;font-feature-settings:normal;text-indent:0;text-align:start;text-decoration:none;text-decoration-line:none;text-decoration-style:solid;text-decoration-color:#000000;letter-spacing:normal;word-spacing:normal;text-transform:none;writing-mode:lr-tb;direction:ltr;text-orientation:mixed;dominant-baseline:auto;baseline-shift:baseline;text-anchor:start;white-space:normal;shape-padding:0;clip-rule:nonzero;display:inline;overflow:visible;visibility:visible;opacity:1;isolation:auto;mix-blend-mode:normal;color-interpolation:sRGB;color-interpolation-filters:linearRGB;solid-color:#000000;solid-opacity:1;vector-effect:none;fill:#000000;fill-opacity:1;fill-rule:nonzero;stroke:none;stroke-width:0.15000001;stroke-linecap:round;stroke-linejoin:round;stroke-miterlimit:4;stroke-dasharray:none;stroke-dashoffset:0;stroke-opacity:1;color-rendering:auto;image-rendering:auto;shape-rendering:auto;text-rendering:auto;enable-background:accumulate" />
    </g>
  </g>
</svg>
