<?xml version="1.0" encoding="UTF-8" standalone="no"?>
<svg
   xmlns:dc="http://purl.org/dc/elements/1.1/"
   xmlns:cc="http://creativecommons.org/ns#"
   xmlns:rdf="http://www.w3.org/1999/02/22-rdf-syntax-ns#"
   xmlns:svg="http://www.w3.org/2000/svg"
   xmlns="http://www.w3.org/2000/svg"
   xmlns:sodipodi="http://sodipodi.sourceforge.net/DTD/sodipodi-0.dtd"
   xmlns:inkscape="http://www.inkscape.org/namespaces/inkscape"
   sodipodi:docname="logoFiar.svg"
   inkscape:version="1.0alpha (9dee831, 2019-01-15)"
   id="svg8"
   version="1.1"
   viewBox="0 0 137.68242 49.170231"
   height="49.170231mm"
   width="137.68242mm">
  <defs
     id="defs2" />
  <sodipodi:namedview
     inkscape:window-maximized="1"
     inkscape:window-y="27"
     inkscape:window-x="67"
     inkscape:window-height="995"
     inkscape:window-width="1613"
     showgrid="false"
     inkscape:document-rotation="0"
     inkscape:current-layer="layer1"
     inkscape:document-units="mm"
     inkscape:cy="60.703314"
     inkscape:cx="350.56396"
     inkscape:zoom="3.959798"
     inkscape:pageshadow="2"
     inkscape:pageopacity="0.0"
     borderopacity="1.0"
     bordercolor="#666666"
     pagecolor="#ffffff"
     id="base" />
  <metadata
     id="metadata5">
    <rdf:RDF>
      <cc:Work
         rdf:about="">
        <dc:format>image/svg+xml</dc:format>
        <dc:type
           rdf:resource="http://purl.org/dc/dcmitype/StillImage" />
        <dc:title></dc:title>
      </cc:Work>
    </rdf:RDF>
  </metadata>
  <g
     transform="translate(-108.79672,-103.1364)"
     id="layer1"
     inkscape:groupmode="layer"
     inkscape:label="Camada 1">
    <path
       id="path4844"
       transform="matrix(0.26458333,0,0,0.26458333,108.79672,103.1364)"
       d="M 50.675781 0.005859375 C 38.59335 -0.15363669 25.045829 3.2128452 16.443359 11.833984 C 12.877791 15.407301 28.833627 12.103843 32.675781 11.236328 C 43.206225 8.8582498 56.868565 7.4000807 62.888672 18.423828 C 71.257718 33.748716 70.2163 52.290231 66.988281 68.671875 C 62.886587 89.48751 45.902874 104.45251 34.384766 121.57422 C 22.91749 138.62042 8.4159435 154.10373 0.43554688 173.08398 C -2.3464878 179.70065 9.0261147 168.04755 11.052734 165.62109 C 30.225975 142.6653 47.287839 118.04517 66.015625 94.736328 C 81.82588 75.058596 96.734032 54.299301 115.73047 37.466797 C 123.1919 30.855345 137.44071 32.014634 140.08789 42.839844 C 143.75524 57.836782 141.05081 73.815618 135.58984 87.777344 C 125.61102 113.28984 109.64962 135.95436 97.109375 160.26953 C 94.191542 163.89244 93.084406 173.16614 99.517578 166.22852 C 117.30804 147.04314 126.86841 122.10619 141.24414 100.58594 C 154.28109 81.069852 169.43374 62.17104 189.2207 48.820312 C 198.32502 42.677411 213.54041 42.058581 213.49219 56.390625 C 213.42679 75.789882 204.68208 93.631017 194.53711 109.63281 C 185.9137 123.23469 175.47386 137.57041 175.20117 154.33594 C 175.04735 163.80014 184.77577 170.78001 193.92578 168.55273 C 205.10925 165.83049 223.88764 150.68783 235.44336 138.31445 C 260.32849 114.81225 298.7182 75.448849 313.67969 60.158203 C 317.24091 56.518631 320.68897 53.147453 324.05078 50.003906 C 322.72764 54.407094 322.00781 59.067886 322.00781 63.894531 C 322.00781 72.238939 323.96061 80.029763 327.46094 86.796875 C 322.17643 87.326706 321.72261 93.710123 320.50781 97.84375 C 313.30445 125.00536 305.82104 152.10882 298.79297 179.30664 C 298.00668 185.24023 306.72589 188.37099 309.89453 183.29297 C 312.77895 175.85766 314.18506 167.83366 316.48438 160.16602 C 321.94916 139.77237 327.41409 119.37998 332.87891 98.986328 L 336.58594 98.986328 C 344.80822 106.83409 355.96279 111.58984 368.64258 111.58984 C 383.88524 111.58984 395.47912 106.75687 403.60156 98.986328 L 486.29688 98.986328 C 493.82071 126.78683 501.07125 154.67787 508.76562 182.42188 C 511.05337 187.95292 520.172 186.30041 520.375 180.31836 C 519.15353 172.43714 516.36066 164.78604 514.51758 156.99609 C 508.46444 134.7219 502.72224 112.34346 496.47461 90.134766 C 493.64495 84.908737 487.02068 87.273766 482.25391 86.744141 L 412.53711 86.744141 C 416.2377 79.275276 418.06445 70.6573 418.06445 61.644531 C 418.06445 35.000754 397.13946 15.547394 370.50781 15.494141 C 347.17361 14.949168 319.55909 42.923537 308.27734 54.371094 C 284.75307 78.98432 207.18819 163.27634 187.73047 159.10352 C 177.4839 156.9061 187.98932 140.27584 191.80078 132.71289 C 200.98095 114.49776 215.01471 98.705464 220.11133 78.482422 C 223.42658 65.327701 226.42998 47.977762 214.9082 38.259766 C 205.99642 30.743192 192.56698 35.6242 183.61328 41.058594 C 169.36023 49.709441 158.35551 62.607118 148.08789 75.53125 C 151.06854 60.5904 154.70663 41.891322 142.99414 29.791016 C 133.76911 20.260483 117.41329 22.803206 108.05469 31.498047 C 96.502595 42.230696 86.280864 54.167309 76.703125 66.599609 C 78.916076 47.549016 81.178108 25.319368 68.152344 9.4570312 C 63.834649 4.1991417 57.480065 0.095585353 50.675781 0.005859375 z M 370.41016 24.939453 C 380.55688 24.939453 389.77674 29.177817 396.69727 35.912109 L 369.48047 63.128906 L 369.48047 24.962891 C 369.79049 24.955665 370.09835 24.939453 370.41016 24.939453 z M 368.25586 25.001953 L 368.25586 63.123047 L 342.16992 37.035156 C 348.79806 30.065683 357.98382 25.557685 368.25586 25.001953 z M 397.55273 36.783203 C 404.46996 43.923577 408.89022 53.621312 409.32227 63.992188 L 370.34375 63.992188 L 397.55273 36.783203 z M 341.33984 37.931641 L 367.39844 63.992188 L 331.45898 63.992188 C 331.4589 63.959502 331.45703 63.927237 331.45703 63.894531 C 331.45703 53.903547 335.19232 44.81517 341.33984 37.931641 z M 331.48242 65.216797 L 365.31445 65.216797 L 364.88281 67.726562 L 345.86523 86.744141 L 338.83789 86.744141 C 334.43721 80.663278 331.74938 73.257108 331.48242 65.216797 z M 372.42383 65.216797 L 409.35352 65.216797 C 409.35517 65.36551 409.36523 65.513157 409.36523 65.662109 C 409.36523 73.678145 406.96046 80.868377 402.83594 86.744141 L 391.87891 86.744141 L 372.85547 67.722656 L 372.42383 65.216797 z M 373.21289 69.806641 L 390.15234 86.744141 L 376.125 86.744141 L 373.21289 69.806641 z M 364.52344 69.8125 L 361.61328 86.744141 L 347.5918 86.744141 L 364.52344 69.8125 z M 353.4375 98.986328 L 368.25586 98.986328 L 368.25586 102.78906 C 362.96209 102.50228 357.95483 101.16765 353.4375 98.986328 z M 369.48047 98.986328 L 388.11328 98.986328 C 382.8049 101.47152 376.7938 102.84961 370.41016 102.84961 C 370.09799 102.84961 369.79083 102.82952 369.48047 102.82227 L 369.48047 98.986328 z "
       style="color:#000000;font-style:normal;font-variant:normal;font-weight:normal;font-stretch:normal;font-size:medium;line-height:normal;font-family:sans-serif;font-variant-ligatures:normal;font-variant-position:normal;font-variant-caps:normal;font-variant-numeric:normal;font-variant-alternates:normal;font-feature-settings:normal;text-indent:0;text-align:start;text-decoration:none;text-decoration-line:none;text-decoration-style:solid;text-decoration-color:#000000;letter-spacing:normal;word-spacing:normal;text-transform:none;writing-mode:lr-tb;direction:ltr;text-orientation:mixed;dominant-baseline:auto;baseline-shift:baseline;text-anchor:start;white-space:normal;shape-padding:0;clip-rule:nonzero;display:inline;overflow:visible;visibility:visible;opacity:1;isolation:auto;mix-blend-mode:normal;color-interpolation:sRGB;color-interpolation-filters:linearRGB;solid-color:#000000;solid-opacity:1;vector-effect:none;fill:#000000;fill-opacity:1;fill-rule:evenodd;stroke:none;stroke-width:1.22417;stroke-linecap:butt;stroke-linejoin:miter;stroke-miterlimit:4;stroke-dasharray:none;stroke-dashoffset:0;stroke-opacity:1;color-rendering:auto;image-rendering:auto;shape-rendering:auto;text-rendering:auto;enable-background:accumulate;stop-opacity:1" />
  </g>
</svg>
