<?xml version="1.0" encoding="UTF-8" standalone="no"?>
<svg
   xmlns:dc="http://purl.org/dc/elements/1.1/"
   xmlns:cc="http://creativecommons.org/ns#"
   xmlns:rdf="http://www.w3.org/1999/02/22-rdf-syntax-ns#"
   xmlns:svg="http://www.w3.org/2000/svg"
   xmlns="http://www.w3.org/2000/svg"
   xmlns:sodipodi="http://sodipodi.sourceforge.net/DTD/sodipodi-0.dtd"
   xmlns:inkscape="http://www.inkscape.org/namespaces/inkscape"
   viewBox="0 0 200 149.47192"
   height="149.47192"
   width="200"
   xml:space="preserve"
   id="svg2"
   version="1.1"
   sodipodi:docname="open book icon.svg"
   inkscape:export-filename="G:\Trabalhos-CTISM\Inglês\Livro\lpng.png"
   inkscape:export-xdpi="1000"
   inkscape:export-ydpi="1000"
   inkscape:version="0.92.4 (5da689c313, 2019-01-14)"><sodipodi:namedview
     pagecolor="#ffffff"
     bordercolor="#666666"
     borderopacity="1"
     objecttolerance="10"
     gridtolerance="10"
     guidetolerance="10"
     inkscape:pageopacity="0"
     inkscape:pageshadow="2"
     inkscape:window-width="1366"
     inkscape:window-height="716"
     id="namedview105"
     showgrid="false"
     inkscape:zoom="0.5739345"
     inkscape:cx="97.067124"
     inkscape:cy="312.18399"
     inkscape:window-x="-8"
     inkscape:window-y="-8"
     inkscape:window-maximized="1"
     inkscape:current-layer="svg2" /><metadata
     id="metadata8"><rdf:RDF><cc:Work
         rdf:about=""><dc:format>image/svg+xml</dc:format><dc:type
           rdf:resource="http://purl.org/dc/dcmitype/StillImage" /><dc:title /></cc:Work></rdf:RDF></metadata><defs
     id="defs6"><clipPath
       id="clipPath20"
       clipPathUnits="userSpaceOnUse"><path
         id="path18"
         d="M 0,0 H 13333 V 8723 H 0 Z"
         inkscape:connector-curvature="0" /></clipPath><clipPath
       id="clipPath26"
       clipPathUnits="userSpaceOnUse"><path
         id="path24"
         d="M 13333.3,692.781 H 11538.7 V 3187.06 h -5 v 2638.78 c 0,58.67 -66.2,96.86 -174,120.14 v 276.96 l -40.2,15.52 c -13.6,5.54 -339,131.65 -772.9,131.65 -464.5,0 -865.66,-141.79 -1191.05,-420.88 -326.07,279.09 -726.49,420.88 -1191.72,420.88 -433.8,0 -759.34,-126.11 -772.9,-131.65 l -39.48,-15.52 v -256.57 c -131.75,-24.65 -213.61,-69 -213.61,-140.53 V 3183.06 h 5.02 V 692.781 H 5333.28 V 8722.77 H 13333.3 V 692.781 m -2133.5,0 H 9416.58 v 151.801 c 11.63,6.789 22.17,15.906 27.72,24.148 4.88,7.25 8.41,14.981 10.5,23.02 1.12,4.27 2,11.109 1.47,18.32 -3.97,-2.679 -10.23,-6.48 -18.71,-10.64 -5.6,-2.731 -12.63,-5.821 -20.98,-8.809 v 9.027 c 6.66,2.493 12.34,5.012 16.99,7.27 11.21,5.453 18.42,10.391 21.2,12.434 -2.78,10.308 -10.41,26.507 -17.43,36.597 -6.9,9.903 -13.98,17.262 -20.76,22.731 v 1060.99 l -74.43,-81.87 V 2979 c 161.76,-66.86 718.35,-278.32 1275.75,-278.32 220.1,0 415.2,33.42 581.9,100.27 V 692.781 m -1973.62,0 H 7443.02 V 2801.65 c 178.71,-71.64 383.37,-107.8 610.5,-107.8 557.35,0 1087.39,213.52 1246.43,283.79 V 1957.8 l -73.77,81.87 V 692.781 m 190.4,239.418 v 31.172 c 5.65,-2.891 9.53,-8.789 9.53,-15.57 0,-6.813 -3.88,-12.711 -9.53,-15.602 M 9334.4,3391.11 c -161.75,66.86 -718.31,278.32 -1275.72,278.32 -220.18,0 -415.27,-33.42 -581.89,-100.27 v 2566.46 c 97.63,31.9 361.71,108.38 687.04,108.38 428.38,0 796.15,-129.52 1096.14,-381.33 V 4330.45 l 74.43,81.86 v -1021.2 m 42.2,1.36 v 1019.84 l 73.77,-81.86 v 1532.22 c 300.16,251.81 667.83,381.33 1096.23,381.33 324.7,0 590.1,-76.48 686.9,-108.38 V 3568.46 c -178.7,71.64 -383.3,107.79 -610.5,107.79 -557.3,0 -1087.36,-213.51 -1246.4,-283.78"
         inkscape:connector-curvature="0" /></clipPath><radialGradient
       id="radialGradient34"
       spreadMethod="pad"
       gradientTransform="matrix(-1229.96,8613.56,8602.35,1228.36,9958.37,722.04)"
       gradientUnits="userSpaceOnUse"
       r="0.89756101"
       cy="0"
       cx="0"
       fy="0"
       fx="0"><stop
         id="stop28"
         offset="0"
         style="stop-opacity:1;stop-color:#ffffff" /><stop
         id="stop30"
         offset="1"
         style="stop-opacity:1;stop-color:#e6e4e2" /></radialGradient><clipPath
       id="clipPath108"
       clipPathUnits="userSpaceOnUse"><path
         id="path106"
         d="M 10512.7,0 C 10047.5,0 9647.07,141.789 9321.01,420.891 8995.62,141.789 8594.5,0 8129.95,0 7696.09,0 7370.69,126.109 7357.04,131.648 l -40.23,15.532 v 276.949 c -107.78,23.281 -173.95,61.473 -173.95,120.141 v 148.511 h 300.16 V 234.488 c 96.85,-31.898 362.22,-108.379 686.93,-108.379 428.4,0 796.08,129.52 1096.23,381.332 v 185.34 h 190.4 v -185.34 c 299.99,-251.812 667.72,-381.332 1096.12,-381.332 325.3,0 589.4,76.481 687.1,108.379 v 458.293 h 338.9 V 544.27 c 0,-71.532 -81.8,-115.872 -213.6,-140.52 V 147.18 l -39.5,-15.532 C 11272.1,126.109 10946.5,0 10512.7,0"
         inkscape:connector-curvature="0" /></clipPath><clipPath
       id="clipPath120"
       clipPathUnits="userSpaceOnUse"><path
         id="path118"
         d="m 11538.7,692.781 h -338.9 V 2800.95 c -166.7,-66.85 -361.8,-100.27 -581.9,-100.27 -557.4,0 -1113.99,211.46 -1275.75,278.32 V 1957.8 l 74.43,81.87 V 978.68 c -12.92,10.449 -24.73,14.031 -32.01,15.238 -4.24,0.703 -7.64,1.113 -12.44,1.113 -4.47,0 -10.02,-0.383 -17.42,-1.172 -7.44,-0.757 -15.74,-2.718 -25.35,-5.968 -13.47,-4.532 -25.66,-11.629 -35.26,-20.551 l -0.32,-0.309 c -1.43,-1.32 -4.4,-4.082 -7.82,-8.429 -0.41,-0.602 -6.52,-9.301 -11.34,-22.633 -3.61,-9.981 -3.46,-24.52 -3.46,-24.668 v -0.039 c 0,-3.422 0.2,-6.793 0.57,-10.141 l 0.02,-0.172 0.15,-1.289 v 0 c 0.3,-2.351 0.69,-4.699 1.16,-7.062 h 0.02 v 0 c 5.29,-1.336 30.42,-7.246 62.51,-7.246 10.41,0 21.55,0.617 32.98,2.218 19.19,2.692 35.35,7.34 48.01,12.078 v -9.027 c -12.69,-4.551 -28.42,-8.883 -46.83,-11.461 -12,-1.66 -23.6,-2.281 -34.3,-2.281 -13.91,0 -26.2,1.051 -35.63,2.242 -10.76,1.348 -19.17,3.02 -24.32,4.199 v 0 h -0.03 c 1.11,-3.511 2.42,-6.929 3.9,-10.211 0,0 0,0 0.01,0 0.01,-0.039 0.03,-0.078 0.05,-0.121 0.2,-0.437 0.4,-0.867 0.61,-1.297 l 0.12,-0.281 0.66,-1.34 0.66,-1.281 0.16,-0.34 c 3.03,-5.719 6.67,-10.969 10.81,-15.539 14.4,-15.801 29.06,-18.32 29.2,-18.328 l 0.23,-0.023 0.22,-0.079 c 0.14,-0.062 13.15,-4.269 32.92,-4.269 19.45,0 38.55,3.937 56.74,11.719 1.62,0.84 3.23,1.718 4.82,2.652 V 692.781 h -190.4 V 2039.67 l 73.77,-81.87 v 1019.84 c -159.04,-70.27 -689.08,-283.79 -1246.43,-283.79 -227.13,0 -431.79,36.16 -610.5,107.8 V 692.781 H 7142.86 V 3183.06 h 1941.28 c 67.36,-60.72 166.44,-98.24 276.25,-98.24 109.76,0 208.69,37.52 275.53,98.24 h 1897.78 v 4 h 5 V 692.781 M 9252.31,948.66 c 1.91,0 3.32,-0.512 4.26,-1.57 1.11,-1.211 1.49,-2.961 1.6,-4.289 l -0.03,-0.039 c -4.35,-11.942 -3.11,-26.801 -3.11,-26.801 l 10.57,-0.441 c 0.22,5.421 0.99,14.89 3.73,22.402 5.25,14.539 11.85,23.637 12.12,24.027 l 0.05,0.082 1.14,1.43 -3.14,2.25 -4.87,3.59 c -0.27,-0.391 -7.95,-7.473 -14.02,-20.563 l -0.89,1.192 c -1.77,1.949 -4.23,2.968 -7.33,2.968 -0.08,0 -0.17,0 -0.25,0 h -0.16 c -1.99,0 -3.36,0.661 -4.26,1.461 0.89,1.141 1.43,2.571 1.43,4.161 0,3.679 -3,6.699 -6.7,6.699 -3.68,0 -6.68,-3.02 -6.68,-6.699 0,-3.731 3,-6.731 6.68,-6.731 l 1.68,0.223 c 1.6,-1.801 4.12,-3.352 7.79,-3.352 0.09,0 0.18,0 0.28,0 0.03,0 0.07,0 0.11,0 m 103.47,86.03 c -5.84,0 -10.56,-4.73 -10.56,-10.57 0,-5.1 3.59,-9.38 8.35,-10.39 l 1.35,-4.65 c -16.36,-2.26 -29.36,-8.64 -29.36,-8.64 l 2.3,-7.081 c 9.89,3.289 18.47,5.313 26.24,6.153 7.62,0.808 13.36,1.158 18.03,1.158 5.02,0 8.71,-0.39 12.95,-1.119 l 1.21,7.659 c 0,0 -8.5,2.62 -20.53,2.62 -2.1,0 -4.3,-0.08 -6.58,-0.26 l -1.21,4.16 c 4.78,1.01 8.38,5.29 8.38,10.39 0,5.84 -4.75,10.57 -10.57,10.57 m -29.53,-125.241 c -15.55,0 -28.15,12.653 -28.15,28.25 0,15.633 12.6,28.289 28.15,28.289 15.57,0 28.18,-12.656 28.18,-28.289 0,-15.597 -12.61,-28.25 -28.18,-28.25 m 82.42,20.84 c -9.61,0 -17.42,7.84 -17.42,17.512 0,9.64 7.81,17.48 17.42,17.48 2.85,0 5.54,-0.691 7.91,-1.91 v -31.172 c -2.37,-1.219 -5.06,-1.91 -7.91,-1.91"
         inkscape:connector-curvature="0" /></clipPath><clipPath
       id="clipPath132"
       clipPathUnits="userSpaceOnUse"><path
         id="path130"
         d="m 9273.08,892.598 h -0.02 c -0.47,2.363 -0.86,4.711 -1.16,7.062 0.3,-2.332 0.69,-4.68 1.18,-7.062"
         inkscape:connector-curvature="0" /></clipPath><clipPath
       id="clipPath144"
       clipPathUnits="userSpaceOnUse"><path
         id="path142"
         d="m 9279.43,872.988 c -0.02,0.043 -0.04,0.082 -0.05,0.121 0.01,-0.039 0.03,-0.078 0.05,-0.121 m -0.06,0.121 c -1.48,3.282 -2.79,6.7 -3.9,10.211 h 0.03 v 0 0 c 1.08,-3.449 2.36,-6.871 3.87,-10.211"
         inkscape:connector-curvature="0" /></clipPath><clipPath
       id="clipPath156"
       clipPathUnits="userSpaceOnUse"><path
         id="path154"
         d="m 9327.86,993.359 -2.3,7.081 c 0,0 13,6.38 29.36,8.64 l -1.35,4.65 c -4.76,1.01 -8.35,5.29 -8.35,10.39 0,5.84 4.72,10.57 10.56,10.57 5.82,0 10.57,-4.73 10.57,-10.57 0,-5.1 -3.6,-9.38 -8.38,-10.39 l 1.21,-4.16 c 2.28,0.18 4.48,0.26 6.58,0.26 12.03,0 20.53,-2.62 20.53,-2.62 l -1.21,-7.659 c -4.24,0.729 -7.93,1.119 -12.95,1.119 -4.67,0 -10.41,-0.35 -18.03,-1.158 -7.77,-0.84 -16.35,-2.864 -26.24,-6.153"
         inkscape:connector-curvature="0" /></clipPath><clipPath
       id="clipPath168"
       clipPathUnits="userSpaceOnUse"><path
         id="path166"
         d="m 9265.6,915.52 -10.57,0.441 c 0,0 -1.24,14.859 3.11,26.801 l 0.03,0.039 c -0.11,1.328 -0.49,3.078 -1.6,4.289 -0.94,1.058 -2.35,1.57 -4.26,1.57 -0.04,0 -0.08,0 -0.11,0 -0.1,0 -0.19,0 -0.28,0 -3.67,0 -6.19,1.551 -7.79,3.352 l -1.68,-0.223 c -3.68,0 -6.68,3 -6.68,6.731 0,3.679 3,6.699 6.68,6.699 3.7,0 6.7,-3.02 6.7,-6.699 0,-1.59 -0.54,-3.02 -1.43,-4.161 0.9,-0.8 2.27,-1.461 4.26,-1.461 h 0.16 c 0.08,0 0.17,0 0.25,0 3.1,0 5.56,-1.019 7.33,-2.968 l 0.89,-1.192 c 6.07,13.09 13.75,20.172 14.02,20.563 l 4.87,-3.59 3.14,-2.25 -1.14,-1.43 -0.05,-0.082 c -0.27,-0.39 -6.87,-9.488 -12.12,-24.027 -2.74,-7.512 -3.51,-16.981 -3.73,-22.402"
         inkscape:connector-curvature="0" /></clipPath><clipPath
       id="clipPath180"
       clipPathUnits="userSpaceOnUse"><path
         id="path178"
         d="m 9355.02,830.211 c -19.77,0 -32.78,4.207 -32.92,4.269 l -0.22,0.079 -0.23,0.023 c -0.14,0.008 -14.8,2.527 -29.2,18.328 -4.14,4.57 -7.78,9.82 -10.81,15.539 l -0.16,0.34 -0.66,1.281 -0.66,1.34 -0.12,0.281 c -0.21,0.43 -0.41,0.86 -0.61,1.297 -0.02,0.043 -0.04,0.082 -0.05,0.121 -0.01,0 -0.01,0 -0.01,0 -1.51,3.34 -2.79,6.762 -3.87,10.211 v 0 c 5.15,-1.179 13.56,-2.851 24.32,-4.199 9.43,-1.191 21.72,-2.242 35.63,-2.242 10.7,0 22.3,0.621 34.3,2.281 18.41,2.578 34.14,6.91 46.83,11.461 v -46.039 c -1.59,-0.934 -3.2,-1.812 -4.82,-2.652 -18.19,-7.782 -37.29,-11.719 -56.74,-11.719"
         inkscape:connector-curvature="0" /></clipPath><clipPath
       id="clipPath192"
       clipPathUnits="userSpaceOnUse"><path
         id="path190"
         d="m 9335.59,885.352 c -32.09,0 -57.22,5.91 -62.51,7.246 v 0 c -0.49,2.382 -0.88,4.73 -1.18,7.062 v 0 l -0.15,1.289 -0.02,0.172 c -0.37,3.348 -0.57,6.719 -0.57,10.141 v 0.039 c 0,0.148 -0.15,14.687 3.46,24.668 4.82,13.332 10.93,22.031 11.34,22.633 3.42,4.347 6.39,7.109 7.82,8.429 l 0.32,0.309 c 9.6,8.922 21.79,16.019 35.26,20.551 9.61,3.25 17.91,5.211 25.35,5.968 7.4,0.789 12.95,1.172 17.42,1.172 4.8,0 8.2,-0.41 12.44,-1.113 7.28,-1.207 19.09,-4.789 32.01,-15.238 v -15.309 c -2.37,1.219 -5.06,1.91 -7.91,1.91 -9.61,0 -17.42,-7.84 -17.42,-17.48 0,-9.672 7.81,-17.512 17.42,-17.512 2.85,0 5.54,0.691 7.91,1.91 v -32.551 c -12.66,-4.738 -28.82,-9.386 -48.01,-12.078 -11.43,-1.601 -22.57,-2.218 -32.98,-2.218 m -9.34,80.636 c -15.55,0 -28.15,-12.656 -28.15,-28.289 0,-15.597 12.6,-28.25 28.15,-28.25 15.57,0 28.18,12.653 28.18,28.25 0,15.633 -12.61,28.289 -28.18,28.289"
         inkscape:connector-curvature="0" /></clipPath><clipPath
       id="clipPath204"
       clipPathUnits="userSpaceOnUse"><path
         id="path202"
         d="m 9360.39,3084.82 c -109.81,0 -208.89,37.52 -276.25,98.24 H 7142.86 v 4 h 1897.77 c 66.84,60.71 165.77,98.23 275.53,98.23 109.81,0 208.89,-37.52 276.25,-98.23 h 1941.29 v -4 H 9635.92 c -66.84,-60.72 -165.77,-98.24 -275.53,-98.24"
         inkscape:connector-curvature="0" /></clipPath></defs><path
     id="path100-3"
     style="fill:#ffffff;fill-opacity:1;fill-rule:nonzero;stroke:none;stroke-width:0.04549732"
     d="m 186.34152,127.46752 c -8.13026,-3.25945 -17.43917,-4.90422 -27.77604,-4.90422 -25.35556,0 -49.47205,9.71423 -56.7078,12.91128 v -46.3999 l 3.35646,3.72455 V 23.08716 c 13.65627,-11.45671 30.3843,-17.34957 49.87536,-17.34957 14.77295,0 26.84815,3.47969 31.25202,4.93099 v 116.79894 m -86.403741,8.06902 c -7.359346,-3.04193 -32.68131,-12.66309 -58.042034,-12.66309 -10.017587,0 -18.893656,1.5208 -26.474415,4.5623 V 10.66858 c 4.441891,-1.4513 16.456828,-4.93099 31.258383,-4.93099 19.490265,0 36.222794,5.89286 49.871684,17.34957 v 69.71207 l 3.386382,-3.72455 v 46.46186 M 192.08327,19.2967 V 6.69576 L 190.25444,5.9897 C 189.63579,5.73759 174.83074,0 155.0895,0 133.95582,0 115.70418,6.451 100.89994,19.14891 86.064488,6.451 67.846527,0 46.679713,0 26.943066,0 12.131886,5.73759 11.514923,5.9897 L 9.7187048,6.69576 v 11.6733 C 3.7244136,19.49054 0,21.50828 0,24.76286 v 120.23929 h 88.551524 c 3.064647,2.76264 7.572438,4.46978 12.568696,4.46978 4.99362,0 9.49476,-1.70714 12.53574,-4.46978 H 200 V 24.76286 c 0,-2.66936 -3.01202,-4.40696 -7.91673,-5.46616"
     inkscape:connector-curvature="0" /></svg>