<?xml version="1.0" encoding="UTF-8" standalone="no"?>
<!-- Created with Inkscape (http://www.inkscape.org/) -->

<svg
   xmlns:dc="http://purl.org/dc/elements/1.1/"
   xmlns:cc="http://creativecommons.org/ns#"
   xmlns:rdf="http://www.w3.org/1999/02/22-rdf-syntax-ns#"
   xmlns:svg="http://www.w3.org/2000/svg"
   xmlns="http://www.w3.org/2000/svg"
   xmlns:sodipodi="http://sodipodi.sourceforge.net/DTD/sodipodi-0.dtd"
   xmlns:inkscape="http://www.inkscape.org/namespaces/inkscape"
   version="1.1"
   id="svg2"
   xml:space="preserve"
   width="1599.9999"
   height="900"
   viewBox="0 0 1599.9999 899.99996"
   sodipodi:docname="fundoStemapunkVazioAoLado.svg"
   inkscape:version="0.92.4 (unknown)"><metadata
     id="metadata8"><rdf:RDF><cc:Work
         rdf:about=""><dc:format>image/svg+xml</dc:format><dc:type
           rdf:resource="http://purl.org/dc/dcmitype/StillImage" /><dc:title></dc:title></cc:Work></rdf:RDF></metadata><defs
     id="defs6"><clipPath
       clipPathUnits="userSpaceOnUse"
       id="clipPath20"><path
         d="M 0,800 H 1200 V 0 H 0 Z"
         id="path18"
         inkscape:connector-curvature="0" /></clipPath><clipPath
       clipPathUnits="userSpaceOnUse"
       id="clipPath160"><path
         d="M 0,800 H 1200 V 0 H 0 Z"
         id="path158"
         inkscape:connector-curvature="0" /></clipPath><clipPath
       clipPathUnits="userSpaceOnUse"
       id="clipPath286"><path
         d="m 1082.79,318.013 h 22.02 v -7.34 h -22.02 z"
         id="path284"
         inkscape:connector-curvature="0" /></clipPath><clipPath
       clipPathUnits="userSpaceOnUse"
       id="clipPath304"><path
         d="m 1046.47,372.793 h 6.85 v -22.03 h -6.85 z"
         id="path302"
         inkscape:connector-curvature="0" /></clipPath><clipPath
       clipPathUnits="userSpaceOnUse"
       id="clipPath322"><path
         d="m 1082.79,416.513 h 22.02 v -7.85 h -22.02 z"
         id="path320"
         inkscape:connector-curvature="0" /></clipPath><clipPath
       clipPathUnits="userSpaceOnUse"
       id="clipPath340"><path
         d="m 1079.18,403.22 h 25.76 v -83.05 h -25.76 z"
         id="path338"
         inkscape:connector-curvature="0" /></clipPath><clipPath
       clipPathUnits="userSpaceOnUse"
       id="clipPath408"><path
         d="m 953.74,405.41 h 30.87 V 319.7 h -30.87 z"
         id="path406"
         inkscape:connector-curvature="0" /></clipPath><clipPath
       clipPathUnits="userSpaceOnUse"
       id="clipPath472"><path
         d="m 985.649,397.293 h 3.88 v -2.157 h -3.88 z"
         id="path470"
         inkscape:connector-curvature="0" /></clipPath><clipPath
       clipPathUnits="userSpaceOnUse"
       id="clipPath508"><path
         d="m 1008.38,389.464 h 3.49 v -3.427 h -3.49 z"
         id="path506"
         inkscape:connector-curvature="0" /></clipPath><clipPath
       clipPathUnits="userSpaceOnUse"
       id="clipPath544"><path
         d="m 1018.59,367.639 h 2.24 v -3.88 h -2.24 z"
         id="path542"
         inkscape:connector-curvature="0" /></clipPath><clipPath
       clipPathUnits="userSpaceOnUse"
       id="clipPath580"><path
         d="m 1010.6,344.49 h 3.37 v -3.546 h -3.37 z"
         id="path578"
         inkscape:connector-curvature="0" /></clipPath><clipPath
       clipPathUnits="userSpaceOnUse"
       id="clipPath616"><path
         d="m 988.846,333.217 h 3.88 v -2.331 h -3.88 z"
         id="path614"
         inkscape:connector-curvature="0" /></clipPath><clipPath
       clipPathUnits="userSpaceOnUse"
       id="clipPath652"><path
         d="m 965.619,340.07 h 3.598 v -3.299 h -3.598 z"
         id="path650"
         inkscape:connector-curvature="0" /></clipPath><clipPath
       clipPathUnits="userSpaceOnUse"
       id="clipPath688"><path
         d="m 954.479,361.255 h 2.424 v -3.879 h -2.424 z"
         id="path686"
         inkscape:connector-curvature="0" /></clipPath><clipPath
       clipPathUnits="userSpaceOnUse"
       id="clipPath724"><path
         d="m 959.376,384.834 h 3.23 v -3.645 h -3.23 z"
         id="path722"
         inkscape:connector-curvature="0" /></clipPath><clipPath
       clipPathUnits="userSpaceOnUse"
       id="clipPath910"><path
         d="m 46.9799,251.24 h 22.02 v -7.34 h -22.02 z"
         id="path908"
         inkscape:connector-curvature="0" /></clipPath><clipPath
       clipPathUnits="userSpaceOnUse"
       id="clipPath928"><path
         d="M 98.4699,306.02 H 105.32 V 283.99 H 98.4699 Z"
         id="path926"
         inkscape:connector-curvature="0" /></clipPath><clipPath
       clipPathUnits="userSpaceOnUse"
       id="clipPath946"><path
         d="m 46.9799,349.74 h 22.02 v -7.85 h -22.02 z"
         id="path944"
         inkscape:connector-curvature="0" /></clipPath><clipPath
       clipPathUnits="userSpaceOnUse"
       id="clipPath1012"><path
         d="m 162.257,330.52 h 3.88 v -2.158 h -3.88 z"
         id="path1010"
         inkscape:connector-curvature="0" /></clipPath><clipPath
       clipPathUnits="userSpaceOnUse"
       id="clipPath1048"><path
         d="m 139.912,322.69 h 3.49 v -3.427 h -3.49 z"
         id="path1046"
         inkscape:connector-curvature="0" /></clipPath><clipPath
       clipPathUnits="userSpaceOnUse"
       id="clipPath1084"><path
         d="m 130.959,300.865 h 2.239 v -3.879 h -2.239 z"
         id="path1082"
         inkscape:connector-curvature="0" /></clipPath><clipPath
       clipPathUnits="userSpaceOnUse"
       id="clipPath1120"><path
         d="m 137.818,277.716 h 3.365 v -3.545 h -3.365 z"
         id="path1118"
         inkscape:connector-curvature="0" /></clipPath><clipPath
       clipPathUnits="userSpaceOnUse"
       id="clipPath1156"><path
         d="m 159.06,266.444 h 3.88 v -2.332 h -3.88 z"
         id="path1154"
         inkscape:connector-curvature="0" /></clipPath><clipPath
       clipPathUnits="userSpaceOnUse"
       id="clipPath1192"><path
         d="m 182.57,273.296 h 3.597 v -3.299 h -3.597 z"
         id="path1190"
         inkscape:connector-curvature="0" /></clipPath><clipPath
       clipPathUnits="userSpaceOnUse"
       id="clipPath1228"><path
         d="m 194.884,294.481 h 2.423 v -3.878 h -2.423 z"
         id="path1226"
         inkscape:connector-curvature="0" /></clipPath><clipPath
       clipPathUnits="userSpaceOnUse"
       id="clipPath1264"><path
         d="m 189.18,318.061 h 3.231 v -3.645 h -3.231 z"
         id="path1262"
         inkscape:connector-curvature="0" /></clipPath><clipPath
       clipPathUnits="userSpaceOnUse"
       id="clipPath1292"><path
         d="m 76.09,313.9 h 27.64 V 276.11 H 76.09 Z"
         id="path1290"
         inkscape:connector-curvature="0" /></clipPath><clipPath
       clipPathUnits="userSpaceOnUse"
       id="clipPath1376"><path
         d="M 0,800 H 1200 V 0 H 0 Z"
         id="path1374"
         inkscape:connector-curvature="0" /></clipPath></defs><sodipodi:namedview
     pagecolor="#ffffff"
     bordercolor="#666666"
     borderopacity="1"
     objecttolerance="10"
     gridtolerance="10"
     guidetolerance="10"
     inkscape:pageopacity="0"
     inkscape:pageshadow="2"
     inkscape:window-width="1366"
     inkscape:window-height="703"
     id="namedview4"
     showgrid="false"
     inkscape:zoom="0.22124998"
     inkscape:cx="1128.9202"
     inkscape:cy="438.78102"
     inkscape:window-x="0"
     inkscape:window-y="0"
     inkscape:window-maximized="1"
     inkscape:current-layer="g10"
     inkscape:object-paths="true"
     inkscape:snap-intersection-paths="true"
     inkscape:snap-smooth-nodes="true"
     inkscape:snap-midpoints="true"
     showguides="true"
     inkscape:guide-bbox="true"
     inkscape:object-nodes="true"><sodipodi:guide
       position="238.78512,116.10666"
       orientation="1,0"
       id="guide3509"
       inkscape:locked="false" /></sodipodi:namedview><g
     id="g10"
     inkscape:groupmode="layer"
     inkscape:label="41770-O31UYL"
     transform="matrix(1.3333333,0,0,-1.3333333,-4.2666666e-5,900)"><path
       d="M 1200,0 H 3.2e-5 V 675.00002 H 1200 Z"
       style="fill:#faefde;fill-opacity:1;fill-rule:nonzero;stroke:none;stroke-width:0.91855866"
       id="path12"
       inkscape:connector-curvature="0" /><path
       d="m 48.250032,0.17 h -19 v 306.93573 h 19 z"
       style="fill:#a1c3ab;fill-opacity:1;fill-rule:nonzero;stroke:none;stroke-width:1.19161522"
       id="path146"
       inkscape:connector-curvature="0" /><path
       d="m 60.978032,675.00002 h 19 v -35.54393 h -19 z"
       style="fill:#a1c3ab;fill-opacity:1;fill-rule:nonzero;stroke:none;stroke-width:0.99629194"
       id="path178"
       inkscape:connector-curvature="0"
       sodipodi:nodetypes="ccccc" /><path
       d="M 3.2000001e-5,588.89509 H 43.610032 v 19 H 3.2000001e-5 Z"
       style="fill:#a1c3ab;fill-opacity:1;fill-rule:nonzero;stroke:none"
       id="path180"
       inkscape:connector-curvature="0"
       sodipodi:nodetypes="ccccc" /><path
       inkscape:connector-curvature="0"
       id="path184"
       style="fill:#faaf61;fill-opacity:1;fill-rule:nonzero;stroke:none"
       d="m 22.807632,587.61749 h 8.53 c 38.68,0 50.14,21.47 50.14,60.14 v 17.4 h -22 v -17.4 c 0,-26.54 -1.6,-38.14 -28.14,-38.14 h -8.53 z"
       sodipodi:nodetypes="cssccsscc" /><path
       d="m 22.808032,587.61709 h 7.73 v 22 h -7.73 z"
       style="fill:#f69e4e;fill-opacity:1;fill-rule:nonzero;stroke:none"
       id="path186"
       inkscape:connector-curvature="0"
       sodipodi:nodetypes="ccccc" /><path
       d="m 59.478032,656.63709 h 22 v 8.52 h -22 z"
       style="fill:#f69e4e;fill-opacity:1;fill-rule:nonzero;stroke:none"
       id="path188"
       inkscape:connector-curvature="0"
       sodipodi:nodetypes="ccccc" /><path
       inkscape:connector-curvature="0"
       id="path192"
       style="fill:#faaf61;fill-opacity:1;fill-rule:nonzero;stroke:none"
       d="m 17.499032,583.83209 v 30.298 c 0,3.047 2.47,5.517 5.518,5.517 3.047,0 5.518,-2.47 5.518,-5.517 v -30.298 c 0,-3.047 -2.471,-5.518 -5.518,-5.518 -3.048,0 -5.518,2.471 -5.518,5.518"
       sodipodi:nodetypes="csssssc" /><path
       inkscape:connector-curvature="0"
       id="path196"
       style="fill:#faaf61;fill-opacity:1;fill-rule:nonzero;stroke:none"
       d="m 50.396732,665.15759 c 0,3.047 2.47,5.518 5.518,5.518 h 30.297 c 3.048,0 5.518,-2.471 5.518,-5.518 0,-3.047 -2.47,-5.518 -5.518,-5.518 h -30.297 c -3.048,0 -5.518,2.471 -5.518,5.518"
       sodipodi:nodetypes="csssssc" /><path
       d="M 96.590032,0.66 H 115.59003 V 675.00002 H 96.590032 Z"
       style="fill:#a1c3ab;fill-opacity:1;fill-rule:nonzero;stroke:none;stroke-width:0.91850567"
       id="path240"
       inkscape:connector-curvature="0" /><path
       d="m 96.590032,386.30509 h 18.999998 v 27 H 96.590032 Z"
       style="fill:#7fa492;fill-opacity:1;fill-rule:nonzero;stroke:none"
       id="path254"
       inkscape:connector-curvature="0"
       sodipodi:nodetypes="ccccc" /><path
       d="M 96.590032,10 H 115.59003 V 137.17 H 96.590032 Z"
       style="fill:#7fa492;fill-opacity:1;fill-rule:nonzero;stroke:none"
       id="path738"
       inkscape:connector-curvature="0" /><path
       style="fill:#a1c3ab;fill-opacity:1;fill-rule:nonzero;stroke:none;stroke-width:1.55085528"
       d="M 238.78516 783.89258 L 238.78516 809.22656 L 1600 809.22656 L 1600 783.89258 L 238.78516 783.89258 z "
       transform="matrix(0.75000002,0,0,-0.75000002,3.2e-5,675.00002)"
       id="path742" /><g
       id="g744"
       transform="matrix(-1,0,0,1,160.59773,87.08)"><path
         d="m 0,0 v -19 h -25.99 v 16.19 c 0,0.94 0.03,1.88 0.1,2.81 z"
         style="fill:#7fa492;fill-opacity:1;fill-rule:nonzero;stroke:none"
         id="path746"
         inkscape:connector-curvature="0" /></g><path
       d="m 29.250032,10 h 19 v 127.17 h -19 z"
       style="fill:#7fa492;fill-opacity:1;fill-rule:nonzero;stroke:none"
       id="path740"
       inkscape:connector-curvature="0" /><path
       style="fill:#a8675a;fill-opacity:1;fill-rule:nonzero;stroke:none;stroke-width:0.99999994"
       d="m 136.2876,127.16947 c 22.76003,0 41.3613,-17.70985 42.8013,-40.089852 0.07,-0.93 0.0996,-1.86957 0.0996,-2.809567 V 5.2866668e-4 H 0 V 127.16947 Z"
       id="path750"
       inkscape:connector-curvature="0" /><g
       id="g3480"
       transform="matrix(-1,0,0,1,1167.9991,0)"><g
         transform="matrix(1,0,0,1.1581312,1104.3919,99.217096)"
         id="g752"><path
           inkscape:connector-curvature="0"
           id="path754"
           style="fill:#8c554a;fill-opacity:1;fill-rule:nonzero;stroke:none"
           d="M 0,0 V -85.67 H -23.55 V 0 c 0,4.95 3.05,9.18 7.38,10.92 1.36,0.55 2.84,0.85 4.4,0.85 C -5.27,11.77 0,6.5 0,0" /></g><g
         transform="translate(1100.987,100.914)"
         id="g804"><path
           inkscape:connector-curvature="0"
           id="path806"
           style="fill:#caccce;fill-opacity:1;fill-rule:nonzero;stroke:none"
           d="m 0,0 v -54.658 c 0,-3.682 -2.99,-6.672 -6.672,-6.672 h -3.234 c -3.682,0 -6.671,2.99 -6.671,6.672 V 0 Z" /></g><g
         transform="translate(1113.8249,116.6001)"
         id="g812"><path
           inkscape:connector-curvature="0"
           id="path814"
           style="fill:#faaf61;fill-opacity:1;fill-rule:nonzero;stroke:none"
           d="m 0,0 c 0,-11.713 -9.495,-21.208 -21.208,-21.208 -11.712,0 -21.207,9.495 -21.207,21.208 0,11.713 9.495,21.208 21.207,21.208 C -9.495,21.208 0,11.713 0,0" /></g><g
         transform="translate(1092.6171,99.737)"
         id="g816"><path
           inkscape:connector-curvature="0"
           id="path818"
           style="fill:#f69e4e;fill-opacity:1;fill-rule:nonzero;stroke:none"
           d="m 0,0 c -10.979,0 -20.01,8.343 -21.098,19.035 -0.072,-0.714 -0.11,-1.439 -0.11,-2.172 0,-11.713 9.495,-21.208 21.208,-21.208 11.713,0 21.208,9.495 21.208,21.208 0,0.733 -0.038,1.458 -0.11,2.172 C 20.01,8.343 10.979,0 0,0" /></g><g
         transform="translate(1094.9131,126.607)"
         id="g820"><path
           inkscape:connector-curvature="0"
           id="path822"
           style="fill:#fcbf6e;fill-opacity:1;fill-rule:nonzero;stroke:none"
           d="m 0,0 c 0,-4.327 -3.508,-7.835 -7.834,-7.835 -4.327,0 -7.835,3.508 -7.835,7.835 0,4.327 3.508,7.835 7.835,7.835 C -3.508,7.835 0,4.327 0,0" /></g></g><path
       d="m 158.58908,461.26509 h 19 v 213.73493 h -19 z"
       style="fill:#a1c3ab;fill-opacity:1;fill-rule:nonzero;stroke:none;stroke-width:0.99944353"
       id="path234"
       inkscape:connector-curvature="0"
       sodipodi:nodetypes="ccccc" /><path
       style="fill:#a1c3ab;fill-opacity:1;fill-rule:nonzero;stroke:none;stroke-width:1.33333325"
       d="m 0,520.92845 v 25.33399 h 147.08984 v -25.33399 z"
       transform="matrix(0.75000002,0,0,-0.75000002,0,800.00005)"
       id="path256"
       inkscape:connector-curvature="0"
       sodipodi:nodetypes="ccccc" /><path
       inkscape:connector-curvature="0"
       id="path262"
       style="fill:#faaf61;fill-opacity:1;fill-rule:nonzero;stroke:none"
       d="m 179.08888,487.47329 v -28.53 c 0,-38.68 -31.47,-70.14 -70.14,-70.14 h -17.4 v 22 h 17.4 c 26.54,0 48.14,21.6 48.14,48.14 v 28.53 z"
       sodipodi:nodetypes="cssccsscc" /><path
       d="m 179.08908,479.74309 h -22 v 7.73 h 22 z"
       style="fill:#f69e4e;fill-opacity:1;fill-rule:nonzero;stroke:none"
       id="path264"
       inkscape:connector-curvature="0"
       sodipodi:nodetypes="ccccc" /><path
       d="m 100.06908,388.80309 h -8.520001 v 22 h 8.520001 z"
       style="fill:#f69e4e;fill-opacity:1;fill-rule:nonzero;stroke:none"
       id="path266"
       inkscape:connector-curvature="0"
       sodipodi:nodetypes="ccccc" /><path
       inkscape:connector-curvature="0"
       id="path270"
       style="fill:#faaf61;fill-opacity:1;fill-rule:nonzero;stroke:none"
       d="m 182.87428,492.78169 h -30.298 c -3.047,0 -5.517,-2.47 -5.517,-5.518 0,-3.047 2.47,-5.518 5.517,-5.518 h 30.298 c 3.047,0 5.518,2.471 5.518,5.518 0,3.048 -2.471,5.518 -5.518,5.518"
       sodipodi:nodetypes="csssssc" /><path
       inkscape:connector-curvature="0"
       id="path826"
       style="fill:#ffffff;fill-opacity:1;fill-rule:nonzero;stroke:none"
       d="m 138.78408,261.27805 c 7.65,4.74 15.042,9.895 22.133,15.436 5.028,3.928 10.978,8.314 17.159,6.733 2.044,-0.522 3.865,-1.669 5.82,-2.459 4.618,-1.865 10.519,-1.396 13.81,2.342 3.292,3.737 2.197,10.836 -2.552,12.336 4.709,0.128 9.386,2.691 11.647,6.824 2.261,4.132 1.776,9.721 -1.479,13.126 -3.255,3.404 -9.149,4.038 -12.822,1.089 0.856,5.099 -3.319,10.469 -8.472,10.896 -5.153,0.428 -10.155,-4.181 -10.151,-9.351 -0.987,3.829 -6.121,5.526 -9.642,3.727 -3.521,-1.799 -5.254,-6.092 -4.948,-10.034 0.305,-3.943 2.302,-7.562 4.657,-10.738 0.777,-1.047 1.629,-2.135 1.773,-3.431 0.149,-1.332 -0.482,-2.618 -1.149,-3.781 -6.933,-12.08 -19.487,-20.292 -25.784,-32.715"
       sodipodi:nodetypes="cccccccccccsccccc" /><path
       inkscape:connector-curvature="0"
       id="path216"
       style="fill:#cf6b49;fill-opacity:1;fill-rule:nonzero;stroke:none"
       d="m 50.05088,281.29759 v 8.53 c 0,38.68 -21.47,50.14 -60.14,50.14 h -17.4 v -22 h 17.4 c 26.54,0 38.14,-1.6 38.14,-28.14 v -8.53 z"
       sodipodi:nodetypes="cssccsscc" /><path
       d="m 50.05068,289.02809 h -22 v -7.73 h 22 z"
       style="fill:#bd5538;fill-opacity:1;fill-rule:nonzero;stroke:none"
       id="path218"
       inkscape:connector-curvature="0"
       sodipodi:nodetypes="ccccc" /><path
       d="m -18.96932,339.96809 h -8.52 v -22 h 8.52 z"
       style="fill:#bd5538;fill-opacity:1;fill-rule:nonzero;stroke:none"
       id="path220"
       inkscape:connector-curvature="0"
       sodipodi:nodetypes="ccccc" /><path
       inkscape:connector-curvature="0"
       id="path224"
       style="fill:#cf6b49;fill-opacity:1;fill-rule:nonzero;stroke:none"
       d="m 18.02278,281.50509 c 0,-0.28 0.02,-0.56 0.07,-0.83 0.4,-2.66 2.68,-4.69 5.45,-4.69 h 30.29 c 3.05,0 5.52,2.47 5.52,5.52 0,3.05 -2.47,5.52 -5.52,5.52 h -30.29 c -3.05,0 -5.52,-2.47 -5.52,-5.52"
       sodipodi:nodetypes="ccsssssc" /><path
       inkscape:connector-curvature="0"
       id="path228"
       style="fill:#cf6b49;fill-opacity:1;fill-rule:nonzero;stroke:none"
       d="m -27.48912,308.88669 c -3.047,0 -5.518,2.47 -5.518,5.518 v 30.297 c 0,3.048 2.471,5.518 5.518,5.518 3.047,0 5.518,-2.47 5.518,-5.518 v -30.297 c 0,-3.048 -2.471,-5.518 -5.518,-5.518"
       sodipodi:nodetypes="csssssc" /><path
       d="m 95.190032,185.93509 h 22.019998 v 105.84 H 95.190032 Z"
       style="fill:#ffd37a;fill-opacity:1;fill-rule:nonzero;stroke:none"
       id="path276"
       inkscape:connector-curvature="0"
       sodipodi:nodetypes="ccccc" /><path
       inkscape:connector-curvature="0"
       id="path288"
       style="fill:#ffd37a;fill-opacity:1;fill-rule:nonzero;stroke:none"
       d="m 117.214,193.27809 h -22.02 v -7.34 h 22.02 z"
       sodipodi:nodetypes="ccccc" /><path
       inkscape:connector-curvature="0"
       id="path296"
       style="fill:#ffd37a;fill-opacity:1;fill-rule:nonzero;stroke:none"
       d="m 120.51883,181.57379 h -28.631 c -2.679,0 -4.851,2.172 -4.851,4.851 0,2.679 2.172,4.851 4.851,4.851 h 28.631 c 2.679,0 4.851,-2.172 4.851,-4.851 0,-2.679 -2.172,-4.851 -4.851,-4.851"
       sodipodi:nodetypes="csssssc" /><path
       inkscape:connector-curvature="0"
       id="path324"
       style="fill:#ffd37a;fill-opacity:1;fill-rule:nonzero;stroke:none"
       d="m 117.214,291.77809 h -22.02 v -7.85 h 22.02 z"
       sodipodi:nodetypes="ccccc" /><path
       inkscape:connector-curvature="0"
       id="path332"
       style="fill:#ffd37a;fill-opacity:1;fill-rule:nonzero;stroke:none"
       d="m 120.51883,286.92839 h -28.631 c -2.679,0 -4.851,2.172 -4.851,4.851 0,2.679 2.172,4.851 4.851,4.851 h 28.631 c 2.679,0 4.851,-2.172 4.851,-4.851 0,-2.679 -2.172,-4.851 -4.851,-4.851"
       sodipodi:nodetypes="csssssc" /><path
       d="m 95.1899,238.62509 c 0.05,0.35 0.12,0.68 0.21,1.02 v 0.03 c 0,0.01 0.01,0.01 0.01,0.03 0,0.01 0,0.01 0.01,0.02 0.26,1 0.66,1.94 1.17,2.8 0.03,0.06 0.07,0.13 0.11,0.19 l -1.51,1.51 v 7.26 l 3.77,-3.77 0.33,-0.33 1.04,-1.04 c 0.57,0.35 1.16,0.65 1.79,0.89 h 0.01 c 0.45,0.18 0.91,0.33 1.39,0.44 v 10.5 c 0,0.95 0.04,1.94 0.08,2.94 0.11,2.47 0.25,5.04 0,7.4 -0.04,0.37 -0.09,0.74 -0.15,1.1 -0.05,0.28 -3.94,-0.78 -6.86,-1.63 -0.5,-0.16 -0.98,-0.3 -1.4,-0.43 v 9.48 c 0.46,0.13 0.93,0.25 1.4,0.35 1.05,0.25 2.11,0.45 3.18,0.62 2.06,0.32 4.17,0.48 6.32,0.48 3.27,0 6.45,-0.38 9.5,-1.1 0.55,-0.12 1.09,-0.26 1.62,-0.41 v -9.31 c -0.54,0.18 -1.08,0.35 -1.62,0.51 -2.25,0.65 -4.57,1.1 -6.88,1.37 -0.05,-0.51 -0.09,-1.02 -0.13,-1.53 -0.36,-4.98 -0.14,-10.14 0,-15.22 v -0.01 c 0.02,-0.89 0.04,-1.78 0.06,-2.66 0,-0.2 0.01,-0.4 0.01,-0.6 0,-0.49 0.01,-0.98 0.01,-1.47 v -0.38 c 0.48,-0.12 0.94,-0.26 1.39,-0.45 0.63,-0.23 1.24,-0.53 1.8,-0.88 l 1.04,1.04 0.33,0.33 0.34,0.34 0.22,0.22 1.26,1.26 0.55,0.55 1.62,1.62 v -3.65 h 3.61 l -3.41,-3.41 -0.2,-0.2 -1.06,-1.06 -0.17,-0.17 -0.39,-0.39 -0.11,-0.11 c 0.04,-0.06 0.08,-0.12 0.11,-0.19 0.52,-0.85 0.9,-1.8 1.17,-2.79 0.01,-0.01 0.01,-0.03 0.01,-0.04 0,-0.01 0.01,-0.01 0.01,-0.03 v -0.03 c 0.22,-0.85 0.34,-1.75 0.34,-2.68 0,-0.1 -0.01,-0.2 -0.01,-0.31 0,0.02 -0.01,0.04 -0.01,0.06 -0.03,-1.31 -0.28,-2.57 -0.73,-3.72 -0.22,-0.56 -0.48,-1.09 -0.78,-1.6 -0.03,-0.07 -0.07,-0.13 -0.11,-0.19 l 0.11,-0.11 0.29,-0.29 1.33,-1.32 0.2,-0.2 3.25,-3.25 h -3.45 v -3.81 l -1.62,1.62 -2.19,2.19 -1.55,1.55 c -0.97,-0.6 -2.05,-1.06 -3.19,-1.33 v -16.11 c 0,-0.57 -0.05,-1.18 -0.08,-1.8 -0.01,-0.07 -0.01,-0.14 -0.01,-0.21 v -0.01 c -0.02,-0.42 -0.02,-0.82 0,-1.21 0,-0.06 0,-0.12 0.01,-0.18 0.01,-0.22 0.04,-0.44 0.08,-0.65 0.1,-0.51 0.3,-0.87 0.56,-1.11 1.02,-0.9 3.04,-0.12 4.63,0.24 0.56,0.13 1.14,0.28 1.74,0.44 0.53,0.15 1.07,0.31 1.62,0.48 v -9.19 c -0.54,-0.15 -1.08,-0.28 -1.62,-0.4 -3.05,-0.72 -6.23,-1.1 -9.5,-1.1 -2.15,0 -4.26,0.16 -6.32,0.48 -1.07,0.17 -2.13,0.37 -3.18,0.62 -0.47,0.1 -0.94,0.22 -1.4,0.35 v 9.26 c 0.46,-0.17 0.93,-0.32 1.4,-0.46 2.25,-0.7 4.57,-1.14 6.93,-1.32 -0.07,0.01 -0.1,1 -0.12,2.56 0,0.37 -0.01,0.78 0,1.21 v 0.01 c -0.04,5.62 0.11,15.75 0.12,17.88 v 0.22 c -1.14,0.27 -2.21,0.73 -3.19,1.32 l -1.55,-1.54 -0.38,-0.38 -1.81,-1.81 -1.4,-1.4 v 7.26 l 1.11,1.1 0.29,0.29 0.11,0.11 c -0.04,0.06 -0.08,0.12 -0.11,0.19 -0.3,0.51 -0.56,1.04 -0.78,1.6 -0.29,0.76 -0.5,1.56 -0.62,2.39 -0.06,0.44 -0.1,0.88 -0.11,1.33 0,-0.02 -0.01,-0.04 -0.01,-0.06 0,0.11 -0.01,0.21 -0.01,0.31 0,0.57 0.04,1.13 0.13,1.67"
       style="fill:#ffd37a;fill-opacity:1;fill-rule:nonzero;stroke:none"
       id="path342"
       inkscape:connector-curvature="0"
       sodipodi:nodetypes="ccsscccccccccccsccccccccscccccccccssccccccccccccccccccccsscsccccccccccccccccscsccccccccccscccccccccccccccccccccccccsc" /><path
       inkscape:connector-curvature="0"
       id="path388"
       style="fill:#fbbf83;fill-opacity:1;fill-rule:nonzero;stroke:none"
       d="m 106.09013,249.83129 c -5.804,0 -10.525,-4.625 -10.687,-10.39 -0.002,0.101 -0.007,0.202 -0.007,0.304 0,5.907 4.788,10.695 10.694,10.695 5.906,0 10.694,-4.788 10.694,-10.695 0,-0.102 -0.005,-0.203 -0.007,-0.304 -0.162,5.765 -4.883,10.39 -10.687,10.39"
       sodipodi:nodetypes="ccssscc" /><path
       inkscape:connector-curvature="0"
       id="path400"
       style="fill:#fdce8b;fill-opacity:1;fill-rule:nonzero;stroke:none"
       d="m 106.09013,246.40119 c -3.867,0 -7.009,-3.07 -7.141,-6.905 -0.003,0.084 -0.013,0.165 -0.013,0.249 0,3.951 3.203,7.154 7.154,7.154 3.951,0 7.153,-3.203 7.153,-7.154 0,-0.084 -0.009,-0.165 -0.012,-0.249 -0.132,3.835 -3.274,6.905 -7.141,6.905"
       sodipodi:nodetypes="ccssscc" /><path
       inkscape:connector-curvature="0"
       id="path420"
       style="fill:#f3b861;fill-opacity:1;fill-rule:nonzero;stroke:none"
       d="m 68.9595,239.44129 c 0,-20.568 16.674,-37.242 37.242,-37.242 20.569,0 37.243,16.674 37.243,37.242 0,20.568 -16.674,37.242 -37.243,37.242 -20.568,0 -37.242,-16.674 -37.242,-37.242"
       sodipodi:nodetypes="csssc" /><path
       inkscape:connector-curvature="0"
       id="path424"
       style="fill:#ffffff;fill-opacity:1;fill-rule:nonzero;stroke:none"
       d="m 76.9645,239.44129 c 0,-16.147 13.09,-29.238 29.237,-29.238 16.148,0 29.238,13.091 29.238,29.238 0,16.147 -13.09,29.237 -29.238,29.237 -16.147,0 -29.237,-13.09 -29.237,-29.237"
       sodipodi:nodetypes="csssc" /><path
       inkscape:connector-curvature="0"
       id="path428"
       style="fill:#e2e3e4;fill-opacity:1;fill-rule:nonzero;stroke:none"
       d="m 106.202,267.43999 c -15.94,0 -28.9,-12.757 -29.23,-28.618 -0.004,0.206 -0.007,0.412 -0.007,0.619 0,16.148 13.089,29.238 29.237,29.238 16.147,0 29.237,-13.09 29.237,-29.238 0,-0.207 -0.003,-0.413 -0.007,-0.619 -0.33,15.861 -13.29,28.618 -29.23,28.618"
       sodipodi:nodetypes="ccssscc" /><path
       inkscape:connector-curvature="0"
       id="path432"
       style="fill:#d67c61;fill-opacity:1;fill-rule:nonzero;stroke:none"
       d="m 130.4321,239.44219 c 0,-3.805 -0.881,-7.402 -2.443,-10.606 h -12.109 c 2.876,2.626 4.681,6.403 4.681,10.606 0,1.382 -0.194,2.721 -0.561,3.986 -1.728,5.991 -7.25,10.374 -13.799,10.374 -7.931,0 -14.36,-6.429 -14.36,-14.36 0,-4.203 1.803,-7.98 4.678,-10.606 h -12.108 c -1.562,3.204 -2.441,6.801 -2.441,10.606 0,13.382 10.847,24.231 24.231,24.231 12.025,0 22.002,-8.761 23.902,-20.245 0.217,-1.296 0.329,-2.627 0.329,-3.986"
       sodipodi:nodetypes="cccscssccsscc" /><path
       inkscape:connector-curvature="0"
       id="path436"
       style="fill:#ffcf78;fill-opacity:1;fill-rule:nonzero;stroke:none"
       d="m 101.8007,239.44129 c 0,2.277 1.697,4.154 3.895,4.445 l 0.472,21.924 h 0.243 l 0.472,-21.924 c 2.198,-0.291 3.895,-2.168 3.895,-4.445 0,-2.211 -1.6,-4.044 -3.704,-4.416 l 0.146,-6.769 h -1.86 l 0.145,6.769 c -2.104,0.372 -3.704,2.205 -3.704,4.416"
       sodipodi:nodetypes="cccccsccccc" /><path
       inkscape:connector-curvature="0"
       id="path440"
       style="fill:#e7b057;fill-opacity:1;fill-rule:nonzero;stroke:none"
       d="m 103.6604,238.95799 c 0,-1.561 1.177,-2.826 2.629,-2.826 1.452,0 2.629,1.265 2.629,2.826 0,1.561 -1.177,2.826 -2.629,2.826 -1.452,0 -2.629,-1.265 -2.629,-2.826"
       sodipodi:nodetypes="csssc" /><path
       inkscape:connector-curvature="0"
       id="path444"
       style="fill:#ffde8f;fill-opacity:1;fill-rule:nonzero;stroke:none"
       d="m 103.6604,239.44129 c 0,-1.452 1.177,-2.629 2.629,-2.629 1.452,0 2.629,1.177 2.629,2.629 0,1.452 -1.177,2.629 -2.629,2.629 -1.452,0 -2.629,-1.177 -2.629,-2.629"
       sodipodi:nodetypes="csssc" /><path
       inkscape:connector-curvature="0"
       id="path448"
       style="fill:#80301a;fill-opacity:1;fill-rule:nonzero;stroke:none"
       d="m 130.4321,239.44219 c 0,-3.805 -0.881,-7.402 -2.443,-10.606 h -12.109 c 2.876,2.626 4.681,6.403 4.681,10.606 0,1.382 -0.194,2.721 -0.561,3.986 h 10.103 c 0.217,-1.296 0.329,-2.627 0.329,-3.986"
       sodipodi:nodetypes="cccsccc" /><path
       inkscape:connector-curvature="0"
       id="path452"
       style="fill:#fdc26b;fill-opacity:1;fill-rule:nonzero;stroke:none"
       d="m 104.104,272.93559 c -0.512,-1.819 1.113,-3.444 2.933,-2.933 0.755,0.213 1.36,0.817 1.572,1.573 0.512,1.819 -1.113,3.444 -2.933,2.932 -0.755,-0.212 -1.36,-0.817 -1.572,-1.572"
       sodipodi:nodetypes="ccccc" /><path
       inkscape:connector-curvature="0"
       id="path456"
       style="fill:#ea9d40;fill-opacity:1;fill-rule:nonzero;stroke:none"
       d="m 104.104,273.02389 c -0.512,-1.819 1.113,-3.444 2.933,-2.933 0.755,0.213 1.36,0.818 1.572,1.573 0.512,1.819 -1.113,3.444 -2.933,2.932 -0.755,-0.212 -1.36,-0.817 -1.572,-1.572"
       sodipodi:nodetypes="ccccc" /><path
       inkscape:connector-curvature="0"
       id="path460"
       style="fill:#eb9039;fill-opacity:1;fill-rule:nonzero;stroke:none"
       d="m 105.6764,274.42929 c -0.755,-0.212 -1.36,-0.817 -1.572,-1.572 -0.057,-0.201 -0.083,-0.399 -0.09,-0.592 -0.008,0.245 0.017,0.499 0.09,0.759 0.212,0.755 0.817,1.36 1.572,1.572 1.619,0.455 3.079,-0.782 3.023,-2.341 -0.05,1.479 -1.463,2.613 -3.023,2.174"
       sodipodi:nodetypes="ccccccc" /><path
       inkscape:connector-curvature="0"
       id="path464"
       style="fill:#fdc880;fill-opacity:1;fill-rule:nonzero;stroke:none"
       d="m 104.4928,272.90649 c -0.423,-1.505 0.921,-2.85 2.427,-2.426 0.624,0.175 1.125,0.676 1.3,1.301 0.424,1.505 -0.921,2.849 -2.426,2.426 -0.625,-0.176 -1.125,-0.676 -1.301,-1.301"
       sodipodi:nodetypes="ccccc" /><path
       d="m 106.9193,270.89729 c 0.625,0.176 1.125,0.676 1.301,1.301 0.034,0.121 0.053,0.241 0.065,0.36 0.027,-0.248 0.01,-0.51 -0.065,-0.777 -0.176,-0.625 -0.676,-1.126 -1.301,-1.301 -1.384,-0.389 -2.628,0.716 -2.491,2.066 0.126,-1.149 1.253,-1.997 2.491,-1.649"
       style="fill:#f1b670;fill-opacity:1;fill-rule:nonzero;stroke:none"
       id="path474"
       inkscape:connector-curvature="0"
       sodipodi:nodetypes="ccccccc" /><path
       inkscape:connector-curvature="0"
       id="path484"
       style="fill:#fdd199;fill-opacity:1;fill-rule:nonzero;stroke:none"
       d="m 106.1493,273.55409 c -0.162,-0.577 0.353,-1.092 0.93,-0.93 0.239,0.068 0.431,0.259 0.498,0.499 0.162,0.577 -0.353,1.092 -0.929,0.929 -0.24,-0.067 -0.432,-0.259 -0.499,-0.498"
       sodipodi:nodetypes="ccccc" /><path
       inkscape:connector-curvature="0"
       id="path488"
       style="fill:#fdc26b;fill-opacity:1;fill-rule:nonzero;stroke:none"
       d="m 81.5696,262.11779 c 0.884,-1.67 3.182,-1.726 4.146,-0.101 0.4,0.675 0.421,1.53 0.054,2.223 -0.884,1.671 -3.182,1.726 -4.146,0.101 -0.4,-0.675 -0.421,-1.53 -0.054,-2.223"
       sodipodi:nodetypes="ccccc" /><path
       inkscape:connector-curvature="0"
       id="path492"
       style="fill:#ea9d40;fill-opacity:1;fill-rule:nonzero;stroke:none"
       d="m 81.5087,262.18169 c 0.885,-1.67 3.182,-1.726 4.146,-0.101 0.401,0.675 0.421,1.53 0.054,2.223 -0.884,1.671 -3.182,1.726 -4.146,0.101 -0.4,-0.675 -0.421,-1.53 -0.054,-2.223"
       sodipodi:nodetypes="ccccc" /><path
       inkscape:connector-curvature="0"
       id="path496"
       style="fill:#eb9039;fill-opacity:1;fill-rule:nonzero;stroke:none"
       d="m 81.6778,264.28389 c -0.4,-0.675 -0.421,-1.53 -0.054,-2.223 0.098,-0.184 0.215,-0.346 0.343,-0.491 -0.175,0.173 -0.332,0.374 -0.458,0.612 -0.367,0.693 -0.347,1.548 0.054,2.223 0.858,1.446 2.768,1.558 3.803,0.39 -1.056,1.037 -2.861,0.883 -3.688,-0.511"
       sodipodi:nodetypes="ccccccc" /><path
       inkscape:connector-curvature="0"
       id="path500"
       style="fill:#fdc880;fill-opacity:1;fill-rule:nonzero;stroke:none"
       d="m 81.8712,262.36489 c 0.732,-1.382 2.633,-1.428 3.43,-0.083 0.332,0.558 0.349,1.265 0.045,1.839 -0.732,1.382 -2.632,1.428 -3.43,0.083 -0.332,-0.558 -0.349,-1.265 -0.045,-1.839"
       sodipodi:nodetypes="ccccc" /><path
       d="m 85.0139,262.58379 c 0.331,0.558 0.348,1.266 0.045,1.839 -0.06,0.112 -0.129,0.212 -0.202,0.306 0.191,-0.161 0.359,-0.362 0.49,-0.608 0.303,-0.573 0.286,-1.281 -0.045,-1.839 -0.734,-1.236 -2.397,-1.294 -3.229,-0.222 0.884,-0.745 2.285,-0.582 2.941,0.524"
       style="fill:#f1b670;fill-opacity:1;fill-rule:nonzero;stroke:none"
       id="path510"
       inkscape:connector-curvature="0"
       sodipodi:nodetypes="ccccccc" /><path
       inkscape:connector-curvature="0"
       id="path520"
       style="fill:#fdd199;fill-opacity:1;fill-rule:nonzero;stroke:none"
       d="m 82.6239,263.97639 c 0.281,-0.53 1.009,-0.547 1.315,-0.032 0.126,0.214 0.133,0.485 0.017,0.705 -0.281,0.529 -1.009,0.547 -1.315,0.032 -0.127,-0.214 -0.133,-0.485 -0.017,-0.705"
       sodipodi:nodetypes="ccccc" /><path
       inkscape:connector-curvature="0"
       id="path524"
       style="fill:#fdc26b;fill-opacity:1;fill-rule:nonzero;stroke:none"
       d="m 72.715,238.74219 c 1.793,-0.599 3.494,0.945 3.071,2.787 -0.175,0.765 -0.75,1.398 -1.494,1.647 -1.792,0.599 -3.494,-0.945 -3.071,-2.787 0.175,-0.765 0.75,-1.398 1.494,-1.647"
       sodipodi:nodetypes="ccccc" /><path
       inkscape:connector-curvature="0"
       id="path528"
       style="fill:#ea9d40;fill-opacity:1;fill-rule:nonzero;stroke:none"
       d="m 72.6269,238.74639 c 1.793,-0.599 3.494,0.945 3.072,2.787 -0.176,0.765 -0.751,1.398 -1.495,1.647 -1.792,0.599 -3.494,-0.945 -3.071,-2.787 0.175,-0.765 0.75,-1.398 1.494,-1.647"
       sodipodi:nodetypes="ccccc" /><path
       inkscape:connector-curvature="0"
       id="path532"
       style="fill:#eb9039;fill-opacity:1;fill-rule:nonzero;stroke:none"
       d="m 71.2994,240.38509 c 0.175,-0.765 0.75,-1.398 1.494,-1.647 0.198,-0.066 0.394,-0.102 0.587,-0.118 -0.246,0.003 -0.498,0.041 -0.754,0.126 -0.744,0.249 -1.318,0.882 -1.494,1.647 -0.376,1.639 0.93,3.038 2.485,2.906 -1.48,0.022 -2.681,-1.334 -2.318,-2.914"
       sodipodi:nodetypes="ccccccc" /><path
       inkscape:connector-curvature="0"
       id="path536"
       style="fill:#fdc880;fill-opacity:1;fill-rule:nonzero;stroke:none"
       d="m 72.763,239.12909 c 1.483,-0.496 2.891,0.782 2.541,2.306 -0.145,0.633 -0.62,1.157 -1.236,1.362 -1.483,0.496 -2.891,-0.781 -2.541,-2.306 0.145,-0.632 0.621,-1.156 1.236,-1.362"
       sodipodi:nodetypes="ccccc" /><path
       d="m 74.8875,241.45529 c -0.145,0.633 -0.621,1.157 -1.236,1.363 -0.12,0.04 -0.239,0.064 -0.357,0.082 0.249,0.015 0.51,-0.015 0.773,-0.103 0.616,-0.205 1.092,-0.73 1.237,-1.362 0.321,-1.401 -0.843,-2.59 -2.185,-2.388 1.154,0.07 2.056,1.155 1.768,2.408"
       style="fill:#f1b670;fill-opacity:1;fill-rule:nonzero;stroke:none"
       id="path546"
       inkscape:connector-curvature="0"
       sodipodi:nodetypes="ccccccc" /><path
       inkscape:connector-curvature="0"
       id="path556"
       style="fill:#fdd199;fill-opacity:1;fill-rule:nonzero;stroke:none"
       d="m 72.1965,240.81509 c 0.568,-0.19 1.108,0.299 0.974,0.884 -0.056,0.242 -0.238,0.443 -0.474,0.522 -0.568,0.19 -1.108,-0.3 -0.974,-0.884 0.056,-0.242 0.238,-0.443 0.474,-0.522"
       sodipodi:nodetypes="ccccc" /><path
       inkscape:connector-curvature="0"
       id="path560"
       style="fill:#fdc26b;fill-opacity:1;fill-rule:nonzero;stroke:none"
       d="m 82.4273,215.70959 c 1.711,0.803 1.878,3.094 0.302,4.137 -0.655,0.432 -1.508,0.494 -2.218,0.161 -1.711,-0.802 -1.878,-3.094 -0.302,-4.136 0.655,-0.433 1.508,-0.495 2.218,-0.162"
       sodipodi:nodetypes="ccccc" /><path
       inkscape:connector-curvature="0"
       id="path564"
       style="fill:#ea9d40;fill-opacity:1;fill-rule:nonzero;stroke:none"
       d="m 82.3605,215.65189 c 1.711,0.802 1.878,3.094 0.301,4.136 -0.654,0.433 -1.507,0.495 -2.217,0.162 -1.711,-0.802 -1.878,-3.094 -0.302,-4.136 0.655,-0.433 1.508,-0.495 2.218,-0.162"
       sodipodi:nodetypes="ccccc" /><path
       inkscape:connector-curvature="0"
       id="path568"
       style="fill:#eb9039;fill-opacity:1;fill-rule:nonzero;stroke:none"
       d="m 80.269,215.92269 c 0.654,-0.432 1.507,-0.495 2.218,-0.162 0.189,0.089 0.355,0.198 0.506,0.319 -0.18,-0.166 -0.389,-0.313 -0.633,-0.428 -0.71,-0.333 -1.563,-0.271 -2.217,0.162 -1.403,0.927 -1.422,2.841 -0.205,3.817 -1.087,-1.004 -1.021,-2.814 0.331,-3.708"
       sodipodi:nodetypes="ccccccc" /><path
       inkscape:connector-curvature="0"
       id="path572"
       style="fill:#fdc880;fill-opacity:1;fill-rule:nonzero;stroke:none"
       d="m 82.1951,216.02289 c 1.416,0.664 1.554,2.56 0.25,3.422 -0.542,0.358 -1.248,0.41 -1.835,0.134 -1.416,-0.664 -1.554,-2.56 -0.25,-3.422 0.541,-0.358 1.247,-0.41 1.835,-0.134"
       sodipodi:nodetypes="ccccc" /><path
       d="m 82.1289,219.17249 c -0.542,0.358 -1.247,0.409 -1.835,0.134 -0.114,-0.054 -0.217,-0.118 -0.315,-0.187 0.17,0.183 0.379,0.342 0.631,0.46 0.587,0.275 1.293,0.224 1.835,-0.134 1.199,-0.793 1.176,-2.456 0.065,-3.236 0.787,0.847 0.692,2.254 -0.381,2.963"
       style="fill:#f1b670;fill-opacity:1;fill-rule:nonzero;stroke:none"
       id="path582"
       inkscape:connector-curvature="0"
       sodipodi:nodetypes="ccccccc" /><path
       inkscape:connector-curvature="0"
       id="path592"
       style="fill:#fdd199;fill-opacity:1;fill-rule:nonzero;stroke:none"
       d="m 80.622,216.85289 c 0.542,0.254 0.596,0.981 0.096,1.311 -0.208,0.137 -0.478,0.157 -0.703,0.052 -0.543,-0.255 -0.596,-0.981 -0.096,-1.312 0.207,-0.137 0.478,-0.157 0.703,-0.051"
       sodipodi:nodetypes="ccccc" /><path
       inkscape:connector-curvature="0"
       id="path596"
       style="fill:#fdc26b;fill-opacity:1;fill-rule:nonzero;stroke:none"
       d="m 105.346,205.73189 c 0.685,1.761 -0.774,3.536 -2.635,3.203 -0.772,-0.138 -1.433,-0.682 -1.717,-1.413 -0.685,-1.761 0.774,-3.535 2.635,-3.203 0.772,0.138 1.433,0.682 1.717,1.413"
       sodipodi:nodetypes="ccccc" /><path
       inkscape:connector-curvature="0"
       id="path600"
       style="fill:#ea9d40;fill-opacity:1;fill-rule:nonzero;stroke:none"
       d="m 105.3375,205.64399 c 0.685,1.761 -0.774,3.536 -2.635,3.203 -0.772,-0.138 -1.433,-0.682 -1.717,-1.413 -0.686,-1.761 0.774,-3.536 2.635,-3.203 0.772,0.139 1.432,0.682 1.717,1.413"
       sodipodi:nodetypes="ccccc" /><path
       inkscape:connector-curvature="0"
       id="path604"
       style="fill:#eb9039;fill-opacity:1;fill-rule:nonzero;stroke:none"
       d="m 103.6363,204.39749 c 0.772,0.138 1.433,0.682 1.717,1.413 0.076,0.194 0.121,0.388 0.147,0.58 -0.015,-0.245 -0.065,-0.496 -0.163,-0.746 -0.284,-0.731 -0.945,-1.275 -1.717,-1.413 -1.655,-0.296 -2.989,1.076 -2.782,2.623 -0.094,-1.477 1.203,-2.742 2.798,-2.457"
       sodipodi:nodetypes="ccccccc" /><path
       inkscape:connector-curvature="0"
       id="path608"
       style="fill:#fdc880;fill-opacity:1;fill-rule:nonzero;stroke:none"
       d="m 104.9618,205.79859 c 0.567,1.457 -0.641,2.926 -2.18,2.65 -0.639,-0.114 -1.185,-0.564 -1.421,-1.169 -0.567,-1.457 0.641,-2.925 2.18,-2.65 0.639,0.114 1.186,0.564 1.421,1.169"
       sodipodi:nodetypes="ccccc" /><path
       d="m 102.7414,208.03339 c -0.639,-0.114 -1.185,-0.564 -1.421,-1.169 -0.046,-0.117 -0.076,-0.235 -0.099,-0.352 -0.003,0.25 0.039,0.509 0.14,0.767 0.235,0.605 0.782,1.055 1.421,1.169 1.414,0.253 2.545,-0.967 2.279,-2.298 -0.015,1.156 -1.054,2.11 -2.32,1.883"
       style="fill:#f1b670;fill-opacity:1;fill-rule:nonzero;stroke:none"
       id="path618"
       inkscape:connector-curvature="0"
       sodipodi:nodetypes="ccccccc" /><path
       inkscape:connector-curvature="0"
       id="path628"
       style="fill:#fdd199;fill-opacity:1;fill-rule:nonzero;stroke:none"
       d="m 103.2504,205.31449 c 0.217,0.558 -0.245,1.121 -0.835,1.015 -0.245,-0.043 -0.454,-0.216 -0.545,-0.447 -0.217,-0.559 0.246,-1.121 0.836,-1.016 0.244,0.044 0.454,0.216 0.544,0.448"
       sodipodi:nodetypes="ccccc" /><path
       inkscape:connector-curvature="0"
       id="path632"
       style="fill:#fdc26b;fill-opacity:1;fill-rule:nonzero;stroke:none"
       d="m 128.8223,214.31559 c -0.718,1.748 -2.999,2.026 -4.117,0.502 -0.464,-0.633 -0.567,-1.482 -0.269,-2.208 0.719,-1.748 3,-2.026 4.117,-0.501 0.464,0.632 0.567,1.482 0.269,2.207"
       sodipodi:nodetypes="ccccc" /><path
       inkscape:connector-curvature="0"
       id="path636"
       style="fill:#ea9d40;fill-opacity:1;fill-rule:nonzero;stroke:none"
       d="m 128.8768,214.24609 c -0.719,1.748 -3,2.026 -4.117,0.502 -0.464,-0.633 -0.567,-1.482 -0.269,-2.207 0.719,-1.748 3,-2.027 4.117,-0.502 0.464,0.632 0.567,1.482 0.269,2.207"
       sodipodi:nodetypes="ccccc" /><path
       inkscape:connector-curvature="0"
       id="path640"
       style="fill:#eb9039;fill-opacity:1;fill-rule:nonzero;stroke:none"
       d="m 128.5049,212.17019 c 0.464,0.633 0.567,1.482 0.269,2.207 -0.079,0.193 -0.18,0.365 -0.294,0.522 0.158,-0.189 0.295,-0.404 0.397,-0.653 0.298,-0.726 0.195,-1.575 -0.269,-2.207 -0.994,-1.356 -2.907,-1.283 -3.823,-0.02 0.95,-1.134 2.762,-1.156 3.72,0.151"
       sodipodi:nodetypes="ccccccc" /><path
       inkscape:connector-curvature="0"
       id="path644"
       style="fill:#fdc880;fill-opacity:1;fill-rule:nonzero;stroke:none"
       d="m 128.4983,214.09889 c -0.594,1.446 -2.482,1.676 -3.406,0.415 -0.384,-0.523 -0.47,-1.226 -0.223,-1.826 0.595,-1.446 2.482,-1.676 3.406,-0.415 0.384,0.523 0.47,1.226 0.223,1.826"
       sodipodi:nodetypes="ccccc" /><path
       d="m 125.3492,214.18549 c -0.384,-0.523 -0.469,-1.226 -0.223,-1.826 0.048,-0.117 0.107,-0.223 0.171,-0.324 -0.174,0.179 -0.322,0.395 -0.428,0.652 -0.247,0.601 -0.161,1.303 0.223,1.827 0.85,1.159 2.51,1.055 3.235,-0.092 -0.808,0.827 -2.218,0.8 -2.978,-0.237"
       style="fill:#f1b670;fill-opacity:1;fill-rule:nonzero;stroke:none"
       id="path654"
       inkscape:connector-curvature="0"
       sodipodi:nodetypes="ccccccc" /><path
       inkscape:connector-curvature="0"
       id="path664"
       style="fill:#fdd199;fill-opacity:1;fill-rule:nonzero;stroke:none"
       d="m 127.593,212.56799 c -0.228,0.554 -0.951,0.642 -1.305,0.159 -0.147,-0.2 -0.18,-0.47 -0.086,-0.7 0.228,-0.554 0.951,-0.642 1.306,-0.159 0.147,0.201 0.179,0.47 0.085,0.7"
       sodipodi:nodetypes="ccccc" /><path
       inkscape:connector-curvature="0"
       id="path668"
       style="fill:#fdc26b;fill-opacity:1;fill-rule:nonzero;stroke:none"
       d="m 139.9,236.72349 c -1.726,0.77 -3.569,-0.602 -3.327,-2.476 0.1,-0.778 0.611,-1.464 1.328,-1.784 1.726,-0.77 3.569,0.602 3.327,2.476 -0.101,0.778 -0.612,1.464 -1.328,1.784"
       sodipodi:nodetypes="ccccc" /><path
       inkscape:connector-curvature="0"
       id="path672"
       style="fill:#ea9d40;fill-opacity:1;fill-rule:nonzero;stroke:none"
       d="m 139.9873,236.71069 c -1.726,0.77 -3.569,-0.602 -3.327,-2.476 0.1,-0.778 0.611,-1.464 1.328,-1.784 1.726,-0.77 3.569,0.602 3.327,2.476 -0.101,0.778 -0.612,1.464 -1.328,1.784"
       sodipodi:nodetypes="ccccc" /><path
       inkscape:connector-curvature="0"
       id="path676"
       style="fill:#eb9039;fill-opacity:1;fill-rule:nonzero;stroke:none"
       d="m 141.1498,234.95109 c -0.101,0.778 -0.611,1.464 -1.328,1.784 -0.19,0.085 -0.382,0.14 -0.572,0.175 0.244,-0.028 0.492,-0.09 0.737,-0.199 0.717,-0.32 1.228,-1.006 1.328,-1.784 0.216,-1.668 -1.22,-2.933 -2.754,-2.651 1.47,-0.166 2.797,1.068 2.589,2.675"
       sodipodi:nodetypes="ccccccc" /><path
       inkscape:connector-curvature="0"
       id="path680"
       style="fill:#fdc880;fill-opacity:1;fill-rule:nonzero;stroke:none"
       d="m 139.8147,236.34299 c -1.428,0.637 -2.953,-0.498 -2.753,-2.049 0.084,-0.644 0.506,-1.211 1.099,-1.476 1.428,-0.637 2.953,0.498 2.753,2.049 -0.084,0.644 -0.506,1.212 -1.099,1.476"
       sodipodi:nodetypes="ccccc" /><path
       d="m 137.4749,234.23359 c 0.083,-0.644 0.506,-1.211 1.098,-1.476 0.116,-0.051 0.232,-0.087 0.347,-0.116 -0.249,0.009 -0.506,0.063 -0.759,0.177 -0.593,0.264 -1.016,0.832 -1.099,1.475 -0.184,1.426 1.09,2.496 2.406,2.166 -1.155,0.041 -2.158,-0.951 -1.993,-2.226"
       style="fill:#f1b670;fill-opacity:1;fill-rule:nonzero;stroke:none"
       id="path690"
       inkscape:connector-curvature="0"
       sodipodi:nodetypes="ccccccc" /><path
       inkscape:connector-curvature="0"
       id="path700"
       style="fill:#fdd199;fill-opacity:1;fill-rule:nonzero;stroke:none"
       d="m 140.2152,234.61009 c -0.547,0.244 -1.131,-0.191 -1.055,-0.785 0.032,-0.247 0.194,-0.464 0.421,-0.565 0.547,-0.245 1.132,0.19 1.055,0.785 -0.032,0.246 -0.194,0.464 -0.421,0.565"
       sodipodi:nodetypes="ccccc" /><path
       inkscape:connector-curvature="0"
       id="path704"
       style="fill:#fdc26b;fill-opacity:1;fill-rule:nonzero;stroke:none"
       d="m 132.4649,260.58859 c -1.781,-0.633 -2.169,-2.898 -0.701,-4.088 0.61,-0.494 1.453,-0.638 2.192,-0.376 1.781,0.633 2.169,2.898 0.701,4.088 -0.61,0.494 -1.453,0.639 -2.192,0.376"
       sodipodi:nodetypes="ccccc" /><path
       inkscape:connector-curvature="0"
       id="path708"
       style="fill:#ea9d40;fill-opacity:1;fill-rule:nonzero;stroke:none"
       d="m 132.5369,260.63959 c -1.781,-0.633 -2.169,-2.898 -0.701,-4.088 0.61,-0.494 1.453,-0.638 2.192,-0.376 1.781,0.633 2.169,2.898 0.701,4.088 -0.61,0.494 -1.453,0.639 -2.192,0.376"
       sodipodi:nodetypes="ccccc" /><path
       inkscape:connector-curvature="0"
       id="path712"
       style="fill:#eb9039;fill-opacity:1;fill-rule:nonzero;stroke:none"
       d="m 134.5923,260.16739 c -0.609,0.494 -1.453,0.638 -2.192,0.376 -0.196,-0.07 -0.373,-0.163 -0.535,-0.269 0.196,0.149 0.418,0.275 0.672,0.365 0.739,0.263 1.582,0.118 2.191,-0.376 1.306,-1.058 1.14,-2.965 -0.166,-3.819 1.179,0.894 1.289,2.702 0.03,3.723"
       sodipodi:nodetypes="ccccccc" /><path
       inkscape:connector-curvature="0"
       id="path716"
       style="fill:#fdc880;fill-opacity:1;fill-rule:nonzero;stroke:none"
       d="m 132.6656,260.25429 c -1.473,-0.524 -1.795,-2.397 -0.58,-3.382 0.504,-0.409 1.202,-0.528 1.813,-0.311 1.474,0.524 1.795,2.397 0.58,3.382 -0.504,0.409 -1.201,0.528 -1.813,0.311"
       sodipodi:nodetypes="ccccc" /><path
       d="m 132.4263,257.11309 c 0.504,-0.409 1.202,-0.528 1.813,-0.311 0.119,0.042 0.228,0.096 0.332,0.155 -0.187,-0.166 -0.411,-0.303 -0.672,-0.396 -0.612,-0.217 -1.309,-0.098 -1.814,0.311 -1.116,0.905 -0.932,2.559 0.249,3.227 -0.865,-0.767 -0.907,-2.176 0.092,-2.986"
       style="fill:#f1b670;fill-opacity:1;fill-rule:nonzero;stroke:none"
       id="path726"
       inkscape:connector-curvature="0"
       sodipodi:nodetypes="ccccccc" /><path
       inkscape:connector-curvature="0"
       id="path736"
       style="fill:#fdd199;fill-opacity:1;fill-rule:nonzero;stroke:none"
       d="m 134.1508,259.27589 c -0.565,-0.201 -0.688,-0.919 -0.222,-1.296 0.193,-0.157 0.46,-0.202 0.695,-0.119 0.564,0.201 0.687,0.919 0.222,1.296 -0.193,0.156 -0.461,0.202 -0.695,0.119"
       sodipodi:nodetypes="ccccc" /><path
       inkscape:connector-curvature="0"
       id="path274"
       style="fill:#faaf61;fill-opacity:1;fill-rule:nonzero;stroke:none"
       d="m 91.548679,419.88419 c -3.047,0 -5.518,-2.47 -5.518,-5.518 v -30.297 c 0,-3.048 2.471,-5.518 5.518,-5.518 3.048,0 5.518,2.47 5.518,5.518 v 30.297 c 0,3.048 -2.47,5.518 -5.518,5.518"
       sodipodi:nodetypes="csssssc" /></g></svg>