<?xml version="1.0" encoding="UTF-8" standalone="no"?>
<!-- Creator: CorelDRAW X6 -->

<svg
   xmlns:dc="http://purl.org/dc/elements/1.1/"
   xmlns:cc="http://creativecommons.org/ns#"
   xmlns:rdf="http://www.w3.org/1999/02/22-rdf-syntax-ns#"
   xmlns:svg="http://www.w3.org/2000/svg"
   xmlns="http://www.w3.org/2000/svg"
   xmlns:sodipodi="http://sodipodi.sourceforge.net/DTD/sodipodi-0.dtd"
   xmlns:inkscape="http://www.inkscape.org/namespaces/inkscape"
   xml:space="preserve"
   width="9.5899954in"
   height="5.9451666in"
   version="1.1"
   style="clip-rule:evenodd;fill-rule:evenodd;image-rendering:optimizeQuality;shape-rendering:geometricPrecision;text-rendering:geometricPrecision"
   viewBox="0 0 9589.665 5944.8425"
   id="svg36"
   sodipodi:docname="1605.svg"
   inkscape:version="0.92.4 (5da689c313, 2019-01-14)"
   inkscape:export-filename="G:\Programas\MachadoMatheus.github.io\golden-ratio-template\Fibonacci.png"
   inkscape:export-xdpi="300"
   inkscape:export-ydpi="300"><metadata
   id="metadata40"><rdf:RDF><cc:Work
       rdf:about=""><dc:format>image/svg+xml</dc:format><dc:type
         rdf:resource="http://purl.org/dc/dcmitype/StillImage" /><dc:title></dc:title></cc:Work></rdf:RDF></metadata><sodipodi:namedview
   pagecolor="#ffffff"
   bordercolor="#666666"
   borderopacity="1"
   objecttolerance="10"
   gridtolerance="10"
   guidetolerance="10"
   inkscape:pageopacity="0"
   inkscape:pageshadow="2"
   inkscape:window-width="1366"
   inkscape:window-height="716"
   id="namedview38"
   showgrid="false"
   showborder="true"
   inkscape:pagecheckerboard="true"
   inkscape:zoom="0.60929466"
   inkscape:cx="334.57298"
   inkscape:cy="223.05745"
   inkscape:window-x="-8"
   inkscape:window-y="-8"
   inkscape:window-maximized="1"
   inkscape:current-layer="svg36" />
 <defs
   id="defs4">
  <style
   type="text/css"
   id="style2">
   <![CDATA[
    .str1 {stroke:#2676BB;stroke-width:41.6654;stroke-linecap:round;stroke-linejoin:round}
    .str0 {stroke:#CECDCC;stroke-width:41.6654;stroke-linecap:round;stroke-linejoin:round}
    .fil0 {fill:none;fill-rule:nonzero}
    .fil1 {fill:#CECDCC;fill-rule:nonzero}
   ]]>
  </style>
 </defs>
 <g
   id="Layer_x0020_1"
   transform="translate(-0.16729927,-2125.2484)">
  <metadata
   id="CorelCorpID_0Corel-Layer" />
  <path
   class="fil0 str0"
   d="m 7306,7354 c 0,384 -311,694 -694,694 -384,0 -694,-311 -694,-694 0,-384 311,-694 694,-694 384,0 694,311 694,694 z"
   id="path7"
   inkscape:connector-curvature="0"
   style="fill:none;fill-rule:nonzero;stroke:#cecdcc;stroke-width:41.66540146;stroke-linecap:round;stroke-linejoin:round" />
  <path
   class="fil0 str0"
   d="m 9569,6917 c 0,625 -507,1132 -1132,1132 -625,0 -1132,-507 -1132,-1132 0,-625 507,-1132 1132,-1132 625,0 1132,507 1132,1132 z"
   id="path9"
   inkscape:connector-curvature="0"
   style="fill:none;fill-rule:nonzero;stroke:#cecdcc;stroke-width:41.66540146;stroke-linecap:round;stroke-linejoin:round" />
  <path
   class="fil0 str0"
   d="M 5931,5097 C 5931,6727 4610,8048 2980,8048 1350,8048 29,6727 29,5097 29,3467 1350,2146 2980,2146 c 1630,0 2951,1321 2951,2951 z"
   id="path11"
   inkscape:connector-curvature="0"
   style="fill:none;fill-rule:nonzero;stroke:#cecdcc;stroke-width:41.66540146;stroke-linecap:round;stroke-linejoin:round" />
  <path
   class="fil0 str0"
   d="m 9556,3965 c 0,1005 -815,1819 -1819,1819 -1005,0 -1819,-815 -1819,-1819 0,-1005 815,-1819 1819,-1819 1005,0 1819,815 1819,1819 z"
   id="path13"
   inkscape:connector-curvature="0"
   style="fill:none;fill-rule:nonzero;stroke:#cecdcc;stroke-width:41.66540146;stroke-linecap:round;stroke-linejoin:round" />
  <polygon
   class="fil0 str1"
   points="21,8044 5919,8044 5919,2146 21,2146 "
   id="polygon15"
   style="fill:none;fill-rule:nonzero;stroke:#2676bb;stroke-width:41.66540146;stroke-linecap:round;stroke-linejoin:round" />
  <polygon
   class="fil0 str1"
   points="5919,5789 9563,5789 9563,2146 5919,2146 "
   id="polygon17"
   style="fill:none;fill-rule:nonzero;stroke:#2676bb;stroke-width:41.66540146;stroke-linecap:round;stroke-linejoin:round" />
  <polygon
   class="fil0 str1"
   points="7307,8044 9563,8044 9563,5789 7307,5789 "
   id="polygon19"
   style="fill:none;fill-rule:nonzero;stroke:#2676bb;stroke-width:41.66540146;stroke-linecap:round;stroke-linejoin:round" />
  <polygon
   class="fil0 str1"
   points="5919,8044 7307,8044 7307,6656 5919,6656 "
   id="polygon21"
   style="fill:none;fill-rule:nonzero;stroke:#2676bb;stroke-width:41.66540146;stroke-linecap:round;stroke-linejoin:round" />
  <polygon
   class="fil0 str1"
   points="5919,6656 6785,6656 6785,5789 5919,5789 "
   id="polygon23"
   style="fill:none;fill-rule:nonzero;stroke:#2676bb;stroke-width:41.66540146;stroke-linecap:round;stroke-linejoin:round" />
  <polygon
   class="fil0 str1"
   points="6785,6311 7307,6311 7307,5789 6785,5789 "
   id="polygon25"
   style="fill:none;fill-rule:nonzero;stroke:#2676bb;stroke-width:41.66540146;stroke-linecap:round;stroke-linejoin:round" />
  <polygon
   class="fil0 str1"
   points="6962,6656 7307,6656 7307,6311 6962,6311 "
   id="polygon27"
   style="fill:none;fill-rule:nonzero;stroke:#2676bb;stroke-width:41.66540146;stroke-linecap:round;stroke-linejoin:round" />
  <polygon
   class="fil0 str1"
   points="6785,6656 6962,6656 6962,6479 6785,6479 "
   id="polygon29"
   style="fill:none;fill-rule:nonzero;stroke:#2676bb;stroke-width:41.66540146;stroke-linecap:round;stroke-linejoin:round" />
  <path
   class="fil0 str1"
   d="M 28,8049 C 28,4786 2668,2146 5931,2146 h -14 c 2011,0 3639,1628 3639,3639 0,1251 -1013,2264 -2264,2264 h 14 c -768,0 -1389,-621 -1389,-1389 0,-484 391,-875 875,-875 h -14 c 292,0 528,236 528,528 0,192 -155,347 -347,347 -92,0 -167,-81 -167,-181"
   id="path31"
   inkscape:connector-curvature="0"
   style="fill:none;fill-rule:nonzero;stroke:#2676bb;stroke-width:41.66540146;stroke-linecap:round;stroke-linejoin:round" />
  
 </g>
</svg>