<?xml version="1.0" encoding="UTF-8" standalone="no"?>
<svg
   xmlns:dc="http://purl.org/dc/elements/1.1/"
   xmlns:cc="http://creativecommons.org/ns#"
   xmlns:rdf="http://www.w3.org/1999/02/22-rdf-syntax-ns#"
   xmlns:svg="http://www.w3.org/2000/svg"
   xmlns="http://www.w3.org/2000/svg"
   xmlns:sodipodi="http://sodipodi.sourceforge.net/DTD/sodipodi-0.dtd"
   xmlns:inkscape="http://www.inkscape.org/namespaces/inkscape"
   viewBox="0 0 181.02849 199.30066"
   height="199.30066"
   width="181.02849"
   xml:space="preserve"
   id="svg2"
   version="1.1"
   sodipodi:docname="5598.svg"
   inkscape:version="0.92.4 (5da689c313, 2019-01-14)"><sodipodi:namedview
     pagecolor="#ffffff"
     bordercolor="#666666"
     borderopacity="1"
     objecttolerance="10"
     gridtolerance="10"
     guidetolerance="10"
     inkscape:pageopacity="0"
     inkscape:pageshadow="2"
     inkscape:window-width="1366"
     inkscape:window-height="716"
     id="namedview14"
     showgrid="false"
     inkscape:zoom="1.4142136"
     inkscape:cx="123.86038"
     inkscape:cy="163.49346"
     inkscape:window-x="-8"
     inkscape:window-y="-8"
     inkscape:window-maximized="1"
     inkscape:current-layer="g10" /><metadata
     id="metadata8"><rdf:RDF><cc:Work
         rdf:about=""><dc:format>image/svg+xml</dc:format><dc:type
           rdf:resource="http://purl.org/dc/dcmitype/StillImage" /></cc:Work></rdf:RDF></metadata><defs
     id="defs6" /><g
     transform="matrix(1.3333333,0,0,-1.3333333,-348.90784,505.45853)"
     id="g10"><g
       transform="matrix(0.26626724,0,0,0.26626724,-435.08957,-381.78019)"
       id="g12"><path
         id="path16"
         style="fill:#616e7d;fill-opacity:1;fill-rule:nonzero;stroke:none;stroke-width:0.08470205"
         d="m 2932.4087,2813.3295 32.6019,0.2525 -0.216,27.8026 c -0.039,4.2935 -1.8084,8.4753 -4.8695,11.483 -3.0662,3.0171 -7.2675,4.7222 -11.5619,4.69 l -160.7424,-1.2562 c -4.275,-0.039 -8.466,-1.8075 -11.4831,-4.8619 -3.0179,-3.0585 -4.7077,-7.2665 -4.6781,-11.5643 l 0.2262,-27.8009 32.5832,0.2507 -0.094,11.5025 128.1398,1.0021 0.094,-11.5001"
         inkscape:connector-curvature="0" /><path
         id="path18"
         style="fill:#616e7d;fill-opacity:1;fill-rule:nonzero;stroke:none;stroke-width:0.08470205"
         d="m 3032.8052,2649.0194 -44.6854,-311.2224 c -1.3611,-9.3833 -10.0583,-15.9062 -19.4577,-14.5544 -9.4002,1.3409 -15.9257,10.0533 -14.5646,19.4434 l 44.6855,311.225 c 1.356,9.3875 10.0626,15.9053 19.4628,14.5518 9.3952,-1.351 15.9206,-10.0457 14.5594,-19.4434 z m -159.106,-328.494 c -9.4976,-0.079 -17.2563,7.5571 -17.3165,17.0505 l -2.4656,314.3971 c -0.06,9.4951 7.5715,17.2419 17.0454,17.3122 9.5078,0.08 17.2665,-7.5512 17.33,-17.0429 l 2.4666,-314.3988 c 0.06,-9.4908 -7.5715,-17.247 -17.0599,-17.3181 z m -95.0018,1.2307 c -9.3706,-1.4916 -18.1855,4.8907 -19.6653,14.2494 l -49.5541,310.4856 c -1.4984,9.385 4.8789,18.1804 14.2689,19.672 9.3664,1.4967 18.1762,-4.8763 19.6645,-14.2519 l 49.5507,-310.4805 c 1.4984,-9.363 -4.8941,-18.1788 -14.2647,-19.6746 z m -124.3612,385.7391 c -5.1347,-0.044 -9.994,-2.3615 -13.2525,-6.334 -3.2577,-3.97 -4.579,-9.191 -3.6211,-14.23 l 72.1772,-376.6878 c 1.5772,-8.2093 8.7811,-14.1224 17.1344,-14.0588 l 291.6588,2.2827 c 8.3084,0.064 15.4183,6.0342 16.9023,14.2053 l 68.8272,377.7865 c 0.9292,5.0491 -0.4769,10.3065 -3.7786,14.2401 -3.3025,3.9361 -8.2457,6.2112 -13.3804,6.1663 l -432.6673,-3.3703"
         inkscape:connector-curvature="0" /><path
         id="path20"
         style="fill:#aad4c8;fill-opacity:1;fill-rule:nonzero;stroke:none;stroke-width:0.08470205"
         d="m 2617.2171,2727.8488 509.4981,3.9776 -0.4083,51.8918 -47.2595,-0.3667 -0.2067,27.291 c -0.035,2.1328 -0.8995,4.2114 -2.4174,5.692 -1.5187,1.5009 -3.6219,2.3462 -5.7343,2.3344 l -104.2547,-0.8157 -32.6018,-0.2524 -128.1398,-1.0046 -32.5832,-0.2507 -97.1931,-0.7573 c -2.1226,-0.018 -4.2071,-0.8944 -5.6852,-2.4174 -1.5043,-1.5085 -2.3538,-3.6015 -2.3386,-5.7343 l 0.2058,-27.3003 -51.2896,-0.3981 0.4083,-51.8893"
         inkscape:connector-curvature="0" /><path
         id="path22"
         style="fill:#aad4c8;fill-opacity:1;fill-rule:nonzero;stroke:none;stroke-width:0.08470205"
         d="m 2870.9625,2669.2852 c -9.4739,-0.07 -17.1056,-7.8171 -17.0454,-17.3122 l 2.4656,-314.3971 c 0.06,-9.4934 7.8189,-17.1293 17.3165,-17.0505 9.4884,0.071 17.12,7.8273 17.0599,17.3181 l -2.4666,314.3988 c -0.064,9.4917 -7.8222,17.1226 -17.33,17.0429"
         inkscape:connector-curvature="0" /><path
         id="path24"
         style="fill:#aad4c8;fill-opacity:1;fill-rule:nonzero;stroke:none;stroke-width:0.08470205"
         d="m 2998.783,2653.911 -44.6855,-311.225 c -1.3611,-9.3901 5.1644,-18.1025 14.5646,-19.4434 9.3994,-1.3518 18.0966,5.1711 19.4577,14.5544 l 44.6854,311.2224 c 1.3612,9.3977 -5.1642,18.0924 -14.5594,19.4434 -9.4002,1.3535 -18.1068,-5.1643 -19.4628,-14.5518"
         inkscape:connector-curvature="0" /><path
         id="path26"
         style="fill:#aad4c8;fill-opacity:1;fill-rule:nonzero;stroke:none;stroke-width:0.08470205"
         d="m 2723.7469,2666.1631 c -9.39,-1.4916 -15.7673,-10.287 -14.2689,-19.672 l 49.5541,-310.4856 c 1.4798,-9.3587 10.2947,-15.741 19.6653,-14.2494 9.3706,1.4958 15.7631,10.3116 14.2647,19.6746 l -49.5507,310.4805 c -1.4883,9.3756 -10.2981,15.7486 -19.6645,14.2519"
         inkscape:connector-curvature="0" /></g></g></svg>