<?xml version="1.0" encoding="UTF-8" standalone="no"?>
<!-- Created with Inkscape (http://www.inkscape.org/) -->

<svg
   xmlns:dc="http://purl.org/dc/elements/1.1/"
   xmlns:cc="http://creativecommons.org/ns#"
   xmlns:rdf="http://www.w3.org/1999/02/22-rdf-syntax-ns#"
   xmlns:svg="http://www.w3.org/2000/svg"
   xmlns="http://www.w3.org/2000/svg"
   xmlns:sodipodi="http://sodipodi.sourceforge.net/DTD/sodipodi-0.dtd"
   xmlns:inkscape="http://www.inkscape.org/namespaces/inkscape"
   version="1.1"
   id="svg2"
   width="110.7165"
   height="157.90759"
   viewBox="0 0 110.7165 157.9076"
   sodipodi:docname="fundo.svg"
   inkscape:version="0.92.4 (5da689c313, 2019-01-14)">
  <metadata
     id="metadata8">
    <rdf:RDF>
      <cc:Work
         rdf:about="">
        <dc:format>image/svg+xml</dc:format>
        <dc:type
           rdf:resource="http://purl.org/dc/dcmitype/StillImage" />
        <dc:title></dc:title>
      </cc:Work>
    </rdf:RDF>
  </metadata>
  <defs
     id="defs6" />
  <sodipodi:namedview
     pagecolor="#ffffff"
     bordercolor="#666666"
     borderopacity="1"
     objecttolerance="10"
     gridtolerance="10"
     guidetolerance="10"
     inkscape:pageopacity="0"
     inkscape:pageshadow="2"
     inkscape:window-width="1366"
     inkscape:window-height="706"
     id="namedview4"
     showgrid="false"
     inkscape:zoom="1.4404297"
     inkscape:cx="126.46179"
     inkscape:cy="96.719787"
     inkscape:window-x="-8"
     inkscape:window-y="-8"
     inkscape:window-maximized="1"
     inkscape:current-layer="svg2" />
  <path
     style="fill:#000000;stroke-width:0.16"
     d="m 29.875355,157.74403 c 0.27544,-0.3089 0.25253,-0.56307 -0.0297,-0.32888 -0.39525,0.32801 -1.75906,0.39702 -2.05225,0.10384 -0.14039,-0.14039 -0.48064,-0.25525 -0.75612,-0.25525 -0.27548,0 -0.46238,-0.0623 -0.41533,-0.1384 0.047,-0.0761 -0.54906,-0.11107 -1.32467,-0.0777 -1.30222,0.0561 -1.44125,0.032 -1.81557,-0.31493 -0.51319,-0.47561 -0.84363,-0.5262 -2.36642,-0.3623 -1.09509,0.11787 -2.1725,0.12414 -2.8,0.0163 -0.264,-0.0454 -0.92577,-0.0835 -1.47061,-0.0848 -0.66317,-0.002 -1.06967,-0.0814 -1.2298,-0.24148 -0.15736,-0.15736 -0.27489,-0.18141 -0.34356,-0.0703 -0.0574,0.0929 -0.224,0.14923 -0.3702,0.12522 -0.14621,-0.024 -0.35583,0.0128 -0.46583,0.0818 -0.13044,0.0818 -0.2,0.0319 -0.2,-0.14359 0,-0.20083 -0.0521,-0.22583 -0.20536,-0.0986 -0.1285,0.10664 -0.29319,0.11575 -0.44,0.0243 -0.27132,-0.16894 -1.63162,-0.0534 -2.27243,0.19304 -0.46858,0.18028 -1.8822001,0.0433 -1.8822001,-0.18225 0,-0.0737 -0.324,-0.15986 -0.72,-0.19135 -0.53369,-0.0425 -0.72,-4e-5 -0.72,0.16389 0,0.16763 -0.12583,0.1919 -0.52,0.10025 -0.286,-0.0665 -0.844,-0.14525 -1.24,-0.17503 -0.396,-0.0298 -1.02351,-0.13703 -1.39447,-0.23835 -0.37095,-0.10131 -0.77555,-0.14541 -0.89911,-0.098 -0.12355,0.0474 -0.45178,-0.0519 -0.7294,-0.22076 -0.27762,-0.16883 -0.61334,-0.30696 -0.74605,-0.30696 -0.36691,0 -0.5767,-0.69257 -0.25104,-0.82875 0.20763,-0.0868 0.19143,-0.11103 -0.0803,-0.12 -0.42453,-0.014 -0.73588,-0.37052 -0.61003,-0.69847 0.0523,-0.13628 0.0174,-0.3929 -0.0775,-0.57028 -0.29642,-0.55388 -0.52174999,-5.53158 -0.28891,-6.3825 0.0542,-0.198 0.0486,-0.36004 -0.0123,-0.36008 -0.0609,-5e-5 -0.10536,-0.30605 -0.0987,-0.68 0.007,-0.37396 -0.0426,-0.75364 -0.10955999,-0.84374 -0.11559,-0.15561 0.0906,-2.36617 0.24377999,-2.61409 0.0399,-0.0645 0.006,-0.22193 -0.0744,-0.34973 -0.11816999,-0.18679 -0.14846999,-0.1696 -0.15452999,0.0876 -0.007,0.31171 -0.0135,0.31218 -0.23625,0.0179 -0.1602,-0.2116 -0.18275,-0.38799 -0.0753,-0.58878 0.15881,-0.29674 0.38504999,-2.85498 0.33739,-3.81507 -0.0149,-0.30027 -0.10704,-0.64227 -0.20475,-0.76 -0.13383,-0.16125 -0.12286,-0.21405 0.0444,-0.21405 0.16448,0 0.21711999,-0.22498 0.20294999,-0.86745 -0.0162,-0.73512 0.0286,-0.87992 0.29361,-0.94923 0.32589,-0.0852 0.24905,-0.42332 -0.0962,-0.42332 -0.11359,0 -0.2145,-0.24716 -0.23692999,-0.58033 -0.0338,-0.5016 0.002,-0.56947 0.26700999,-0.50028 0.23274,0.0609 0.28824,0.0118 0.23159,-0.20488 -0.0412,-0.15765 0.075,-0.43448 0.26028,-0.61972 0.18414,-0.18409 0.2628,-0.33475 0.1748,-0.33475 -0.088,0 -0.16,-0.11225 -0.16,-0.24944 0,-0.14781 0.0753,-0.20293 0.18472,-0.13528 0.11185,0.0691 0.14139,0.044 0.0749,-0.0636 -0.0604,-0.0977 -0.20634,-0.1407 -0.32429,-0.0954 -0.25138,0.0965 -0.45799,-0.691 -0.21991,-0.83815 0.0839,-0.0518 0.10471,-0.24811 0.0463,-0.43618 -0.24672,-0.79464 -0.27719,-1.74113 -0.0604,-1.87514 0.17434,-0.10775 0.15776,-0.17754 -0.0842,-0.35447 -0.25148,-0.18389 -0.28315,-0.34127 -0.19158,-0.95193 0.10727,-0.71533 0.0991,-0.73396 -0.36879999,-0.83672 -0.327,-0.0718 -0.45065,-0.1777 -0.39053,-0.33439 0.0539,-0.14043 -0.0117,-0.22929 -0.16913,-0.22929 -0.28973,0 -0.3443,-0.24723 -0.0893,-0.4048 0.0974,-0.0602 0.11031,-0.18158 0.0307,-0.28944 -0.19215,-0.26045 -0.11957,-0.91677 0.11758,-1.06334 0.14089,-0.0871 0.14695,-0.15402 0.021,-0.23186 -0.29009,-0.1793 -0.20093,-0.57057 0.13002,-0.57057 0.27714,0 0.29109,-0.058 0.143,-0.59433 -0.1164,-0.42156 -0.11334,-0.61126 0.0105,-0.65254 0.11794,-0.0393 0.0978,-0.20676 -0.062,-0.51586 -0.4389,-0.84875 -0.0981,-3.13765 0.53820999,-3.61465 0.34496,-0.2586 0.4028,-0.86262 0.0826,-0.86262 -0.21072999,0 -0.22203999,-0.044 -0.0611,-0.23796 0.10862,-0.13088 0.1557,-0.34688 0.10462,-0.48 -0.0511,-0.13312 -0.0143,-0.24204 0.0817,-0.24204 0.11749,0 0.11134,-0.0762 -0.0188,-0.23299 -0.10635,-0.12815 -0.15072,-0.302 -0.0986,-0.38633 0.0521,-0.0843 0.009,-0.18193 -0.0958,-0.21686 -0.10762999,-0.0359 -0.20837999,-0.43002 -0.23156999,-0.90591 -0.0226,-0.46331 -0.11665,-0.93351 -0.20907,-1.04487 -0.0924,-0.11137 -0.13734,-0.23319 -0.0998,-0.27073 0.0375,-0.0375 0.11066,-0.42165 0.16251,-0.85359 0.0518,-0.43194 0.17256,-0.87967 0.26824,-0.99495 0.0957,-0.11529 0.12702999,-0.39658 0.0697,-0.6251 -0.061,-0.24321 -0.0422,-0.37713 0.0454,-0.32299 0.0823,0.0509 0.19401,-0.0231 0.24823,-0.16441 0.0704,-0.18355 0.0295,-0.2304 -0.14324,-0.16411 -0.133,0.051 -0.24180999,0.0291 -0.24180999,-0.0488 0,-0.0779 0.0839,-0.1696 0.18639999,-0.20378 0.18079,-0.0603 0.31025,-0.92327 0.13888,-0.92578 -0.20198,-0.003 -0.40517999,-0.75803 -0.32260999,-1.19875 0.0495,-0.264 -0.0385,-1.11689 -0.19558,-1.89532 -0.15702,-0.77842 -0.24403,-1.58057 -0.19333,-1.78254 0.0509,-0.20293 0.009,-0.41838 -0.0928,-0.48156 -0.12783,-0.079 -0.07,-0.23681 0.18703,-0.51064 0.22729,-0.24211 0.28235,-0.37561 0.14154,-0.34312 -0.12678,0.0293 -0.25806,-0.0728 -0.29173,-0.22682 -0.0349,-0.15948 0.0325,-0.28 0.15646,-0.28 0.1289,0 0.2332,-0.20339 0.25569,-0.49864 0.0297,-0.38966 -0.0153,-0.47818 -0.20596,-0.40502 -0.13418,0.0515 -0.24396,0.0239 -0.24396,-0.0614 0,-0.0852 0.0858,-0.15498 0.19058,-0.15498 0.10482,0 0.063,-0.0933 -0.093,-0.20737 -0.22274,-0.16287 -0.29491,-0.4891 -0.33626,-1.52 -0.0289,-0.72195 0.009,-1.31263 0.0835,-1.31263 0.0749,0 0.0409,-0.18362 -0.0755,-0.40804 -0.15041,-0.28992 -0.17122,-0.58816 -0.0719,-1.03021 0.0769,-0.34219 0.10913,-0.94924 0.0717,-1.34899 -0.0375,-0.39975 -0.01,-0.76286 0.0615,-0.80691 0.0713,-0.044 0.11295,-0.72938 0.0926,-1.52297 -0.0203,-0.79358 0.007,-1.44308 0.0599,-1.44332 0.0533,-3.2e-4 0.10389,-0.27675 0.11243,-0.61445 0.009,-0.33771 0.12916,-0.84176 0.26802,-1.12012 0.21398999,-0.42895 0.21899999,-0.53958 0.0329,-0.72568 -0.30224,-0.30223 -0.42016,-1.47223 -0.19762,-1.96066 0.14062,-0.30861 0.13667,-0.47708 -0.0169,-0.72304 -0.12186,-0.19514 -0.14444,-0.39407 -0.0577,-0.50815 0.0784,-0.1031 0.1332,-0.40346 0.12171,-0.66746 -0.0115,-0.264 0.064,-0.60993 0.16777,-0.76873 0.11938999,-0.18271 0.14435999,-0.4852 0.068,-0.82375 -0.0664,-0.29426 -0.059,-0.63233 0.0164,-0.75127 0.0754,-0.11894 0.13703999,-0.28825 0.13703999,-0.37625 0,-0.088 -0.0698,-0.052 -0.15509999,0.08 -0.13367,0.20683 -0.15544,0.20261 -0.15755,-0.0306 -0.001,-0.1488 0.0745,-0.31809 0.16845,-0.37618 0.094,-0.0581 0.13528999,-0.19845 0.0918,-0.3119 -0.0435,-0.11344 0.0655,-0.36157 0.24239,-0.55139 0.25731,-0.27619 0.28301,-0.39156 0.12865,-0.57755 -0.14718,-0.17735 -0.14795,-0.23242 -0.003,-0.23242 0.10431,0 0.16892,-0.126 0.14359,-0.28 -0.0668,-0.406104 0.15579,-0.681526 0.45732,-0.56582 0.17455,0.06698 0.22276,0.03814 0.14543,-0.08699 -0.0636,-0.102953 -0.20504,-0.187188 -0.31425,-0.187188 -0.43831,0 -0.55827,-0.344283 -0.23322,-0.669333 0.17453,-0.174534 0.27142,-0.363248 0.2153,-0.419366 -0.0561,-0.05612 -0.16902,0.0039 -0.25088,0.133333 -0.12485,0.197408 -0.14925,0.190209 -0.1513,-0.04463 -0.002,-0.183715 0.12134,-0.280843 0.35755,-0.28245 0.27062,-0.0018 0.30456,-0.03755 0.13668,-0.143852 -0.12747,-0.08072 -0.17941,-0.255823 -0.12101,-0.408013 0.0806,-0.210011 0.0346,-0.245117 -0.21668,-0.165365 -0.51431,0.163235 -0.36572,-0.08068 0.16101,-0.264294 0.52811,-0.184104 0.67082,-0.543248 0.16309,-0.410477 -0.26095,0.06824 -0.31232,0.008 -0.29098,-0.341338 0.0143,-0.233317 0.0884,-0.507801 0.16467,-0.609966 0.0815,-0.109149 0.0696,-0.228519 -0.029,-0.289443 -0.32241,-0.199261 -0.16387,-0.404802 0.31224,-0.404802 0.264,0 0.48,0.06 0.48,0.133333 0,0.07333 0.108,0.133334 0.24,0.133334 0.38859,0 0.27522,-0.227134 -0.2,-0.400702 -0.242,-0.08839 -0.35,-0.166386 -0.24,-0.173333 0.11,-0.0069 0.2,-0.08237 0.2,-0.167611 0,-0.08524 -0.108,-0.113535 -0.24,-0.06288 -0.132,0.05066 -0.24,0.0075 -0.24,-0.0958 0,-0.106141 -0.12184,-0.149232 -0.28,-0.09903 -0.22596,0.07171 -0.28228,-0.01114 -0.2918,-0.429225 -0.0216,-0.947913 -0.18939,-1.785148 -0.36988,-1.845312 -0.27910999,-0.09304 -0.20891999,-0.481315 0.10168,-0.562481 0.26666,-0.06969 0.26666,-0.07406 0,-0.09173 -0.154,-0.01021 -0.28918999,-0.10856 -0.30041999,-0.21856 -0.0112,-0.11 -0.0381,-0.376962 -0.0598,-0.59325 -0.0216,-0.216288 -0.12045,-0.420288 -0.21958,-0.453332 -0.0991,-0.03305 -0.18025,-0.130333 -0.18025,-0.216194 0,-0.08586 0.0647,-0.116131 0.14374,-0.06727 0.0826,0.05102 0.11816,-0.522633 0.0836,-1.347705 -0.0543,-1.298124 -0.0276,-1.466824 0.27717,-1.750776 0.32230999,-0.300277 0.33303999,-0.501104 0.0619,-1.15748 -0.0759,-0.183639 -0.0201,-0.283293 0.18001,-0.321837 0.26612,-0.05125 0.26052,-0.08522 -0.0683,-0.413994 -0.28987999,-0.289876 -0.30866999,-0.358162 -0.0986,-0.358162 0.19902,0 0.21801,-0.0501 0.0814,-0.214722 -0.098,-0.118096 -0.13082,-0.262096 -0.0729,-0.32 0.0579,-0.0579 -0.003,-0.105278 -0.13471999,-0.105278 -0.132,0 -0.24,-0.125142 -0.24,-0.278096 0,-0.367328 0.34154999,-0.703016 0.52680999,-0.51776 0.0848,0.08477 0.14612,-0.139368 0.14979,-0.547187 0.005,-0.503488 -0.0559,-0.686178 -0.22307,-0.673859 -0.12611,0.0093 -0.24937999,-0.109098 -0.27391999,-0.263098 -0.0246,-0.154 0.021,-0.28 0.10121,-0.28 0.18417999,0 0.11843999,-0.361363 -0.0942,-0.51755 -0.088,-0.06465 -0.016,-0.120842 0.15999999,-0.124866 0.30743,-0.007 0.30825,-0.01414 0.0208,-0.181142 -0.24157999,-0.140356 -0.25698999,-0.200567 -0.08,-0.312685 0.15969999,-0.101165 0.16490999,-0.139522 0.0192,-0.141307 -0.11,-0.0013 -0.2,-0.0787 -0.2,-0.171893 0,-0.09319 0.062,-0.13113 0.13775,-0.0843 0.13980999,0.0864 0.11775999,-1.378555 -0.0243,-1.616594 -0.13025,-0.218195 -0.0821,-1.010134 0.067,-1.102288 0.0776,-0.04796 0.0637,-0.230184 -0.0311,-0.407309 -0.11339,-0.211872 -0.11804,-0.384972 -0.0137,-0.51067 0.0868,-0.104584 0.18178999,-0.549981 0.21109999,-0.989773 0.0293,-0.43979 0.15294,-0.904405 0.27472,-1.032477 0.14483,-0.152296 0.16144,-0.252854 0.048,-0.29066 -0.11632,-0.03878 -0.12468,-0.185992 -0.0254,-0.447148 0.12089,-0.317973 0.0974,-0.391399 -0.12801,-0.400584 -0.23151,-0.0094 -0.22442,-0.03343 0.044,-0.148754 0.176,-0.07563 0.2377,-0.14257 0.13711,-0.148754 -0.30987,-0.01906 -0.41353,-0.507129 -0.4696,-2.211246 -0.0345,-1.048494 0.005,-1.64 0.11004,-1.64 0.0944,0 0.11823,-0.144253 0.0562,-0.339784 -0.16349,-0.515115 -0.20080999,-0.845461 -0.11272,-0.997754 0.0438,-0.07564 0.10113,-0.399644 0.1275,-0.72 0.0264,-0.320353 0.0785,-0.726462 0.1159,-0.902462 0.0418,-0.196957 -0.0739,-0.443043 -0.30104,-0.64 -0.36762999,-0.318794 -0.47626999,-0.926776 -0.32879999,-1.84 0.0355,-0.22 0.0738,-0.5044 0.085,-0.632 0.0159,-0.180445 0.0631,-0.189333 0.21242,-0.04 0.23736999,0.237373 0.44799999,0.247979 0.44799999,0.02256 0,-0.09319 -0.0658,-0.128744 -0.14634,-0.079 -0.2267,0.140107 -0.30935999,-0.274732 -0.12585,-0.631554 0.14712,-0.286058 0.13634,-0.296707 -0.10162,-0.10041 -0.14640999,0.120776 -0.26508999,0.156776 -0.26373999,0.08 0.004,-0.199427 0.25457999,-0.56943 0.37542999,-0.553256 0.38776,0.05189 0.45185,0.0023 0.27394,-0.212089 -0.20736,-0.249855 0.0279,-0.507447 0.30634,-0.335378 0.0906,0.05598 0.1176,-0.008 0.0632,-0.149638 -0.0522,-0.136066 -0.14483,-0.216555 -0.20581,-0.178867 -0.26813,0.165713 -0.52615,-0.201284 -0.40102,-0.570386 0.0709,-0.208987 0.11456,-0.433976 0.0971,-0.499976 -0.0174,-0.066 0.038,-0.12 0.12327,-0.12 0.0852,0 0.10776,-0.126 0.0501,-0.28 -0.0924,-0.246549 -0.0723,-0.253403 0.16868,-0.05737 0.23914,0.194578 0.26092,0.189536 0.17284,-0.04 -0.0554,-0.144446 -0.18308,-0.263732 -0.28366,-0.26508 -0.13653,-0.0018 -0.13635,-0.03224 7.3e-4,-0.12 0.10099,-0.06465 0.20899,-0.33355 0.24,-0.59755 0.031,-0.264 0.15659,-0.520522 0.27906,-0.57005 0.16843,-0.06811 0.11794,-0.194787 -0.20725,-0.51998 -0.36237,-0.362368 -0.41342,-0.517938 -0.32487,-0.989951 0.0578,-0.308011 0.1623,-0.560019 0.23227,-0.560019 0.07,0 0.0876,-0.15137 0.0393,-0.336378 -0.0515,-0.197075 0.004,-0.39484 0.13498,-0.47755 0.17318,-0.109659 0.17619,-0.141718 0.0135,-0.143622 -0.11519,-0.0013 -0.16298,-0.07762 -0.10621,-0.169487 0.0568,-0.09187 -0.0102,-0.340115 -0.14878,-0.551656 -0.17106,-0.261073 -0.19671,-0.418798 -0.0798,-0.491021 0.0947,-0.05852 0.13727,-0.239814 0.0946,-0.402873 -0.0426,-0.163061 -0.0102,-0.280935 0.072,-0.261943 0.22018,0.05085 0.7828,-1.686492 0.61257,-1.891604 -0.14807,-0.17842 -0.0421,-0.833143 0.18173,-1.122456 0.25393,-0.328271 0.29512,-1.816797 0.0569,-2.055056 -0.18483,-0.184831 -0.18736,-0.255458 -0.0143,-0.399077 0.11564,-0.09598 0.27487,-0.121125 0.35383,-0.05589 0.079,0.06524 0.0113,-0.03885 -0.15039,-0.231307 -0.30958,-0.368494 -0.24116,-0.69008 0.14682,-0.69008 0.1268,0 0.23956,-0.144 0.25056,-0.32 0.011,-0.176 0.0337,-0.41 0.0504,-0.52 0.0451,-0.296962 -0.0951,-0.498923 -0.21341,-0.307458 -0.0578,0.09356 -0.22129,-0.03935 -0.37255,-0.302916 -0.14824,-0.258295 -0.19603,-0.469626 -0.10619,-0.469626 0.0924,0 0.11766,-0.143934 0.0581,-0.331466 -0.0676,-0.213126 -0.003,-0.444078 0.18024,-0.646886 0.27463,-0.303461 0.27413,-0.311072 -0.0133,-0.200757 -0.23721,0.09103 -0.27715,0.05821 -0.19373,-0.159171 0.0622,-0.161968 0.019,-0.306853 -0.10556,-0.354662 -0.22923,-0.08797 -0.29411,-0.547058 -0.0773,-0.547058 0.0733,0 0.13334,-0.105741 0.13334,-0.234979 0,-0.150787 0.10032,-0.203315 0.28,-0.146607 0.19603,0.06187 0.1627,-0.01486 -0.11115,-0.255886 l -0.39114,-0.344258 0.43114,0.10821 c 0.36362,0.09126 0.43115,0.05662 0.43115,-0.221184 0,-0.181168 -0.0986,-0.386973 -0.21905,-0.457346 -0.12047,-0.07037 -0.27218,-0.298966 -0.33714,-0.507987 -0.0808,-0.259886 -0.0624,-0.345632 0.058,-0.271216 0.11316,0.06994 0.16399,-0.03725 0.14224,-0.299963 -0.0186,-0.22483 -0.0989,-0.408784 -0.17852,-0.408784 -0.0796,0 -0.0626,-0.09887 0.0376,-0.21972 0.1003,-0.120846 0.13706,-0.337763 0.0817,-0.482038 -0.0554,-0.144274 -0.0144,-0.366247 0.091,-0.493271 0.10542,-0.127024 0.14523,-0.306107 0.0885,-0.397963 -0.0578,-0.09354 0.03,-0.167008 0.19956,-0.167008 0.16652,0 0.30277,-0.104834 0.30277,-0.232962 0,-0.128129 -0.06,-0.19588 -0.13333,-0.150556 -0.0733,0.04532 -0.13333,0.0062 -0.13333,-0.08704 0,-0.09319 -0.11225,-0.169443 -0.24945,-0.169443 -0.13719,0 -0.20688,-0.06886 -0.15487,-0.153013 0.052,-0.08416 0.19107,-0.115977 0.30903,-0.07071 0.15519,0.05955 0.19311,-0.02938 0.13721,-0.321813 -0.0425,-0.222262 -0.20653,-0.445146 -0.36455,-0.495296 -0.24348,-0.07728 -0.2963,-0.32617 -0.15261,-0.719168 0.0161,-0.044 0.0396,-0.224 0.0522,-0.4 0.0166,-0.230845 0.11935,-0.306723 0.36882,-0.272344 0.43405,0.05981 0.57017,-0.143341 0.27738,-0.413965 -0.12879,-0.119041 -0.2232,-0.135961 -0.2232,-0.04 0,0.09147 -0.0745,0.166309 -0.16563,0.166309 -0.10905,0 -0.10347,-0.116149 0.0163,-0.34 0.13988,-0.261366 0.13193,-0.43394 -0.0344,-0.746182 -0.1712,-0.321434 -0.1744,-0.420262 -0.0153,-0.473666 0.11055,-0.03712 0.16974,-0.11806 0.13154,-0.179875 -0.0382,-0.06182 0.12334,-0.123448 0.359,-0.136961 0.40049,-0.02296 0.40557,-0.0153 0.0778,0.117463 -0.4213,0.170623 -0.43207,0.745484 -0.016,0.854289 0.15769,0.04124 0.28671,0.0055 0.28671,-0.07949 0,-0.08496 0.0635,-0.115222 0.14109,-0.06726 0.0776,0.04796 0.25095,-0.139595 0.3852,-0.416793 0.20365,-0.420506 0.20868,-0.53941 0.0303,-0.717762 -0.26798,-0.267976 -0.50592,-0.273339 -0.61066,-0.01376 -0.0621,0.153816 -0.0836,0.151635 -0.0933,-0.0094 -0.007,-0.11798 -0.0944,-0.158922 -0.19982,-0.09375 -0.13191,0.08152 -0.15018,0.02524 -0.0619,-0.190557 0.0689,-0.168486 0.16495,-0.445232 0.21337,-0.6150423 0.14258,-0.500114 0.56004,-0.891254 0.95122,-0.891254 0.20045,0 0.37275,-0.09 0.3829,-0.2 0.0102,-0.11 0.0281,-0.292396 0.04,-0.405324 0.0119,-0.112929 0.12955,-0.273826 0.26155,-0.35755 0.1985,-0.125909 0.18467,-0.153529 -0.08,-0.159765 -0.29923,-0.007 -0.30192,-0.02127 -0.0415,-0.218999 0.26318,-0.199825 0.26153,-0.226822 -0.0299,-0.490586 -0.16964,-0.153518 -0.37999,-0.234896 -0.46746,-0.18084 -0.0875,0.05406 -0.20425,0.02511 -0.25952,-0.06433 -0.0553,-0.08944 -0.02,-0.16261 0.0784,-0.16261 0.0984,0 0.13818,-0.06585 0.0884,-0.146334 -0.0497,-0.08048 10e-6,-0.183003 0.11056,-0.22782 0.14242,-0.05774 0.14989,-0.120002 0.0256,-0.213665 -0.0965,-0.0727 -0.21941,-0.312609 -0.27325,-0.533133 -0.0805,-0.329565 -0.0105,-0.451092 0.39282,-0.682575 0.3991,-0.229049 0.45511,-0.324514 0.30003,-0.511371 -0.11755,-0.141634 -0.14289,-0.370757 -0.0661,-0.597424 0.0685,-0.202223 0.10732,-0.457678 0.0862,-0.567678 -0.0228,-0.118605 0.13111,-0.2 0.37807,-0.2 0.2369,0 0.37382,0.06899 0.31758,0.16 -0.0544,0.088 -0.0212,0.16 0.0737,0.16 0.1,0 0.13977,-0.180895 0.0946,-0.429851 -0.0785,-0.43305 0.13352,-0.850149 0.43221,-0.850149 0.095,0 0.124,0.230145 0.0705,0.56 -0.05,0.308 -0.0234,0.56 0.0591,0.56 0.0825,0 0.14142,-0.054 0.131,-0.12 -0.046,-0.291445 0.0305,-0.516796 0.16295,-0.48 0.0792,0.022 0.14505,-0.02395 0.14633,-0.102112 0.004,-0.25991 0.40842,-0.397702 0.70342,-0.239824 0.21191,0.113411 0.31427,0.09508 0.37664,-0.06744 0.10122,-0.263779 0.86832,-0.168749 0.87206,0.108032 10e-4,0.09974 0.0686,0.07674 0.1495,-0.05112 0.0809,-0.127855 0.10678,-0.433855 0.0575,-0.68 -0.0556,-0.277882 -0.0213,-0.447535 0.0905,-0.447535 0.099,0 0.18,0.108 0.18,0.24 0,0.288963 0.34131,0.314682 0.6100301,0.04597 0.21273,-0.212728 0.98997,-0.306879 0.98997,-0.119919 0,0.06415 0.14811,0.155363 0.32914,0.202703 0.27007,0.07063 0.29527,0.04526 0.14041,-0.141339 -0.14891,-0.179426 -0.1379,-0.227412 0.0522,-0.227412 0.13251,0 0.27867,0.144297 0.32479,0.32066 0.10987,0.420153 0.59294,0.252009 0.5102,-0.177591 -0.033,-0.171389 0.008,-0.269444 0.0916,-0.2179 0.0834,0.05154 0.15274,-0.03653 0.15409,-0.19572596 0.002,-0.224455 0.0335,-0.240473 0.14063,-0.07134 0.11667,0.18413896 0.15054,0.18413896 0.21755,0 0.0602,-0.165528 0.12671,-0.173654 0.27577,-0.03371 0.14919,0.14007496 0.26863,0.12254396 0.49693,-0.07294 0.16562,-0.141805 0.6378,-0.272555 1.05176,-0.291239 0.53857,-0.02431 0.68664,0.01132 0.52306,0.125879 -0.1607,0.112548 -0.0863,0.12502 0.25185,0.04219 0.89175,-0.218476 1.59162,-0.188401 1.79491,0.07713 0.17745,0.23177396 0.19537,0.23102996 0.2,-0.0083 0.003,-0.144585 0.12177,-0.307655 0.26437,-0.362378 0.20049,-0.07694 0.2398,-0.025 0.17337,0.229058 -0.12014,0.45939696 0.57469,1.20019896 0.96308,1.02680796 0.25237,-0.112663 0.24388,-0.133972 -0.0757,-0.189882 -0.46679,-0.08166 -0.50199,-0.68072096 -0.04,-0.68072096 0.176,0 0.32,0.0636 0.32,0.141339 0,0.20122296 0.62143,0.33813796 0.73089,0.16102996 0.0502,-0.08117 0.1614,-0.10421596 0.24717,-0.05121 0.0858,0.05301 0.25317,0.0157 0.37199,-0.08291 0.161,-0.13362 0.27228,-0.126939 0.4368,0.02623 0.28764,0.26777896 0.61315,0.33044896 0.61315,0.11804796 0,-0.10368196 0.30519,-0.14073596 0.80123,-0.09728 0.44068,0.03861 0.84541,-0.0013 0.89941,-0.08864 0.054,-0.08736 0.30264,-0.117947 0.55256,-0.06796 0.24991,0.04998 0.49816,0.02006 0.55165,-0.06649 0.0535,-0.08655 0.16428,-0.115945 0.2462,-0.06532 0.0819,0.05063 0.14895,0.0074 0.14895,-0.09605 0,-0.109374 0.13402,-0.153055 0.32022,-0.104364 0.17612,0.04606 0.28529,0.02722 0.24259,-0.04186 -0.0678,-0.109784 3.09446,-0.116903 3.51719,-0.0079 0.088,0.02269 0.196,0.02759 0.24,0.0109 0.45268,-0.171751 1.36209,-0.133306 1.76409,0.07457 0.26692,0.138028 0.56611,0.201018 0.66488,0.139977 0.0988,-0.06104 0.27665,0.02178 0.3953,0.184042 0.20397,0.27895196 0.21573,0.27499296 0.21573,-0.07267 0,-0.269558 0.0676,-0.341777 0.25308,-0.270581 0.1392,0.05342 0.2832,0.09712 0.32,0.09712 0.0368,0 0.0669,0.108 0.0669,0.24 0,0.20708996 0.18588,0.27936296 0.58211,0.22633496 0.0562,-0.0075 0.15644,0.07423 0.22283,0.181655 0.0827,0.133861 0.26457,0.153434 0.57789,0.0622 0.25145,-0.07322 0.52918,-0.144091 0.61718,-0.157501 0.088,-0.01341 0.33682,-0.09633 0.55294,-0.18425696 0.21612,-0.08793 0.62571,-0.107376 0.9102,-0.04321 0.37437,0.08443 0.54048,0.05613 0.60134,-0.10249 0.0636,-0.165824 0.18411,-0.181127 0.4951,-0.06289 0.2885,0.109686 0.50362,0.09842 0.72174,-0.0378 0.25863,-0.161518 0.34697,-0.144512 0.5268,0.101416 0.17644,0.24130196 0.34584,0.27699796 0.92396,0.19469396 0.38936,-0.05543 0.82573,-0.11561896 0.96974,-0.13375296 0.144,-0.01813 0.2263,-0.125543 0.18288,-0.238686 -0.0963,-0.251051 0.33562,-0.270316 0.77604,-0.03461 0.22942,0.12278 0.38058,0.120586 0.53524,-0.0078 0.14856,-0.123291 0.24775,-0.126742 0.31921,-0.0111 0.057,0.09227 0.0154,0.16777 -0.0924,0.16777 -0.10786,0 -0.15178,0.04433 -0.0976,0.0985 0.0542,0.05418 0.31818,0.02192 0.58667,-0.07168 0.44154,-0.153923 0.48817,-0.138626 0.48817,0.160162 0,0.26449196 0.0718,0.31110696 0.36,0.23386196 0.198,-0.05306 0.432,-0.09856 0.52,-0.101111 0.088,-0.0025 0.052,-0.0815 -0.08,-0.17543596 -0.18173,-0.129331 -0.0981,-0.151208 0.34462,-0.09011 0.45858,0.0633 0.59993,0.02215 0.65563,-0.190865 0.0391,-0.149359 0.22754,-0.283352 0.41884,-0.297762 0.1913,-0.01441 0.31728,0.02344 0.27996,0.08412 -0.0373,0.06067 0.3268,0.122317 0.80916,0.136985 0.62928,0.01913 0.93499,0.105959 1.08227,0.307369 0.19927,0.27252496 0.73377,0.46271296 0.70561,0.25107696 -0.0401,-0.30147496 0.0484,-0.36398596 0.26305,-0.18582196 0.13153,0.10916096 0.38353,0.16071796 0.56,0.11456996 0.17647,-0.04615 0.32086,-0.01618 0.32086,0.06659 0,0.1708 0.61333,0.118274 0.92909,-0.07957 0.115,-0.07206 0.38,-0.08812 0.5889,-0.03569 0.20889,0.05243 0.56678,0.02424 0.79531,-0.06265 0.38322,-0.1457 0.40229,-0.133286 0.24547,0.15973796 -0.11569,0.216171 -0.1171,0.317715 -0.004,0.317715 0.0911,0 0.16563,-0.0559 0.16563,-0.124228 0,-0.06833 0.288,-0.09676 0.64,-0.06319 0.352,0.03357 0.64,0.125471 0.64,0.204227 0,0.07876 0.138,0.143195 0.30666,0.143195 0.16867,0 0.33979,0.09 0.38027,0.2 0.0405,0.11 0.12685,-1.92e-4 0.19191,-0.244888 0.0887,-0.333659 0.19029,-0.422037 0.40626,-0.353491 0.15838,0.05027 0.33643,0.01297 0.39567,-0.08288 0.0767,-0.12414296 0.17266,-0.12037996 0.33347,0.01308 0.13998,0.116173 0.22576,0.124816 0.22576,0.02275 0,-0.09054 0.144,-0.126955 0.32,-0.08093 0.39444,0.103149 0.40963,0.298249 0.04,0.513544 -0.154,0.0897 -0.2044,0.165274 -0.112,0.16795 0.0924,0.0027 0.2544,-0.08154 0.36,-0.187134 0.1056,-0.1056 0.192,-0.140634 0.192,-0.07785 0,0.06278 0.27,5.28e-4 0.6,-0.138326 0.33,-0.138859 0.798,-0.258782 1.04,-0.266496 0.242,-0.0077 0.44,-0.08947 0.44,-0.18167396 0,-0.103342 0.0737,-0.094 0.192,0.02435 0.1056,0.10559996 0.4476,0.18631496 0.76,0.17936796 0.3124,-0.0069 0.478,-0.04895 0.368,-0.09333 -0.40651,-0.164028 -0.17873,-0.294794 0.56017,-0.32159 0.4179,-0.01516 1.0589,-0.135519 1.42444,-0.267474 0.62858,-0.22691 0.66897,-0.223247 0.74502,0.06756 0.0442,0.169109 0.0174,0.307473 -0.0596,0.307473 -0.077,0 -0.10522,0.09063 -0.0627,0.2014 0.0513,0.13367796 0.38587,0.19321596 0.99498,0.17705896 1.31893,-0.03498 1.33631,-0.03848 1.28579,-0.25845896 -0.0253,-0.11 0.009,-0.223458 0.0757,-0.252128 0.26149,-0.112115 1.08258,0.171252 1.23043,0.42463096 0.0858,0.147123 0.15828,0.20248 0.16095,0.123015 0.003,-0.07947 0.14751,0.01998 0.32184,0.220986 0.27415,0.316099 0.33045,0.330337 0.41676,0.105401 0.0549,-0.143037 0.15928,-0.223306 0.23198,-0.178376 0.0727,0.04493 0.17813,0.0073 0.23429,-0.08353 0.0562,-0.09087 0.16159,-0.128459 0.23429,-0.08353 0.0727,0.04493 0.18087,-0.0439 0.24037,-0.19739096 0.10134,-0.261388 0.12219,-0.260062 0.32903,0.02092 0.12146,0.165 0.403,0.3 0.62566,0.3 0.22265,0 0.36588,0.063 0.31829,0.14 -0.0476,0.077 -0.29403,0.14 -0.54764,0.14 -0.50258,0 -0.75631,0.229228 -0.45789,0.413666 0.11039,0.06822 0.14466,0.04673 0.0834,-0.05233 -0.0688,-0.11141 0.16537,-0.149787 0.69451,-0.113794 0.66373,0.04515 0.82687,0.0011 0.9672,-0.261099 0.0928,-0.173475 0.23016,-0.277487 0.30515,-0.231137 0.075,0.04635 0.77339,0.11013 1.55197,0.141736 1.38004,0.05602 2.37757,-0.115013 2.21404,-0.379611 -0.111,-0.17960296 0.65676,-0.31565996 1.48159,-0.26255296 0.374,0.02408 0.68,-0.02558 0.68,-0.110347 0,-0.08477 0.12764,-0.03861 0.28365,0.102574 0.19407,0.17562696 0.3583,0.20949996 0.52,0.107249 0.12999,-0.0822 0.44205,-0.150559 0.69346,-0.151906 0.33286,-0.0018 0.43294,-0.06546 0.36817,-0.234259 -0.10139,-0.264205 0.4256,-0.494517 0.71801,-0.313797 0.12031,0.07436 0.14286,0.04501 0.0638,-0.08298 -0.0935,-0.151368 0.10056,-0.182851 0.82381,-0.133609 0.52042,0.03543 1.03237,0.11767 1.13767,0.182752 0.1053,0.06508 0.19146,0.06692 0.19146,0.0041 0,-0.06283 0.126,-0.006 0.28,0.12622 0.46544,0.39971 0.69178,0.491456 0.64397,0.261028 -0.0242,-0.116542 0.064,-0.211894 0.19604,-0.211894 0.131995,0 0.217933,0.102188 0.190968,0.227084 -0.04107,0.190223 -0.0075,0.192623 0.206781,0.01478 0.193758,-0.160807 0.300736,-0.167376 0.441027,-0.02708 0.10187,0.10187 0.368819,0.186321 0.593219,0.187668 0.284437,0.0017 0.343366,0.04342 0.194584,0.137734 -0.173203,0.10979396 -0.167614,0.15285896 0.02966,0.22856196 0.133693,0.0513 0.27473,0.0073 0.313414,-0.09773 0.05373,-0.14589496 0.120412,-0.14377196 0.282338,0.009 0.305341,0.288057 0.518237,0.245983 0.404803,-0.08 -0.07966,-0.228934 -0.04631,-0.220913 0.182882,0.04398 0.154174,0.178188 0.414841,0.297266 0.579264,0.264619 0.179848,-0.03571 0.257321,0.008 0.194461,0.109705 -0.06768,0.109504 0.09763,0.153146 0.469224,0.123882 0.31554,-0.02485 0.606886,0.0085 0.647436,0.07411 0.119548,0.193432 1.221816,0.03051 1.369458,-0.202414 0.102514,-0.161727 0.13617,-0.164782 0.138022,-0.01253 0.002,0.160454 0.06664,0.161265 0.31848,0.004 0.26672,-0.166569 0.351589,-0.148737 0.543917,0.114288 0.192592,0.263384 0.286135,0.282909 0.60397,0.126065 0.206846,-0.102073 0.534409,-0.229799 0.727918,-0.283835 0.216827,-0.06055 0.318738,-0.184498 0.265581,-0.323022 -0.07109,-0.18525296 0.0077,-0.19502496 0.448165,-0.05558 0.721605,0.22846296 1.132707,0.19964796 1.347769,-0.09447 0.158818,-0.217195 0.293949,-0.199037 1.171048,0.15736096 0.545335,0.221589 1.053786,0.364404 1.129893,0.317367 0.07611,-0.04704 0.163421,-0.01039 0.194029,0.08143 0.03806,0.114191 0.313846,0.107355 0.872632,-0.02163 0.961398,-0.221918 1.658002,-0.09626 1.661502,0.299715 0.002,0.237311 0.0246,0.2426 0.15755,0.03695 0.10658,-0.164915 0.15587,-0.17645 0.15755,-0.03687 0.002,0.129004 0.14842,0.176661 0.40245,0.130596 0.22,-0.03989 0.4,-0.0068 0.4,0.07344 0,0.08029 0.17705,0.06531 0.39345,-0.03329 0.3174,-0.144621 0.47582,-0.12529 0.8197,0.100026 0.23444,0.153611 0.38021,0.204799 0.32394,0.113752 -0.0563,-0.09105 -0.0294,-0.210598 0.0597,-0.265667 0.3031,-0.187325 0.79616,-0.222829 0.89409,-0.06438 0.0628,0.101635 0.17314,0.09525 0.3095,-0.01792 0.15664,-0.13 0.26643,-0.117477 0.42103,0.04803 0.11503,0.123135 0.35141,0.186678 0.5253,0.141206 0.31195,-0.08158 0.31201,-0.08449 0.005,-0.218855 -0.23071,-0.100878 -0.18269,-0.116894 0.18523,-0.06179 0.27317,0.04091 0.58217,-0.01111 0.68666,-0.115604 0.14667,-0.146661 0.22206,-0.138129 0.33054,0.03741 0.16485,0.266722 0.65236,0.376228 0.60117,0.135037 -0.0193,-0.09081 0.065,-0.201455 0.18724,-0.245872 0.13613,-0.04946 0.17897,-0.0107 0.11055,0.1 -0.0642,0.103936 -0.009,0.180758 0.13049,0.180758 0.14864,0 0.28151,0.209611 0.34399,0.54264 0.078,0.415955 0.23848,0.612063 0.68725,0.84 0.322,0.163548 0.63835,0.36936 0.703,0.45736 0.0647,0.088 0.11865,-0.01082 0.12,-0.219591 0.002,-0.30958 0.0443,-0.344831 0.22953,-0.191128 0.17943,0.148913 0.26128,0.127841 0.39004,-0.100409 0.12198,-0.216235 0.20919,-0.243123 0.34686,-0.106931 0.13098,0.129579 0.13384,0.21288 0.01,0.289443 -0.27533,0.170163 -0.21702,0.735105 0.0647,0.626994 0.13607,-0.05221 0.28083,0.01833 0.33677,0.164102 0.054,0.140625 0.15942,0.21779 0.23436,0.171477 0.0749,-0.04631 0.0957,-0.189899 0.0461,-0.319081 -0.0496,-0.129182 -0.0104,-0.234876 0.087,-0.234876 0.22236,0 0.22628,0.249189 0.0103,0.652803 -0.0918,0.17147 -0.10977,0.302211 -0.04,0.290533 0.43393,-0.07263 0.4812,0.03811 0.33155,0.776664 -0.0847,0.418 -0.17801,0.930638 -0.20736,1.139195 -0.0683,0.485074 0.21778,2.278037 0.39811,2.495318 0.0755,0.09102 0.15209,0.237487 0.17012,0.325487 0.1102,0.537997 0.72164,1.5394563 0.85717,1.4039293 0.0628,-0.0628 0.0655,0.01274 0.006,0.167848 -0.0595,0.155113 -0.14623,0.244008 -0.1927,0.197545 -0.15427,-0.154274 -0.52957,0.765199 -0.41639,1.020158 0.0612,0.137786 0.0998,0.30452 0.0858,0.37052 -0.014,0.066 0.0425,0.12 0.12541,0.12 0.0829,0 0.12294,0.144718 0.0889,0.321595 -0.0341,0.176879 0.0136,0.538383 0.106,0.803343 0.10866,0.311712 0.11337,0.551158 0.0133,0.678404 -0.23545,0.298992 -0.3693,1.396656 -0.17068,1.396656 0.0927,0 0.12966,0.148909 0.0821,0.330909 -0.0476,0.182001 -0.0124,0.543505 0.0782,0.803342 0.12116,0.347559 0.11235,0.535506 -0.0333,0.711048 -0.23703,0.285608 -0.36728,1.194701 -0.17116,1.194701 0.076,0 0.12959,0.210331 0.11908,0.467403 -0.0105,0.257072 -0.0561,0.464546 -0.10131,0.461053 -0.28427,-0.02196 -0.30401,0.08264 -0.0927,0.491259 0.13075,0.252842 0.1926,0.504842 0.13744,0.56 -0.0551,0.05516 -0.012,0.100285 0.0958,0.100285 0.10786,0 0.15088,0.07317 0.0956,0.16261 -0.0553,0.08943 -0.16753,0.121187 -0.24945,0.07056 -0.0819,-0.05063 -0.15004,0.182197 -0.15139,0.517391 -0.002,0.471801 -0.0404,0.55524 -0.17048,0.369443 -0.13169,-0.18809 -0.14623,-0.162443 -0.0672,0.118568 0.12896,0.458707 -0.0584,0.804232 -0.27033,0.498514 -0.10159,-0.146548 -0.11408,-0.08711 -0.0384,0.182918 0.0616,0.22 0.16415,0.436 0.22782,0.48 0.10458,0.07226 0.10432,0.248757 -9.6e-4,0.72 -0.0788,0.352517 0.0114,0.573168 0.18932,0.463195 0.12586,-0.07779 0.15372,-0.02846 0.085,0.150559 -0.0562,0.146435 -0.0276,0.266246 0.0636,0.266246 0.093,0 0.12115,0.140563 0.0642,0.32 -0.0559,0.176 -0.0325,0.32 0.0519,0.32 0.0844,0 0.20166,0.192136 0.2606,0.42697 0.0589,0.234832 0.21559,0.576832 0.34812,0.76 0.22074,0.305092 0.23669,0.307579 0.19018,0.02963 -0.0279,-0.16687 0.0468,-0.337388 0.16602,-0.378929 0.16213,-0.05648 0.18695,0.02002 0.0984,0.303401 -0.0651,0.208412 -0.16265,0.41493 -0.21679,0.45893 -0.17134,0.139256 -0.21939,0.623805 -0.32129,3.24 -0.0119,0.304822 -0.10316,0.440752 -0.29714,0.44245 -0.16238,0.0014 -0.21083,0.05183 -0.11533,0.12 0.24986,0.178371 0.1589,0.749486 -0.22229,1.39555 -0.39814,0.674802 -0.43755,1.042 -0.11182,1.042 0.1268,0 0.28193,0.08313 0.34472,0.184722 0.0707,0.114448 0.0439,0.141289 -0.0706,0.07056 -0.12425,-0.07679 -0.18472,0.04606 -0.18472,0.375279 0,0.269193 0.0606,0.489443 0.13463,0.489443 0.074,0 0.0801,0.342 0.0135,0.76 -0.092,0.576822 -0.0666,0.802814 0.10536,0.937638 0.2976,0.233351 0.28578,0.378536 -0.0534,0.656588 -0.154,0.126227 -0.19497,0.18699 -0.0911,0.13503 0.10392,-0.05196 0.22951,-0.02885 0.27909,0.05137 0.0496,0.08021 -0.0248,0.189933 -0.16518,0.243818 -0.2164,0.08304 -0.19796,0.145763 0.12092,0.411443 0.23064,0.192163 0.29162,0.315529 0.15758,0.318792 -0.22228,0.0054 -0.19715,0.402566 0.0653,1.031569 0.077,0.184447 0.0674,0.268935 -0.024,0.212431 -0.20343,-0.125727 -0.18763,1.030398 0.0173,1.263617 0.11983,0.136391 0.19418,0.136391 0.29525,0 0.0817,-0.110256 0.0964,-0.06363 0.0372,0.117986 -0.0538,0.165154 -0.0156,0.399333 0.0848,0.520397 0.10154,0.122347 0.14071,0.42999 0.0882,0.692619 -0.0745,0.372632 -0.0449,0.453475 0.14008,0.382485 0.12902,-0.04951 0.23458,-0.008 0.23458,0.09212 0,0.100176 -0.11272,0.225394 -0.25049,0.278262 -0.19513,0.07488 -0.22718,0.234114 -0.145,0.720512 0.0651,0.38549 0.0356,0.708648 -0.0773,0.844612 -0.12108,0.145886 -0.12786,0.254155 -0.0201,0.320752 0.19538,0.120748 0.17926,1.185129 -0.0198,1.30816 -0.0772,0.0477 -0.099,0.217083 -0.0484,0.376403 0.0506,0.159321 -0.0183,0.399913 -0.15303,0.534648 -0.13473,0.134734 -0.20116,0.359137 -0.14762,0.498673 0.0678,0.176576 0.0271,0.226738 -0.13379,0.165004 -0.13818,-0.05303 -0.23115,0.0078 -0.23115,0.151147 0,0.131915 0.078,0.193193 0.17334,0.136171 0.10794,-0.06456 0.10355,-0.01663 -0.0116,0.127038 -0.10173,0.126893 -0.22204,0.468484 -0.26737,0.759093 -0.0453,0.290608 -0.15946,0.621232 -0.25365,0.734722 -0.0942,0.113488 -0.12387,0.253717 -0.066,0.311621 0.0578,0.0579 0.0212,0.105278 -0.0814,0.105278 -0.10267,0 -0.18667,0.108 -0.18667,0.24 0,0.132 0.0832,0.24 0.1848,0.24 0.10245,0 0.049,0.153005 -0.12,0.343376 -0.22134,0.249357 -0.24954,0.362698 -0.10297,0.413944 0.11101,0.03881 0.2802,0.216982 0.37597,0.395933 0.0958,0.17895 0.10951,0.285425 0.0305,0.236613 -0.079,-0.04881 -0.24816,-0.0226 -0.37596,0.05824 -0.20106,0.127191 -0.2013,0.147323 -0.002,0.149443 0.16764,0.0018 0.1458,0.0711 -0.08,0.25393 -0.29408,0.238122 -0.28206,0.246654 0.2263,0.160624 0.42054,-0.07117 0.51808,-0.04185 0.4501,0.135278 -0.0477,0.124375 0.0178,0.266248 0.14553,0.315277 0.18704,0.07177 0.50248,0.608039 0.62195,1.057341 0.0117,0.044 0.0757,0.23928 0.14227,0.433957 0.0666,0.194675 0.0484,0.489645 -0.0404,0.655488 -0.11024,0.205987 -0.10733,0.355581 0.009,0.472102 0.0938,0.09381 0.11724,0.256855 0.0521,0.362314 -0.0652,0.105457 -0.13932,0.470894 -0.16477,0.81208 -0.0254,0.341185 -0.16273,0.736803 -0.30508,0.87915 -0.18884,0.188848 -0.21254,0.314555 -0.0877,0.465019 0.22723,0.2738 0.14961,0.56769 -0.24009,0.908988 l -0.32,0.280256 0.32,0.0078 c 0.17604,0.0043 0.24802,0.06065 0.16,0.125323 -0.25069,0.184177 -0.2896,0.837206 -0.0501,0.84 0.15941,0.0019 0.15468,0.0375 -0.0196,0.147806 -0.19706,0.124691 -0.19792,0.183667 -0.006,0.414864 0.19398,0.233731 0.18589,0.297135 -0.0609,0.477624 -0.15654,0.114463 -0.27393,0.232672 -0.26087,0.262685 0.0131,0.03001 -0.0267,0.255472 -0.0883,0.501018 -0.0783,0.311795 -0.0338,0.53287 0.14726,0.732985 0.14262,0.157595 0.21595,0.329904 0.16294,0.382907 -0.053,0.053 -0.0386,0.189896 0.0321,0.304204 0.19016,0.307692 0.20496,0.82667 0.0298,1.046449 -0.0846,0.106144 -0.11429,0.256901 -0.066,0.335015 0.12431,0.201132 -0.204,1.311993 -0.38775,1.311993 -0.0839,0 -0.15248,0.07625 -0.15248,0.169443 0,0.09319 0.0797,0.120176 0.17715,0.05996 0.12067,-0.07458 0.14071,0.0053 0.0629,0.250532 -0.0744,0.234423 -0.0385,0.408005 0.10286,0.497586 0.15861,0.100501 0.12011,0.138235 -0.14288,0.140026 -0.198,0.0013 -0.36,0.04534 -0.36,0.09776 0,0.165582 0.55433,1.102197 0.68668,1.160246 0.19416,0.08515 -0.21172,0.502349 -0.50627,0.520389 -0.14539,0.0089 -0.0837,0.07001 0.13959,0.138358 l 0.4,0.12241 -0.4,0.171499 c -0.26285,0.112699 -0.30867,0.174978 -0.13365,0.181642 0.21332,0.0081 0.28868,0.248382 0.37847,1.206624 0.0617,0.658065 0.0686,1.309805 0.0155,1.44831 -0.0532,0.138506 -0.0304,0.210914 0.0505,0.160909 0.0809,-0.05001 0.19508,-0.01331 0.25371,0.08156 0.0586,0.09486 0.2796,0.238256 0.49105,0.31865 0.26903,0.102285 0.38446,0.270288 0.38446,0.559574 0,0.234445 -0.0692,0.37066 -0.15976,0.314666 -0.0879,-0.05431 -0.14846,0.03145 -0.13465,0.190557 0.0462,0.532069 -0.0498,1.411808 -0.13189,1.208297 -0.0446,-0.110548 -0.14708,-0.160179 -0.2278,-0.110289 -0.0871,0.05384 -0.0793,0.216813 0.0193,0.400997 0.15113,0.282396 0.0997,0.37278 -0.19031,0.334198 -0.14485,-0.01927 -0.0687,0.418461 0.0995,0.571461 0.0753,0.06855 0.0852,0.03463 0.0219,-0.07537 -0.0633,-0.11 -0.051,-0.2 0.0273,-0.2 0.0783,0 0.24118,0.198 0.3619,0.44 0.12072,0.242 0.25201,0.505125 0.29176,0.584722 0.0397,0.0796 -0.0109,0.09335 -0.11246,0.03056 -0.1016,-0.06279 -0.18472,-0.03383 -0.18472,0.06435 0,0.110188 -0.13611,0.08318 -0.3556,-0.07056 -0.44031,-0.308403 -0.54633,-0.311173 -0.65913,-0.01722 -0.0578,0.15057 -0.0121,0.202343 0.13038,0.14768 0.27456,-0.105358 0.92341,0.227831 0.80783,0.414831 -0.047,0.07607 0.005,0.171659 0.11552,0.212421 0.14767,0.05445 0.10549,0.246889 -0.159,0.725364 -0.198,0.358188 -0.36,0.690986 -0.36,0.739552 0,0.04857 0.162,0.09665 0.36,0.106861 0.27091,0.01397 0.2907,0.03667 0.08,0.09173 -0.154,0.0402 -0.28,0.13763 -0.28,0.21642 0,0.0788 0.0992,0.10518 0.22043,0.0587 0.14998,-0.0575 0.24331,0.0713 0.29201,0.40312 0.0543,0.36973 10e-4,0.50997 -0.21835,0.57973 -0.26857,0.0852 -0.2724,0.13397 -0.052,0.66144 0.29206,0.699 0.29209,0.69034 -0.002,0.69034 -0.29781,0 -0.33362,0.89978 -0.04,1.00502 0.29013,0.104 -0.2603,0.99476 -0.61529,0.99573 -0.43148,10e-4 -0.39535,0.50406 0.0704,0.9802 0.23367,0.23888 0.33546,0.38201 0.2262,0.31807 -0.11716,-0.0686 -0.37186,0.057 -0.62086,0.30596 -0.36056,0.36056 -0.37828,0.41776 -0.12134,0.39179 0.16547,-0.0167 0.46438,0.022 0.66423,0.086 0.2964,0.0949 0.32779,0.15925 0.17029,0.34902 -0.13964,0.16826 -0.14389,0.26305 -0.0153,0.3425 0.23878,0.14758 0.2834,2.23124 0.0599,2.79618 -0.21727,0.54915 -0.22194,0.6355 -0.0279,0.51556 0.0827,-0.0511 0.13935,0.0527 0.12595,0.23056 -0.0134,0.1779 -0.0853,0.32346 -0.15976,0.32346 -0.0745,0 -0.0909,0.072 -0.0365,0.16 0.0544,0.088 0.0381,0.16 -0.0363,0.16 -0.0743,0 -0.13515,0.144 -0.13515,0.32 0,0.176 0.0803,0.32 0.17842,0.32 0.20889,0 0.2186,0.67236 0.0119,0.82251 -0.0776,0.0564 0.0134,0.15156 0.20232,0.21152 0.18891,0.06 0.3106,0.16218 0.27044,0.22718 -0.0986,0.15949 -0.11629,1.50727 -0.0334,2.53993 0.0371,0.46263 0.003,0.88088 -0.0754,0.92944 -0.18615,0.11505 -0.18432,0.76215 0.003,0.95742 0.13196,0.13779 0.25229,1.1357 0.19679,1.632 -0.0123,0.11 -0.16639,0.2 -0.34239,0.2 -0.176,0 -0.32,0.072 -0.32,0.16 0,0.088 0.11285,0.16 0.25078,0.16 0.17797,0 0.2213,0.0929 0.14922,0.32 -0.0583,0.18357 -0.0288,0.32 0.0692,0.32 0.0939,0 0.17078,0.072 0.17078,0.160004 0,0.088 -0.09,0.142 -0.2,0.12 -0.1266,-0.0253 -0.18894,0.12149 -0.16988,0.4 0.0166,0.242 -0.0406,0.44 -0.12701,0.44 -0.0864,0 -0.13987,0.09 -0.11876,0.2 0.0643,0.33527 -0.18215,0.88492 -0.44147,0.98443 -0.16278,0.0625 -0.21025,0.2033 -0.14153,0.41983 0.0569,0.17922 0.1236,0.67387 0.14827,1.09924 0.0247,0.42537 0.10378,0.86875 0.17581,0.98528 0.072,0.11654 0.16011,0.80383 0.19575,1.52732 0.0559,1.13455 0.0279,1.32289 -0.20346,1.36967 -0.23516,0.0475 -0.22268,0.11204 0.10114,0.52285 0.24948,0.3165 0.30638,0.48963 0.17527,0.53334 -0.10677,0.0356 -0.19413,0.29713 -0.19413,0.5812 0,0.31211 -0.1403,0.66709 -0.35452,0.89704 -0.29951,0.32148 -0.30896,0.36305 -0.0609,0.26786 0.24661,-0.0946 0.2813,-0.0483 0.21671,0.28963 -0.0423,0.22127 -0.0219,0.40231 0.0453,0.40231 0.17681,0 0.47766,0.93852 0.33008,1.02973 -0.0683,0.0422 -0.13385,0.33183 -0.14557,0.64353 -0.019,0.50481 0.0707,0.62457 0.44895,0.59929 0.16541,-0.0111 0.15596,1.13953 -0.011,1.34071 -0.21111,0.25438 -0.31796,1.34674 -0.13173,1.34674 0.073,0 0.0957,0.0965 0.0504,0.21437 -0.0453,0.1179 0.0251,0.30347 0.15634,0.41239 0.17251,0.14316 0.19952,0.30085 0.0975,0.56918 -0.0776,0.20414 -0.0977,0.41456 -0.0447,0.46761 0.053,0.053 0.0125,0.0965 -0.0902,0.0965 -0.10267,0 -0.18667,0.0697 -0.18667,0.15498 0,0.0852 0.10978,0.11285 0.24396,0.0614 0.18434,-0.0707 0.24249,0.0185 0.23793,0.36502 -0.003,0.25225 -0.005,0.60264 -0.003,0.77864 0.0117,1.20502 -0.018,1.52 -0.14325,1.52 -0.0822,0 -0.0833,0.25271 -0.003,0.6 0.18941,0.81561 0.17361,0.96843 -0.0673,0.65153 -0.13992,-0.18403 -0.27671,-0.22255 -0.43491,-0.12245 -0.15948,0.1009 -0.169,0.14678 -0.0308,0.14847 0.11,0.001 0.2,0.11045 0.2,0.24245 0,0.132 -0.0643,0.24 -0.14288,0.24 -0.0786,0 -0.18576,0.11174 -0.23817,0.24831 -0.0546,0.14239 -0.0278,0.20661 0.0629,0.15056 0.23021,-0.14228 0.18449,1.16812 -0.0651,1.86701 -0.17494,0.48977 -0.17379,0.57227 0.007,0.50288 0.19098,-0.0733 0.3002,0.21981 0.23524,0.63124 -0.0104,0.066 0.0536,0.12 0.14234,0.12 0.19188,0 0.16613,1.41653 -0.0279,1.53646 -0.0738,0.0456 -0.0546,0.23175 0.0427,0.4136 0.12277,0.22939 0.12548,0.36244 0.009,0.43451 -0.0924,0.0571 -0.11163,0.19521 -0.0426,0.30683 0.13835,0.22386 -0.14724,1.3086 -0.34453,1.3086 -0.0681,0 -0.0787,0.18 -0.0235,0.4 0.0605,0.24121 0.032,0.4 -0.0719,0.4 -0.0948,0 -0.13444,0.0987 -0.0881,0.21937 0.0463,0.12065 -0.0273,0.33087 -0.1636,0.46714 -0.18605,0.18605 -0.1983,0.26776 -0.0492,0.328 0.10922,0.0441 0.0186,0.091 -0.20143,0.1041 -0.34954,0.0209 -0.36143,0.039 -0.0942,0.14376 0.33394,0.13094 0.50506,0.74262 0.25157,0.89928 -0.22105,0.13662 0.10959,0.71835 0.4083,0.71835 0.38125,0 0.26852,0.28174 -0.23074,0.57666 -0.46939,0.27727 -0.50997,0.70334 -0.067,0.70334 0.16746,0 0.20325,0.10201 0.12634,0.36 -0.10606,0.35572 -0.10418,0.35619 0.15804,0.04 0.2618,-0.31569 0.26311,-0.3153 0.097,0.0286 -0.0926,0.19172 -0.20154,0.60784 -0.24211,0.92471 -0.0736,0.5751 -0.44066,1.11992 -0.62815,0.93242 -0.0545,-0.0545 -0.099,-0.041 -0.099,0.03 0,0.071 0.126,0.23149 0.28,0.35672 0.20482,0.16656 0.22603,0.25014 0.079,0.31131 -0.11055,0.046 -0.14787,0.16746 -0.0829,0.26995 0.16223,0.25607 0.19601,1.08031 0.0403,0.9841 -0.13194,-0.0815 -0.0499,0.85972 0.16405,1.88223 0.069,0.33 0.0696,0.6 0.001,0.6 -0.0684,0 -0.15955,0.18418 -0.20258,0.40928 -0.0565,0.29564 -0.0192,0.38662 0.13448,0.32766 0.16544,-0.0635 0.17879,0.008 0.0601,0.31986 -0.10058,0.26455 -0.0982,0.36786 0.007,0.3029 0.0877,-0.0542 0.15952,-0.0223 0.15952,0.0709 0,0.0932 -0.0566,0.16944 -0.12572,0.16944 -0.17389,0 -0.18325,0.17397 -0.19363,3.6 -0.003,0.968 -0.054,1.904 -0.11352,2.08 -0.0595,0.176 -0.1147,0.392 -0.12267,0.48 -0.0654,0.7224 -0.30603,1.52 -0.45853,1.51999 -0.11197,-1e-5 -0.18102,0.25154 -0.17357,0.63236 0.007,0.34781 -0.0361,0.60241 -0.0954,0.56578 -0.0593,-0.0366 -0.10774,0.2039 -0.10774,0.5345 0,0.68983 -0.3817,1.56599 -0.6571,1.50831 -0.10258,-0.0215 -0.2333,0.14735 -0.29048,0.3752 -0.0768,0.30618 -0.13956,0.35812 -0.24036,0.19906 -0.10481,-0.16537 -0.13696,-0.1492 -0.13884,0.0698 -0.001,0.15676 -0.10591,0.32472 -0.23235,0.37324 -0.12644,0.0485 -0.19439,0.18076 -0.15099,0.29386 0.0763,0.19877 -1.00465,0.98241 -1.26404,0.91639 -0.0687,-0.0175 -0.28218,0.11471 -0.47438,0.29378 -0.1922,0.17905 -0.43603,0.29233 -0.54183,0.25174 -0.10581,-0.0406 -0.23208,0.0296 -0.2806,0.15607 -0.0971,0.25308 -0.57826,0.31952 -0.57826,0.0798 0,-0.20082 -0.68821,-0.14972 -0.84,0.0624 -0.08,0.11184 -0.16663,0.0954 -0.26,-0.0494 -0.0976,-0.15139 -0.17312,-0.16349 -0.24945,-0.04 -0.17885,0.28941 -0.38554,0.20437 -0.63904,-0.26291 -0.13128,-0.242 -0.24158,-0.34574 -0.24511,-0.23056 -0.004,0.1244 -0.0876,0.16066 -0.2064,0.0893 -0.13234,-0.0795 -0.12463,-0.0273 0.0228,0.15441 0.35831,0.4416 0.0882,0.4833 -0.34226,0.0528 -0.37934,-0.37934 -0.40113,-0.38267 -0.60973,-0.0933 -0.16006,0.22208 -0.24879,0.24905 -0.34112,0.10371 -0.0963,-0.15154 -0.12535,-0.14856 -0.12724,0.013 -0.001,0.1152 -0.0744,0.16494 -0.16245,0.11056 -0.088,-0.0544 -0.16,-0.0115 -0.16,0.0954 0,0.13747 -0.0818,0.12608 -0.28,-0.039 -0.28628,-0.23845 -0.77879,-0.25165 -1.83865,-0.0493 -0.391045,0.0747 -0.679912,0.0469 -0.83299,-0.0802 -0.12889,-0.10697 -0.304525,-0.15112 -0.3903,-0.0981 -0.08577,0.053 -0.205928,0.0155 -0.267008,-0.0833 -0.07869,-0.12731 -0.151148,-0.11642 -0.248606,0.0374 -0.112197,0.17707 -0.138453,0.17285 -0.14245,-0.0229 -0.0043,-0.2124 -0.02225,-0.21256 -0.155787,-0.002 -0.120168,0.19008 -0.191333,0.19822 -0.34955,0.04 -0.27077,-0.27077 -0.614663,-0.25045 -0.614663,0.0363 0,0.15344 -0.0924,0.19952 -0.266246,0.13281 -0.198806,-0.0763 -0.232368,-0.0446 -0.132498,0.12503 0.0816,0.13861 0.0089,0.11801 -0.186352,-0.0528 -0.176056,-0.154 -0.422432,-0.27494 -0.547502,-0.26875 -0.135304,0.007 -0.0978,0.0669 0.0926,0.14875 0.24353,0.10466 0.147941,0.13962 -0.4,0.14631 -0.396,0.005 -0.825585,-0.058 -0.954633,-0.1396 -0.148743,-0.0941 -0.309813,-0.086 -0.44,0.022 -0.15252,0.12659 -0.205367,0.10494 -0.205367,-0.0841 0,-0.16054 -0.08864,-0.22054 -0.24,-0.16246 -0.132,0.0506 -0.24,0.008 -0.24,-0.0945 0,-0.10261 -0.06238,-0.14801 -0.138616,-0.10089 -0.07624,0.0471 -0.263004,-0.0518 -0.415033,-0.21977 -0.152029,-0.16799 -0.377651,-0.26659 -0.501384,-0.21911 -0.123731,0.0475 -0.224967,0.0134 -0.224967,-0.0758 0,-0.17048 -0.499313,-0.10425 -1.04,0.13795 -1.37931,0.61787 -1.886452,0.67662 -2.054732,0.2381 -0.06332,-0.16501 -0.01211,-0.20236 0.17764,-0.12954 0.236275,0.0907 0.239899,0.0731 0.03185,-0.15477 -0.134671,-0.14748 -0.296371,-0.19776 -0.379271,-0.11795 -0.08215,0.0791 -0.280356,0.0664 -0.459307,-0.0293 -0.226312,-0.12112 -0.284229,-0.11901 -0.206046,0.007 0.06418,0.10385 -0.01315,0.17596 -0.188691,0.17596 -0.163594,0 -0.365844,0.065 -0.449444,0.14453 -0.09049,0.086 -0.475739,0.0857 -0.952,-8e-4 -1.040446,-0.18894 -1.850022,-0.21313 -2.202392,-0.0658 -0.15531,0.0649 -0.44066,0.0767 -0.6341,0.0261 -0.2061,-0.0539 -0.46263,0.008 -0.61964,0.1505 -0.19642,0.17776 -0.75704,0.25923 -2.10058,0.30526 -1.00796,0.0345 -2.15642,0.14432 -2.55213,0.24395 -0.42405,0.10679 -1.30496,0.14536 -2.14532,0.094 -2.96012,-0.18106 -3.92245,-0.12268 -4.91909,0.29848 -0.63763,0.26942 -2.19162,0.30216 -2.70675,0.057 -0.154,-0.0733 -0.42302,-0.20524 -0.59783,-0.29324 -0.1748,-0.088 -0.5648,-0.16 -0.86666,-0.16 -0.30186,0 -0.59084,-0.09 -0.64217,-0.2 -0.0747,-0.16 -0.112,-0.16 -0.18667,0 -0.13066,0.27998 -0.38667,0.24977 -0.38667,-0.0456 0,-0.19326 -0.066,-0.21032 -0.30948,-0.08 -0.17021,0.0911 -0.62021,0.16688 -1,0.16842 -0.37978,0.002 -1.19452,0.1199 -1.81052,0.26307 -0.616,0.14315 -1.318,0.26024 -1.56,0.26018 -0.242,-5e-5 -0.44,0.0641 -0.44,0.14256 0,0.0785 -0.162,0.052 -0.36,-0.0588 -0.69711,-0.39014 -1.73604,-0.39947 -3.62169,-0.0325 -0.41166,0.0801 -0.5768,0.0427 -0.68795,-0.15592 -0.17954,-0.3208 -0.64922,-0.32899 -1.49036,-0.0259 -0.68226,0.24579 -1.83979,0.32417 -1.84032,0.12461 -6.4e-4,-0.23332 -0.9954,-0.18714 -1.2401,0.0576 -0.136,0.136 -0.38055,0.21244 -0.54343,0.16984 -0.16288,-0.0426 -0.29615,-0.0122 -0.29615,0.0676 0,0.27496 -0.29866,0.14431 -0.4,-0.17497 -0.0559,-0.176 -0.24141,-0.32 -0.41235,-0.32 -0.17093,0 -0.43408,-0.144 -0.58477,-0.32 -0.1507,-0.176 -0.37024,-0.32 -0.48788,-0.32 -0.11763,0 -0.16938,-0.072 -0.115,-0.16 0.0544,-0.088 -0.0134,-0.16 -0.15055,-0.16 -0.1372,0 -0.24945,0.0669 -0.24945,0.14857 0,0.0817 -0.11379,0.26235 -0.25287,0.40144 -0.23049,0.2305 -0.2948,0.2281 -0.72677,-0.0271 -0.41494,-0.24511 -0.49265,-0.25027 -0.62467,-0.0414 -0.13071,0.20675 -0.15111,0.20418 -0.15324,-0.0193 -0.002,-0.19406 -0.11127,-0.23762 -0.44245,-0.17616 -0.242,0.0449 -0.47611,0.13622 -0.52024,0.20293 -0.0441,0.0667 -0.44014,0.17 -0.88,0.22956 -1.26529,0.17132 -1.55072,0.22282 -2.37193,0.42802 -0.52672,0.13162 -0.80645,0.14032 -0.88,0.0274 -0.12015,-0.18446 -0.62038,-0.23424 -0.98783,-0.0983 -0.63331,0.2343 -1.94871,0.28733 -2.32,0.0935 -0.79149,-0.41314 -2.2648,-0.49349 -3.52,-0.19195 -0.352,0.0846 -0.80049,0.17721 -0.99665,0.2059 -0.19616,0.0287 -0.48416,0.14875 -0.64,0.26682 -0.24151,0.18296 -0.25382,0.18153 -0.0833,-0.01 z M 1.9153549,130.54374 c 0,-0.088 -0.0318,-0.16 -0.0706,-0.16 -0.0388,0 -0.11506,0.072 -0.16944,0.16 -0.0544,0.088 -0.0226,0.16 0.0705,0.16 0.0932,0 0.16945,-0.072 0.16945,-0.16 z m -0.57896,-45.04831 c 0.0546,-0.14239 0.0278,-0.20661 -0.0629,-0.15056 -0.087,0.0538 -0.15816,0.16551 -0.15816,0.24831 0,0.23015 0.11468,0.17944 0.22104,-0.0978 z M 109.87202,83.24707 c -0.0532,-0.0532 -0.19117,-0.0588 -0.30667,-0.0126 -0.12764,0.0511 -0.0897,0.089 0.0967,0.0967 0.16866,0.007 0.26316,-0.0309 0.21,-0.084 z m -1.39667,-4.863328 c 0,-0.088 -0.0318,-0.16 -0.0706,-0.16 -0.0388,0 -0.11505,0.072 -0.16944,0.16 -0.0544,0.088 -0.0226,0.16 0.0706,0.16 0.0932,0 0.16944,-0.072 0.16944,-0.16 z m 1.52928,-0.624979 c -0.0493,-0.07974 -0.23353,-0.107341 -0.40944,-0.06134 -0.44025,0.115128 -0.40064,0.206318 0.0896,0.206318 0.2252,0 0.36912,-0.06524 0.31984,-0.144979 z m -0.80928,-17.135021 c 0.0544,-0.088 -0.0134,-0.16 -0.15056,-0.16 -0.13719,0 -0.24944,0.072 -0.24944,0.16 0,0.088 0.0678,0.16 0.15056,0.16 0.0828,0 0.19505,-0.072 0.24944,-0.16 z M 5.2451849,9.7065797 c 0.23197,-0.0488 0.22268,-0.08309 -0.0657,-0.242546 -0.30987,-0.171338 -0.33592,-0.14603 -0.33657,0.326999 -3.8e-4,0.2819903 0.0292,0.3911363 0.0657,0.2425463 0.0365,-0.1485893 0.18797,-0.2957393 0.33656,-0.3269993 z m -0.70632,-0.309505 c -0.0453,-0.07333 -0.15015,-0.133333 -0.23296,-0.133333 -0.0828,0 -0.15055,0.06 -0.15055,0.133333 0,0.07333 0.10483,0.133334 0.23296,0.133334 0.12813,0 0.19588,-0.06 0.15055,-0.133334 z m 1.77649,-5.093333 c 0.0544,-0.088 0.0226,-0.16 -0.0706,-0.16 -0.0932,0 -0.16944,0.072 -0.16944,0.16 0,0.088 0.0317,0.16 0.0705,0.16 0.0388,0 0.11506,-0.072 0.16945,-0.16 z m 5.5200001,-0.07056 c 0,-0.03881 -0.072,-0.115056 -0.16,-0.169443 -0.088,-0.05439 -0.16,-0.02264 -0.16,0.07056 0,0.09319 0.072,0.169443 0.16,0.169443 0.088,0 0.16,-0.03175 0.16,-0.07056 z m 46.16,-1.689443 c 0.0544,-0.088 0.0226,-0.16 -0.0706,-0.16 -0.0932,0 -0.16944,0.072 -0.16944,0.16 0,0.088 0.0318,0.16 0.0706,0.16 0.0388,0 0.11505,-0.072 0.16944,-0.16 z m -37.76814,-0.854268 c 0.28365,-0.207407 0.2835,-0.217924 -0.005,-0.328456 -0.16366,-0.0628 -0.2435,-0.06012 -0.17743,0.0059 0.0661,0.06608 -0.0441,0.211332 -0.24487,0.322786 -0.24699,0.137118 -0.28437,0.204479 -0.1156,0.208316 0.13718,0.0031 0.38128,-0.09075 0.54245,-0.208598 z m 47.3848,-0.222399 c -0.16264,-0.162642 -0.29684,0.08222 -0.16339,0.298141 0.1008,0.163107 0.13849,0.163233 0.19269,6.4e-4 0.0371,-0.111165 0.0239,-0.245619 -0.0293,-0.298786 z m -34.97666,-0.203333 c 0,-0.088 -0.0763,-0.16 -0.16945,-0.16 -0.0932,0 -0.12494,0.072 -0.0706,0.16 0.0544,0.088 0.13064,0.16 0.16945,0.16 0.0388,0 0.0706,-0.072 0.0706,-0.16 z m -18.24,-0.39055696 c 0,-0.03881 -0.072,-0.115056 -0.16,-0.169443 -0.088,-0.05439 -0.16,-0.02264 -0.16,0.07056 0,0.09319 0.072,0.169443 0.16,0.169443 0.088,0 0.16,-0.03175 0.16,-0.07056 z M 92.44535,157.47444 c 0.115499,-0.0462 0.253501,-0.0405 0.306667,0.0126 0.05317,0.0532 -0.04133,0.091 -0.21,0.0841 -0.186392,-0.008 -0.224304,-0.0456 -0.09667,-0.0967 z m 17.56545,-34.7457 c -0.0554,-0.0896 -0.0227,-0.21107 0.0726,-0.26997 0.24599,-0.15203 0.40471,0.0562 0.19935,0.26158 -0.11491,0.11491 -0.2044,0.11767 -0.27194,0.008 z M 0.97826491,62.081292 c -0.13348,-0.08458 -0.15534,-0.175707 -0.0568,-0.236632 0.0882,-0.05449 0.20159999,0.0085 0.25205999,0.14 0.10602,0.276287 0.096,0.281228 -0.19529999,0.09663 z M 4.6353549,4.8808597 c 0,-0.03458 0.11173,-0.10576 0.24831,-0.158167 0.14238,-0.05464 0.20661,-0.02782 0.15055,0.06288 -0.094,0.152033 -0.39886,0.224872 -0.39886,0.09529 z M 105.46164,2.8154157 c -0.24196,-0.291537 -0.0468,-0.953761 0.24782,-0.840723 0.12764,0.04898 0.26217,0.08905 0.29898,0.08905 0.0368,0 0.0669,0.216 0.0669,0.48 0,0.509539 -0.30445,0.644311 -0.61371,0.271674 z m 0.38029,-0.261029 c -0.058,-0.09386 -0.18203,-0.170645 -0.27561,-0.170645 -0.1061,0 -0.094,0.09181 0.0322,0.243866 0.21945,0.264417 0.41557,0.20541 0.24337,-0.07322 z M 7.5374849,2.0104087 c -0.13362,-0.160994 -0.12048,-0.213334 0.0535,-0.213334 0.12682,0 0.26741,0.096 0.31244,0.213334 0.045,0.117333 0.0209,0.213333 -0.0535,0.213333 -0.0745,0 -0.21507,-0.096 -0.31244,-0.213333 z M 99.28881,1.3211107 c -0.0843,-0.219596 -0.0609,-0.229494 0.14288,-0.06041 0.27764,0.23042 0.30653,0.32304 0.10078,0.32304 -0.0786,0 -0.18824,-0.118184 -0.24366,-0.262631 z M 34.133645,1.0227557 c 0.25205,-0.13145796 0.54005,-0.23646296 0.64,-0.23334496 0.26172,0.0082 -0.5713,0.46207396 -0.85829,0.46767496 -0.132,0.0026 -0.0338,-0.102872 0.21829,-0.23433 z"
     id="path817"
     inkscape:connector-curvature="0" />
</svg>
