<?xml version="1.0" encoding="UTF-8" standalone="no"?>
<svg
   xmlns:dc="http://purl.org/dc/elements/1.1/"
   xmlns:cc="http://creativecommons.org/ns#"
   xmlns:rdf="http://www.w3.org/1999/02/22-rdf-syntax-ns#"
   xmlns:svg="http://www.w3.org/2000/svg"
   xmlns="http://www.w3.org/2000/svg"
   xmlns:sodipodi="http://sodipodi.sourceforge.net/DTD/sodipodi-0.dtd"
   xmlns:inkscape="http://www.inkscape.org/namespaces/inkscape"
   enable-background="new 0 0 26 60"
   height="512"
   viewBox="0 0 11.266667 60"
   width="221.86667"
   version="1.1"
   id="svg10"
   sodipodi:docname="condom.svg"
   inkscape:version="0.92.1 r15371">
  <metadata
     id="metadata16">
    <rdf:RDF>
      <cc:Work
         rdf:about="">
        <dc:format>image/svg+xml</dc:format>
        <dc:type
           rdf:resource="http://purl.org/dc/dcmitype/StillImage" />
      </cc:Work>
    </rdf:RDF>
  </metadata>
  <defs
     id="defs14" />
  <sodipodi:namedview
     pagecolor="#ffffff"
     bordercolor="#666666"
     borderopacity="1"
     objecttolerance="10"
     gridtolerance="10"
     guidetolerance="10"
     inkscape:pageopacity="0"
     inkscape:pageshadow="2"
     inkscape:window-width="1680"
     inkscape:window-height="988"
     id="namedview12"
     showgrid="false"
     inkscape:zoom="0.921875"
     inkscape:cx="203.95551"
     inkscape:cy="234.03867"
     inkscape:window-x="-8"
     inkscape:window-y="-8"
     inkscape:window-maximized="1"
     inkscape:current-layer="svg10" />
  <path
     d="M 14.633333,60 H -3.3666666 c -2.206,0 -4,-1.794 -4,-4 0,-2.206 1.794,-4 4,-4 H 14.633333 c 2.206,0 4,1.794 4,4 0,2.206 -1.794,4 -4,4 z M -3.3666666,54 c -1.103,0 -2,0.897 -2,2 0,1.103 0.897,2 2,2 H 14.633333 c 1.103,0 2,-0.897 2,-2 0,-1.103 -0.897,-2 -2,-2 z"
     id="path2"
     inkscape:connector-curvature="0" />
  <path
     d="M 13.633333,54 H -2.3666666 c -0.552,0 -1,-0.447 -1,-1 V 15 c 0,-3.915 2.48099998,-7.466 6,-8.736 V 3 c 0,-1.654 1.346,-3 3,-3 1.654,0 3,1.346 3,3 V 6.264 C 12.152333,7.535 14.633333,11.085 14.633333,15 v 38 c 0,0.553 -0.448,1 -1,1 z M -1.3666666,52 H 12.633333 V 15 c 0,-3.236 -2.257,-6.26 -5.2499996,-7.031 -0.441,-0.115 -0.75,-0.513 -0.75,-0.969 V 3 c 0,-0.552 -0.449,-1 -1,-1 -0.551,0 -1,0.448 -1,1 v 4 c 0,0.456 -0.309,0.854 -0.75,0.969 -2.99300002,0.771 -5.25,3.795 -5.25,7.031 z"
     id="path4"
     inkscape:connector-curvature="0" />
</svg>
