<?xml version="1.0" encoding="UTF-8" standalone="no"?>
<!-- Generator: Adobe Illustrator 19.0.0, SVG Export Plug-In . SVG Version: 6.00 Build 0)  -->

<svg
   xmlns:dc="http://purl.org/dc/elements/1.1/"
   xmlns:cc="http://creativecommons.org/ns#"
   xmlns:rdf="http://www.w3.org/1999/02/22-rdf-syntax-ns#"
   xmlns:svg="http://www.w3.org/2000/svg"
   xmlns="http://www.w3.org/2000/svg"
   xmlns:sodipodi="http://sodipodi.sourceforge.net/DTD/sodipodi-0.dtd"
   xmlns:inkscape="http://www.inkscape.org/namespaces/inkscape"
   version="1.1"
   id="Capa_1"
   x="0px"
   y="0px"
   viewBox="0 0 512.00098 512.00128"
   xml:space="preserve"
   sodipodi:docname="drugs.svg"
   width="512.00098"
   height="512.00128"
   inkscape:version="0.92.1 r15371"><metadata
     id="metadata43"><rdf:RDF><cc:Work
         rdf:about=""><dc:format>image/svg+xml</dc:format><dc:type
           rdf:resource="http://purl.org/dc/dcmitype/StillImage" /></cc:Work></rdf:RDF></metadata><defs
     id="defs41" /><sodipodi:namedview
     pagecolor="#ffffff"
     bordercolor="#666666"
     borderopacity="1"
     objecttolerance="10"
     gridtolerance="10"
     guidetolerance="10"
     inkscape:pageopacity="0"
     inkscape:pageshadow="2"
     inkscape:window-width="1680"
     inkscape:window-height="988"
     id="namedview39"
     showgrid="false"
     inkscape:zoom="0.921875"
     inkscape:cx="322.35466"
     inkscape:cy="302.93889"
     inkscape:window-x="-8"
     inkscape:window-y="-8"
     inkscape:window-maximized="1"
     inkscape:current-layer="Capa_1" /><path
     d="m 443.393,259.50363 29.041,-29.041 c 52.753,-52.753 52.759,-138.138006 0,-190.896005 -52.751,-52.752 -138.137,-52.759 -190.895,0 C 270.279,50.824624 49.78,271.32563 39.567,281.53863 c -52.753,52.753 -52.759,138.138 0,190.896 52.751,52.752 138.137,52.759 190.895,0 l 29.042,-29.041 c 23.216,40.911 67.177,68.577 117.482,68.577 74.43,0 134.984,-60.554 134.984,-134.984 0,-50.306 -27.665,-94.267 -68.577,-117.483 z m -201.391,117.482 c 0,12.635 1.75,24.869 5.011,36.477 l -37.761,37.761 c -41.029,41.028 -107.44,41.034 -148.474,0 -41.029,-41.028 -41.035,-107.44 0,-148.474 l 109.465,-109.465 100.512,100.511 c -18.005,22.941 -28.753,51.834 -28.753,83.19 z m 119.985,103.912 c -50.811,-7.3 -89.989,-51.113 -89.989,-103.912 0,-52.799 39.178,-96.612 89.989,-103.912 z M 291.766,272.38663 191.453,172.07363 302.749,60.777625 c 41.029,-41.028 107.44,-41.034 148.474,0 41.029,41.027995 41.035,107.440005 0,148.474005 l -37.761,37.761 c -11.608,-3.262 -23.841,-5.011 -36.476,-5.011 -32.29,0 -61.964,11.403 -85.22,30.385 z m 100.218,208.511 v -207.823 c 50.811,7.3 89.989,51.113 89.989,103.912 0,52.798 -39.178,96.611 -89.989,103.911 z"
     id="path2"
     inkscape:connector-curvature="0" /><g
     id="g8"
     transform="translate(11.932203,4.339608)" /><g
     id="g10"
     transform="translate(11.932203,4.339608)" /><g
     id="g12"
     transform="translate(11.932203,4.339608)" /><g
     id="g14"
     transform="translate(11.932203,4.339608)" /><g
     id="g16"
     transform="translate(11.932203,4.339608)" /><g
     id="g18"
     transform="translate(11.932203,4.339608)" /><g
     id="g20"
     transform="translate(11.932203,4.339608)" /><g
     id="g22"
     transform="translate(11.932203,4.339608)" /><g
     id="g24"
     transform="translate(11.932203,4.339608)" /><g
     id="g26"
     transform="translate(11.932203,4.339608)" /><g
     id="g28"
     transform="translate(11.932203,4.339608)" /><g
     id="g30"
     transform="translate(11.932203,4.339608)" /><g
     id="g32"
     transform="translate(11.932203,4.339608)" /><g
     id="g34"
     transform="translate(11.932203,4.339608)" /><g
     id="g36"
     transform="translate(11.932203,4.339608)" /></svg>