<?xml version="1.0" encoding="UTF-8" standalone="no"?>
<!-- Created with Inkscape (http://www.inkscape.org/) -->

<svg
   xmlns:dc="http://purl.org/dc/elements/1.1/"
   xmlns:cc="http://creativecommons.org/ns#"
   xmlns:rdf="http://www.w3.org/1999/02/22-rdf-syntax-ns#"
   xmlns:svg="http://www.w3.org/2000/svg"
   xmlns="http://www.w3.org/2000/svg"
   xmlns:sodipodi="http://sodipodi.sourceforge.net/DTD/sodipodi-0.dtd"
   xmlns:inkscape="http://www.inkscape.org/namespaces/inkscape"
   version="1.1"
   id="svg2"
   xml:space="preserve"
   width="1066.6667"
   height="1066.6667"
   viewBox="0 0 1066.6667 1066.6667"
   sodipodi:docname="smile.svg"
   inkscape:version="0.92.1 r15371"><metadata
     id="metadata8"><rdf:RDF><cc:Work
         rdf:about=""><dc:format>image/svg+xml</dc:format><dc:type
           rdf:resource="http://purl.org/dc/dcmitype/StillImage" /><dc:title></dc:title></cc:Work></rdf:RDF></metadata><defs
     id="defs6"><radialGradient
       fx="0"
       fy="0"
       cx="0"
       cy="0"
       r="1"
       gradientUnits="userSpaceOnUse"
       gradientTransform="matrix(400,0,0,-400,400,400)"
       spreadMethod="pad"
       id="radialGradient28"><stop
         style="stop-opacity:1;stop-color:#ffffff"
         offset="0"
         id="stop24" /><stop
         style="stop-opacity:1;stop-color:#fffeed"
         offset="1"
         id="stop26" /></radialGradient><clipPath
       clipPathUnits="userSpaceOnUse"
       id="clipPath38"><path
         d="M 0,800 H 800 V 0 H 0 Z"
         id="path36"
         inkscape:connector-curvature="0" /></clipPath><clipPath
       clipPathUnits="userSpaceOnUse"
       id="clipPath94"><path
         d="m 595.786,502.012 h 20.031 v -20.031 h -20.031 z"
         id="path92"
         inkscape:connector-curvature="0" /></clipPath><clipPath
       clipPathUnits="userSpaceOnUse"
       id="clipPath110"><path
         d="m 692.171,502.012 h 20.031 v -20.031 h -20.031 z"
         id="path108"
         inkscape:connector-curvature="0" /></clipPath><clipPath
       clipPathUnits="userSpaceOnUse"
       id="clipPath142"><path
         d="m 178.459,662.287 -70.586,-0.203 c -1.491,-0.004 -2.52,-1.515 -1.955,-2.895 v 0 c 2.939,-7.173 12.754,-25.233 37.1,-25.233 v 0 c 24.334,0 34.371,18.185 37.402,25.421 v 0 c 0.58,1.386 -0.454,2.91 -1.954,2.91 v 0 c -0.002,0 -0.005,0 -0.007,0"
         id="path140"
         inkscape:connector-curvature="0" /></clipPath><clipPath
       clipPathUnits="userSpaceOnUse"
       id="clipPath154"><path
         d="M 0,800 H 800 V 0 H 0 Z"
         id="path152"
         inkscape:connector-curvature="0" /></clipPath><clipPath
       clipPathUnits="userSpaceOnUse"
       id="clipPath186"><path
         d="m 178.459,309.805 -70.586,-0.204 c -1.491,-0.004 -2.52,-1.515 -1.955,-2.895 v 0 c 2.939,-7.173 12.754,-25.233 37.1,-25.233 v 0 c 24.334,0 34.371,18.185 37.402,25.422 v 0 c 0.58,1.384 -0.454,2.91 -1.954,2.91 v 0 c -0.002,0 -0.005,0 -0.007,0"
         id="path184"
         inkscape:connector-curvature="0" /></clipPath><clipPath
       clipPathUnits="userSpaceOnUse"
       id="clipPath198"><path
         d="M 0,800 H 800 V 0 H 0 Z"
         id="path196"
         inkscape:connector-curvature="0" /></clipPath><clipPath
       clipPathUnits="userSpaceOnUse"
       id="clipPath270"><path
         d="M 84.9642,142.012 H 104.995 V 121.981 H 84.9642 Z"
         id="path268"
         inkscape:connector-curvature="0" /></clipPath><clipPath
       clipPathUnits="userSpaceOnUse"
       id="clipPath286"><path
         d="M 181.349,142.012 H 201.38 V 121.981 H 181.349 Z"
         id="path284"
         inkscape:connector-curvature="0" /></clipPath><clipPath
       clipPathUnits="userSpaceOnUse"
       id="clipPath334"><path
         d="m 680.894,669.287 -51.718,-0.204 c -1.094,-0.004 -1.847,-1.514 -1.433,-2.895 v 0 c 2.153,-7.173 9.344,-25.233 27.182,-25.233 v 0 c 17.831,0 25.185,18.185 27.406,25.421 v 0 c 0.425,1.386 -0.333,2.911 -1.432,2.911 v 0 c -0.002,0 -0.003,0 -0.005,0"
         id="path332"
         inkscape:connector-curvature="0" /></clipPath><clipPath
       clipPathUnits="userSpaceOnUse"
       id="clipPath346"><path
         d="M 0,800 H 800 V 0 H 0 Z"
         id="path344"
         inkscape:connector-curvature="0" /></clipPath><clipPath
       clipPathUnits="userSpaceOnUse"
       id="clipPath362"><path
         d="m 595.786,679.012 h 20.031 v -20.031 h -20.031 z"
         id="path360"
         inkscape:connector-curvature="0" /></clipPath><clipPath
       clipPathUnits="userSpaceOnUse"
       id="clipPath378"><path
         d="m 692.171,679.012 h 20.031 v -20.031 h -20.031 z"
         id="path376"
         inkscape:connector-curvature="0" /></clipPath><clipPath
       clipPathUnits="userSpaceOnUse"
       id="clipPath414"><path
         d="m 178.459,488.287 -70.586,-0.204 c -1.491,-0.004 -2.52,-1.514 -1.955,-2.895 v 0 c 2.939,-7.173 12.754,-25.233 37.1,-25.233 v 0 c 24.334,0 34.371,18.185 37.402,25.421 v 0 c 0.58,1.386 -0.454,2.911 -1.954,2.911 v 0 c -0.002,0 -0.005,0 -0.007,0"
         id="path412"
         inkscape:connector-curvature="0" /></clipPath><clipPath
       clipPathUnits="userSpaceOnUse"
       id="clipPath426"><path
         d="M 0,800 H 800 V 0 H 0 Z"
         id="path424"
         inkscape:connector-curvature="0" /></clipPath><clipPath
       clipPathUnits="userSpaceOnUse"
       id="clipPath454"><path
         d="m 425.512,502.012 h 20.031 v -20.031 h -20.031 z"
         id="path452"
         inkscape:connector-curvature="0" /></clipPath><clipPath
       clipPathUnits="userSpaceOnUse"
       id="clipPath470"><path
         d="m 521.897,502.012 h 20.031 v -20.031 h -20.031 z"
         id="path468"
         inkscape:connector-curvature="0" /></clipPath><clipPath
       clipPathUnits="userSpaceOnUse"
       id="clipPath562"><path
         d="M 0,800 H 800 V 0 H 0 Z"
         id="path560"
         inkscape:connector-curvature="0" /></clipPath></defs><sodipodi:namedview
     pagecolor="#ffffff"
     bordercolor="#666666"
     borderopacity="1"
     objecttolerance="10"
     gridtolerance="10"
     guidetolerance="10"
     inkscape:pageopacity="0"
     inkscape:pageshadow="2"
     inkscape:window-width="700"
     inkscape:window-height="480"
     id="namedview4"
     showgrid="false"
     inkscape:zoom="0.22124998"
     inkscape:cx="533.33337"
     inkscape:cy="533.33337"
     inkscape:window-x="0"
     inkscape:window-y="0"
     inkscape:window-maximized="0"
     inkscape:current-layer="g10" /><g
     id="g10"
     inkscape:groupmode="layer"
     inkscape:label="74221-OE7M2S-365"
     transform="matrix(1.3333333,0,0,-1.3333333,0,1066.6667)"><g
       id="g12"><g
         id="g14"><g
           id="g20"><g
             id="g22"><path
               d="M 0,0 H 800 V 800 H 0 Z"
               style="fill:url(#radialGradient28);stroke:none"
               id="path30"
               inkscape:connector-curvature="0" /></g></g></g></g><g
       id="g32"><g
         id="g34"
         clip-path="url(#clipPath38)"><g
           id="g40"
           transform="translate(552.5507,679.3362)"><path
             d="m 0,0 c 0,-38.014 -30.817,-68.831 -68.832,-68.831 -38.013,0 -68.829,30.817 -68.829,68.831 0,38.015 30.816,68.831 68.829,68.831 C -30.817,68.831 0,38.015 0,0"
             style="fill:#ffd21f;fill-opacity:1;fill-rule:nonzero;stroke:none"
             id="path42"
             inkscape:connector-curvature="0" /></g><g
           id="g44"
           transform="translate(505.1365,684.5833)"><path
             d="m 0,0 c 0,0 -0.125,10.667 9.375,10.667 9.5,0 9.292,-10.584 9.292,-10.584"
             style="fill:none;stroke:#403408;stroke-width:7;stroke-linecap:round;stroke-linejoin:miter;stroke-miterlimit:10;stroke-dasharray:none;stroke-opacity:1"
             id="path46"
             inkscape:connector-curvature="0" /></g><g
           id="g48"
           transform="translate(443.6365,684.5833)"><path
             d="m 0,0 c 0,0 -0.125,10.667 9.375,10.667 9.5,0 9.292,-10.584 9.292,-10.584"
             style="fill:none;stroke:#403408;stroke-width:7;stroke-linecap:round;stroke-linejoin:miter;stroke-miterlimit:10;stroke-dasharray:none;stroke-opacity:1"
             id="path50"
             inkscape:connector-curvature="0" /></g><g
           id="g52"
           transform="translate(508.3862,661.2501)"><path
             d="m 0,0 c 0,0 -5.214,-18.25 -24.776,-18.25 -19.563,0 -24.557,18.107 -24.557,18.107"
             style="fill:none;stroke:#403408;stroke-width:7;stroke-linecap:round;stroke-linejoin:miter;stroke-miterlimit:10;stroke-dasharray:none;stroke-opacity:1"
             id="path54"
             inkscape:connector-curvature="0" /></g><g
           id="g56"
           transform="translate(382.2763,679.3362)"><path
             d="m 0,0 c 0,-38.014 -30.816,-68.831 -68.831,-68.831 -38.013,0 -68.83,30.817 -68.83,68.831 0,38.015 30.817,68.831 68.83,68.831 C -30.816,68.831 0,38.015 0,0"
             style="fill:#ffd21f;fill-opacity:1;fill-rule:nonzero;stroke:none"
             id="path58"
             inkscape:connector-curvature="0" /></g><g
           id="g60"
           transform="translate(282.1122,678.3362)"><path
             d="m 0,0 v 0 c -2.75,0 -5,2.25 -5,5 v 12 c 0,2.75 2.25,5 5,5 2.75,0 5,-2.25 5,-5 V 5 C 5,2.25 2.75,0 0,0"
             style="fill:#403408;fill-opacity:1;fill-rule:nonzero;stroke:none"
             id="path62"
             inkscape:connector-curvature="0" /></g><g
           id="g64"
           transform="translate(344.7789,678.3362)"><path
             d="m 0,0 v 0 c -2.75,0 -5,2.25 -5,5 v 12 c 0,2.75 2.25,5 5,5 2.75,0 5,-2.25 5,-5 V 5 C 5,2.25 2.75,0 0,0"
             style="fill:#403408;fill-opacity:1;fill-rule:nonzero;stroke:none"
             id="path66"
             inkscape:connector-curvature="0" /></g><g
           id="g68"
           transform="translate(338.3862,661.2501)"><path
             d="m 0,0 c 0,0 -5.214,-18.25 -24.776,-18.25 -19.563,0 -24.557,18.107 -24.557,18.107"
             style="fill:none;stroke:#403408;stroke-width:7;stroke-linecap:round;stroke-linejoin:miter;stroke-miterlimit:10;stroke-dasharray:none;stroke-opacity:1"
             id="path70"
             inkscape:connector-curvature="0" /></g><g
           id="g72"
           transform="translate(719.9916,499.7787)"><path
             d="m 0,0 c 0,-38.014 -30.818,-68.831 -68.832,-68.831 -38.013,0 -68.829,30.817 -68.829,68.831 0,38.015 30.816,68.831 68.829,68.831 C -30.818,68.831 0,38.015 0,0"
             style="fill:#ffd21f;fill-opacity:1;fill-rule:nonzero;stroke:none"
             id="path74"
             inkscape:connector-curvature="0" /></g><g
           id="g76"
           transform="translate(619.8275,499.4045)"><path
             d="m 0,0 v 0 c -2.75,0 -5,2.25 -5,5 v 12 c 0,2.75 2.25,5 5,5 2.75,0 5,-2.25 5,-5 V 5 C 5,2.25 2.75,0 0,0"
             style="fill:#403408;fill-opacity:1;fill-rule:nonzero;stroke:none"
             id="path78"
             inkscape:connector-curvature="0" /></g><g
           id="g80"
           transform="translate(682.4942,499.4045)"><path
             d="m 0,0 v 0 c -2.75,0 -5,2.25 -5,5 v 12 c 0,2.75 2.25,5 5,5 v 0 c 2.75,0 5,-2.25 5,-5 V 5 C 5,2.25 2.75,0 0,0"
             style="fill:#403408;fill-opacity:1;fill-rule:nonzero;stroke:none"
             id="path82"
             inkscape:connector-curvature="0" /></g><g
           id="g84"
           transform="translate(675.8271,487.9168)"><path
             d="m 0,0 c 0,0 -5.214,-10.917 -24.776,-10.917 -19.563,0 -24.557,10.832 -24.557,10.832"
             style="fill:none;stroke:#403408;stroke-width:7;stroke-linecap:round;stroke-linejoin:miter;stroke-miterlimit:10;stroke-dasharray:none;stroke-opacity:1"
             id="path86"
             inkscape:connector-curvature="0" /></g><g
           id="g88"><g
             id="g90" /><g
             id="g102"><g
               clip-path="url(#clipPath94)"
               id="g100"
               style="opacity:0.60000598"><g
                 transform="translate(615.8171,491.9968)"
                 id="g98"><path
                   d="m 0,0 c 0,-5.532 -4.485,-10.016 -10.016,-10.016 -5.532,0 -10.015,4.484 -10.015,10.016 0,5.532 4.483,10.016 10.015,10.016 C -4.485,10.016 0,5.532 0,0"
                   style="fill:#ff758a;fill-opacity:1;fill-rule:nonzero;stroke:none"
                   id="path96"
                   inkscape:connector-curvature="0" /></g></g></g></g><g
           id="g104"><g
             id="g106" /><g
             id="g118"><g
               clip-path="url(#clipPath110)"
               id="g116"
               style="opacity:0.60000598"><g
                 transform="translate(712.2023,491.9968)"
                 id="g114"><path
                   d="m 0,0 c 0,-5.532 -4.485,-10.016 -10.016,-10.016 -5.532,0 -10.015,4.484 -10.015,10.016 0,5.532 4.483,10.016 10.015,10.016 C -4.485,10.016 0,5.532 0,0"
                   style="fill:#ff758a;fill-opacity:1;fill-rule:nonzero;stroke:none"
                   id="path112"
                   inkscape:connector-curvature="0" /></g></g></g></g><g
           id="g120"
           transform="translate(212.0031,679.3362)"><path
             d="m 0,0 c 0,-38.014 -30.817,-68.831 -68.831,-68.831 -38.014,0 -68.83,30.817 -68.83,68.831 0,38.015 30.816,68.831 68.83,68.831 C -30.817,68.831 0,38.015 0,0"
             style="fill:#ffd21f;fill-opacity:1;fill-rule:nonzero;stroke:none"
             id="path122"
             inkscape:connector-curvature="0" /></g><g
           id="g124"
           transform="translate(111.839,678.3362)"><path
             d="m 0,0 v 0 c -2.75,0 -5,2.25 -5,5 v 12 c 0,2.75 2.25,5 5,5 v 0 c 2.75,0 5,-2.25 5,-5 V 5 C 5,2.25 2.75,0 0,0"
             style="fill:#403408;fill-opacity:1;fill-rule:nonzero;stroke:none"
             id="path126"
             inkscape:connector-curvature="0" /></g><g
           id="g128"
           transform="translate(174.5057,678.3362)"><path
             d="m 0,0 v 0 c -2.75,0 -5,2.25 -5,5 v 12 c 0,2.75 2.25,5 5,5 v 0 c 2.75,0 5,-2.25 5,-5 V 5 C 5,2.25 2.75,0 0,0"
             style="fill:#403408;fill-opacity:1;fill-rule:nonzero;stroke:none"
             id="path130"
             inkscape:connector-curvature="0" /></g><g
           id="g132"
           transform="translate(107.8732,662.0837)"><path
             d="m 0,0 c -1.492,-0.004 -2.521,-1.515 -1.955,-2.895 2.938,-7.173 12.754,-25.233 37.1,-25.233 24.334,0 34.371,18.185 37.402,25.421 0.581,1.388 -0.457,2.915 -1.961,2.911 z"
             style="fill:#403408;fill-opacity:1;fill-rule:nonzero;stroke:none"
             id="path134"
             inkscape:connector-curvature="0" /></g></g></g><g
       id="g136"><g
         id="g138"
         clip-path="url(#clipPath142)"><g
           id="g144"
           transform="translate(169.1333,636.2504)"><path
             d="M 0,0 C 0,-7.939 -11.864,-14.375 -26.5,-14.375 -41.136,-14.375 -53,-7.939 -53,0 -53,7.939 -41.136,14.375 -26.5,14.375 -11.864,14.375 0,7.939 0,0"
             style="fill:#ff5a58;fill-opacity:1;fill-rule:nonzero;stroke:none"
             id="path146"
             inkscape:connector-curvature="0" /></g></g></g><g
       id="g148"><g
         id="g150"
         clip-path="url(#clipPath154)"><g
           id="g156"
           transform="translate(212.0031,320.2213)"><path
             d="m 0,0 c 0,-38.014 -30.817,-68.831 -68.831,-68.831 -38.013,0 -68.83,30.817 -68.83,68.831 0,38.015 30.817,68.831 68.83,68.831 C -30.817,68.831 0,38.015 0,0"
             style="fill:#ffd21f;fill-opacity:1;fill-rule:nonzero;stroke:none"
             id="path158"
             inkscape:connector-curvature="0" /></g><g
           id="g160"
           transform="translate(105.477,343.9133)"><path
             d="M 0,0 16.523,-9.375 0.129,-18.667"
             style="fill:none;stroke:#403408;stroke-width:8.71199989;stroke-linecap:round;stroke-linejoin:round;stroke-miterlimit:10;stroke-dasharray:none;stroke-opacity:1"
             id="path162"
             inkscape:connector-curvature="0" /></g><g
           id="g164"
           transform="translate(178.8935,325.2464)"><path
             d="m 0,0 -16.144,9.375 16.018,9.292"
             style="fill:none;stroke:#403408;stroke-width:8.61200047;stroke-linecap:round;stroke-linejoin:round;stroke-miterlimit:10;stroke-dasharray:none;stroke-opacity:1"
             id="path166"
             inkscape:connector-curvature="0" /></g><g
           id="g168"
           transform="translate(214.9326,323.7924)"><path
             d="M 0,0 C 4.758,-3.784 5.546,-10.712 1.761,-15.471 -2.024,-20.23 -8.95,-21.02 -13.708,-17.236 -18.468,-13.449 -27.864,8.091 -27.864,8.091 -27.864,8.091 -4.761,3.786 0,0"
             style="fill:#2fa7bf;fill-opacity:1;fill-rule:nonzero;stroke:none"
             id="path170"
             inkscape:connector-curvature="0" /></g><g
           id="g172"
           transform="translate(70.2237,323.7924)"><path
             d="M 0,0 C -4.758,-3.784 -5.546,-10.712 -1.761,-15.471 2.024,-20.23 8.95,-21.02 13.708,-17.236 18.468,-13.449 27.864,8.091 27.864,8.091 27.864,8.091 4.761,3.786 0,0"
             style="fill:#2fa7bf;fill-opacity:1;fill-rule:nonzero;stroke:none"
             id="path174"
             inkscape:connector-curvature="0" /></g><g
           id="g176"
           transform="translate(107.8732,309.6012)"><path
             d="m 0,0 c -1.492,-0.004 -2.521,-1.515 -1.955,-2.895 2.938,-7.173 12.754,-25.233 37.1,-25.233 24.334,0 34.371,18.185 37.402,25.421 0.581,1.388 -0.457,2.915 -1.961,2.911 z"
             style="fill:#403408;fill-opacity:1;fill-rule:nonzero;stroke:none"
             id="path178"
             inkscape:connector-curvature="0" /></g></g></g><g
       id="g180"><g
         id="g182"
         clip-path="url(#clipPath186)"><g
           id="g188"
           transform="translate(169.1333,283.7679)"><path
             d="M 0,0 C 0,-7.939 -11.864,-14.375 -26.5,-14.375 -41.136,-14.375 -53,-7.939 -53,0 -53,7.939 -41.136,14.375 -26.5,14.375 -11.864,14.375 0,7.939 0,0"
             style="fill:#ff5a58;fill-opacity:1;fill-rule:nonzero;stroke:none"
             id="path190"
             inkscape:connector-curvature="0" /></g></g></g><g
       id="g192"><g
         id="g194"
         clip-path="url(#clipPath198)"><g
           id="g200"
           transform="translate(722.825,320.2213)"><path
             d="m 0,0 c 0,-38.014 -30.817,-68.831 -68.832,-68.831 -38.013,0 -68.829,30.817 -68.829,68.831 0,38.015 30.816,68.831 68.829,68.831 C -30.817,68.831 0,38.015 0,0"
             style="fill:#ffd21f;fill-opacity:1;fill-rule:nonzero;stroke:none"
             id="path202"
             inkscape:connector-curvature="0" /></g><g
           id="g204"
           transform="translate(622.6609,317.4135)"><path
             d="m 0,0 v 0 c -2.75,0 -5,2.25 -5,5 v 12 c 0,2.75 2.25,5 5,5 2.75,0 5,-2.25 5,-5 V 5 C 5,2.25 2.75,0 0,0"
             style="fill:#403408;fill-opacity:1;fill-rule:nonzero;stroke:none"
             id="path206"
             inkscape:connector-curvature="0" /></g><g
           id="g208"
           transform="translate(685.3276,317.4135)"><path
             d="m 0,0 v 0 c -2.75,0 -5,2.25 -5,5 v 12 c 0,2.75 2.25,5 5,5 2.75,0 5,-2.25 5,-5 V 5 C 5,2.25 2.75,0 0,0"
             style="fill:#403408;fill-opacity:1;fill-rule:nonzero;stroke:none"
             id="path210"
             inkscape:connector-curvature="0" /></g><g
           id="g212"
           transform="translate(614.9526,351.8978)"><path
             d="M 0,0 C 0,0 9.865,-4.059 13.377,4.768"
             style="fill:none;stroke:#403408;stroke-width:4;stroke-linecap:round;stroke-linejoin:miter;stroke-miterlimit:10;stroke-dasharray:none;stroke-opacity:1"
             id="path214"
             inkscape:connector-curvature="0" /></g><g
           id="g216"
           transform="translate(692.0793,351.8978)"><path
             d="M 0,0 C 0,0 -9.865,-4.059 -13.377,4.768"
             style="fill:none;stroke:#403408;stroke-width:4;stroke-linecap:round;stroke-linejoin:miter;stroke-miterlimit:10;stroke-dasharray:none;stroke-opacity:1"
             id="path218"
             inkscape:connector-curvature="0" /></g><g
           id="g220"
           transform="translate(678.5834,283.199)"><path
             d="M 0,0 C 1.13,-1.172 3.162,-0.086 2.719,1.481 2.715,1.494 2.711,1.508 2.707,1.522 0.554,8.695 -6.638,26.755 -24.476,26.755 -42.306,26.755 -49.66,8.57 -51.881,1.333 -51.885,1.32 -51.889,1.306 -51.893,1.292 c -0.455,-1.572 1.593,-2.666 2.721,-1.48 3.6,3.783 14.267,9.864 24.587,9.864 C -14.267,9.676 -3.602,3.735 0,0"
             style="fill:#403408;fill-opacity:1;fill-rule:nonzero;stroke:none"
             id="path222"
             inkscape:connector-curvature="0" /></g><g
           id="g224"
           transform="translate(382.2763,140.6637)"><path
             d="m 0,0 c 0,-38.014 -30.818,-68.831 -68.832,-68.831 -38.013,0 -68.829,30.817 -68.829,68.831 0,38.015 30.816,68.831 68.829,68.831 C -30.818,68.831 0,38.015 0,0"
             style="fill:#ffd21f;fill-opacity:1;fill-rule:nonzero;stroke:none"
             id="path226"
             inkscape:connector-curvature="0" /></g><g
           id="g228"
           transform="translate(295.7789,153.6667)"><path
             d="m 0,0 v 0 c 0,-2.75 -2.25,-5 -5,-5 h -17.333 c -2.75,0 -5,2.25 -5,5 v 0 c 0,2.75 2.25,5 5,5 H -5 C -2.25,5 0,2.75 0,0"
             style="fill:#403408;fill-opacity:1;fill-rule:nonzero;stroke:none"
             id="path230"
             inkscape:connector-curvature="0" /></g><g
           id="g232"
           transform="translate(358.4456,153.6667)"><path
             d="m 0,0 v 0 c 0,-2.75 -2.25,-5 -5,-5 h -17.333 c -2.75,0 -5,2.25 -5,5 v 0 c 0,2.75 2.25,5 5,5 H -5 C -2.25,5 0,2.75 0,0"
             style="fill:#403408;fill-opacity:1;fill-rule:nonzero;stroke:none"
             id="path234"
             inkscape:connector-curvature="0" /></g><g
           id="g236"
           transform="translate(274.0307,121)"><path
             d="M 0,0 H 78.83"
             style="fill:none;stroke:#403408;stroke-width:6;stroke-linecap:round;stroke-linejoin:miter;stroke-miterlimit:10;stroke-dasharray:none;stroke-opacity:1"
             id="path238"
             inkscape:connector-curvature="0" /></g><g
           id="g240"
           transform="translate(212.0031,140.6637)"><path
             d="m 0,0 c 0,-38.014 -30.818,-68.831 -68.832,-68.831 -38.013,0 -68.829,30.817 -68.829,68.831 0,38.015 30.816,68.831 68.829,68.831 C -30.818,68.831 0,38.015 0,0"
             style="fill:#ffd21f;fill-opacity:1;fill-rule:nonzero;stroke:none"
             id="path242"
             inkscape:connector-curvature="0" /></g><g
           id="g244"
           transform="translate(114.839,137.4225)"><path
             d="m 0,0 v 0 c -2.75,0 -5,2.25 -5,5 v 12 c 0,2.75 2.25,5 5,5 v 0 c 2.75,0 5,-2.25 5,-5 V 5 C 5,2.25 2.75,0 0,0"
             style="fill:#403408;fill-opacity:1;fill-rule:nonzero;stroke:none"
             id="path246"
             inkscape:connector-curvature="0" /></g><g
           id="g248"
           transform="translate(177.5057,137.4225)"><path
             d="m 0,0 v 0 c -2.75,0 -5,2.25 -5,5 v 12 c 0,2.75 2.25,5 5,5 v 0 c 2.75,0 5,-2.25 5,-5 V 5 C 5,2.25 2.75,0 0,0"
             style="fill:#403408;fill-opacity:1;fill-rule:nonzero;stroke:none"
             id="path250"
             inkscape:connector-curvature="0" /></g><g
           id="g252"
           transform="translate(182.5057,156.9613)"><path
             d="M 0,0 V -2.08 C 0,-2.883 -0.656,-3.539 -1.458,-3.539 H -18.461 C -20.408,-3.539 -22,-1.946 -22,0 c 0,1.946 1.592,3.539 3.539,3.539 H -3.539 C -1.592,3.539 0,1.946 0,0"
             style="fill:#403408;fill-opacity:1;fill-rule:nonzero;stroke:none"
             id="path254"
             inkscape:connector-curvature="0" /></g><g
           id="g256"
           transform="translate(119.839,156.9613)"><path
             d="M 0,0 V -1.83 C 0,-2.77 -0.769,-3.539 -1.708,-3.539 H -18.461 C -20.408,-3.539 -22,-1.946 -22,0 c 0,1.946 1.592,3.539 3.539,3.539 H -3.539 C -1.592,3.539 0,1.946 0,0"
             style="fill:#403408;fill-opacity:1;fill-rule:nonzero;stroke:none"
             id="path258"
             inkscape:connector-curvature="0" /></g><g
           id="g260"
           transform="translate(160.5055,119.9167)"><path
             d="m 0,0 c 0,0 -4.649,-13.583 -17.411,-13.583 -12.761,0 -17.255,13.477 -17.255,13.477"
             style="fill:none;stroke:#403408;stroke-width:7;stroke-linecap:round;stroke-linejoin:miter;stroke-miterlimit:10;stroke-dasharray:none;stroke-opacity:1"
             id="path262"
             inkscape:connector-curvature="0" /></g><g
           id="g264"><g
             id="g266" /><g
             id="g278"><g
               clip-path="url(#clipPath270)"
               id="g276"
               style="opacity:0.60000598"><g
                 transform="translate(104.9953,131.9968)"
                 id="g274"><path
                   d="m 0,0 c 0,-5.532 -4.485,-10.016 -10.016,-10.016 -5.532,0 -10.015,4.484 -10.015,10.016 0,5.532 4.483,10.016 10.015,10.016 C -4.485,10.016 0,5.532 0,0"
                   style="fill:#ff758a;fill-opacity:1;fill-rule:nonzero;stroke:none"
                   id="path272"
                   inkscape:connector-curvature="0" /></g></g></g></g><g
           id="g280"><g
             id="g282" /><g
             id="g294"><g
               clip-path="url(#clipPath286)"
               id="g292"
               style="opacity:0.60000598"><g
                 transform="translate(201.3805,131.9968)"
                 id="g290"><path
                   d="m 0,0 c 0,-5.532 -4.485,-10.016 -10.016,-10.016 -5.532,0 -10.015,4.484 -10.015,10.016 0,5.532 4.483,10.016 10.015,10.016 C -4.485,10.016 0,5.532 0,0"
                   style="fill:#ff758a;fill-opacity:1;fill-rule:nonzero;stroke:none"
                   id="path288"
                   inkscape:connector-curvature="0" /></g></g></g></g><g
           id="g296"
           transform="translate(102.6323,170.8978)"><path
             d="M 0,0 C 0,0 9.865,-4.059 13.377,4.768"
             style="fill:none;stroke:#403408;stroke-width:4;stroke-linecap:round;stroke-linejoin:miter;stroke-miterlimit:10;stroke-dasharray:none;stroke-opacity:1"
             id="path298"
             inkscape:connector-curvature="0" /></g><g
           id="g300"
           transform="translate(167.5925,174.7557)"><path
             d="M 0,0 C 8.431,4.377 13.123,-5.111 13.123,-5.111"
             style="fill:none;stroke:#403408;stroke-width:4;stroke-linecap:round;stroke-linejoin:miter;stroke-miterlimit:10;stroke-dasharray:none;stroke-opacity:1"
             id="path302"
             inkscape:connector-curvature="0" /></g><g
           id="g304"
           transform="translate(382.2433,497.6323)"><path
             d="m 0,0 c -1.185,-37.995 -32.95,-67.836 -70.945,-66.65 -37.995,1.184 -67.836,32.947 -66.649,70.942 1.185,37.997 32.947,67.837 70.942,66.652 C -28.657,69.759 1.185,37.996 0,0"
             style="fill:#ffd21f;fill-opacity:1;fill-rule:nonzero;stroke:none"
             id="path306"
             inkscape:connector-curvature="0" /></g><g
           id="g308"
           transform="translate(344.4457,490.5834)"><path
             d="m 0,0 c 0,0 -6.553,-9.917 -31.138,-9.917 -24.585,0 -30.861,9.84 -30.861,9.84"
             style="fill:none;stroke:#403408;stroke-width:7;stroke-linecap:round;stroke-linejoin:miter;stroke-miterlimit:10;stroke-dasharray:none;stroke-opacity:1"
             id="path310"
             inkscape:connector-curvature="0" /></g><g
           id="g312"
           transform="translate(337.0512,529.0955)"><path
             d="m 0,0 c 3.469,1.382 6.728,-0.051 8.79,-2.891 2.152,2.771 5.456,4.098 8.879,2.603 4.299,-1.876 5.131,-6.388 3.255,-10.688 -1.353,-3.102 -7.254,-8.881 -10.437,-11.86 C 9.34,-23.909 7.554,-23.88 6.444,-22.77 3.359,-19.689 -2.35,-13.721 -3.602,-10.577 -5.337,-6.218 -4.358,-1.736 0,0"
             style="fill:#ff5a58;fill-opacity:1;fill-rule:nonzero;stroke:none"
             id="path314"
             inkscape:connector-curvature="0" /></g><g
           id="g316"
           transform="translate(272.3846,529.0955)"><path
             d="m 0,0 c 3.469,1.382 6.728,-0.051 8.79,-2.891 2.152,2.771 5.456,4.098 8.879,2.603 4.299,-1.876 5.131,-6.388 3.255,-10.688 -1.353,-3.102 -7.254,-8.881 -10.437,-11.86 C 9.34,-23.909 7.554,-23.88 6.444,-22.77 3.359,-19.689 -2.35,-13.721 -3.602,-10.577 -5.337,-6.218 -4.358,-1.736 0,0"
             style="fill:#ff5a58;fill-opacity:1;fill-rule:nonzero;stroke:none"
             id="path318"
             inkscape:connector-curvature="0" /></g><g
           id="g320"
           transform="translate(722.825,679.3362)"><path
             d="m 0,0 c 0,-38.014 -30.818,-68.831 -68.832,-68.831 -38.013,0 -68.829,30.817 -68.829,68.831 0,38.015 30.816,68.831 68.829,68.831 C -30.818,68.831 0,38.015 0,0"
             style="fill:#ffd21f;fill-opacity:1;fill-rule:nonzero;stroke:none"
             id="path322"
             inkscape:connector-curvature="0" /></g><g
           id="g324"
           transform="translate(629.1754,669.0833)"><path
             d="m 0,0 c -1.093,-0.004 -1.847,-1.515 -1.432,-2.895 2.152,-7.173 9.344,-25.233 27.183,-25.233 17.83,0 25.184,18.185 27.404,25.421 0.426,1.388 -0.335,2.915 -1.436,2.911 z"
             style="fill:#403408;fill-opacity:1;fill-rule:nonzero;stroke:none"
             id="path326"
             inkscape:connector-curvature="0" /></g></g></g><g
       id="g328"><g
         id="g330"
         clip-path="url(#clipPath334)"><g
           id="g336"
           transform="translate(674.0607,640.9167)"><path
             d="m 0,0 c 0,-7.939 -8.693,-14.375 -19.417,-14.375 -10.723,0 -19.416,6.436 -19.416,14.375 0,7.939 8.693,14.375 19.416,14.375 C -8.693,14.375 0,7.939 0,0"
             style="fill:#ff5a58;fill-opacity:1;fill-rule:nonzero;stroke:none"
             id="path338"
             inkscape:connector-curvature="0" /></g></g></g><g
       id="g340"><g
         id="g342"
         clip-path="url(#clipPath346)"><g
           id="g348"
           transform="translate(675.4108,684.5833)"><path
             d="m 0,0 c 0,0 -0.125,10.667 9.375,10.667 9.5,0 9.292,-10.584 9.292,-10.584"
             style="fill:none;stroke:#403408;stroke-width:7;stroke-linecap:round;stroke-linejoin:miter;stroke-miterlimit:10;stroke-dasharray:none;stroke-opacity:1"
             id="path350"
             inkscape:connector-curvature="0" /></g><g
           id="g352"
           transform="translate(613.9108,684.5833)"><path
             d="m 0,0 c 0,0 -0.125,10.667 9.375,10.667 9.5,0 9.292,-10.584 9.292,-10.584"
             style="fill:none;stroke:#403408;stroke-width:7;stroke-linecap:round;stroke-linejoin:miter;stroke-miterlimit:10;stroke-dasharray:none;stroke-opacity:1"
             id="path354"
             inkscape:connector-curvature="0" /></g><g
           id="g356"><g
             id="g358" /><g
             id="g370"><g
               clip-path="url(#clipPath362)"
               id="g368"
               style="opacity:0.60000598"><g
                 transform="translate(615.8171,668.9968)"
                 id="g366"><path
                   d="m 0,0 c 0,-5.532 -4.485,-10.016 -10.016,-10.016 -5.532,0 -10.015,4.484 -10.015,10.016 0,5.532 4.483,10.016 10.015,10.016 C -4.485,10.016 0,5.532 0,0"
                   style="fill:#ff758a;fill-opacity:1;fill-rule:nonzero;stroke:none"
                   id="path364"
                   inkscape:connector-curvature="0" /></g></g></g></g><g
           id="g372"><g
             id="g374" /><g
             id="g386"><g
               clip-path="url(#clipPath378)"
               id="g384"
               style="opacity:0.60000598"><g
                 transform="translate(712.2023,668.9968)"
                 id="g382"><path
                   d="m 0,0 c 0,-5.532 -4.485,-10.016 -10.016,-10.016 -5.532,0 -10.015,4.484 -10.015,10.016 0,5.532 4.483,10.016 10.015,10.016 C -4.485,10.016 0,5.532 0,0"
                   style="fill:#ff758a;fill-opacity:1;fill-rule:nonzero;stroke:none"
                   id="path380"
                   inkscape:connector-curvature="0" /></g></g></g></g><g
           id="g388"
           transform="translate(212.0031,499.7787)"><path
             d="m 0,0 c 0,-38.014 -30.817,-68.831 -68.831,-68.831 -38.013,0 -68.83,30.817 -68.83,68.831 0,38.015 30.817,68.831 68.83,68.831 C -30.817,68.831 0,38.015 0,0"
             style="fill:#ffd21f;fill-opacity:1;fill-rule:nonzero;stroke:none"
             id="path390"
             inkscape:connector-curvature="0" /></g><g
           id="g392"
           transform="translate(102.4639,507.4045)"><path
             d="m 0,0 c 0,0 -0.125,10.667 9.375,10.667 9.5,0 9.292,-10.584 9.292,-10.584"
             style="fill:none;stroke:#403408;stroke-width:7;stroke-linecap:round;stroke-linejoin:miter;stroke-miterlimit:10;stroke-dasharray:none;stroke-opacity:1"
             id="path394"
             inkscape:connector-curvature="0" /></g><g
           id="g396"
           transform="translate(165.2139,507.4045)"><path
             d="m 0,0 c 0,0 -0.125,10.667 9.375,10.667 9.5,0 9.292,-10.584 9.292,-10.584"
             style="fill:none;stroke:#403408;stroke-width:7;stroke-linecap:round;stroke-linejoin:miter;stroke-miterlimit:10;stroke-dasharray:none;stroke-opacity:1"
             id="path398"
             inkscape:connector-curvature="0" /></g><g
           id="g400"
           transform="translate(107.8732,488.0833)"><path
             d="m 0,0 c -1.492,-0.004 -2.521,-1.515 -1.955,-2.895 2.938,-7.173 12.754,-25.233 37.1,-25.233 24.334,0 34.371,18.185 37.402,25.421 0.581,1.388 -0.457,2.915 -1.961,2.911 z"
             style="fill:#403408;fill-opacity:1;fill-rule:nonzero;stroke:none"
             id="path402"
             inkscape:connector-curvature="0" /></g><g
           id="g404"
           transform="translate(118.8583,483.7463)"><path
             d="M 0,0 C 0,0 2.826,-39.806 25.193,-39.237 47.557,-38.666 48.297,1.232 48.297,1.232"
             style="fill:#ff5a58;fill-opacity:1;fill-rule:nonzero;stroke:none"
             id="path406"
             inkscape:connector-curvature="0" /></g></g></g><g
       id="g408"><g
         id="g410"
         clip-path="url(#clipPath414)"><g
           id="g416"
           transform="translate(111.0183,488.8992)"><path
             d="m 0,0 c -1.359,-0.001 -2.296,-0.407 -1.781,-0.779 2.677,-1.929 11.618,-6.787 33.794,-6.787 22.167,0 31.309,4.892 34.07,6.838 0.529,0.373 -0.416,0.784 -1.786,0.783 z"
             style="fill:#ffffff;fill-opacity:1;fill-rule:nonzero;stroke:none"
             id="path418"
             inkscape:connector-curvature="0" /></g></g></g><g
       id="g420"><g
         id="g422"
         clip-path="url(#clipPath426)"><g
           id="g428"
           transform="translate(552.5165,497.6323)"><path
             d="m 0,0 c -1.186,-37.995 -32.949,-67.835 -70.944,-66.65 -37.995,1.185 -67.835,32.948 -66.649,70.943 1.185,37.996 32.947,67.836 70.942,66.65 C -28.656,69.758 1.186,37.996 0,0"
             style="fill:#ffd21f;fill-opacity:1;fill-rule:nonzero;stroke:none"
             id="path430"
             inkscape:connector-curvature="0" /></g><g
           id="g432"
           transform="translate(452.6887,487.3952)"><path
             d="m 0,0 c -1.311,-0.004 -2.216,-1.332 -1.719,-2.545 2.583,-6.306 11.212,-22.182 32.614,-22.182 21.393,0 30.216,15.986 32.881,22.348 0.51,1.219 -0.402,2.562 -1.724,2.558 z"
             style="fill:#ffffff;fill-opacity:1;fill-rule:nonzero;stroke:none"
             id="path434"
             inkscape:connector-curvature="0" /></g><g
           id="g436"
           transform="translate(452.6887,487.3952)"><path
             d="m 0,0 c -1.311,-0.004 -2.216,-1.332 -1.719,-2.545 2.583,-6.306 11.212,-22.182 32.614,-22.182 21.393,0 30.216,15.986 32.881,22.348 0.51,1.219 -0.402,2.562 -1.724,2.558 z"
             style="fill:none;stroke:#ffffff;stroke-width:6.15399981;stroke-linecap:round;stroke-linejoin:miter;stroke-miterlimit:10;stroke-dasharray:none;stroke-opacity:1"
             id="path438"
             inkscape:connector-curvature="0" /></g><g
           id="g440"
           transform="translate(467.3782,477.5021)"><path
             d="M 0,0 C -6.076,0.743 -12.121,2.193 -17.589,5.01"
             style="fill:none;stroke:#f2f2f2;stroke-width:2.76399994;stroke-linecap:round;stroke-linejoin:miter;stroke-miterlimit:10;stroke-dasharray:none;stroke-opacity:1"
             id="path442"
             inkscape:connector-curvature="0" /></g><g
           id="g444"
           transform="translate(516.4714,481.7762)"><path
             d="M 0,0 C -4.518,-1.859 -9.261,-3.126 -14.075,-3.935"
             style="fill:none;stroke:#f2f2f2;stroke-width:2.76399994;stroke-linecap:round;stroke-linejoin:miter;stroke-miterlimit:10;stroke-dasharray:none;stroke-opacity:1"
             id="path446"
             inkscape:connector-curvature="0" /></g><g
           id="g448"><g
             id="g450" /><g
             id="g462"><g
               clip-path="url(#clipPath454)"
               id="g460"
               style="opacity:0.60000598"><g
                 transform="translate(445.5428,491.9968)"
                 id="g458"><path
                   d="m 0,0 c 0,-5.532 -4.485,-10.016 -10.016,-10.016 -5.532,0 -10.015,4.484 -10.015,10.016 0,5.532 4.483,10.016 10.015,10.016 C -4.485,10.016 0,5.532 0,0"
                   style="fill:#ff758a;fill-opacity:1;fill-rule:nonzero;stroke:none"
                   id="path456"
                   inkscape:connector-curvature="0" /></g></g></g></g><g
           id="g464"><g
             id="g466" /><g
             id="g478"><g
               clip-path="url(#clipPath470)"
               id="g476"
               style="opacity:0.60000598"><g
                 transform="translate(541.928,491.9968)"
                 id="g474"><path
                   d="m 0,0 c 0,-5.532 -4.485,-10.016 -10.016,-10.016 -5.532,0 -10.015,4.484 -10.015,10.016 0,5.532 4.483,10.016 10.015,10.016 C -4.485,10.016 0,5.532 0,0"
                   style="fill:#ff758a;fill-opacity:1;fill-rule:nonzero;stroke:none"
                   id="path472"
                   inkscape:connector-curvature="0" /></g></g></g></g><g
           id="g480"
           transform="translate(447.0117,522.0713)"><path
             d="M 0,0 16.523,-9.375 0.129,-18.667"
             style="fill:none;stroke:#403408;stroke-width:8.71199989;stroke-linecap:round;stroke-linejoin:round;stroke-miterlimit:10;stroke-dasharray:none;stroke-opacity:1"
             id="path482"
             inkscape:connector-curvature="0" /></g><g
           id="g484"
           transform="translate(520.4282,503.4044)"><path
             d="m 0,0 -16.144,9.375 16.018,9.292"
             style="fill:none;stroke:#403408;stroke-width:8.61200047;stroke-linecap:round;stroke-linejoin:round;stroke-miterlimit:10;stroke-dasharray:none;stroke-opacity:1"
             id="path486"
             inkscape:connector-curvature="0" /></g><g
           id="g488"
           transform="translate(382.2763,320.2213)"><path
             d="m 0,0 c 0,-38.014 -30.817,-68.831 -68.832,-68.831 -38.013,0 -68.829,30.817 -68.829,68.831 0,38.015 30.816,68.831 68.829,68.831 C -30.817,68.831 0,38.015 0,0"
             style="fill:#ffd21f;fill-opacity:1;fill-rule:nonzero;stroke:none"
             id="path490"
             inkscape:connector-curvature="0" /></g><g
           id="g492"
           transform="translate(282.1122,319.7469)"><path
             d="m 0,0 v 0 c -2.75,0 -5,2.25 -5,5 v 17.333 c 0,2.75 2.25,5 5,5 2.75,0 5,-2.25 5,-5 V 5 C 5,2.25 2.75,0 0,0"
             style="fill:#403408;fill-opacity:1;fill-rule:nonzero;stroke:none"
             id="path494"
             inkscape:connector-curvature="0" /></g><g
           id="g496"
           transform="translate(344.7789,319.7469)"><path
             d="m 0,0 v 0 c -2.75,0 -5,2.25 -5,5 v 17.333 c 0,2.75 2.25,5 5,5 2.75,0 5,-2.25 5,-5 V 5 C 5,2.25 2.75,0 0,0"
             style="fill:#403408;fill-opacity:1;fill-rule:nonzero;stroke:none"
             id="path498"
             inkscape:connector-curvature="0" /></g><g
           id="g500"
           transform="translate(288.7793,293.0178)"><path
             d="M 0,0 C 0,0 5.214,18.25 24.776,18.25 44.339,18.25 49.333,0.143 49.333,0.143"
             style="fill:none;stroke:#403408;stroke-width:7;stroke-linecap:round;stroke-linejoin:miter;stroke-miterlimit:10;stroke-dasharray:none;stroke-opacity:1"
             id="path502"
             inkscape:connector-curvature="0" /></g><g
           id="g504"
           transform="translate(722.825,140.6637)"><path
             d="m 0,0 c 0,-38.014 -30.818,-68.831 -68.832,-68.831 -38.013,0 -68.829,30.817 -68.829,68.831 0,38.015 30.816,68.831 68.829,68.831 C -30.818,68.831 0,38.015 0,0"
             style="fill:#ffd21f;fill-opacity:1;fill-rule:nonzero;stroke:none"
             id="path506"
             inkscape:connector-curvature="0" /></g><g
           id="g508"
           transform="translate(704.7466,113.5912)"><path
             d="m 0,0 c 0,-5.308 -4.305,-9.612 -9.615,-9.612 -5.309,0 -9.613,4.304 -9.613,9.612 0,5.311 9.613,23.438 9.613,23.438 C -9.615,23.438 0,5.311 0,0"
             style="fill:#2fa7bf;fill-opacity:1;fill-rule:nonzero;stroke:none"
             id="path510"
             inkscape:connector-curvature="0" /></g><g
           id="g512"
           transform="translate(694.7027,157.7378)"><path
             d="m 0,0 c 0,0 0.125,-10.667 -9.375,-10.667 -9.5,0 -9.292,10.584 -9.292,10.584"
             style="fill:none;stroke:#403408;stroke-width:7;stroke-linecap:round;stroke-linejoin:miter;stroke-miterlimit:10;stroke-dasharray:none;stroke-opacity:1"
             id="path514"
             inkscape:connector-curvature="0" /></g><g
           id="g516"
           transform="translate(631.9527,157.7378)"><path
             d="m 0,0 c 0,0 0.125,-10.667 -9.375,-10.667 -9.5,0 -9.292,10.584 -9.292,10.584"
             style="fill:none;stroke:#403408;stroke-width:7;stroke-linecap:round;stroke-linejoin:miter;stroke-miterlimit:10;stroke-dasharray:none;stroke-opacity:1"
             id="path518"
             inkscape:connector-curvature="0" /></g><g
           id="g520"
           transform="translate(629.3279,116.0178)"><path
             d="M 0,0 C 0,0 5.214,18.25 24.776,18.25 44.339,18.25 49.333,0.143 49.333,0.143"
             style="fill:none;stroke:#403408;stroke-width:7;stroke-linecap:round;stroke-linejoin:miter;stroke-miterlimit:10;stroke-dasharray:none;stroke-opacity:1"
             id="path522"
             inkscape:connector-curvature="0" /></g><g
           id="g524"
           transform="translate(552.5507,320.2213)"><path
             d="m 0,0 c 0,-38.014 -30.817,-68.831 -68.831,-68.831 -38.013,0 -68.83,30.817 -68.83,68.831 0,38.015 30.817,68.831 68.83,68.831 C -30.817,68.831 0,38.015 0,0"
             style="fill:#ffd21f;fill-opacity:1;fill-rule:nonzero;stroke:none"
             id="path526"
             inkscape:connector-curvature="0" /></g><g
           id="g528"
           transform="translate(447.0117,345.9133)"><path
             d="M 0,0 16.523,-9.375 0.129,-18.667"
             style="fill:none;stroke:#403408;stroke-width:8.71199989;stroke-linecap:round;stroke-linejoin:round;stroke-miterlimit:10;stroke-dasharray:none;stroke-opacity:1"
             id="path530"
             inkscape:connector-curvature="0" /></g><g
           id="g532"
           transform="translate(520.4282,327.2464)"><path
             d="m 0,0 -16.144,9.375 16.018,9.292"
             style="fill:none;stroke:#403408;stroke-width:8.61200047;stroke-linecap:round;stroke-linejoin:round;stroke-miterlimit:10;stroke-dasharray:none;stroke-opacity:1"
             id="path534"
             inkscape:connector-curvature="0" /></g><g
           id="g536"
           transform="translate(459.0536,293.0178)"><path
             d="M 0,0 C 0,0 5.214,18.25 24.776,18.25 44.339,18.25 49.333,0.143 49.333,0.143"
             style="fill:none;stroke:#403408;stroke-width:7;stroke-linecap:round;stroke-linejoin:miter;stroke-miterlimit:10;stroke-dasharray:none;stroke-opacity:1"
             id="path538"
             inkscape:connector-curvature="0" /></g><g
           id="g540"
           transform="translate(552.5507,140.6637)"><path
             d="m 0,0 c 0,-38.014 -30.818,-68.831 -68.832,-68.831 -38.013,0 -68.829,30.817 -68.829,68.831 0,38.015 30.816,68.831 68.829,68.831 C -30.818,68.831 0,38.015 0,0"
             style="fill:#ffd21f;fill-opacity:1;fill-rule:nonzero;stroke:none"
             id="path542"
             inkscape:connector-curvature="0" /></g><g
           id="g544"
           transform="translate(452.3866,136.4225)"><path
             d="m 0,0 v 0 c -2.75,0 -5,2.25 -5,5 v 12 c 0,2.75 2.25,5 5,5 2.75,0 5,-2.25 5,-5 V 5 C 5,2.25 2.75,0 0,0"
             style="fill:#403408;fill-opacity:1;fill-rule:nonzero;stroke:none"
             id="path546"
             inkscape:connector-curvature="0" /></g><g
           id="g548"
           transform="translate(515.0533,136.4225)"><path
             d="m 0,0 v 0 c -2.75,0 -5,2.25 -5,5 v 12 c 0,2.75 2.25,5 5,5 2.75,0 5,-2.25 5,-5 V 5 C 5,2.25 2.75,0 0,0"
             style="fill:#403408;fill-opacity:1;fill-rule:nonzero;stroke:none"
             id="path550"
             inkscape:connector-curvature="0" /></g><g
           id="g552"
           transform="translate(444.3051,121)"><path
             d="M 0,0 H 78.83"
             style="fill:none;stroke:#403408;stroke-width:6;stroke-linecap:round;stroke-linejoin:miter;stroke-miterlimit:10;stroke-dasharray:none;stroke-opacity:1"
             id="path554"
             inkscape:connector-curvature="0" /></g></g></g><g
       id="g556"><g
         id="g558"
         clip-path="url(#clipPath562)"><g
           id="g564"
           transform="translate(283.3916,30.1367)"><path
             d="M 0,0 C 0,-0.703 0.109,-1.301 0.328,-1.795 0.547,-2.289 0.846,-2.66 1.226,-2.91 1.605,-3.16 2.02,-3.287 2.47,-3.287 c 0.456,0 0.872,0.119 1.249,0.357 0.377,0.237 0.677,0.602 0.902,1.092 0.225,0.49 0.337,1.106 0.337,1.838 0,0.691 -0.112,1.285 -0.337,1.783 C 4.396,2.279 4.093,2.658 3.709,2.922 3.326,3.184 2.906,3.314 2.451,3.314 1.977,3.314 1.552,3.18 1.178,2.912 0.805,2.643 0.515,2.258 0.31,1.754 0.102,1.25 0,0.666 0,0 m 5.101,-3.809 v 0.258 C 4.752,-3.949 4.409,-4.275 4.07,-4.523 3.731,-4.775 3.364,-4.965 2.968,-5.094 2.572,-5.227 2.141,-5.289 1.672,-5.289 c -0.621,0 -1.195,0.131 -1.725,0.393 -0.528,0.263 -0.985,0.638 -1.371,1.126 -0.388,0.487 -0.68,1.059 -0.879,1.719 -0.199,0.658 -0.3,1.371 -0.3,2.137 0,1.621 0.397,2.885 1.188,3.791 C -0.623,4.781 0.418,5.234 1.71,5.234 2.457,5.234 3.087,5.105 3.6,4.85 4.113,4.594 4.613,4.197 5.101,3.668 v 3.826 c 0,0.533 0.105,0.934 0.318,1.207 0.212,0.272 0.514,0.408 0.907,0.408 0.393,0 0.694,-0.125 0.906,-0.375 C 7.445,8.482 7.551,8.115 7.551,7.627 V -3.809 c 0,-0.494 -0.114,-0.863 -0.342,-1.111 -0.228,-0.246 -0.522,-0.369 -0.883,-0.369 -0.354,0 -0.647,0.127 -0.879,0.383 -0.231,0.258 -0.346,0.623 -0.346,1.097"
             style="fill:#403408;fill-opacity:1;fill-rule:nonzero;stroke:none"
             id="path566"
             inkscape:connector-curvature="0" /></g><g
           id="g568"
           transform="translate(294.8545,30.9531)"><path
             d="M 0,0 H 4.702 C 4.64,0.887 4.398,1.551 3.984,1.99 3.569,2.432 3.024,2.65 2.347,2.65 1.7,2.65 1.17,2.428 0.756,1.982 0.341,1.535 0.09,0.875 0,0 M 5.071,-1.473 H 0 c 0.007,-0.588 0.125,-1.107 0.356,-1.556 0.231,-0.45 0.539,-0.789 0.921,-1.016 0.384,-0.228 0.807,-0.342 1.269,-0.342 0.309,0 0.593,0.036 0.85,0.108 0.256,0.074 0.504,0.187 0.746,0.343 0.241,0.155 0.462,0.321 0.665,0.498 0.202,0.178 0.464,0.42 0.788,0.723 0.133,0.114 0.323,0.172 0.57,0.172 0.266,0 0.481,-0.074 0.645,-0.221 0.165,-0.146 0.248,-0.349 0.248,-0.617 0,-0.234 -0.093,-0.506 -0.276,-0.82 C 6.598,-4.516 6.32,-4.816 5.951,-5.104 5.579,-5.393 5.115,-5.631 4.554,-5.82 3.994,-6.012 3.35,-6.105 2.621,-6.105 c -1.664,0 -2.96,0.474 -3.884,1.423 -0.925,0.95 -1.386,2.239 -1.386,3.866 0,0.767 0.113,1.478 0.341,2.132 0.229,0.657 0.561,1.217 0.997,1.686 0.437,0.469 0.975,0.828 1.616,1.078 0.638,0.25 1.348,0.375 2.127,0.375 1.012,0 1.882,-0.213 2.606,-0.64 0.726,-0.428 1.27,-0.981 1.63,-1.657 0.359,-0.677 0.541,-1.369 0.541,-2.07 0,-0.654 -0.186,-1.076 -0.56,-1.27 C 6.276,-1.375 5.75,-1.473 5.071,-1.473"
             style="fill:#403408;fill-opacity:1;fill-rule:nonzero;stroke:none"
             id="path570"
             inkscape:connector-curvature="0" /></g><g
           id="g572"
           transform="translate(311.7412,28.2383)"><path
             d="m 0,0 c 0,-0.715 -0.174,-1.328 -0.522,-1.838 -0.348,-0.51 -0.863,-0.896 -1.544,-1.16 -0.68,-0.262 -1.508,-0.393 -2.484,-0.393 -0.93,0 -1.728,0.143 -2.393,0.428 -0.664,0.283 -1.156,0.641 -1.472,1.067 -0.316,0.429 -0.475,0.857 -0.475,1.289 0,0.285 0.101,0.527 0.304,0.73 0.202,0.201 0.459,0.303 0.77,0.303 0.271,0 0.48,-0.067 0.626,-0.199 0.146,-0.133 0.286,-0.321 0.418,-0.559 0.265,-0.465 0.585,-0.807 0.955,-1.037 0.37,-0.227 0.875,-0.342 1.515,-0.342 0.519,0 0.945,0.117 1.278,0.348 0.332,0.232 0.498,0.496 0.498,0.793 0,0.457 -0.172,0.787 -0.518,0.996 -0.346,0.209 -0.914,0.41 -1.705,0.599 -0.893,0.221 -1.619,0.455 -2.18,0.7 -0.56,0.242 -1.008,0.564 -1.343,0.963 -0.336,0.398 -0.504,0.89 -0.504,1.472 0,0.518 0.155,1.01 0.466,1.473 0.31,0.461 0.767,0.83 1.373,1.105 0.603,0.276 1.333,0.414 2.188,0.414 0.671,0 1.274,-0.07 1.809,-0.211 0.536,-0.136 0.983,-0.326 1.339,-0.56 0.359,-0.233 0.63,-0.492 0.817,-0.777 0.186,-0.286 0.28,-0.563 0.28,-0.836 0,-0.297 -0.099,-0.541 -0.299,-0.733 -0.199,-0.187 -0.482,-0.285 -0.85,-0.285 -0.266,0 -0.492,0.076 -0.679,0.23 -0.186,0.151 -0.4,0.379 -0.641,0.682 C -3.169,4.916 -3.399,5.119 -3.666,5.271 -3.932,5.424 -4.293,5.498 -4.749,5.498 -5.218,5.498 -5.606,5.4 -5.917,5.199 -6.227,5 -6.383,4.752 -6.383,4.455 c 0,-0.273 0.115,-0.496 0.342,-0.67 0.229,-0.176 0.535,-0.32 0.922,-0.433 C -4.732,3.238 -4.202,3.1 -3.523,2.936 -2.72,2.738 -2.063,2.504 -1.553,2.232 -1.044,1.961 -0.657,1.639 -0.393,1.268 -0.131,0.896 0,0.475 0,0"
             style="fill:#403408;fill-opacity:1;fill-rule:nonzero;stroke:none"
             id="path574"
             inkscape:connector-curvature="0" /></g><g
           id="g576"
           transform="translate(315.6729,33.918)"><path
             d="m 0,0 v -7.494 c 0,-0.52 -0.124,-0.912 -0.371,-1.178 -0.247,-0.266 -0.56,-0.398 -0.941,-0.398 -0.379,0 -0.688,0.134 -0.925,0.408 -0.239,0.271 -0.357,0.662 -0.357,1.168 v 7.418 c 0,0.512 0.118,0.898 0.357,1.158 0.237,0.26 0.546,0.391 0.925,0.391 0.381,0 0.694,-0.131 0.941,-0.391 C -0.124,0.822 0,0.461 0,0 m -1.283,2.678 c -0.361,0 -0.669,0.111 -0.926,0.332 -0.256,0.22 -0.385,0.535 -0.385,0.941 0,0.367 0.132,0.668 0.395,0.906 0.262,0.239 0.568,0.358 0.916,0.358 0.336,0 0.634,-0.108 0.892,-0.324 C -0.131,4.676 0,4.363 0,3.951 0,3.551 -0.128,3.24 -0.381,3.016 -0.634,2.791 -0.935,2.678 -1.283,2.678"
             style="fill:#403408;fill-opacity:1;fill-rule:nonzero;stroke:none"
             id="path578"
             inkscape:connector-curvature="0" /></g><g
           id="g580"
           transform="translate(319.5186,30.2031)"><path
             d="m 0,0 c 0,-1.051 0.229,-1.846 0.687,-2.383 0.459,-0.539 1.054,-0.808 1.782,-0.808 0.43,0 0.837,0.117 1.219,0.347 0.384,0.231 0.696,0.58 0.937,1.045 0.24,0.465 0.361,1.029 0.361,1.695 0,1.057 -0.232,1.881 -0.698,2.469 C 3.822,2.953 3.21,3.248 2.449,3.248 1.708,3.248 1.115,2.967 0.669,2.402 0.223,1.84 0,1.039 0,0 M 7.513,3.287 V -4.244 C 7.513,-5.105 7.42,-5.848 7.236,-6.469 7.054,-7.088 6.759,-7.601 6.354,-8.006 5.948,-8.41 5.418,-8.713 4.763,-8.908 4.107,-9.105 3.292,-9.203 2.316,-9.203 c -0.892,0 -1.69,0.125 -2.393,0.375 -0.702,0.252 -1.243,0.574 -1.624,0.969 -0.379,0.396 -0.57,0.802 -0.57,1.22 0,0.317 0.108,0.577 0.324,0.774 0.215,0.201 0.474,0.301 0.778,0.301 0.38,0 0.712,-0.168 0.997,-0.504 0.139,-0.17 0.283,-0.344 0.432,-0.518 0.149,-0.176 0.314,-0.324 0.494,-0.447 0.181,-0.123 0.397,-0.215 0.65,-0.276 0.254,-0.058 0.546,-0.089 0.874,-0.089 0.672,0 1.193,0.093 1.564,0.281 0.37,0.185 0.63,0.447 0.778,0.783 0.15,0.334 0.236,0.693 0.262,1.078 0.025,0.383 0.044,0.998 0.056,1.848 C 4.539,-3.967 4.079,-4.391 3.556,-4.682 3.034,-4.973 2.411,-5.119 1.69,-5.119 c -0.868,0 -1.626,0.223 -2.275,0.666 -0.648,0.443 -1.147,1.062 -1.495,1.861 -0.349,0.799 -0.523,1.719 -0.523,2.764 0,0.777 0.106,1.482 0.318,2.107 0.213,0.629 0.515,1.157 0.907,1.588 0.393,0.43 0.846,0.754 1.358,0.973 0.513,0.219 1.077,0.328 1.691,0.328 0.734,0 1.371,-0.143 1.909,-0.422 C 4.118,4.463 4.619,4.022 5.081,3.42 v 0.352 c 0,0.449 0.11,0.796 0.332,1.044 0.222,0.246 0.507,0.371 0.855,0.371 0.5,0 0.832,-0.163 0.997,-0.49 C 7.43,4.371 7.513,3.9 7.513,3.287"
             style="fill:#403408;fill-opacity:1;fill-rule:nonzero;stroke:none"
             id="path582"
             inkscape:connector-curvature="0" /></g><g
           id="g584"
           transform="translate(331.1523,33.9551)"><path
             d="M 0,0 V -0.312 C 0.455,0.289 0.954,0.73 1.495,1.012 2.037,1.293 2.658,1.435 3.361,1.435 4.046,1.435 4.656,1.285 5.195,0.988 5.733,0.689 6.136,0.27 6.4,-0.274 6.572,-0.592 6.683,-0.934 6.733,-1.301 6.784,-1.668 6.811,-2.137 6.811,-2.707 v -4.824 c 0,-0.52 -0.12,-0.912 -0.358,-1.178 -0.237,-0.266 -0.546,-0.398 -0.926,-0.398 -0.386,0 -0.699,0.134 -0.94,0.408 -0.241,0.271 -0.36,0.662 -0.36,1.168 v 4.322 c 0,0.853 -0.119,1.508 -0.357,1.961 -0.238,0.451 -0.711,0.68 -1.421,0.68 -0.461,0 -0.883,-0.139 -1.262,-0.414 C 0.807,-1.258 0.528,-1.637 0.351,-2.117 0.225,-2.504 0.161,-3.225 0.161,-4.283 v -3.248 c 0,-0.526 -0.123,-0.92 -0.365,-1.184 -0.244,-0.262 -0.559,-0.392 -0.945,-0.392 -0.374,0 -0.681,0.134 -0.922,0.408 -0.24,0.271 -0.361,0.662 -0.361,1.168 v 7.494 c 0,0.494 0.108,0.863 0.323,1.107 0.216,0.242 0.509,0.365 0.882,0.365 0.229,0 0.435,-0.054 0.62,-0.162 0.182,-0.109 0.33,-0.269 0.441,-0.484 C -0.056,0.574 0,0.31 0,0"
             style="fill:#403408;fill-opacity:1;fill-rule:nonzero;stroke:none"
             id="path586"
             inkscape:connector-curvature="0" /></g><g
           id="g588"
           transform="translate(341.8555,30.9531)"><path
             d="M 0,0 H 4.701 C 4.638,0.887 4.398,1.551 3.984,1.99 3.569,2.432 3.023,2.65 2.346,2.65 1.699,2.65 1.169,2.428 0.754,1.982 0.339,1.535 0.089,0.875 0,0 M 5.071,-1.473 H 0 c 0.007,-0.588 0.124,-1.107 0.356,-1.556 0.231,-0.45 0.537,-0.789 0.921,-1.016 0.382,-0.228 0.806,-0.342 1.268,-0.342 0.31,0 0.594,0.036 0.851,0.108 0.255,0.074 0.503,0.187 0.746,0.343 0.239,0.155 0.461,0.321 0.665,0.498 0.201,0.178 0.464,0.42 0.787,0.723 0.133,0.114 0.323,0.172 0.57,0.172 0.266,0 0.482,-0.074 0.646,-0.221 0.165,-0.146 0.247,-0.349 0.247,-0.617 0,-0.234 -0.092,-0.506 -0.276,-0.82 C 6.597,-4.516 6.32,-4.816 5.949,-5.104 5.579,-5.393 5.114,-5.631 4.554,-5.82 3.993,-6.012 3.349,-6.105 2.621,-6.105 c -1.665,0 -2.96,0.474 -3.886,1.423 -0.923,0.95 -1.385,2.239 -1.385,3.866 0,0.767 0.114,1.478 0.341,2.132 0.228,0.657 0.561,1.217 0.998,1.686 0.437,0.469 0.975,0.828 1.615,1.078 0.638,0.25 1.348,0.375 2.128,0.375 1.012,0 1.88,-0.213 2.605,-0.64 C 5.763,3.387 6.306,2.834 6.667,2.158 7.027,1.481 7.209,0.789 7.209,0.088 7.209,-0.566 7.022,-0.988 6.648,-1.182 6.275,-1.375 5.749,-1.473 5.071,-1.473"
             style="fill:#403408;fill-opacity:1;fill-rule:nonzero;stroke:none"
             id="path590"
             inkscape:connector-curvature="0" /></g><g
           id="g592"
           transform="translate(352.3965,30.1367)"><path
             d="m 0,0 c 0,-0.703 0.108,-1.301 0.327,-1.795 0.219,-0.494 0.518,-0.865 0.899,-1.115 0.38,-0.25 0.794,-0.377 1.243,-0.377 0.457,0 0.873,0.119 1.249,0.357 0.377,0.237 0.679,0.602 0.902,1.092 C 4.846,-1.348 4.958,-0.732 4.958,0 4.958,0.691 4.846,1.285 4.62,1.783 4.397,2.279 4.092,2.658 3.709,2.922 3.325,3.184 2.906,3.314 2.45,3.314 1.976,3.314 1.551,3.18 1.178,2.912 0.805,2.643 0.515,2.258 0.309,1.754 0.103,1.25 0,0.666 0,0 m 5.1,-3.809 v 0.258 C 4.752,-3.949 4.408,-4.275 4.069,-4.523 3.731,-4.775 3.364,-4.965 2.968,-5.094 2.573,-5.227 2.141,-5.289 1.672,-5.289 c -0.621,0 -1.195,0.131 -1.724,0.393 -0.529,0.263 -0.986,0.638 -1.373,1.126 -0.386,0.487 -0.678,1.059 -0.878,1.719 -0.2,0.658 -0.3,1.371 -0.3,2.137 0,1.621 0.396,2.885 1.188,3.791 C -0.624,4.781 0.418,5.234 1.71,5.234 2.457,5.234 3.087,5.105 3.6,4.85 4.112,4.594 4.613,4.197 5.1,3.668 v 3.826 c 0,0.533 0.106,0.934 0.319,1.207 0.211,0.272 0.515,0.408 0.907,0.408 0.392,0 0.695,-0.125 0.906,-0.375 C 7.444,8.482 7.551,8.115 7.551,7.627 V -3.809 C 7.551,-4.303 7.438,-4.672 7.209,-4.92 6.981,-5.166 6.688,-5.289 6.326,-5.289 5.972,-5.289 5.679,-5.162 5.447,-4.906 5.216,-4.648 5.1,-4.283 5.1,-3.809"
             style="fill:#403408;fill-opacity:1;fill-rule:nonzero;stroke:none"
             id="path594"
             inkscape:connector-curvature="0" /></g><g
           id="g596"
           transform="translate(368.2178,30.0605)"><path
             d="m 0,0 c 0,-1.031 0.236,-1.824 0.708,-2.377 0.472,-0.555 1.091,-0.834 1.856,-0.834 0.653,0 1.215,0.283 1.686,0.852 0.472,0.566 0.708,1.379 0.708,2.435 C 4.958,0.76 4.86,1.35 4.664,1.844 4.467,2.338 4.189,2.719 3.828,2.988 3.467,3.256 3.046,3.391 2.564,3.391 2.071,3.391 1.63,3.256 1.244,2.988 0.858,2.719 0.555,2.33 0.332,1.82 0.111,1.311 0,0.703 0,0 M -0.123,7.703 V 3.744 C 0.364,4.25 0.861,4.639 1.368,4.906 1.874,5.176 2.502,5.311 3.249,5.311 4.11,5.311 4.864,5.105 5.515,4.699 6.162,4.289 6.666,3.697 7.024,2.922 7.382,2.146 7.561,1.227 7.561,0.162 c 0,-0.785 -0.1,-1.504 -0.299,-2.16 C 7.062,-2.654 6.772,-3.223 6.393,-3.703 6.013,-4.184 5.552,-4.557 5.011,-4.82 4.469,-5.082 3.872,-5.213 3.221,-5.213 c -0.4,0 -0.776,0.047 -1.126,0.143 -0.352,0.093 -0.652,0.218 -0.898,0.375 -0.246,0.154 -0.457,0.314 -0.632,0.478 -0.173,0.164 -0.404,0.412 -0.688,0.742 v -0.257 c 0,-0.487 -0.117,-0.856 -0.352,-1.108 -0.233,-0.25 -0.531,-0.373 -0.892,-0.373 -0.367,0 -0.66,0.123 -0.879,0.373 -0.219,0.252 -0.327,0.621 -0.327,1.108 V 7.59 c 0,0.525 0.105,0.924 0.317,1.191 0.212,0.27 0.509,0.405 0.889,0.405 0.399,0 0.706,-0.129 0.921,-0.385 0.214,-0.258 0.323,-0.621 0.323,-1.098"
             style="fill:#403408;fill-opacity:1;fill-rule:nonzero;stroke:none"
             id="path598"
             inkscape:connector-curvature="0" /></g><g
           id="g600"
           transform="translate(379.1406,24.5234)"><path
             d="m 0,0 0.237,0.58 -3.191,8.035 c -0.196,0.461 -0.295,0.799 -0.295,1.008 0,0.221 0.058,0.426 0.171,0.615 0.114,0.192 0.27,0.344 0.47,0.457 0.2,0.116 0.407,0.172 0.623,0.172 0.373,0 0.654,-0.119 0.845,-0.357 0.191,-0.237 0.358,-0.576 0.503,-1.02 l 2.195,-6.383 2.08,5.936 c 0.164,0.48 0.313,0.857 0.446,1.131 0.133,0.271 0.273,0.455 0.422,0.549 0.148,0.095 0.359,0.144 0.633,0.144 0.197,0 0.384,-0.053 0.564,-0.158 0.181,-0.104 0.32,-0.244 0.418,-0.422 C 6.219,10.109 6.27,9.924 6.27,9.727 6.242,9.607 6.203,9.436 6.145,9.213 6.088,8.992 6.019,8.766 5.936,8.539 L 2.555,-0.312 C 2.263,-1.092 1.978,-1.701 1.699,-2.145 1.421,-2.588 1.053,-2.93 0.593,-3.166 0.134,-3.404 -0.485,-3.523 -1.264,-3.523 c -0.759,0 -1.33,0.082 -1.709,0.246 -0.381,0.166 -0.57,0.466 -0.57,0.904 0,0.297 0.09,0.527 0.271,0.687 0.18,0.163 0.448,0.245 0.801,0.245 0.14,0 0.277,-0.02 0.41,-0.059 0.164,-0.037 0.306,-0.057 0.426,-0.057 0.298,0 0.532,0.043 0.704,0.133 0.17,0.088 0.324,0.242 0.46,0.461 C -0.335,-0.746 -0.178,-0.424 0,0"
             style="fill:#403408;fill-opacity:1;fill-rule:nonzero;stroke:none"
             id="path602"
             inkscape:connector-curvature="0" /></g><g
           id="g604"
           transform="translate(416.7031,35.166)"><path
             d="m 0,0 h 0.619 v 0.777 c 0,0.815 0.1,1.457 0.307,1.938 0.203,0.478 0.554,0.826 1.047,1.045 0.49,0.217 1.162,0.326 2.015,0.326 1.52,0 2.274,-0.367 2.274,-1.113 C 6.262,2.734 6.182,2.527 6.021,2.357 5.867,2.188 5.678,2.102 5.463,2.102 5.363,2.102 5.186,2.119 4.936,2.16 4.699,2.193 4.484,2.217 4.312,2.217 3.846,2.217 3.547,2.076 3.408,1.801 3.281,1.525 3.213,1.133 3.213,0.617 V 0 h 0.633 c 0.99,0 1.48,-0.297 1.48,-0.896 0,-0.418 -0.127,-0.69 -0.392,-0.805 -0.262,-0.113 -0.623,-0.17 -1.088,-0.17 H 3.213 v -6.871 c 0,-0.512 -0.121,-0.901 -0.369,-1.168 -0.242,-0.274 -0.555,-0.406 -0.944,-0.406 -0.367,0 -0.67,0.132 -0.918,0.406 -0.244,0.267 -0.363,0.656 -0.363,1.168 v 6.871 h -0.715 c -0.388,0 -0.681,0.084 -0.892,0.262 -0.209,0.17 -0.315,0.398 -0.315,0.677 C -1.303,-0.309 -0.869,0 0,0"
             style="fill:#403408;fill-opacity:1;fill-rule:nonzero;stroke:none"
             id="path606"
             inkscape:connector-curvature="0" /></g><g
           id="g608"
           transform="translate(425.1934,28.5918)"><path
             d="m 0,0 v -2.168 c 0,-0.523 -0.133,-0.92 -0.375,-1.18 -0.246,-0.265 -0.559,-0.394 -0.937,-0.394 -0.381,0 -0.688,0.131 -0.926,0.4 -0.237,0.264 -0.362,0.656 -0.362,1.174 v 7.223 c 0,1.166 0.42,1.748 1.262,1.748 0.434,0 0.742,-0.135 0.934,-0.408 0.189,-0.274 0.295,-0.674 0.316,-1.208 0.309,0.534 0.625,0.934 0.949,1.208 0.332,0.273 0.762,0.408 1.309,0.408 0.549,0 1.072,-0.135 1.586,-0.408 C 4.271,6.121 4.527,5.758 4.527,5.311 4.527,4.996 4.416,4.73 4.201,4.529 3.98,4.32 3.746,4.217 3.494,4.217 3.395,4.217 3.164,4.279 2.803,4.396 2.438,4.51 2.113,4.57 1.84,4.57 1.459,4.57 1.146,4.467 0.908,4.271 0.666,4.066 0.477,3.775 0.344,3.385 0.215,2.99 0.125,2.52 0.07,1.98 0.021,1.439 0,0.777 0,0"
             style="fill:#403408;fill-opacity:1;fill-rule:nonzero;stroke:none"
             id="path610"
             inkscape:connector-curvature="0" /></g><g
           id="g612"
           transform="translate(432.0391,30.959)"><path
             d="M 0,0 H 4.701 C 4.639,0.885 4.404,1.549 3.988,1.986 3.57,2.428 3.029,2.646 2.348,2.646 1.701,2.646 1.17,2.426 0.756,1.977 0.342,1.531 0.088,0.873 0,0 M 5.074,-1.475 H 0 c 0.01,-0.588 0.125,-1.111 0.355,-1.558 0.235,-0.447 0.54,-0.787 0.924,-1.018 0.385,-0.226 0.805,-0.34 1.27,-0.34 0.31,0 0.592,0.034 0.849,0.112 0.254,0.07 0.504,0.185 0.744,0.341 0.243,0.153 0.461,0.319 0.665,0.5 0.203,0.174 0.466,0.417 0.791,0.719 0.134,0.114 0.324,0.174 0.568,0.174 0.268,0 0.48,-0.074 0.648,-0.223 0.166,-0.146 0.245,-0.349 0.245,-0.617 0,-0.234 -0.09,-0.508 -0.268,-0.818 C 6.603,-4.521 6.328,-4.82 5.955,-5.109 5.58,-5.395 5.115,-5.637 4.557,-5.824 3.998,-6.014 3.352,-6.109 2.625,-6.109 c -1.67,0 -2.963,0.472 -3.887,1.422 -0.924,0.951 -1.39,2.242 -1.39,3.867 0,0.767 0.117,1.478 0.347,2.134 0.225,0.659 0.557,1.217 0.998,1.688 0.436,0.471 0.971,0.828 1.614,1.078 0.636,0.25 1.345,0.375 2.127,0.375 1.011,0 1.88,-0.215 2.607,-0.646 C 5.764,3.387 6.314,2.832 6.67,2.154 7.031,1.475 7.211,0.787 7.211,0.08 7.211,-0.568 7.023,-0.99 6.65,-1.186 6.277,-1.379 5.752,-1.475 5.074,-1.475"
             style="fill:#403408;fill-opacity:1;fill-rule:nonzero;stroke:none"
             id="path614"
             inkscape:connector-curvature="0" /></g><g
           id="g616"
           transform="translate(442.8281,30.959)"><path
             d="M 0,0 H 4.701 C 4.637,0.885 4.396,1.549 3.986,1.986 3.564,2.428 3.023,2.646 2.344,2.646 1.697,2.646 1.168,2.426 0.75,1.977 0.338,1.531 0.084,0.873 0,0 M 5.072,-1.475 H 0 c 0.006,-0.588 0.125,-1.111 0.353,-1.558 0.233,-0.447 0.54,-0.787 0.922,-1.018 0.383,-0.226 0.805,-0.34 1.272,-0.34 0.306,0 0.592,0.034 0.844,0.112 0.259,0.07 0.505,0.185 0.75,0.341 0.242,0.153 0.461,0.319 0.664,0.5 0.199,0.174 0.465,0.417 0.789,0.719 0.134,0.114 0.326,0.174 0.568,0.174 0.268,0 0.483,-0.074 0.65,-0.223 0.165,-0.146 0.241,-0.349 0.241,-0.617 0,-0.234 -0.088,-0.508 -0.274,-0.818 C 6.602,-4.521 6.324,-4.82 5.949,-5.109 5.578,-5.395 5.109,-5.637 4.553,-5.824 3.996,-6.014 3.346,-6.109 2.619,-6.109 c -1.668,0 -2.959,0.472 -3.887,1.422 -0.923,0.951 -1.388,2.242 -1.388,3.867 0,0.767 0.115,1.478 0.347,2.134 0.227,0.659 0.559,1.217 0.997,1.688 C -0.877,3.473 -0.34,3.83 0.301,4.08 0.939,4.33 1.652,4.455 2.43,4.455 3.439,4.455 4.309,4.24 5.043,3.809 5.764,3.387 6.309,2.832 6.664,2.154 7.023,1.475 7.209,0.787 7.209,0.08 7.209,-0.568 7.018,-0.99 6.648,-1.186 6.273,-1.379 5.748,-1.475 5.072,-1.475"
             style="fill:#403408;fill-opacity:1;fill-rule:nonzero;stroke:none"
             id="path618"
             inkscape:connector-curvature="0" /></g><g
           id="g620"
           transform="translate(458.6641,30.168)"><path
             d="m 0,0 c 0,0.686 -0.105,1.273 -0.315,1.764 -0.208,0.492 -0.497,0.867 -0.865,1.127 -0.367,0.263 -0.783,0.396 -1.232,0.396 -0.715,0 -1.318,-0.283 -1.809,-0.844 -0.492,-0.566 -0.74,-1.394 -0.74,-2.492 0,-1.027 0.244,-1.834 0.736,-2.406 0.487,-0.574 1.086,-0.859 1.813,-0.859 0.428,0 0.83,0.126 1.197,0.373 0.371,0.252 0.664,0.627 0.883,1.127 C -0.111,-1.312 0,-0.707 0,0 M -5.084,3.768 V 3.457 c 0.486,0.602 0.994,1.043 1.525,1.324 0.518,0.285 1.118,0.428 1.782,0.428 C -0.983,5.209 -0.242,5 0.43,4.592 1.102,4.178 1.629,3.576 2.02,2.785 2.408,1.99 2.605,1.055 2.605,-0.029 2.605,-0.824 2.492,-1.561 2.27,-2.23 2.045,-2.898 1.732,-3.457 1.34,-3.91 0.947,-4.359 0.484,-4.711 -0.049,-4.955 -0.592,-5.197 -1.16,-5.318 -1.777,-5.318 c -0.739,0 -1.364,0.148 -1.866,0.447 -0.502,0.291 -0.982,0.732 -1.441,1.305 v -3.893 c 0,-1.135 -0.416,-1.709 -1.244,-1.709 -0.49,0 -0.809,0.147 -0.971,0.439 -0.152,0.299 -0.234,0.723 -0.234,1.292 V 3.756 c 0,0.494 0.107,0.859 0.32,1.107 0.215,0.239 0.512,0.364 0.885,0.364 0.369,0 0.666,-0.125 0.896,-0.373 0.235,-0.254 0.348,-0.612 0.348,-1.086"
             style="fill:#403408;fill-opacity:1;fill-rule:nonzero;stroke:none"
             id="path622"
             inkscape:connector-curvature="0" /></g><g
           id="g624"
           transform="translate(465.1641,33.9238)"><path
             d="m 0,0 v -7.502 c 0,-0.516 -0.123,-0.908 -0.369,-1.172 -0.25,-0.269 -0.561,-0.4 -0.942,-0.4 -0.38,0 -0.685,0.133 -0.927,0.406 -0.235,0.275 -0.356,0.664 -0.356,1.166 v 7.428 c 0,0.51 0.121,0.894 0.356,1.154 0.242,0.264 0.547,0.391 0.927,0.391 0.381,0 0.692,-0.127 0.942,-0.391 C -0.123,0.82 0,0.457 0,0 m -1.283,2.678 c -0.364,0 -0.67,0.115 -0.924,0.336 -0.26,0.222 -0.387,0.531 -0.387,0.935 0,0.369 0.131,0.67 0.397,0.91 0.261,0.235 0.566,0.356 0.914,0.356 0.34,0 0.635,-0.106 0.892,-0.319 C -0.131,4.678 0,4.361 0,3.949 0,3.551 -0.127,3.238 -0.377,3.014 -0.631,2.793 -0.932,2.678 -1.283,2.678"
             style="fill:#403408;fill-opacity:1;fill-rule:nonzero;stroke:none"
             id="path626"
             inkscape:connector-curvature="0" /></g><g
           id="g628"
           transform="translate(473.5234,26.0332)"><path
             d="M 0,0 -2.283,3.766 -3.691,2.438 V 0.371 c 0,-0.498 -0.133,-0.881 -0.397,-1.148 -0.258,-0.274 -0.566,-0.407 -0.906,-0.407 -0.398,0 -0.715,0.131 -0.941,0.401 -0.227,0.263 -0.344,0.656 -0.344,1.174 v 11.062 c 0,0.574 0.115,1.012 0.332,1.315 0.222,0.304 0.545,0.451 0.953,0.451 0.398,0 0.713,-0.137 0.949,-0.41 0.235,-0.272 0.354,-0.674 0.354,-1.204 V 5.312 l 2.916,3.063 c 0.361,0.377 0.633,0.641 0.826,0.779 0.189,0.139 0.42,0.207 0.689,0.207 0.326,0 0.594,-0.103 0.817,-0.308 C 1.768,8.848 1.877,8.588 1.877,8.279 1.877,7.9 1.523,7.391 0.822,6.758 L -0.555,5.496 2.104,1.312 C 2.297,1 2.443,0.77 2.527,0.607 2.611,0.447 2.658,0.287 2.658,0.145 2.658,-0.268 2.543,-0.59 2.316,-0.83 2.092,-1.066 1.793,-1.184 1.432,-1.184 c -0.317,0 -0.565,0.08 -0.735,0.256 C 0.527,-0.756 0.291,-0.445 0,0"
             style="fill:#403408;fill-opacity:1;fill-rule:nonzero;stroke:none"
             id="path630"
             inkscape:connector-curvature="0" /></g><g
           id="g632"
           transform="translate(479.1602,24.8496)"><path
             d="m 0,0 c -0.393,0 -0.729,0.125 -1.014,0.381 -0.285,0.248 -0.429,0.605 -0.429,1.064 0,0.385 0.138,0.719 0.41,0.995 0.275,0.279 0.607,0.419 1.008,0.419 0.398,0 0.736,-0.14 1.023,-0.412 C 1.277,2.172 1.42,1.834 1.42,1.445 1.42,0.992 1.277,0.637 0.998,0.385 0.711,0.125 0.379,0 0,0"
             style="fill:#403408;fill-opacity:1;fill-rule:nonzero;stroke:none"
             id="path634"
             inkscape:connector-curvature="0" /></g><g
           id="g636"
           transform="translate(492.0586,28.0586)"><path
             d="m 0,0 c 0,-0.32 -0.098,-0.668 -0.291,-1.033 -0.191,-0.371 -0.488,-0.719 -0.887,-1.051 -0.394,-0.332 -0.89,-0.602 -1.494,-0.803 -0.601,-0.203 -1.281,-0.306 -2.031,-0.306 -1.606,0 -2.858,0.468 -3.758,1.4 -0.894,0.936 -1.346,2.189 -1.346,3.76 0,1.068 0.205,2.006 0.619,2.824 0.409,0.815 1.004,1.447 1.782,1.895 0.779,0.447 1.716,0.67 2.795,0.67 0.673,0 1.287,-0.098 1.851,-0.295 0.561,-0.196 1.033,-0.452 1.426,-0.76 0.387,-0.315 0.686,-0.643 0.889,-0.992 0.207,-0.352 0.308,-0.68 0.308,-0.987 C -0.137,4.014 -0.25,3.75 -0.48,3.535 -0.715,3.32 -0.996,3.211 -1.318,3.211 c -0.219,0 -0.399,0.057 -0.541,0.166 -0.145,0.111 -0.305,0.289 -0.479,0.541 -0.318,0.479 -0.646,0.842 -0.996,1.08 -0.344,0.242 -0.781,0.361 -1.314,0.361 -0.762,0 -1.383,-0.296 -1.854,-0.896 -0.467,-0.596 -0.703,-1.42 -0.703,-2.455 0,-0.488 0.062,-0.94 0.183,-1.348 0.118,-0.406 0.292,-0.756 0.52,-1.043 0.23,-0.287 0.504,-0.506 0.826,-0.654 0.324,-0.154 0.682,-0.227 1.065,-0.227 0.521,0 0.966,0.121 1.336,0.362 0.377,0.24 0.703,0.607 0.986,1.101 0.158,0.291 0.328,0.518 0.51,0.684 0.181,0.164 0.408,0.25 0.675,0.25 0.317,0 0.581,-0.123 0.786,-0.363 C -0.107,0.529 0,0.271 0,0"
             style="fill:#403408;fill-opacity:1;fill-rule:nonzero;stroke:none"
             id="path638"
             inkscape:connector-curvature="0" /></g><g
           id="g640"
           transform="translate(500.6445,30.1191)"><path
             d="M 0,0 C 0,1.059 -0.234,1.881 -0.697,2.469 -1.16,3.065 -1.787,3.358 -2.572,3.358 -3.08,3.358 -3.527,3.225 -3.914,2.963 -4.301,2.701 -4.596,2.315 -4.805,1.799 -5.014,1.285 -5.119,0.686 -5.119,0 c 0,-0.678 0.102,-1.267 0.309,-1.773 0.208,-0.51 0.501,-0.897 0.886,-1.166 0.385,-0.266 0.834,-0.405 1.352,-0.405 0.785,0 1.412,0.297 1.875,0.893 C -0.234,-1.861 0,-1.041 0,0 m 2.603,0 c 0,-0.77 -0.12,-1.484 -0.355,-2.139 -0.246,-0.652 -0.592,-1.213 -1.049,-1.677 -0.455,-0.469 -1.002,-0.829 -1.633,-1.08 -0.638,-0.249 -1.349,-0.375 -2.138,-0.375 -0.785,0 -1.492,0.126 -2.121,0.382 -0.623,0.248 -1.17,0.614 -1.625,1.082 -0.461,0.477 -0.809,1.034 -1.053,1.676 -0.229,0.645 -0.35,1.356 -0.35,2.131 0,0.787 0.123,1.506 0.358,2.158 0.242,0.655 0.59,1.213 1.039,1.674 0.451,0.461 0.994,0.817 1.631,1.07 0.644,0.248 1.349,0.373 2.121,0.373 0.785,0 1.498,-0.125 2.138,-0.38 C 0.205,4.643 0.75,4.279 1.211,3.815 1.668,3.34 2.014,2.785 2.25,2.143 2.484,1.492 2.603,0.783 2.603,0"
             style="fill:#403408;fill-opacity:1;fill-rule:nonzero;stroke:none"
             id="path642"
             inkscape:connector-curvature="0" /></g><g
           id="g644"
           transform="translate(513.1406,29.9297)"><path
             d="m 0,0 v -3.447 c 0,-0.547 -0.121,-0.951 -0.369,-1.227 -0.25,-0.273 -0.572,-0.408 -0.979,-0.408 -0.392,0 -0.712,0.135 -0.951,0.408 -0.246,0.276 -0.371,0.68 -0.371,1.227 v 4.131 c 0,0.654 -0.021,1.162 -0.064,1.525 -0.045,0.354 -0.168,0.654 -0.362,0.883 -0.197,0.234 -0.509,0.351 -0.931,0.351 -0.85,0 -1.407,-0.291 -1.676,-0.88 C -5.971,1.986 -6.109,1.148 -6.109,0.055 v -3.502 c 0,-0.537 -0.123,-0.946 -0.362,-1.223 -0.25,-0.273 -0.568,-0.412 -0.964,-0.412 -0.397,0 -0.717,0.139 -0.967,0.412 -0.252,0.277 -0.377,0.686 -0.377,1.223 v 7.42 c 0,0.488 0.111,0.859 0.336,1.111 0.228,0.256 0.525,0.381 0.888,0.381 0.358,0 0.653,-0.123 0.893,-0.356 0.236,-0.238 0.353,-0.566 0.353,-0.984 V 3.881 c 0.454,0.535 0.936,0.931 1.446,1.18 0.515,0.259 1.082,0.386 1.713,0.386 0.65,0 1.211,-0.131 1.677,-0.39 0.469,-0.26 0.854,-0.655 1.161,-1.176 0.439,0.527 0.908,0.922 1.41,1.18 0.5,0.257 1.052,0.386 1.662,0.386 0.705,0 1.32,-0.142 1.834,-0.42 C 5.104,4.75 5.486,4.348 5.74,3.832 5.961,3.359 6.07,2.623 6.07,1.615 V -3.447 C 6.07,-3.994 5.949,-4.398 5.703,-4.674 5.457,-4.947 5.129,-5.082 4.725,-5.082 4.33,-5.082 4.01,-4.943 3.76,-4.67 3.51,-4.393 3.383,-3.984 3.383,-3.447 V 0.914 C 3.383,1.473 3.359,1.918 3.315,2.252 3.268,2.59 3.137,2.873 2.932,3.1 2.719,3.326 2.4,3.443 1.979,3.443 1.637,3.443 1.312,3.336 1.004,3.135 0.697,2.938 0.457,2.658 0.283,2.322 0.098,1.885 0,1.109 0,0"
             style="fill:#403408;fill-opacity:1;fill-rule:nonzero;stroke:none"
             id="path646"
             inkscape:connector-curvature="0" /></g><g
           id="g648"
           transform="translate(392.4355,30.748)"><path
             d="M 0,0 C -0.002,0.004 -0.002,0.01 -0.002,0.018 -0.002,0.01 -0.002,0.004 0,0"
             style="fill:#403408;fill-opacity:1;fill-rule:nonzero;stroke:none"
             id="path650"
             inkscape:connector-curvature="0" /></g><g
           id="g652"
           transform="translate(392.5664,29.918)"><path
             d="M 0,0 H 0.002 C -0.047,0.236 -0.086,0.471 -0.115,0.703 -0.086,0.469 -0.047,0.234 0,0"
             style="fill:#403408;fill-opacity:1;fill-rule:nonzero;stroke:none"
             id="path654"
             inkscape:connector-curvature="0" /></g><g
           id="g656"
           transform="translate(393.4248,27.5117)"><path
             d="M 0,0 C -0.006,0.01 -0.011,0.021 -0.017,0.033 -0.011,0.021 -0.006,0.01 0,0"
             style="fill:#403408;fill-opacity:1;fill-rule:nonzero;stroke:none"
             id="path658"
             inkscape:connector-curvature="0" /></g><g
           id="g660"
           transform="translate(393.3428,27.6719)"><path
             d="M 0,0 C -0.023,0.045 -0.044,0.09 -0.066,0.135 -0.044,0.088 -0.023,0.045 0,0"
             style="fill:#403408;fill-opacity:1;fill-rule:nonzero;stroke:none"
             id="path662"
             inkscape:connector-curvature="0" /></g><g
           id="g664"
           transform="translate(392.8076,28.9922)"><path
             d="M 0,0 C 0.127,-0.4 0.28,-0.789 0.457,-1.158 0.276,-0.781 0.127,-0.393 0.003,0 Z"
             style="fill:#403408;fill-opacity:1;fill-rule:nonzero;stroke:none"
             id="path666"
             inkscape:connector-curvature="0" /></g><g
           id="g668"
           transform="translate(402.4727,40.6836)"><path
             d="m 0,0 c 0.502,0 0.871,-0.039 1.295,-0.111 l 0.121,0.763 c 0,0 -1.172,0.36 -2.711,0.235 l -0.121,0.414 c 0.479,0.101 0.838,0.527 0.838,1.035 0,0.582 -0.475,1.053 -1.057,1.053 -0.584,0 -1.056,-0.471 -1.056,-1.053 0,-0.508 0.359,-0.934 0.836,-1.035 L -1.721,0.838 C -3.355,0.613 -4.656,-0.023 -4.656,-0.023 l 0.23,-0.706 c 0.988,0.329 1.846,0.53 2.624,0.614 C -1.04,-0.035 -0.467,0 0,0"
             style="fill:#403408;fill-opacity:1;fill-rule:nonzero;stroke:none"
             id="path670"
             inkscape:connector-curvature="0" /></g><g
           id="g672"
           transform="translate(393.4053,36.8262)"><path
             d="M 0,0 0.006,0.008 C 0.044,0.057 0.081,0.104 0.119,0.15 l -0.313,0.225 -0.488,0.357 c -0.027,-0.039 -0.795,-0.744 -1.401,-2.048 -0.025,0.041 -0.056,0.082 -0.09,0.119 -0.182,0.199 -0.435,0.301 -0.758,0.295 h -0.015 c -0.2,0 -0.336,0.066 -0.426,0.146 0.089,0.113 0.142,0.256 0.142,0.414 0,0.367 -0.299,0.668 -0.669,0.668 -0.369,0 -0.668,-0.301 -0.668,-0.668 0,-0.371 0.299,-0.67 0.668,-0.67 0.058,0 0.113,0.01 0.167,0.022 0.165,-0.184 0.425,-0.342 0.807,-0.334 0.197,0.002 0.342,-0.049 0.438,-0.156 0.111,-0.122 0.148,-0.295 0.16,-0.428 -10e-4,-0.002 -10e-4,-0.004 -0.003,-0.004 -0.436,-1.19 -0.312,-2.67 -0.312,-2.67 l 1.058,-0.043 c 0.022,0.539 0.099,1.482 0.372,2.23 C -0.687,-0.945 -0.026,-0.039 0,0"
             style="fill:#403408;fill-opacity:1;fill-rule:nonzero;stroke:none"
             id="path674"
             inkscape:connector-curvature="0" /></g><g
           id="g676"
           transform="translate(411.6719,39.8008)"><path
             d="m 0,0 c -0.367,0 -0.668,-0.299 -0.668,-0.67 0,-0.057 0.008,-0.111 0.023,-0.164 -0.183,-0.166 -0.343,-0.428 -0.337,-0.811 0.004,-0.197 -0.047,-0.339 -0.155,-0.437 -0.084,-0.074 -0.191,-0.115 -0.295,-0.141 -0.787,1.104 -1.756,1.776 -1.756,1.776 L -3.947,-1.26 c 0.574,-0.521 1.16,-1.176 1.728,-1.99 0.395,-0.564 0.799,-1.291 1.137,-2.016 l 1.023,0.487 c 0,0 -0.466,1.156 -1.125,2.191 0.114,0.041 0.229,0.104 0.331,0.193 0.201,0.18 0.298,0.436 0.292,0.758 -0.001,0.207 0.067,0.348 0.149,0.442 0.115,-0.088 0.258,-0.143 0.412,-0.143 0.371,0 0.67,0.299 0.67,0.668 C 0.67,-0.299 0.371,0 0,0"
             style="fill:#403408;fill-opacity:1;fill-rule:nonzero;stroke:none"
             id="path678"
             inkscape:connector-curvature="0" /></g><g
           id="g680"
           transform="translate(409.0156,30.5977)"><path
             d="m 0,0 c -1.41,-0.686 -3.729,-1.594 -6.781,-2.02 -1.199,-0.166 -2.36,-0.226 -3.429,-0.226 -1.391,0 -2.62,0.103 -3.562,0.223 -1.077,0.134 -1.917,0.3 -2.433,0.418 0.124,-0.393 0.273,-0.782 0.454,-1.159 0.003,-0.009 0.008,-0.021 0.013,-0.027 0.021,-0.045 0.043,-0.09 0.065,-0.135 0.022,-0.043 0.043,-0.086 0.066,-0.127 0.005,-0.011 0.01,-0.023 0.016,-0.033 0.303,-0.57 0.667,-1.094 1.081,-1.549 1.44,-1.574 2.906,-1.824 2.92,-1.826 l 0.024,-0.002 0.021,-0.008 c 0.014,-0.006 1.315,-0.425 3.291,-0.425 1.945,0 3.856,0.392 5.674,1.167 1.348,0.69 2.623,1.737 3.254,2.67 0.488,0.723 0.842,1.493 1.051,2.293 C 1.836,-0.34 1.924,0.342 1.871,1.061 1.475,0.793 0.848,0.414 0,0"
             style="fill:#403408;fill-opacity:1;fill-rule:nonzero;stroke:none"
             id="path682"
             inkscape:connector-curvature="0" /></g><g
           id="g684"
           transform="translate(397.8857,37.2285)"><path
             d="m 0,0 c 1.557,0 2.817,-1.262 2.817,-2.818 0,-1.555 -1.26,-2.815 -2.817,-2.815 -1.555,0 -2.815,1.26 -2.815,2.815 C -2.815,-1.262 -1.555,0 0,0 m 8.241,-0.07 c 0.961,0 1.744,-0.782 1.744,-1.742 0,-0.963 -0.783,-1.745 -1.744,-1.745 -0.961,0 -1.742,0.782 -1.742,1.745 0,0.96 0.781,1.742 1.742,1.742 M -4.028,-0.736 C -4.069,-0.797 -4.681,-1.662 -5.163,-2.99 -5.524,-3.984 -5.509,-5.434 -5.509,-5.449 v -0.004 c 0,-0.34 0.02,-0.676 0.057,-1.01 0,-0.008 0,-0.014 0.002,-0.017 0.004,-0.043 0.012,-0.084 0.016,-0.127 0.029,-0.233 0.068,-0.467 0.118,-0.704 0.7,-0.177 4.878,-1.152 9.548,-0.501 2.927,0.408 5.15,1.273 6.5,1.927 1.121,0.543 1.841,1.035 2.119,1.239 C 12.573,-3.619 11.81,-2.006 11.108,-1 9.103,1.865 6.941,2.6 5.831,2.783 5.407,2.852 5.067,2.893 4.587,2.893 4.14,2.893 3.585,2.855 2.845,2.777 2.101,2.701 1.273,2.506 0.312,2.182 -1.036,1.73 -2.255,1.023 -3.215,0.135 L -3.247,0.104 c -0.143,-0.131 -0.439,-0.407 -0.781,-0.84"
             style="fill:#403408;fill-opacity:1;fill-rule:nonzero;stroke:none"
             id="path686"
             inkscape:connector-curvature="0" /></g></g></g></g></svg>