<?xml version="1.0" encoding="UTF-8" standalone="no"?>
<!-- Created with Inkscape (http://www.inkscape.org/) -->

<svg
   xmlns:dc="http://purl.org/dc/elements/1.1/"
   xmlns:cc="http://creativecommons.org/ns#"
   xmlns:rdf="http://www.w3.org/1999/02/22-rdf-syntax-ns#"
   xmlns:svg="http://www.w3.org/2000/svg"
   xmlns="http://www.w3.org/2000/svg"
   xmlns:sodipodi="http://sodipodi.sourceforge.net/DTD/sodipodi-0.dtd"
   xmlns:inkscape="http://www.inkscape.org/namespaces/inkscape"
   width="57mm"
   height="89mm"
   viewBox="0 0 57 89"
   version="1.1"
   id="svg8"
   inkscape:version="0.92.4 (5da689c313, 2019-01-14)"
   sodipodi:docname="designTrasCartaGrande.svg">
  <defs
     id="defs2">
    <filter
       inkscape:collect="always"
       style="color-interpolation-filters:sRGB"
       id="filter1373"
       x="-1.2"
       width="3.4000001"
       y="-1.2"
       height="3.4000001">
      <feGaussianBlur
         inkscape:collect="always"
         stdDeviation="8.8198938"
         id="feGaussianBlur1375" />
    </filter>
  </defs>
  <sodipodi:namedview
     id="base"
     pagecolor="#ffffff"
     bordercolor="#666666"
     borderopacity="1.0"
     inkscape:pageopacity="0.0"
     inkscape:pageshadow="2"
     inkscape:zoom="0.98994949"
     inkscape:cx="-35.423655"
     inkscape:cy="189.36281"
     inkscape:document-units="mm"
     inkscape:current-layer="layer1"
     showgrid="false"
     showborder="false"
     inkscape:window-width="1366"
     inkscape:window-height="706"
     inkscape:window-x="-8"
     inkscape:window-y="-8"
     inkscape:window-maximized="1"
     showguides="true"
     inkscape:guide-bbox="true"
     inkscape:object-paths="true"
     inkscape:snap-intersection-paths="true"
     inkscape:snap-smooth-nodes="true"
     inkscape:snap-midpoints="true"
     inkscape:snap-object-midpoints="true"
     inkscape:snap-center="true"
     inkscape:snap-nodes="false"
     inkscape:pagecheckerboard="true" />
  <metadata
     id="metadata5">
    <rdf:RDF>
      <cc:Work
         rdf:about="">
        <dc:format>image/svg+xml</dc:format>
        <dc:type
           rdf:resource="http://purl.org/dc/dcmitype/StillImage" />
        <dc:title />
      </cc:Work>
    </rdf:RDF>
  </metadata>
  <g
     inkscape:label="Camada 1"
     inkscape:groupmode="layer"
     id="layer1"
     transform="translate(115.31551,87.911102)">
    <rect
       style="opacity:1;fill:#000000;fill-opacity:1;stroke:none;stroke-width:2;stroke-linecap:round;stroke-linejoin:bevel;stroke-miterlimit:4;stroke-dasharray:none;stroke-opacity:1;paint-order:stroke fill markers"
       id="rect820"
       width="57"
       height="89"
       x="-115.31551"
       y="-87.911102"
       ry="6.5" />
    <path
       transform="matrix(2.0784315,0,0,2.0784315,93.624577,46.815892)"
       style="opacity:1;fill:#ffffff;fill-opacity:1;stroke:none;stroke-width:2;stroke-linecap:round;stroke-linejoin:bevel;stroke-miterlimit:4;stroke-dasharray:none;stroke-opacity:1;paint-order:stroke markers fill;filter:url(#filter1373)"
       d="m -77.99562,-43.411098 a 8.8198938,8.8198938 0 0 1 -8.819894,8.819893 8.8198938,8.8198938 0 0 1 -8.819893,-8.819893 8.8198938,8.8198938 0 0 1 8.819893,-8.819894 8.8198938,8.8198938 0 0 1 8.819894,8.819894 z"
       id="path827"
       inkscape:connector-curvature="0" />
    <g
       id="g830"
       transform="matrix(1.1234655,-0.30103167,0.30103167,1.1234655,-39.158483,-211.36775)"
       style="fill:#000000">
      <g
         transform="matrix(0.14560124,0,0,0.14560124,-70.012849,108.65043)"
         id="text11"
         style="font-style:normal;font-variant:normal;font-weight:normal;font-stretch:normal;font-size:109.76810455px;line-height:125%;font-family:'Freehand521 BT';-inkscape-font-specification:'Freehand521 BT';letter-spacing:0px;word-spacing:0px;fill:#000000;fill-opacity:1;stroke:none;stroke-width:2.74420238px;stroke-linecap:butt;stroke-linejoin:miter;stroke-opacity:1"
         aria-label="1900">
        <path
           inkscape:connector-curvature="0"
           id="path17"
           style="font-style:normal;font-variant:normal;font-weight:normal;font-stretch:normal;font-family:'Freehand521 BT';-inkscape-font-specification:'Freehand521 BT';fill:#000000;stroke-width:2.74420238px"
           d="m -133.79613,108.3298 q -4.55581,3.37665 -8.09326,5.35977 -3.53745,1.98311 -4.82379,1.98311 -1.23275,0 -2.84068,-2.09031 -1.55433,-2.09031 -1.55433,-3.75184 0,-1.66153 9.2188,-7.55728 l 1.76873,-1.07195 q 1.23274,-0.80397 3.43025,-2.197506 10.12997,-6.378127 12.70266,-6.378127 2.03671,0 3.53745,1.071954 1.50073,1.071954 1.50073,2.519092 0,0.321587 -4.7702,16.668887 -4.77019,16.2937 -9.2724,33.76656 -2.03671,7.71807 -3.80544,15.54333 -1.76872,7.77167 -1.92951,8.14685 -0.58958,1.76873 -1.50074,2.25111 -0.91116,0.48238 -4.50221,0.48238 -3.64464,0 -5.19897,-0.85757 -1.50074,-0.85756 -1.50074,-2.89427 0,-2.19751 3.48385,-14.41779 3.53745,-12.27387 14.1498,-46.5764 z" />
        <path
           inkscape:connector-curvature="0"
           id="path19"
           style="font-style:normal;font-variant:normal;font-weight:normal;font-stretch:normal;font-family:'Freehand521 BT';-inkscape-font-specification:'Freehand521 BT';fill:#000000;stroke-width:2.74420238px"
           d="m -86.951737,173.82619 h -9.272403 q -1.232748,0 -1.768725,-0.21439 -0.535977,-0.21439 -0.535977,-0.75037 0,-1.28634 3.75184,-4.93098 3.751839,-3.69825 6.056541,-6.48533 5.198977,-6.27093 8.897219,-12.11308 3.698242,-5.89575 5.681357,-11.04113 -3.483851,2.03672 -6.753311,3.00148 -3.215863,0.96475 -6.646116,0.96475 -7.128495,0 -11.201921,-4.71659 -4.019827,-4.7702 -4.019827,-13.07784 0,-3.80544 1.33994,-8.36125 1.39354,-4.6094 3.912635,-9.11161 3.96623,-7.074895 9.540392,-10.773137 5.627759,-3.698241 12.273875,-3.698241 9.486794,0 14.846564,6.324529 5.359771,6.270929 5.359771,17.472849 0,10.50515 -5.627759,24.60135 -5.627759,14.0962 -14.578576,25.13733 -3.537449,4.5558 -6.002944,6.16373 -2.411897,1.60793 -5.252575,1.60793 z m 4.127023,-40.89505 q 3.323058,0 7.235691,-1.66153 3.912633,-1.66152 4.877391,-3.21586 1.071954,-1.71513 1.983115,-5.62776 0.964759,-3.91263 0.964759,-7.39648 0,-5.84215 -2.036713,-9.11161 -1.983115,-3.32306 -5.520564,-3.32306 -6.002943,0 -10.451552,6.64612 -4.395012,6.59251 -4.395012,15.22175 0,4.07342 1.875919,6.27093 1.929518,2.1975 5.466966,2.1975 z" />
        <path
           inkscape:connector-curvature="0"
           id="path21"
           style="font-style:normal;font-variant:normal;font-weight:normal;font-stretch:normal;font-family:'Freehand521 BT';-inkscape-font-specification:'Freehand521 BT';fill:#000000;stroke-width:2.74420238px"
           d="m -28.42304,173.82619 q -9.165208,0 -14.417783,-7.07489 -5.252575,-7.1285 -5.252575,-19.56317 0,-9.05801 3.001471,-18.27682 3.05507,-9.2188 8.843622,-17.74084 5.734955,-8.52203 11.791496,-13.560216 6.056541,-5.091782 10.183564,-5.091782 3.108667,0 5.3597707,1.768724 2.3047014,1.715127 2.3047014,3.912633 0,0.750368 -4.6630001,4.395011 -4.609403,3.64464 -8.254047,7.82527 -7.771668,8.79002 -12.16668,19.93834 -4.341414,11.09473 -4.341414,21.97506 0,5.73496 1.822322,8.57564 1.822322,2.84067 5.466966,2.84067 2.947874,0 5.520564,-2.1439 2.626288,-2.19751 5.198977,-6.75331 3.483851,-6.16374 5.359771,-13.66742 1.929518,-7.55728 1.929518,-15.16815 0,-3.59105 -0.48238,-8.41484 -0.428781,-4.82379 -0.428781,-6.00294 0,-3.75184 3.0550689,-6.37813 3.1086671,-2.62629 6.2709318,-2.62629 2.46549453,0 3.4302533,3.21586 0.9647587,3.21587 0.9647587,11.30912 0,23.4758 -9.2188057,40.09108 -9.165208,16.61529 -21.27829,16.61529 z" />
        <path
           inkscape:connector-curvature="0"
           id="path23"
           style="font-style:normal;font-variant:normal;font-weight:normal;font-stretch:normal;font-family:'Freehand521 BT';-inkscape-font-specification:'Freehand521 BT';fill:#000000;stroke-width:2.74420238px"
           d="m 29.462481,173.82619 q -9.165208,0 -14.417783,-7.07489 -5.2525754,-7.1285 -5.2525754,-19.56317 0,-9.05801 3.0014714,-18.27682 3.05507,-9.2188 8.843622,-17.74084 5.734955,-8.52203 11.791496,-13.560216 6.05654,-5.091782 10.183564,-5.091782 3.108667,0 5.359771,1.768724 2.304701,1.715127 2.304701,3.912633 0,0.750368 -4.663,4.395011 -4.609403,3.64464 -8.254047,7.82527 -7.771668,8.79002 -12.16668,19.93834 -4.341414,11.09473 -4.341414,21.97506 0,5.73496 1.822322,8.57564 1.822322,2.84067 5.466966,2.84067 2.947874,0 5.520564,-2.1439 2.626287,-2.19751 5.198977,-6.75331 3.483851,-6.16374 5.359771,-13.66742 1.929518,-7.55728 1.929518,-15.16815 0,-3.59105 -0.48238,-8.41484 -0.428781,-4.82379 -0.428781,-6.00294 0,-3.75184 3.055069,-6.37813 3.108667,-2.62629 6.270932,-2.62629 2.465494,0 3.430253,3.21586 0.964759,3.21587 0.964759,11.30912 0,23.4758 -9.218806,40.09108 -9.165208,16.61529 -21.27829,16.61529 z" />
      </g>
      <g
         transform="matrix(0.20067439,0,0,0.20067439,-61.285843,102.34604)"
         id="g94"
         style="fill:#000000">
        <path
           inkscape:connector-curvature="0"
           style="fill:#000000;stroke-width:1.31130648"
           d="m -479.11719,59.310547 c 0,0 60.63694,183.565353 -8.01758,252.812503 -68.65447,69.24704 -227.17187,20.85937 -227.17187,20.85937 0,0 2.93027,1.31507 7.76758,3.75196 37.03605,13.7275 196.48109,51.27577 243.77734,-11.0879 50.87119,-67.07749 5.40625,-210.93945 5.40625,-210.93945 0,0 64.30262,138.83416 159.30078,139.4668 94.9981,0.63264 164.09571,-111.84375 164.09571,-111.84375 0,0 -43.03508,128.87994 8.71484,182.06445 60.044035,83.5353 236.35378,24.96602 254.37891,17.28711 0.6504,-0.33921 1.56054,-0.81641 1.56054,-0.81641 0,0 -150.640237,49.94458 -224.326169,-22.63281 C -167.31679,245.65502 -114.49023,91.0625 -114.49023,91.0625 c 0,0 -64.59117,143.34998 -174.62696,142.61719 -110.03581,-0.73278 -190,-174.369143 -190,-174.369143 z"
           transform="scale(0.26458333)"
           id="path3690-5" />
        <path
           id="path90"
           d="m -125.69646,240.3884 c 0,0 16.04352,-48.56833 -2.12132,-66.88997 -18.16483,-18.32162 -60.10589,-5.51905 -60.10589,-5.51905 0,0 0.7753,-0.34794 2.05517,-0.9927 9.79912,-3.63207 51.98562,-13.56672 64.49942,2.93367 13.45967,17.74759 1.43041,55.81106 1.43041,55.81106 0,0 17.0134,-36.7332 42.148325,-36.90059 25.134912,-0.16738 43.416989,29.592 43.416989,29.592 0,0 -11.386365,-34.09949 2.305801,-48.17122 15.886651,-22.10205 62.535271,-6.6056 67.304418,-4.57388 0.172085,0.0898 0.412893,0.216 0.412893,0.216 0,0 -39.8568947,-13.2145 -59.352964,5.98827 -19.496069,19.20277 -5.519042,60.10537 -5.519042,60.10537 0,0 -17.089747,-37.92801 -46.203383,-37.73413 -29.113637,0.19388 -50.270827,46.13517 -50.270827,46.13517 z"
           style="fill:#000000;stroke-width:0.34694985"
           inkscape:connector-curvature="0" />
      </g>
    </g>
  </g>
</svg>
